<svg width="28" height="28" viewBox="0 0 28 28" fill="none" xmlns="http://www.w3.org/2000/svg">
<g clip-path="url(#clip0_1091_12836)">
<path d="M13.6 27.2C21.1 27.2 27.2 21.1 27.2 13.6C27.2 6.1 21.1 0 13.6 0C6.1 0 0 6.1 0 13.6C0 21.1 6.1 27.2 13.6 27.2Z" fill="#DE5738"/>
<path d="M22.1 22.3C16.3 22.3 10.6 22.3 4.80005 22.3C4.80005 22.2 4.80005 22.2 4.80005 22.1C4.80005 16.8 4.80005 11.6 4.80005 6.3V6.2C4.80005 6.1 4.80005 6.1 4.90005 6.1C5.70005 6.1 6.50005 6.1 7.20005 6.1C7.30005 6.1 7.30005 6.1 7.30005 6.2C7.30005 6.4 7.30005 6.6 7.30005 6.8C7.30005 7.7 8.00005 8.5 8.90005 8.6C9.80005 8.8 10.7 8.2 11 7.4C11.2 7 11.1 6.6 11.1 6.2C11.1 6.1 11.1 6 11.3 6C12.2 6 13.1 6 14 6C14.7 6 15.4 6 16.2 6C16.3 6 16.4 6 16.4 6.2C16.4 6.4 16.4 6.6 16.4 6.8C16.4 7.7 17.1 8.5 18 8.6C19 8.7 19.8 8.2 20.1 7.3C20.2 6.9 20.2 6.6 20.2 6.2C20.2 6.1 20.2 6 20.4 6C21.1 6 21.9 6 22.6 6C22.8 6 22.8 6.1 22.8 6.2C22.8 11.4 22.8 16.6 22.8 21.9C22.8 22 22.8 22 22.8 22.1C22.7 22.1 22.7 22.1 22.6 22.1C22.5 22.2 22.3 22.2 22.1 22.3ZM13.9 21C16.4 21 18.9 21 21.4 21C21.6 21 21.6 21 21.6 20.8C21.6 17.5 21.6 14.2 21.6 10.9C21.6 10.7 21.6 10.7 21.4 10.7C16.4 10.7 11.4 10.7 6.30005 10.7C6.10005 10.7 6.10005 10.7 6.10005 10.9C6.10005 14.2 6.10005 17.5 6.10005 20.8C6.10005 21 6.10005 21 6.30005 21C8.90005 21 11.4 21 13.9 21Z" fill="white"/>
<path d="M22.9001 22.2C22.7001 22.2 22.4001 22.2 22.1001 22.2C22.3001 22.1 22.5001 22.2 22.7001 22.2C22.8001 22.2 22.8001 22.2 22.9001 22.2Z" fill="white"/>
<path d="M19.6001 5.9C19.6001 6.3 19.7001 6.6 19.5001 7C19.3001 7.5 18.8001 7.9 18.2001 7.9C17.6001 7.8 17.1001 7.4 17.1001 6.8C17.0001 6.2 17.0001 5.7 17.1001 5.1C17.2001 4.5 17.7001 4 18.4001 4C19.0001 4 19.6001 4.5 19.6001 5.2C19.7001 5.4 19.6001 5.6 19.6001 5.9Z" fill="white"/>
<path d="M8.09995 5.90005C8.09995 5.50005 7.99995 5.20005 8.19995 4.80005C8.29995 4.30005 8.89995 3.90005 9.49995 4.00005C10.1 4.00005 10.5 4.50005 10.6 5.00005C10.7 5.60005 10.7 6.10005 10.6 6.70005C10.5 7.40005 9.99995 7.80005 9.29995 7.80005C8.69995 7.80005 8.09995 7.30005 8.09995 6.60005C8.09995 6.40005 8.09995 6.10005 8.09995 5.90005Z" fill="white"/>
<path d="M12.3 12C12.6 12 12.9 12 13.2 12C13.3 12 13.3 12 13.3 12.1C13.3 12.6 13.3 13.1 13.3 13.7C13.3 13.8 13.3 13.8 13.2 13.8C12.6 13.8 12 13.8 11.4 13.8C11.3 13.8 11.3 13.8 11.3 13.7C11.3 13.2 11.3 12.7 11.3 12.1C11.3 12 11.3 12 11.4 12C11.7 12.1 12 12 12.3 12Z" fill="white"/>
<path d="M15.6001 13.8C15.3001 13.8 15.0001 13.8 14.7001 13.8C14.6001 13.8 14.6001 13.8 14.6001 13.7C14.6001 13.2 14.6001 12.7 14.6001 12.1C14.6001 12 14.6001 12 14.7001 12C15.3001 12 15.9001 12 16.5001 12C16.6001 12 16.6001 12 16.6001 12.1C16.6001 12.6 16.6001 13.1 16.6001 13.6C16.6001 13.7 16.6001 13.7 16.4001 13.7C16.2001 13.8 15.9001 13.8 15.6001 13.8Z" fill="white"/>
<path d="M12.3 18.1001C12.6 18.1001 12.9 18.1001 13.2 18.1001C13.3 18.1001 13.3 18.1001 13.3 18.2001C13.3 18.7001 13.3 19.2001 13.3 19.7001C13.3 19.8001 13.3 19.8001 13.2 19.8001C12.6 19.8001 12 19.8001 11.4 19.8001C11.3 19.8001 11.3 19.8001 11.3 19.7001C11.3 19.2001 11.3 18.7001 11.3 18.2001C11.3 18.1001 11.3 18.1001 11.4 18.1001C11.7 18.1001 12 18.1001 12.3 18.1001Z" fill="white"/>
<path d="M15.6001 19.9C15.3001 19.9 15.0001 19.9 14.7001 19.9C14.6001 19.9 14.6001 19.8999 14.6001 19.7999C14.6001 19.2999 14.6001 18.7999 14.6001 18.2999C14.6001 18.1999 14.6001 18.2 14.7001 18.2C15.3001 18.2 15.9001 18.2 16.5001 18.2C16.6001 18.2 16.6001 18.1999 16.6001 18.2999C16.6001 18.7999 16.6001 19.3 16.6001 19.9C16.6001 20 16.6001 20 16.5001 20C16.2001 19.9 15.9001 19.9 15.6001 19.9Z" fill="white"/>
<path d="M18.7 13.8001C18.4 13.8001 18.0999 13.8001 17.7999 13.8001C17.6999 13.8001 17.7 13.8001 17.7 13.7001C17.7 13.2001 17.7 12.7001 17.7 12.2001C17.7 12.1001 17.6999 12.1001 17.7999 12.1001C18.3999 12.1001 19 12.1001 19.6 12.1001C19.7 12.1001 19.7 12.1001 19.7 12.2001C19.7 12.7001 19.7 13.2001 19.7 13.7001C19.7 13.8001 19.7 13.8001 19.6 13.8001C19.3 13.8001 19 13.8001 18.7 13.8001Z" fill="white"/>
<path d="M9.1001 19.9001C8.8001 19.9001 8.5001 19.9001 8.2001 19.9001C8.1001 19.9001 8.1001 19.9001 8.1001 19.8001C8.1001 19.3001 8.1001 18.8001 8.1001 18.2001C8.1001 18.1001 8.1001 18.1001 8.2001 18.1001C8.8001 18.1001 9.4001 18.1001 10.0001 18.1001C10.1001 18.1001 10.1001 18.1001 10.1001 18.2001C10.1001 18.7001 10.1001 19.2001 10.1001 19.7001C10.1001 19.8001 10.1001 19.8001 10.0001 19.8001C9.7001 19.9001 9.4001 19.9001 9.1001 19.9001Z" fill="white"/>
<path d="M18.7 19.9001C18.4 19.9001 18.0999 19.9001 17.7999 19.9001C17.6999 19.9001 17.7 19.9001 17.7 19.8001C17.7 19.3001 17.7 18.8001 17.7 18.2001C17.7 18.1001 17.6999 18.1001 17.7999 18.1001C18.3999 18.1001 19 18.1001 19.6 18.1001C19.7 18.1001 19.7 18.1001 19.7 18.2001C19.7 18.7001 19.7 19.2001 19.7 19.7001C19.7 19.8001 19.7 19.8001 19.6 19.8001C19.2 19.9001 19 19.9001 18.7 19.9001Z" fill="white"/>
<path d="M12.3 15.0001C12.6 15.0001 12.9 15.0001 13.2 15.0001C13.3 15.0001 13.3 15.0001 13.3 15.1001C13.3 15.6001 13.3 16.1001 13.3 16.6001C13.3 16.7001 13.3 16.7001 13.2 16.7001C12.6 16.7001 12 16.7001 11.4 16.7001C11.3 16.7001 11.3 16.7001 11.3 16.6001C11.3 16.1001 11.3 15.6001 11.3 15.0001C11.3 14.9001 11.4 14.9001 11.4 14.9001C11.7 15.0001 12 15.0001 12.3 15.0001Z" fill="white"/>
<path d="M15.6001 16.8001C15.3001 16.8001 15.0001 16.8001 14.7001 16.8001C14.6001 16.8001 14.6001 16.8001 14.6001 16.7001C14.6001 16.2001 14.6001 15.7001 14.6001 15.2001C14.6001 15.1001 14.6001 15.1001 14.7001 15.1001C15.3001 15.1001 15.9001 15.1001 16.5001 15.1001C16.6001 15.1001 16.6001 15.1001 16.6001 15.2001C16.6001 15.7001 16.6001 16.2001 16.6001 16.7001C16.6001 16.8001 16.6001 16.8001 16.5001 16.8001C16.2001 16.8001 15.9001 16.8001 15.6001 16.8001Z" fill="white"/>
<path d="M18.7001 16.8001C18.4001 16.8001 18.1001 16.8001 17.8001 16.8001C17.7001 16.8001 17.6001 16.8001 17.6001 16.7001C17.6001 16.2001 17.6001 15.7001 17.6001 15.2001C17.6001 15.1001 17.6001 15.1001 17.7001 15.1001C18.3001 15.1001 18.9001 15.1001 19.5001 15.1001C19.6001 15.1001 19.6001 15.1001 19.6001 15.2001C19.6001 15.7001 19.6001 16.2001 19.6001 16.7001C19.6001 16.8001 19.6001 16.8001 19.5001 16.8001C19.3001 16.8001 19.0001 16.8001 18.7001 16.8001Z" fill="white"/>
<path d="M9.1001 15.0001C9.4001 15.0001 9.7001 15.0001 10.0001 15.0001C10.1001 15.0001 10.1001 15.0001 10.1001 15.1001C10.1001 15.6001 10.1001 16.1001 10.1001 16.6001C10.1001 16.7001 10.1001 16.7001 10.0001 16.7001C9.4001 16.7001 8.8001 16.7001 8.2001 16.7001C8.1001 16.7001 8.1001 16.7001 8.1001 16.6001C8.1001 16.1001 8.1001 15.6001 8.1001 15.0001C8.1001 14.9001 8.1001 14.9001 8.2001 14.9001C8.5001 15.0001 8.8001 15.0001 9.1001 15.0001Z" fill="white"/>
</g>
<defs>
<clipPath id="clip0_1091_12836">
<rect width="27.2" height="27.2" fill="white"/>
</clipPath>
</defs>
</svg>
