<svg width="27" height="24" viewBox="0 0 27 24" fill="none" xmlns="http://www.w3.org/2000/svg">
<g clip-path="url(#clip0_1163_13716)">
<path d="M13.5799 24.142C21.0798 24.142 27.1598 18.7376 27.1598 12.071C27.1598 5.40437 21.0798 0 13.5799 0C6.07992 0 0 5.40437 0 12.071C0 18.7376 6.07992 24.142 13.5799 24.142Z" fill="#DE5738"/>
<g clip-path="url(#clip1_1163_13716)">
<path d="M13.2176 5C10.3435 5 8 7.24651 8 10.0017C8 13.4209 12.6723 18.4508 12.8786 18.6628C13.0702 18.8606 13.3945 18.8606 13.5714 18.6628C13.7777 18.4508 18.45 13.4209 18.45 10.0017C18.45 7.24651 16.1065 5 13.2176 5ZM13.2176 12.5308C11.7732 12.5308 10.5941 11.4004 10.5941 10.0158C10.5941 8.63116 11.7732 7.50084 13.2176 7.50084C14.6621 7.50084 15.8412 8.63116 15.8412 10.0158C15.8412 11.4004 14.6768 12.5308 13.2176 12.5308Z" fill="#EEEEEE"/>
</g>
</g>
<defs>
<clipPath id="clip0_1163_13716">
<rect width="27" height="24" fill="white"/>
</clipPath>
<clipPath id="clip1_1163_13716">
<rect width="10.45" height="13.8182" fill="white" transform="translate(8 5)"/>
</clipPath>
</defs>
</svg>
