<svg width="28" height="25" viewBox="0 0 28 25" fill="none" xmlns="http://www.w3.org/2000/svg">
<path d="M13.5799 24.3222C21.0798 24.3222 27.1598 18.8775 27.1598 12.1611C27.1598 5.4447 21.0798 0 13.5799 0C6.07992 0 0 5.4447 0 12.1611C0 18.8775 6.07992 24.3222 13.5799 24.3222Z" fill="#DE5738"/>
<path d="M11.9823 5.72291L20.4497 13.3057C20.7693 13.5918 20.7692 13.878 20.7692 14.0211V16.5963C20.7692 16.8825 20.6095 17.0256 20.4497 17.1686L19.1716 18.4563C18.8521 18.7424 18.0533 18.7424 17.7337 18.4563L15.1775 16.1671C14.858 15.881 14.858 15.1656 15.1775 14.8795L15.6568 14.3072C15.9764 14.0211 15.9764 13.3057 15.6568 13.0196L12.4616 10.1581C12.142 9.87198 11.3432 9.87198 11.0237 10.1581L10.5444 10.5873C10.2249 10.8735 9.42605 10.8735 9.10653 10.5873L6.55031 8.2982C6.23079 8.01205 6.23079 7.29669 6.55031 7.01055L7.82842 5.72291C7.98818 5.57983 8.30771 5.57983 8.46747 5.57983H11.1835C11.6627 5.57983 11.8225 5.57983 11.9823 5.72291Z" fill="#EEEEEE"/>
</svg>
