<svg width="388" height="390" viewBox="0 0 388 390" xmlns="http://www.w3.org/2000/svg">
<path d="M235.17 5.74238C207.881 -1.06468 179.166 -2.03737 151.224 3.99468C149.065 4.46085 147.692 6.58929 148.158 8.74868C148.624 10.9081 150.753 12.2807 152.912 11.8145C179.671 6.03781 207.236 6.9903 233.455 13.5618C296.157 29.277 348.348 76.4198 368.226 138.001C375.914 161.817 379.179 187.175 379.833 213.752C379.888 215.96 381.722 217.707 383.93 217.652C386.139 217.598 387.885 215.764 387.831 213.555C387.168 186.614 383.864 160.603 375.987 136.001C355.343 71.5303 300.794 22.1116 235.17 5.74238Z" />
<path d="M130.925 17.8446C133.054 17.2571 134.304 15.0545 133.717 12.9249C133.13 10.7953 130.927 9.54517 128.797 10.1327C99.576 18.194 58.4703 46.0486 33.0665 83.2603C33.0566 83.2748 33.0468 83.2893 33.0371 83.3039C10.7309 116.919 -3.2519 159.163 0.652065 200.155C0.655782 200.194 0.660073 200.233 0.664936 200.272C1.60055 207.757 3.17124 215.228 4.74376 222.708C8.0558 238.461 11.376 254.254 8.78809 270.298C8.43629 272.479 9.9191 274.532 12.1001 274.884C14.281 275.235 16.3342 273.753 16.686 271.572C19.3912 254.801 16.0322 238.443 12.6725 222.081C11.1187 214.515 9.56476 206.947 8.61047 199.338C4.93871 160.604 18.1641 120.196 39.6885 87.7491C64.1259 51.9658 103.698 25.3558 130.925 17.8446Z" />
<path d="M183.415 26.7815C233.635 23.7148 283.845 44.2101 317.565 83.4756C319.004 85.1515 318.812 87.6769 317.136 89.1162C315.46 90.5554 312.935 90.3635 311.495 88.6876C279.429 51.3477 231.65 31.8433 183.878 34.7681C183.861 34.7691 183.844 34.7701 183.827 34.7709C123.414 37.6941 66.837 78.6775 46.0267 136.105C45.2741 138.182 42.9802 139.256 40.9032 138.503C38.8263 137.751 37.7527 135.457 38.5053 133.38C60.4281 72.8818 119.838 29.8686 183.415 26.7815Z" />
<path d="M329.751 100.95C328.519 99.1166 326.034 98.6283 324.2 99.8599C322.366 101.092 321.878 103.577 323.109 105.411C341.803 133.245 349.532 163.534 352.587 199.478C352.775 201.68 354.711 203.312 356.912 203.125C359.113 202.938 360.746 201.002 360.559 198.801C357.436 162.071 349.466 130.306 329.751 100.95Z" />
<path d="M357.885 215.783C360.089 215.646 361.988 217.321 362.126 219.526C363.634 243.646 363.648 270.935 360.979 291.102C360.69 293.292 358.679 294.833 356.489 294.543C354.299 294.253 352.759 292.243 353.049 290.053C355.62 270.616 355.634 243.905 354.142 220.025C354.004 217.82 355.68 215.921 357.885 215.783Z" />
<path d="M39.9863 155.479C40.5048 153.332 39.1843 151.171 37.0368 150.652C34.8894 150.134 32.7282 151.454 32.2098 153.602C29.2738 165.762 27.7497 178.253 27.6893 190.756C27.6271 203.643 30.03 216.222 32.4338 228.806C34.4002 239.101 36.3673 249.398 36.986 259.87C37.7988 273.625 34.9054 287.401 29.9056 300.512C29.1184 302.576 30.1536 304.888 32.2178 305.675C34.2819 306.462 36.5934 305.427 37.3805 303.363C42.6654 289.504 45.8689 274.576 44.9721 259.398C44.3576 248.998 42.3907 238.76 40.4246 228.527C38.0255 216.039 35.6276 203.558 35.6892 190.795C35.7466 178.914 37.1951 167.04 39.9863 155.479Z" />
<path d="M144.945 66.591C145.768 68.641 144.774 70.9702 142.724 71.7935C101.255 88.4469 70.1141 126.027 63.7613 170.343C61.1072 188.858 63.9747 207.197 66.8413 225.532C68.4557 235.857 70.0699 246.181 70.6974 256.534C72.0582 278.982 69.5013 303.639 54.892 326.073C53.6865 327.925 51.2085 328.448 49.3573 327.243C47.506 326.037 46.9826 323.559 48.1881 321.708C61.4987 301.268 64.0182 278.564 62.7121 257.018C62.0753 246.514 60.4713 236.07 58.8682 225.634C55.992 206.908 53.1191 188.204 55.8423 169.208C62.6254 121.891 95.7906 82.0202 139.742 64.3697C141.792 63.5465 144.122 64.5409 144.945 66.591Z" />
<path d="M285.368 89.3642C252.653 58.7229 205.237 48.0285 162.144 57.4805C159.986 57.9538 158.621 60.0868 159.094 62.2446C159.567 64.4024 161.7 65.768 163.858 65.2947C204.664 56.3444 249.312 66.5544 279.9 95.2031C305.681 119.35 320.652 154.486 324.571 192.82C324.795 195.018 326.759 196.618 328.957 196.393C331.155 196.168 332.754 194.205 332.529 192.007C328.46 152.201 312.857 115.11 285.368 89.3642Z" />
<path d="M331.692 211.057C333.89 210.831 335.854 212.429 336.08 214.627C339.879 251.615 338.242 291.565 332.507 330.213C332.182 332.398 330.148 333.907 327.963 333.582C325.778 333.258 324.269 331.224 324.593 329.038C330.249 290.928 331.841 251.656 328.122 215.444C327.896 213.247 329.495 211.282 331.692 211.057Z" />
<path d="M192.237 81.2926C130.942 81.2926 81.139 130.194 81.139 190.654C81.139 197.112 81.7121 203.44 82.8046 209.593C83.1908 211.768 85.2672 213.218 87.4423 212.832C89.6174 212.446 91.0676 210.369 90.6814 208.194C89.67 202.497 89.139 196.637 89.139 190.654C89.139 134.735 135.236 89.2926 192.237 89.2926C217.996 89.2926 241.531 98.5768 259.595 113.917C261.279 115.347 263.803 115.142 265.233 113.458C266.663 111.774 266.457 109.25 264.773 107.82C245.307 91.2884 219.95 81.2926 192.237 81.2926Z" />
<path d="M273.735 122.734C275.33 121.205 277.862 121.258 279.391 122.852C297.044 141.26 302.695 170.193 306.433 194.473C310.645 221.823 311.288 248.504 311.288 260.876C311.288 263.085 309.497 264.876 307.288 264.876C305.079 264.876 303.288 263.085 303.288 260.876C303.288 248.705 302.651 222.475 298.527 195.691C295.056 173.149 290.052 145.527 273.617 128.389C272.088 126.795 272.141 124.263 273.735 122.734Z" />
<path d="M310.272 283.784C310.448 281.581 308.805 279.654 306.603 279.478C304.401 279.303 302.473 280.946 302.298 283.148C300.333 307.787 297.766 332.399 292.558 355.134C292.065 357.288 293.41 359.433 295.564 359.927C297.717 360.42 299.863 359.074 300.356 356.921C305.702 333.586 308.303 308.488 310.272 283.784Z" />
<path d="M89.2432 224.315C91.4107 223.888 93.5138 225.299 93.9406 227.467C102.398 270.415 96.5555 309.431 74.1586 343.607C72.9477 345.455 70.4682 345.971 68.6205 344.76C66.7728 343.549 66.2565 341.07 67.4674 339.222C88.5405 307.066 94.2119 270.25 86.0914 229.012C85.6646 226.845 87.0757 224.742 89.2432 224.315Z" />
<path d="M192.237 107.319C152.448 107.319 113.415 138.118 109.431 176.827C107.687 193.774 110.137 210.466 112.588 227.166C114.729 241.747 116.87 256.334 116.22 271.1C114.732 304.892 104.817 332.787 87.78 355.762C86.4642 357.537 86.836 360.042 88.6105 361.358C90.385 362.673 92.8902 362.302 94.2061 360.527C112.276 336.159 122.66 306.695 124.212 271.452C124.859 256.753 122.711 242.212 120.565 227.681C118.111 211.065 115.658 194.46 117.389 177.646C120.889 143.641 155.89 115.319 192.237 115.319C209.19 115.319 253.052 124.498 267.004 169.949C275.748 198.432 278.132 236.979 276.015 274.428C273.897 311.871 267.31 347.684 258.452 370.649C257.657 372.71 258.683 375.026 260.745 375.821C262.806 376.616 265.121 375.589 265.916 373.528C275.183 349.502 281.858 312.782 284.002 274.879C286.145 236.981 283.789 197.367 274.652 167.602C259.164 117.149 210.614 107.319 192.237 107.319Z" />
<path d="M130.68 343.613C132.531 344.82 133.052 347.298 131.845 349.149C129.365 352.952 127.183 356.931 125.001 360.91C122.819 364.889 120.636 368.869 118.155 372.673C116.949 374.523 114.47 375.045 112.62 373.838C110.769 372.631 110.248 370.153 111.455 368.302C113.935 364.499 116.117 360.52 118.299 356.541C120.481 352.562 122.664 348.582 125.145 344.778C126.352 342.928 128.83 342.406 130.68 343.613Z" />
<path d="M164.931 148.84C166.767 147.612 167.26 145.128 166.032 143.292C164.804 141.455 162.319 140.963 160.483 142.191C144.644 152.785 134.926 167.354 134.926 188.696C134.926 201.404 137.177 211.791 139.486 222.445C142.942 238.389 145.285 254.297 144.864 270.673C144.353 290.558 140.462 308.729 132.983 326.039C132.107 328.067 133.041 330.421 135.069 331.297C137.097 332.174 139.451 331.24 140.327 329.212C148.235 310.91 152.325 291.725 152.862 270.878C153.299 253.862 150.891 237.324 147.307 220.754C144.992 210.053 142.926 200.499 142.926 188.696C142.926 170.41 150.97 158.178 164.931 148.84Z" />
<path d="M180.543 134.786C197.142 131.402 215.003 135.584 228.151 146.225C251.634 165.232 254.757 199.896 257.288 227.985L257.417 229.416C260.688 265.623 256.944 300.792 249.403 336.111C248.942 338.271 246.816 339.649 244.656 339.187C242.495 338.726 241.118 336.601 241.579 334.44C249.007 299.651 252.628 265.319 249.45 230.135C249.344 228.971 249.24 227.789 249.134 226.594L249.132 226.576C246.884 201.193 244.069 169.401 223.117 152.443C211.877 143.346 196.461 139.706 182.141 142.625C179.976 143.066 177.864 141.669 177.423 139.505C176.981 137.34 178.378 135.227 180.543 134.786Z" />
<path d="M243.749 356.015C244.294 353.874 243.001 351.696 240.86 351.151C238.719 350.606 236.542 351.9 235.997 354.041C233.578 363.539 229.852 372.113 225.128 380.006C223.993 381.902 224.61 384.358 226.506 385.493C228.401 386.627 230.858 386.01 231.992 384.115C237.084 375.608 241.126 366.32 243.749 356.015Z" />
<path d="M224.189 297.967C226.383 298.227 227.951 300.216 227.691 302.41C223.913 334.334 215.385 362.806 201.7 387.5C200.629 389.433 198.194 390.131 196.262 389.06C194.33 387.989 193.632 385.555 194.702 383.623C207.799 359.989 216.069 332.551 219.747 301.47C220.006 299.276 221.995 297.708 224.189 297.967Z" />
<path d="M223.365 186.598C220.592 171.78 207.874 160.446 192.435 160.446C171.528 160.446 156.86 181.519 162.029 201.125C170.775 235.733 172.211 269.088 166.29 301.214L166.286 301.237C161.148 330.081 151.281 356.028 137.822 378.016C136.669 379.901 137.262 382.363 139.146 383.516C141.03 384.67 143.492 384.077 144.646 382.193C158.655 359.306 168.857 332.412 174.16 302.652C180.307 269.287 178.784 234.763 169.78 199.144L169.769 199.102C165.892 184.436 176.699 168.446 192.435 168.446C203.791 168.446 213.379 176.8 215.496 188.042C221.319 221.814 224.351 253.131 222.192 280.095C222.015 282.297 223.658 284.225 225.86 284.402C228.062 284.578 229.99 282.936 230.166 280.734C232.404 252.786 229.245 220.697 223.375 186.654C223.372 186.635 223.368 186.616 223.365 186.598Z" />
<path d="M180.499 359.841C182.464 360.85 183.238 363.262 182.229 365.227L171.63 385.853C170.62 387.818 168.209 388.592 166.244 387.582C164.279 386.573 163.505 384.161 164.514 382.196L175.113 361.57C176.123 359.605 178.534 358.831 180.499 359.841Z" />
<path d="M195.41 190.455C194.905 188.304 192.752 186.97 190.601 187.476C188.451 187.981 187.117 190.134 187.622 192.284C201.111 249.705 199.258 300.125 182.828 343.076C182.039 345.14 183.072 347.452 185.135 348.242C187.198 349.031 189.511 347.998 190.3 345.935C207.432 301.15 209.173 249.041 195.41 190.455Z" />
</svg>
