<svg width="167" height="165" viewBox="0 0 167 165" fill="none" xmlns="http://www.w3.org/2000/svg">
<path d="M92.6235 57.8834C86.6022 61.4364 80.3548 66.1124 74.3986 72.2027C62.264 84.7091 56.603 98.0089 53.9392 105.809C57.3274 104.919 61.9996 103.505 67.4268 101.236C75.7171 97.7137 85.7475 92.1485 95.4176 83.2948C110.155 69.8647 117.295 55.1852 120.549 47.052C115.057 48.2057 104.333 50.9691 92.6235 57.8834Z" fill="#F9B53F"/>
<path d="M4.10541 104.494C3.61099 102.781 4.59984 100.972 6.30926 100.443L19.5669 96.5601C21.2763 96.0657 23.0854 97.0545 23.6105 98.7639C24.1049 100.477 23.1199 102.286 21.4066 102.815L8.15283 106.698C7.85771 106.797 7.52809 106.832 7.22913 106.832C5.81484 106.832 4.53469 105.908 4.10541 104.494ZM30.291 25.1323L24.0742 8.86984C23.4495 7.19108 24.2697 5.31302 25.9485 4.68827C27.6234 4.03287 29.5014 4.88758 30.1262 6.56634L36.343 22.8288C36.9677 24.5038 36.1437 26.3818 34.4687 27.0066C34.074 27.1369 33.6792 27.2365 33.3151 27.2365C32.0311 27.2365 30.7816 26.447 30.291 25.1323ZM102.819 21.7403C101.309 20.786 100.879 18.7431 101.834 17.2636L108.84 6.36703C109.794 4.85308 111.833 4.42764 113.313 5.38201C114.827 6.33637 115.252 8.37541 114.302 9.8587L107.295 20.7515C106.671 21.7058 105.617 22.2348 104.563 22.2348C103.972 22.2654 103.378 22.1006 102.819 21.7403ZM83.1834 92.8078C83.8082 92.8078 84.4329 92.643 84.9925 92.2482C86.4719 91.2593 86.8667 89.2203 85.8817 87.737C83.4134 84.0499 78.151 77.5341 70.8802 75.4261C62.2641 72.9578 54.2037 75.2958 46.4078 77.5341C44.3036 78.1282 42.3298 78.7185 40.3214 79.1784C35.9482 80.2324 31.3412 81.0565 27.5582 79.8377C23.4495 78.523 19.9271 75.0313 17.0334 71.7735C15.8491 70.4243 13.7755 70.3247 12.4609 71.509C11.1117 72.6972 11.0121 74.7707 12.1964 76.0854C15.6843 80.0025 19.9923 84.2492 25.5843 86.0276C30.8812 87.7064 36.5384 86.752 41.8353 85.468C43.974 84.9391 46.1127 84.3488 48.1824 83.7241C55.4187 81.6467 62.2296 79.6728 69.0711 81.6161C72.9537 82.7352 77.0969 86.2576 80.4851 91.2938C81.1099 92.2789 82.1294 92.8078 83.1834 92.8078Z" fill="#3BA27A"/>
<path d="M36.1132 121.182C34.3692 120.787 33.2501 119.043 33.6449 117.299L35.4539 109.3C35.8487 107.552 37.5926 106.468 39.3365 106.832C41.0805 107.227 42.1958 108.971 41.801 110.715L39.9919 118.714C39.6662 120.228 38.317 121.247 36.8337 121.247C36.6038 121.282 36.3431 121.247 36.1132 121.182ZM1.24634 63.6441C0.0926681 62.2605 0.257478 60.2215 1.64111 59.0678C3.84496 57.1936 7.55893 54.8211 12.7255 54.0315C18.6127 53.1116 23.4152 54.7904 25.7493 55.8751C27.3629 56.634 28.0873 58.5734 27.3284 60.187C26.5734 61.8006 24.6301 62.525 23.0204 61.7661C21.3416 60.9765 17.9228 59.7922 13.7105 60.4514C10.0617 61.011 7.39412 62.7204 5.81501 64.0734C5.22476 64.5985 4.46971 64.8285 3.74531 64.8285C2.79095 64.8285 1.87108 64.4337 1.24634 63.6441ZM95.4178 86.5527C96.4067 86.5527 97.361 86.1272 97.9858 85.3032C99.0705 83.8889 98.806 81.846 97.3917 80.7613C90.945 75.7557 86.8669 70.225 85.3529 64.3034C83.5439 57.2587 85.4871 51.0036 87.5568 44.3882C89.7951 37.1788 92.3593 29.0149 89.7951 19.3716C88.2467 13.4768 85.0923 8.01511 80.4508 3.14364C79.2013 1.85966 77.1623 1.7945 75.8821 3.04399C74.5981 4.29731 74.533 6.33635 75.7825 7.62033C79.6651 11.7022 82.2944 16.2096 83.5439 21.0159C85.6174 28.8501 83.5439 35.4655 81.3745 42.445C79.1362 49.6545 76.802 57.0939 79.071 65.9131C80.9797 73.2874 85.8129 80.0024 93.4439 85.8934C94.038 86.3572 94.7279 86.5527 95.4178 86.5527Z" fill="#446DB7"/>
<path d="M117.391 37.6387C116.996 35.8948 118.085 34.1508 119.825 33.7561L129.959 31.4526C131.703 31.0578 133.443 32.1425 133.841 33.8864C134.232 35.6303 133.148 37.378 131.404 37.7728L121.274 40.0763C121.044 40.1415 120.779 40.1415 120.549 40.1415C119.07 40.1415 117.721 39.122 117.391 37.6387ZM95.4177 83.3293C99.6606 79.4773 103.248 75.5257 106.307 71.6738C108.875 68.4159 111.078 65.2232 112.918 62.2298C116.571 56.2698 119.005 50.9384 120.549 47.121L137.295 89.6802L141.503 100.377L166.7 164.565L155.88 158.939L146.635 154.132L100.025 129.84L89.8257 124.539L53.9393 105.843C62.5592 103.57 79.4005 97.9092 95.4177 83.3293ZM59.7958 27.2365C60.8153 27.2365 61.8348 26.7459 62.4596 25.8222C63.4791 24.3427 63.1188 22.3344 61.6355 21.3148C60.2557 20.3605 56.9327 17.6277 55.9477 12.8214C55.1888 9.13426 56.2083 6.07187 56.9021 4.55792C57.6226 2.91366 56.9021 1.00493 55.2578 0.280536C53.6097 -0.443859 51.7048 0.280537 50.9804 1.9248C49.9915 4.13248 48.4814 8.67433 49.5968 14.136C51.0456 21.2459 55.9132 25.2626 57.9522 26.6769C58.5118 27.041 59.1711 27.2365 59.7958 27.2365Z" fill="#F14947"/>
<path d="M95.4176 120.392C98.641 120.392 101.274 122.991 101.274 126.253C101.274 127.602 100.814 128.851 100.055 129.84L89.8601 124.539C90.5845 122.136 92.819 120.392 95.4176 120.392ZM137.295 89.6803L141.503 100.378C140.614 100.937 139.594 101.236 138.475 101.236C135.252 101.236 132.622 98.6337 132.622 95.3758C132.622 92.5779 134.627 90.2054 137.295 89.6803ZM78.1164 101.926C81.3398 101.926 83.9729 104.559 83.9729 107.786C83.9729 111.01 81.3743 113.643 78.1164 113.643C74.8931 113.643 72.2638 111.044 72.2638 107.786C72.2638 104.559 74.8624 101.926 78.1164 101.926ZM125.616 114.567C128.839 114.567 131.469 117.165 131.469 120.423C131.469 123.65 128.87 126.283 125.616 126.283C122.358 126.283 119.76 123.685 119.76 120.423C119.76 117.165 122.393 114.567 125.616 114.567ZM152.492 148.337C155.715 148.337 158.344 150.94 158.344 154.198C158.344 156.171 157.39 157.885 155.91 158.969L146.635 154.132C146.67 150.905 149.264 148.337 152.492 148.337ZM112.918 62.1954C114.827 63.1498 116.141 65.1236 116.141 67.4271C116.141 70.6544 113.543 73.2875 110.289 73.2875C108.74 73.2875 107.295 72.6627 106.276 71.6739C108.875 68.416 111.078 65.2233 112.918 62.1954ZM16.2783 36.259C20.6515 34.5457 29.5666 32.1425 39.9266 34.975C53.2493 38.6276 60.225 48.4702 62.5898 52.5521C63.5135 54.0967 62.9846 56.0744 61.44 56.9943C60.9149 57.2894 60.3553 57.4542 59.7957 57.4542C58.6766 57.4542 57.5919 56.864 56.9978 55.8406C55.0277 52.4525 49.2364 44.2886 38.2172 41.2607C29.6662 38.8921 22.2651 40.9311 18.647 42.3147C16.9682 42.974 15.094 42.1154 14.4347 40.4712C13.7755 38.8231 14.5995 36.9144 16.2783 36.259Z" fill="#F9B53F"/>
<path d="M36.4733 118.779C36.2434 118.714 36.1131 118.514 36.1782 118.284L38.1828 109.726C38.2517 109.496 38.4472 109.365 38.6772 109.431C38.9072 109.496 39.0375 109.695 38.9723 109.925L36.9678 118.484C36.9333 118.679 36.7685 118.813 36.573 118.813C36.5385 118.779 36.5078 118.779 36.4733 118.779ZM104.268 19.5671C104.072 19.4368 104.003 19.2069 104.137 19.0075L111.239 7.72C111.374 7.5207 111.604 7.49003 111.799 7.58585C111.998 7.72 112.063 7.94997 111.933 8.14544L104.827 19.4368C104.762 19.5671 104.628 19.6323 104.498 19.6323C104.398 19.6016 104.333 19.6016 104.268 19.5671ZM60.2213 53.9664C58.1516 50.5743 52.0996 42.3147 40.7814 38.6927C29.8273 35.1397 20.2913 38.068 16.7038 39.4516C16.5084 39.5168 16.2784 39.4171 16.1787 39.2178C16.0791 39.0223 16.2094 38.7579 16.4087 38.6927C20.9467 36.9143 30.2221 34.4153 41.0113 37.9032C52.5595 41.621 58.7763 50.0838 60.915 53.5371C61.0453 53.7364 60.9801 53.9664 60.7808 54.0967C60.7157 54.1312 60.6505 54.1618 60.5854 54.1618C60.4551 54.1618 60.3209 54.0967 60.2213 53.9664ZM92.7233 85.698C92.5891 85.5332 92.5891 85.2687 92.7539 85.1384C98.8749 79.8376 104.367 73.8163 109.036 67.2316C112.493 62.3946 115.517 57.1936 118.05 51.7932C118.15 51.5977 118.38 51.4981 118.575 51.5977C118.775 51.6935 118.874 51.9235 118.775 52.1228C116.207 57.5538 113.183 62.7894 109.695 67.6916C104.992 74.3414 99.4651 80.4317 93.2829 85.7325C93.2139 85.7976 93.118 85.8283 93.0184 85.8283C92.9187 85.8283 92.7884 85.7976 92.7233 85.698ZM82.5587 111.604C82.3594 111.47 82.3288 111.209 82.4591 111.044C84.203 108.607 83.7086 105.184 81.3399 103.44C80.1901 102.585 78.6761 102.221 77.1967 102.486C75.6827 102.75 74.3681 103.605 73.5134 104.889C73.3792 105.084 73.1492 105.119 72.9538 104.988C72.7545 104.854 72.7238 104.624 72.8541 104.429C73.8391 102.945 75.3224 101.991 77.0663 101.696C78.7413 101.397 80.4852 101.796 81.8343 102.781C84.5326 104.789 85.1229 108.706 83.1183 111.504C83.0493 111.604 82.919 111.669 82.7887 111.669C82.7235 111.669 82.6239 111.634 82.5587 111.604ZM157.85 156.501C157.654 156.436 157.524 156.206 157.589 155.976C158.375 153.538 157.455 150.871 155.351 149.556C153.442 148.372 150.943 148.502 149.134 149.886C148.969 150.016 148.705 149.985 148.575 149.82C148.444 149.656 148.475 149.391 148.64 149.261C150.744 147.678 153.607 147.513 155.78 148.897C158.214 150.411 159.264 153.439 158.344 156.271C158.279 156.436 158.114 156.566 157.95 156.566C157.95 156.501 157.919 156.501 157.85 156.501ZM125.616 126.647C125.846 126.647 126.011 126.448 126.011 126.253C126.011 126.019 125.812 125.854 125.616 125.854C122.623 125.854 120.189 123.42 120.189 120.423C120.189 117.43 122.623 114.992 125.616 114.992C125.846 114.992 126.011 114.796 126.011 114.597C126.011 114.402 125.812 114.202 125.616 114.202C122.163 114.202 119.365 117 119.365 120.457C119.365 123.849 122.163 126.647 125.616 126.647Z" fill="#3A5471"/>
</svg>
