<svg width="164" height="135" viewBox="0 0 164 135" fill="none" xmlns="http://www.w3.org/2000/svg">
<path d="M59.0788 51.9177C66.1938 51.698 73.6585 51.5648 81.4006 51.5648C126.255 51.5648 162.662 55.5874 162.662 60.5757C162.662 60.922 162.479 61.245 162.169 61.5713H162.529L163.062 86.5062V87.2821C163.106 88.4876 163.106 89.6963 163.151 90.8751V91.5744C163.195 93.7989 163.24 96.0266 163.29 98.251V98.8671C163.645 107.741 163.822 116.563 164 125.36C144.814 129.463 114.45 134.371 76.6998 134.048C44.366 133.805 17.9817 129.813 0.0443878 126.193V61.4615H0.53833C0.271934 61.1684 0.133186 60.8687 0.133186 60.5757C0.133186 57.652 12.7925 55.0246 32.4281 53.3929C40.2979 52.7203 49.3332 52.2074 59.0788 51.9177Z" fill="#F9B53F"/>
<path d="M89.8975 49.0439C90.569 49.0173 91.235 49.0173 91.9066 49.1005C93.9212 49.3403 95.7971 50.0629 97.0957 51.1884C98.572 49.5801 101.436 48.6144 104.477 48.6676C107.474 48.7509 110.155 49.7965 111.453 51.4315C112.658 50.0396 115.211 49.2337 117.802 49.4202C120.261 49.5801 122.365 50.6257 123.08 52.0509C123.752 51.7812 126.477 50.6523 130.279 50.922C134.93 51.245 137.349 53.3929 137.66 53.6826C138.198 53.4428 140.879 52.264 144.636 52.5571C149.11 52.9067 151.346 55.0512 151.613 55.3209C153.76 54.3819 156.669 54.2187 158.994 54.9446C162.39 55.9903 162.796 58.2413 162.796 58.3745C162.751 58.9406 162.751 59.53 162.751 60.0961C154.343 57.895 143.832 55.6406 131.4 54.0622C112.93 51.7246 96.8293 51.7246 84.9747 52.3173C71.111 52.0742 54.3392 52.4538 35.6027 54.3286C22.2274 55.6706 10.3783 57.5187 0.138713 59.4768C0.133164 59.1005 0.133163 58.7541 0.133163 58.3745C0.405109 56.7928 2.14778 55.4541 4.562 54.9446C7.8753 54.2454 10.6891 55.4808 10.9111 55.5607C11.0498 55.3476 12.4373 53.1731 16.4166 52.5571C20.6179 51.8877 23.8369 53.576 24.02 53.6826C25.1799 52.1008 27.6829 51.0286 30.5467 50.922C34.7535 50.7622 37.2121 52.8268 37.3009 52.9333C37.8393 52.4538 39.2212 51.325 41.7298 50.7888C44.9487 50.1162 48.706 50.7089 51.431 52.2907C51.5698 52.0742 52.5965 50.4658 55.4603 49.9064C57.8745 49.4202 60.6439 49.9297 62.4365 51.1618C62.8361 50.7622 63.8684 49.8498 65.8331 49.4202C68.4304 48.8042 71.5606 49.2604 73.8416 50.5457C74.0636 50.2794 75.0903 48.9906 77.4157 48.5344C80.0575 48.0516 83.2321 48.8341 84.9747 50.5457C85.4243 50.2527 87.1225 49.2071 89.8975 49.0439Z" fill="#F14947"/>
<path d="M144.636 14.7218C143.565 17.9386 143.698 21.3451 143.249 24.5919C142.761 28.1283 142.178 31.6714 141.639 35.2345C140.657 42.2074 139.492 49.1771 138.287 56.1501C137.927 58.3512 143.654 58.3512 144.009 56.1501C145.086 49.3136 145.935 42.4472 146.607 35.5841C146.962 32.1509 147.184 28.721 147.367 25.2878C147.545 21.9079 148.349 18.3681 147.811 14.9915C147.678 13.9459 145.042 13.543 144.636 14.7218ZM119.146 10.6193C118.474 12.2277 118.879 13.9726 118.968 15.6076C119.101 17.459 119.279 19.2805 119.412 21.132C119.684 24.9115 119.906 28.721 120.128 32.5006C120.577 39.983 120.799 47.4622 121.021 54.9446C121.066 57.169 126.882 57.169 126.793 54.9446C126.433 47.4622 125.767 39.983 124.912 32.5006C124.512 28.8276 124.018 25.1546 123.486 21.4517C123.214 19.6036 122.992 17.7787 122.675 15.9273C122.365 14.1857 122.365 12.201 121.249 10.5926C120.844 10.1098 119.456 9.94995 119.146 10.6193ZM102.685 11.1288C101.525 14.6685 102.507 18.7178 102.685 22.3375C102.868 26.3867 102.685 30.4093 102.64 34.4319C102.507 42.3973 102.152 50.3326 101.208 58.2679C100.986 60.2792 106.264 60.2792 106.486 58.2679C107.385 50.3326 107.874 42.3673 107.652 34.4319C107.519 30.5159 107.069 26.5998 106.758 22.6871C106.575 20.7291 106.353 18.7711 106.042 16.813C105.77 14.9116 105.682 12.9536 104.566 11.1288C104.25 10.6459 102.912 10.5394 102.685 11.1288ZM82.2498 14.1324C82.383 21.1587 81.9334 28.1849 82.2942 35.2078C82.6494 42.2341 82.9213 49.2603 83.2321 56.2833C83.3209 58.2946 88.5989 58.2946 88.4657 56.2833C87.9717 49.2603 87.4334 42.2341 86.9894 35.2078C86.5399 28.1549 85.2911 21.1587 84.6196 14.1324C84.5752 13.22 82.2498 13.22 82.2498 14.1324ZM62.6586 12.3375C61.8094 15.7141 62.7474 19.3605 62.7918 22.7937C62.8362 26.4666 63.0637 30.113 63.1525 33.7859C63.2857 41.1086 63.0193 48.4811 62.5698 55.8037C62.4366 58.188 68.6081 58.188 68.7857 55.8037C69.2796 48.4545 69.1908 41.1352 68.6081 33.7859C68.3417 30.113 67.9809 26.44 67.2206 22.7937C66.8654 20.9688 66.4159 19.1473 66.0107 17.2959C65.6555 15.6342 65.5223 13.9459 64.54 12.3375C64.3124 11.8281 62.8362 11.6915 62.6586 12.3375ZM44.6768 18.3681C43.1617 21.6149 43.922 25.5276 43.8777 28.8809C43.8777 32.4772 43.7833 36.0403 43.7389 39.6334C43.7389 43.2264 43.6945 46.7928 43.6501 50.3859C43.6057 54.0622 43.1118 57.8151 43.5613 61.488C43.7833 63.526 48.4841 63.4993 48.7949 61.488C49.3332 57.8384 48.9281 54.0622 48.8837 50.3859C48.8393 46.7928 48.7061 43.2264 48.5729 39.6334C48.4397 36.0403 48.1233 32.4772 47.8569 28.8809C47.585 25.5276 47.9901 21.5616 46.0643 18.3681C45.8423 17.9685 44.9044 17.9386 44.6768 18.3681ZM23.6149 15.4744C23.7037 14.4554 25.9847 14.5087 26.1623 15.4744C27.7274 22.6072 28.2213 29.8199 28.8485 36.9794C29.1593 40.4359 29.4756 43.9224 29.8308 47.3822C30.014 49.1504 30.1416 50.8954 30.236 52.6636C30.2804 54.3019 30.5912 56.1234 29.6976 57.7052C28.8929 59.0738 25.0912 59.3668 24.5528 57.7052C24.0201 56.0735 24.464 54.3286 24.464 52.6636C24.5084 50.8954 24.3752 49.1504 24.3308 47.3822C24.1976 43.9224 24.0645 40.4359 23.8813 36.9794C23.5261 29.8466 23.0322 22.6338 23.6149 15.4744Z" fill="#F14947"/>
<path d="M0.0887986 126.06C8.05293 127.881 19.2804 130.082 32.9609 131.714C53.6677 134.155 69.8124 134.048 81.9778 133.912C95.0368 133.779 113.063 133.512 135.69 130.052C147.5 128.227 157.113 126.083 164 124.341C163.512 124.018 163.018 123.669 162.479 123.349C161.902 123.053 159.976 122.197 157.385 122.277C154.299 122.357 151.524 123.669 150.319 125.627C149.826 125.39 147.545 124.288 144.37 124.451C141.24 124.608 138.509 125.926 137.305 127.801C137.077 127.638 135.157 126.193 131.983 126.216C129.341 126.243 126.927 127.318 125.944 128.927C125.672 128.764 122.903 127.208 118.924 127.611C114.717 128.041 113.018 130.265 112.885 130.429C112.436 130.185 110.066 128.98 106.531 129.113C102.507 129.276 100.359 131.071 100.048 131.311C99.1104 129.813 96.5574 128.847 93.8768 129.01C91.1907 129.143 88.954 130.375 88.4657 131.957C88.2381 131.794 85.1968 129.729 80.5903 130.026C76.9718 130.265 74.9128 131.824 74.5576 132.094C74.3744 131.93 72.0934 129.919 67.9365 129.919C64.3568 129.919 62.1646 131.394 61.8538 131.607C61.1379 129.919 58.7237 128.684 55.8599 128.55C53.0905 128.417 50.4487 129.276 49.1945 130.752C48.9725 130.508 47.0966 128.657 43.2061 128.311C38.9993 127.938 36.1355 129.596 35.8691 129.783C35.6471 129.516 34.1708 127.771 30.7243 127.208C26.6118 126.539 23.3929 128.174 23.1709 128.311C22.9878 128.041 21.5559 126.216 18.0261 125.6C14.0912 124.904 10.9555 126.299 10.6447 126.433C10.2396 125.121 8.67452 124.018 6.53225 123.589C4.25124 123.133 1.69827 123.512 0 124.554C0.0443993 125.064 0.0887986 125.573 0.0887986 126.06ZM0.177597 59.4767C1.88142 58.4577 4.42883 58.1081 6.66545 58.5909C8.76887 59.0471 10.2895 60.146 10.6447 61.488C10.9611 61.3515 14.0912 60.0128 17.9817 60.7354C21.4671 61.4048 22.8102 63.2296 22.9878 63.4993C23.2097 63.3628 26.4342 61.7811 30.5023 62.507C33.9044 63.0964 35.3308 64.8646 35.5139 65.1343C35.7803 64.9712 38.6885 63.3128 42.8453 63.7657C46.6914 64.1687 48.4841 66.0168 48.7061 66.2865C50.0047 64.8113 52.6853 63.9822 55.4159 64.142C58.2741 64.3285 60.5995 65.5906 61.2711 67.2789C61.5874 67.0657 63.7796 65.5906 67.3538 65.6438C71.4718 65.6971 73.7084 67.7617 73.8416 67.8949C74.1968 67.6019 76.3002 66.1 79.9243 65.8836C84.5308 65.6172 87.4334 67.7084 87.6609 67.8949C88.1937 66.3132 90.4303 65.1343 93.1165 64.9978C95.7971 64.8913 98.3057 65.8603 99.1992 67.3854C99.4656 67.1457 101.702 65.3741 105.681 65.2409C109.217 65.1343 111.542 66.3964 111.942 66.6095C112.081 66.4464 113.823 64.2219 118.025 63.849C121.965 63.4993 124.646 65.0544 124.912 65.2143C125.9 63.6325 128.358 62.5869 130.995 62.5869C134.125 62.5869 136.006 64.0621 136.228 64.2219C137.483 62.3438 140.252 61.0851 143.343 60.9519C146.473 60.8154 148.71 61.9409 149.198 62.2106C150.453 60.2792 153.266 58.9939 156.308 58.9406C158.905 58.9139 160.737 59.7698 161.319 60.0661C161.813 60.3858 162.302 60.7354 162.796 61.0585C155.908 62.7201 146.29 64.788 134.53 66.4464C111.992 69.6664 94.1432 69.7197 81.1731 69.7197C69.102 69.7197 53.0905 69.6398 32.6502 66.9558C19.0973 65.191 8.05293 62.8533 0.227547 60.9219C0.177598 60.469 0.177597 59.9596 0.177597 59.4767Z" fill="#F14947"/>
<path d="M116.998 116.509C116.193 116.509 115.566 116.886 115.566 117.368C115.566 117.851 116.193 118.228 116.998 118.228C117.803 118.228 118.43 117.851 118.43 117.368C118.43 116.886 117.803 116.509 116.998 116.509ZM126.166 109.54C125.406 109.54 124.823 109.886 124.823 110.342C124.823 110.798 125.406 111.148 126.166 111.148C126.927 111.148 127.509 110.798 127.509 110.342C127.509 109.913 126.927 109.54 126.166 109.54ZM102.374 114.152C101.436 114.152 100.631 114.608 100.631 115.201C100.631 115.787 101.391 116.243 102.374 116.243C103.356 116.243 104.116 115.787 104.116 115.201C104.116 114.608 103.312 114.152 102.374 114.152ZM37.9726 117.748C36.7238 117.748 35.6915 118.361 35.6915 119.11C35.6915 119.863 36.7238 120.479 37.9726 120.479C39.2268 120.479 40.2536 119.863 40.2536 119.11C40.2536 118.361 39.2268 117.748 37.9726 117.748ZM140.701 115.201C139.986 115.201 139.447 115.544 139.447 115.947C139.447 116.376 140.03 116.699 140.701 116.699C141.417 116.699 141.956 116.349 141.956 115.947C141.956 115.544 141.373 115.201 140.701 115.201ZM82.0222 124.501C80.9511 124.501 80.102 125.011 80.102 125.657C80.102 126.299 80.9511 126.809 82.0222 126.809C83.0989 126.809 83.9481 126.299 83.9481 125.657C83.9481 125.011 83.0989 124.501 82.0222 124.501ZM62.3922 114.555C60.5996 114.555 59.1732 115.41 59.1732 116.483C59.1732 117.555 60.5996 118.417 62.3922 118.417C64.1793 118.417 65.6111 117.555 65.6111 116.483C65.6111 115.41 64.1793 114.555 62.3922 114.555ZM40.2536 108.547C39.1325 108.547 38.239 109.083 38.239 109.753C38.239 110.422 39.1325 110.962 40.2536 110.962C41.3691 110.962 42.2626 110.422 42.2626 109.753C42.3126 109.083 41.3691 108.547 40.2536 108.547ZM23.3929 113.882C22.183 113.882 21.2007 114.471 21.2007 115.201C21.2007 115.92 22.183 116.509 23.3929 116.509C24.5973 116.509 25.5851 115.92 25.5851 115.201C25.5851 114.471 24.5973 113.882 23.3929 113.882ZM118.785 80.8186C117.98 80.8186 117.359 81.1948 117.359 81.681C117.359 82.1605 117.98 82.5368 118.785 82.5368C119.595 82.5368 120.217 82.1605 120.217 81.681C120.217 81.1948 119.545 80.8186 118.785 80.8186ZM127.909 71.3015C127.149 71.3015 126.571 71.6478 126.571 72.104C126.571 72.5635 127.149 72.9099 127.909 72.9099C128.669 72.9099 129.252 72.5635 129.252 72.104C129.252 71.6478 128.669 71.3015 127.909 71.3015ZM106.131 73.6857C105.193 73.6857 104.388 74.142 104.388 74.7347C104.388 75.3241 105.149 75.7803 106.131 75.7803C107.113 75.7803 107.874 75.3241 107.874 74.7347C107.874 74.142 107.069 73.6857 106.131 73.6857ZM39.7152 82.054C38.461 82.054 37.4342 82.67 37.4342 83.4226C37.4342 84.1718 38.461 84.7879 39.7152 84.7879C40.9695 84.7879 41.9962 84.1718 41.9962 83.4226C42.0406 82.67 41.0139 82.054 39.7152 82.054ZM142.444 79.5065C141.728 79.5065 141.195 79.8562 141.195 80.2558C141.195 80.6854 141.778 81.0117 142.444 81.0117C143.16 81.0117 143.698 80.6587 143.698 80.2558C143.698 79.8562 143.116 79.5065 142.444 79.5065ZM83.9481 83.3127C82.8769 83.3127 82.0222 83.8255 82.0222 84.4682C82.0222 85.1109 82.8769 85.6204 83.9481 85.6204C85.0192 85.6204 85.8683 85.1109 85.8683 84.4682C85.8683 83.8255 85.0192 83.3127 83.9481 83.3127ZM70.8447 75.2708C69.0576 75.2708 67.6258 76.1266 67.6258 77.1989C67.6258 78.2711 69.0576 79.1336 70.8447 79.1336C72.6318 79.1336 74.0637 78.2711 74.0637 77.1989C74.0637 76.1266 72.6318 75.2708 70.8447 75.2708ZM42.0406 72.8566C40.9251 72.8566 40.0316 73.3927 40.0316 74.062C40.0316 74.7347 40.9251 75.2708 42.0406 75.2708C43.1617 75.2708 44.0553 74.7347 44.0553 74.062C44.0553 73.3927 43.1617 72.8566 42.0406 72.8566ZM27.3278 79.5065C27.3278 80.2292 26.3455 80.8186 25.1356 80.8186C23.9313 80.8186 22.9434 80.2292 22.9434 79.5065C22.9434 78.7806 23.9313 78.1945 25.1356 78.1945C26.3899 78.1945 27.3278 78.7806 27.3278 79.5065Z" fill="#F14947"/>
<path d="M140.03 120.505C138.959 120.505 138.11 121.015 138.11 121.657C138.11 122.307 138.959 122.813 140.03 122.813C141.107 122.813 141.956 122.307 141.956 121.657C141.956 121.015 141.107 120.505 140.03 120.505ZM92.4893 119.513C91.7734 119.513 91.1463 119.863 91.1463 120.319C91.1463 120.748 91.729 121.121 92.4893 121.121C93.2053 121.121 93.8324 120.775 93.8324 120.319C93.8324 119.863 93.2053 119.513 92.4893 119.513ZM54.6112 108.414C53.7121 108.414 52.9962 108.84 52.9962 109.376C52.9962 109.913 53.7121 110.342 54.6112 110.342C55.5047 110.342 56.2207 109.913 56.2207 109.376C56.2207 108.84 55.5047 108.414 54.6112 108.414ZM7.02066 102.06C5.77193 102.06 4.78404 102.647 4.78404 103.402C4.78404 104.148 5.77193 104.741 7.02066 104.741C8.27494 104.741 9.25727 104.148 9.25727 103.402C9.25727 102.647 8.23054 102.06 7.02066 102.06ZM7.02066 116.699C5.77193 116.699 4.78404 117.288 4.78404 118.038C4.78404 118.79 5.77193 119.38 7.02066 119.38C8.27494 119.38 9.25727 118.79 9.25727 118.038C9.21842 117.315 8.23054 116.699 7.02066 116.699ZM146.201 109.003C144.414 109.003 142.938 109.886 142.938 110.962C142.938 112.034 144.414 112.92 146.201 112.92C147.994 112.92 149.465 112.034 149.465 110.962C149.465 109.886 147.994 109.003 146.201 109.003ZM141.773 84.8145C140.701 84.8145 139.852 85.324 139.852 85.97C139.852 86.6127 140.701 87.1222 141.773 87.1222C142.849 87.1222 143.698 86.6127 143.698 85.97C143.698 85.324 142.849 84.8145 141.773 84.8145ZM94.232 83.8255C93.5161 83.8255 92.8945 84.1718 92.8945 84.6314C92.8945 85.0843 93.4717 85.4339 94.232 85.4339C94.948 85.4339 95.5751 85.0843 95.5751 84.6314C95.5751 84.1718 94.948 83.8255 94.232 83.8255ZM56.3538 72.7234C55.4603 72.7234 54.7444 73.1496 54.7444 73.6857C54.7444 74.2252 55.4603 74.6514 56.3538 74.6514C57.2474 74.6514 57.9633 74.2252 57.9633 73.6857C57.9633 73.1496 57.2474 72.7234 56.3538 72.7234ZM8.76888 66.3665C7.5146 66.3665 6.53227 66.9559 6.53227 67.7084C6.53227 68.4577 7.5146 69.0471 8.76888 69.0471C10.0176 69.0471 11.0055 68.4577 11.0055 67.7084C11.0055 66.9559 9.97321 66.3665 8.76888 66.3665ZM8.76888 81.0117C7.5146 81.0117 6.53227 81.5978 6.53227 82.3504C6.53227 83.0996 7.5146 83.6923 8.76888 83.6923C10.0176 83.6923 11.0055 83.0996 11.0055 82.3504C11.0055 81.5978 9.97321 81.0117 8.76888 81.0117ZM150.181 70.792C150.181 71.8642 148.704 72.75 146.917 72.75C145.13 72.75 143.654 71.8642 143.654 70.792C143.654 69.7197 145.13 68.834 146.917 68.834C148.704 68.834 150.181 69.6931 150.181 70.792Z" fill="#456EB8"/>
<path d="M154.521 118.201C153.45 118.201 152.6 118.71 152.6 119.356C152.6 119.996 153.45 120.505 154.521 120.505C155.592 120.505 156.447 119.996 156.447 119.356C156.447 118.737 155.592 118.201 154.521 118.201ZM30.4579 110.962C29.8308 110.962 29.3424 111.255 29.3424 111.631C29.3424 112.007 29.8308 112.3 30.4579 112.3C31.085 112.3 31.5734 112.007 31.5734 111.631C31.5734 111.255 31.085 110.962 30.4579 110.962ZM25.9403 103.426C25.0911 103.426 24.3752 103.855 24.3752 104.365C24.3752 104.874 25.0911 105.301 25.9403 105.301C26.7894 105.301 27.5053 104.874 27.5053 104.365C27.5053 103.855 26.7894 103.426 25.9403 103.426ZM129.252 116.323C127.953 116.323 126.882 116.966 126.882 117.748C126.882 118.521 127.953 119.167 129.252 119.167C130.551 119.167 131.622 118.521 131.622 117.748C131.622 116.966 130.595 116.323 129.252 116.323ZM116.998 122.44C115.521 122.44 114.312 123.159 114.312 124.048C114.312 124.931 115.521 125.657 116.998 125.657C118.474 125.657 119.678 124.931 119.678 124.048C119.678 123.159 118.474 122.44 116.998 122.44ZM83.948 114.395C82.0222 114.395 80.4127 115.334 80.4127 116.509C80.4127 117.691 81.9778 118.63 83.948 118.63C85.8683 118.63 87.4777 117.691 87.4777 116.509C87.4777 115.334 85.9127 114.395 83.948 114.395ZM156.263 82.5102C155.192 82.5102 154.343 83.023 154.343 83.6624C154.343 84.3051 155.192 84.8146 156.263 84.8146C157.34 84.8146 158.189 84.3051 158.189 83.6624C158.189 83.0464 157.34 82.5102 156.263 82.5102ZM32.2006 75.2709C31.5734 75.2709 31.085 75.5639 31.085 75.9402C31.085 76.3165 31.5734 76.6095 32.2006 76.6095C32.8277 76.6095 33.3217 76.3165 33.3217 75.9402C33.3217 75.5639 32.8277 75.2709 32.2006 75.2709ZM27.6829 67.7384C26.8338 67.7384 26.1179 68.1647 26.1179 68.6742C26.1179 69.1837 26.8338 69.6132 27.6829 69.6132C28.5321 69.6132 29.248 69.1837 29.248 68.6742C29.248 68.1647 28.5321 67.7384 27.6829 67.7384ZM133.32 74.0621C132.021 74.0621 130.95 74.7081 130.95 75.484C130.95 76.2632 132.021 76.9059 133.32 76.9059C134.619 76.9059 135.69 76.2632 135.69 75.484C135.69 74.7081 134.619 74.0621 133.32 74.0621ZM126.566 82.054C125.09 82.054 123.885 82.7766 123.885 83.6624C123.885 84.5482 125.09 85.2708 126.566 85.2708C128.042 85.2708 129.252 84.5482 129.252 83.6624C129.252 82.7766 128.086 82.054 126.566 82.054ZM92.8889 74.0621C90.9686 74.0621 89.3592 75.0011 89.3592 76.1833C89.3592 77.3354 90.9242 78.3011 92.8889 78.3011C94.8147 78.3011 96.4242 77.3621 96.4242 76.1833C96.4242 75.0011 94.8591 74.0621 92.8889 74.0621ZM132.382 16.6266C131.577 20.0831 131.755 23.5963 131.4 27.0827C131.083 30.6225 130.861 34.1623 130.728 37.702C130.412 44.8881 130.012 52.1009 129.385 59.2903C129.208 61.3782 134.619 61.3782 134.796 59.2903C135.379 52.1009 135.823 44.9148 136.006 37.702C136.095 34.1623 136.006 30.6225 135.734 27.0827C135.468 23.5963 135.557 20.0565 134.619 16.6266C134.441 15.9839 132.56 15.954 132.382 16.6266ZM114.717 18.5314C113.868 21.7481 113.868 25.0448 113.551 28.2882C113.24 31.8546 112.88 35.3944 112.569 38.9608C111.942 45.9604 111.403 52.96 110.643 59.9596C110.421 62.1308 116.06 62.1041 116.237 59.9596C116.909 52.9866 117.442 45.9604 117.486 38.9608C117.486 35.5276 117.397 32.071 117.22 28.6378C117.042 25.2879 117.087 21.8547 116.193 18.5314C116.104 18.0718 114.85 18.0718 114.717 18.5314ZM96.291 17.8587C95.7971 19.3872 96.0635 20.9156 96.0635 22.4707C96.1079 24.1857 95.9303 25.9306 95.7971 27.6488C95.5307 30.8656 95.3475 34.0824 94.9923 37.3024C94.2764 43.9224 92.8445 50.6523 92.8445 57.279C92.8445 59.0439 97.7673 59.5833 98.2113 57.7052C99.6875 51.1352 99.4656 44.2421 99.1936 37.6221C99.0604 34.2955 99.016 30.9422 98.7496 27.6189C98.6164 26.0105 98.4333 24.4021 98.3889 22.7937C98.3445 21.1321 98.572 19.4671 97.9449 17.8321C97.6785 17.4025 96.4686 17.3759 96.291 17.8587ZM69.8568 17.6722C69.8568 19.3872 70.4839 21.0755 70.7947 22.7671C71.111 24.482 71.1554 26.1703 71.2442 27.8853C71.3774 31.0787 71.827 34.2688 72.1378 37.4356C72.7649 44.029 72.8537 50.679 73.5696 57.279C73.836 59.5833 79.5192 59.6366 79.608 57.279C79.8743 50.599 78.8476 43.736 77.7765 37.0827C77.2381 33.8925 76.7442 30.6758 75.7619 27.5156C74.7351 24.1857 74.5964 20.6492 73.1201 17.4025C72.6761 16.3036 69.8568 16.5201 69.8568 17.6722ZM52.6853 11.9313C51.8362 15.4178 52.369 19.0109 52.4134 22.524C52.4578 26.117 52.3246 29.6835 52.2358 33.2798C52.1026 36.8695 51.925 40.436 51.6974 44.029C51.5642 45.8805 51.431 47.7286 51.2978 49.5801C51.1646 51.3217 50.7595 53.1232 51.2978 54.8647C51.7474 56.4731 55.7267 56.2567 56.3538 54.8647C57.1585 53.1998 56.9754 51.3217 57.0642 49.5801C57.1585 47.7286 57.2473 45.8805 57.2917 44.029C57.3805 40.436 57.3805 36.8695 57.2917 33.2798C57.2029 29.6835 56.931 26.117 56.709 22.524C56.487 19.0109 56.5758 15.3379 55.1883 11.9313C54.8331 11.262 52.9073 11.1821 52.6853 11.9313ZM33.2273 12.6306C32.6945 20.2996 33.1829 27.9152 34.2152 35.5842C34.7036 39.3371 35.3307 43.1166 36.0023 46.8728C36.3131 48.6976 36.6738 50.5191 37.029 52.3406C37.3897 54.0622 37.1677 56.3632 38.866 57.8151C40.0704 58.8308 42.4846 58.6709 43.1561 57.4621C44.0996 55.8538 42.9785 53.8691 42.6233 52.2074C42.1738 50.306 41.7686 48.4279 41.369 46.5232C40.5643 42.6637 39.804 38.7776 39.088 34.9115C37.7449 27.4324 36.4019 19.9499 34.6592 12.5241C34.5704 11.988 33.2717 12.1478 33.2273 12.6306ZM11.1331 18.8244C11.2718 17.9386 13.6417 17.5923 13.9081 18.6079C14.7572 21.8813 14.9792 25.178 15.5619 28.478C16.1447 31.6948 16.7274 34.8882 17.2158 38.105C18.2481 44.7516 19.9908 51.3217 21.245 57.9716C19.408 57.5154 17.5321 57.0625 15.7007 56.6097C16.0115 56.4731 16.2779 56.3399 16.5942 56.1768C18.7365 55.1844 22.0942 56.0436 21.3782 57.8384C21.2894 58.0549 21.1951 58.268 21.1063 58.4844C20.3959 60.2527 15.3399 60.4125 14.846 58.4844C13.1921 51.9943 12.4762 45.3443 11.627 38.8009C11.2274 35.5842 11.0443 32.3907 10.9555 29.174C10.9555 25.7141 10.6447 22.231 11.1331 18.8244Z" fill="#3BA27A"/>
<path d="M163.195 87.312C155.503 88.624 147.589 89.4798 139.63 90.0726C114.584 91.9473 89.0928 92.1372 63.9572 91.0083C51.703 90.4722 39.4488 89.5897 27.3278 88.3543C18.2481 87.4452 9.03525 86.4496 0.0443878 85.1109V83.7956C10.5115 85.2175 20.9731 86.666 31.6678 87.685C56.265 90.016 81.2619 90.9817 106.175 90.5821C125.139 90.2624 144.725 89.5631 163.151 86.5328C163.151 86.7992 163.195 87.0423 163.195 87.312ZM163.423 98.9203C152.329 100.262 141.057 101.225 129.79 101.897C105.01 103.373 79.9243 103.346 55.1439 101.817C43.0229 101.091 30.9963 99.9926 19.0528 98.544C12.7481 97.7948 6.34909 96.9889 0.0443878 96.0266V94.7112C7.73657 95.9167 15.4288 97.0422 23.2597 97.9546C69.6348 103.266 116.998 103.049 163.423 98.251V98.9203ZM163.24 90.9017C143.071 94.8211 121.338 95.6503 100.315 96.0266C75.4067 96.4528 50.4043 95.4605 25.8071 93.1295C17.1326 92.297 8.58571 91.2014 0.0887871 90.0459V91.3846C7.20378 92.3236 14.402 93.1028 21.517 93.7988C33.6325 95.0043 45.8867 95.9167 58.1409 96.4528C83.2765 97.5517 108.767 97.3919 133.814 95.5138C143.832 94.7645 153.805 93.639 163.334 91.6277C163.29 91.3846 163.29 91.1448 163.24 90.9017ZM3.57968 109.376C2.86375 109.376 2.281 109.726 2.281 110.156C2.281 110.585 2.86375 110.932 3.57968 110.932C4.29562 110.932 4.87281 110.585 4.87281 110.156C4.87281 109.726 4.29562 109.376 3.57968 109.376ZM29.0704 119.38C28.1769 119.38 27.461 119.809 27.461 120.345C27.461 120.882 28.1769 121.311 29.0704 121.311C29.964 121.311 30.6799 120.882 30.6799 120.345C30.6799 119.809 29.964 119.38 29.0704 119.38ZM46.2918 113.882C45.3483 113.882 44.588 114.338 44.588 114.901C44.588 115.467 45.3483 115.92 46.2918 115.92C47.2298 115.92 47.9901 115.467 47.9901 114.901C47.9901 114.338 47.2298 113.882 46.2918 113.882ZM76.611 112.543C76.0338 112.543 75.5843 112.81 75.5843 113.159C75.5843 113.509 76.0338 113.775 76.611 113.775C77.1938 113.775 77.6433 113.509 77.6433 113.159C77.6433 112.81 77.1938 112.543 76.611 112.543ZM70.8447 121.338C69.5016 121.338 68.386 121.98 68.386 122.813C68.386 123.615 69.4572 124.288 70.8447 124.288C72.1877 124.288 73.3033 123.645 73.3033 122.813C73.3033 121.98 72.1877 121.338 70.8447 121.338ZM11.9878 111.178C11.3163 111.178 10.7779 111.498 10.7779 111.897C10.7779 112.3 11.3163 112.623 11.9878 112.623C12.6593 112.623 13.1921 112.3 13.1921 111.897C13.1921 111.498 12.6593 111.178 11.9878 111.178ZM156.263 104.711C155.015 104.711 153.982 105.327 153.982 106.083C153.982 106.829 155.015 107.448 156.263 107.448C157.518 107.448 158.544 106.829 158.544 106.083C158.544 105.327 157.562 104.711 156.263 104.711ZM154.027 111.444C153.222 111.444 152.6 111.817 152.6 112.3C152.6 112.786 153.222 113.159 154.027 113.159C154.832 113.159 155.459 112.786 155.459 112.3C155.459 111.817 154.832 111.444 154.027 111.444ZM113.512 111.444C111.942 111.444 110.649 112.22 110.649 113.159C110.649 114.098 111.942 114.874 113.512 114.874C115.077 114.874 116.371 114.098 116.371 113.159C116.326 112.22 115.077 111.444 113.512 111.444ZM104.344 122.843C103.223 122.843 102.329 123.379 102.329 124.048C102.329 124.718 103.223 125.254 104.344 125.254C105.459 125.254 106.353 124.718 106.353 124.048C106.353 123.379 105.459 122.843 104.344 122.843ZM55.8599 121.551C54.7 121.551 53.7565 122.114 53.7565 122.813C53.7565 123.512 54.7 124.072 55.8599 124.072C57.0254 124.072 57.9633 123.512 57.9633 122.813C57.9633 122.114 57.0254 121.551 55.8599 121.551ZM11.8102 105.437C10.3783 105.437 9.21285 106.133 9.21285 106.992C9.21285 107.848 10.3783 108.547 11.8102 108.547C13.2421 108.547 14.402 107.848 14.402 106.992C14.402 106.133 13.2421 105.437 11.8102 105.437ZM5.32236 73.6857C4.60642 73.6857 4.02923 74.0387 4.02923 74.465C4.02923 74.8945 4.60642 75.2442 5.32236 75.2442C6.0383 75.2442 6.62104 74.8945 6.62104 74.465C6.62104 74.0387 6.0383 73.6857 5.32236 73.6857ZM30.8131 83.6923C29.9196 83.6923 29.2036 84.1186 29.2036 84.6547C29.2036 85.1908 29.9196 85.6204 30.8131 85.6204C31.7122 85.6204 32.4281 85.1908 32.4281 84.6547C32.4281 84.1186 31.7122 83.6923 30.8131 83.6923ZM48.0345 78.1945C47.0966 78.1945 46.3362 78.6474 46.3362 79.2102C46.3362 79.7729 47.0966 80.2292 48.0345 80.2292C48.9724 80.2292 49.7328 79.7729 49.7328 79.2102C49.7328 78.6474 48.9724 78.1945 48.0345 78.1945ZM81.4894 73.6857C80.9067 73.6857 80.4571 73.9555 80.4571 74.3085C80.4571 74.6514 80.9067 74.9212 81.4894 74.9212C82.0666 74.9212 82.5161 74.6514 82.5161 74.3085C82.5161 73.9821 82.0666 73.6857 81.4894 73.6857ZM68.5636 82.3503C67.2206 82.3503 66.105 82.993 66.105 83.8255C66.105 84.6547 67.1762 85.3007 68.5636 85.3007C69.9067 85.3007 71.0223 84.6547 71.0223 83.8255C71.0223 82.993 69.9067 82.3503 68.5636 82.3503ZM13.7305 75.4839C13.0589 75.4839 12.5261 75.8069 12.5261 76.2065C12.5261 76.6095 13.0589 76.9325 13.7305 76.9325C14.402 76.9325 14.9404 76.6095 14.9404 76.2065C14.9404 75.8069 14.402 75.4839 13.7305 75.4839ZM158.1 64.9712C156.846 64.9712 155.819 65.5906 155.819 66.3398C155.819 67.0924 156.846 67.7084 158.1 67.7084C159.349 67.7084 160.381 67.0924 160.381 66.3398C160.381 65.5906 159.349 64.9712 158.1 64.9712ZM155.819 75.7803C155.015 75.7803 154.388 76.1533 154.388 76.6361C154.388 77.1223 155.015 77.4952 155.819 77.4952C156.624 77.4952 157.251 77.1223 157.251 76.6361C157.207 76.1533 156.58 75.7803 155.819 75.7803ZM117.359 74.062C115.788 74.062 114.495 74.8446 114.495 75.7803C114.495 76.7194 115.788 77.4952 117.359 77.4952C118.924 77.4952 120.217 76.7194 120.217 75.7803C120.172 74.8146 118.924 74.062 117.359 74.062ZM107.113 82.054C105.998 82.054 105.104 82.5901 105.104 83.2594C105.104 83.9321 105.998 84.4682 107.113 84.4682C108.234 84.4682 109.128 83.9321 109.128 83.2594C109.128 82.5901 108.234 82.054 107.113 82.054ZM55.8599 80.8186C54.7 80.8186 53.7565 81.3847 53.7565 82.084C53.7565 82.7766 54.7 83.3394 55.8599 83.3394C57.0254 83.3394 57.9633 82.7766 57.9633 82.084C57.9633 81.3847 57.0254 80.8186 55.8599 80.8186ZM16.1447 71.3015C16.1447 72.1606 14.9848 72.8566 13.5529 72.8566C12.121 72.8566 10.9611 72.1606 10.9611 71.3015C10.9611 70.4423 12.121 69.7497 13.5529 69.7497C14.9848 69.7497 16.1447 70.4423 16.1447 71.3015Z" fill="#FAE0C9"/>
<path d="M150.364 7.29598C151.346 4.45218 147.633 2.33431 147.367 2.20112C147.139 2.73724 146.784 3.56974 146.157 4.5321C144.814 6.59669 143.565 7.26934 143.876 8.23171C144.054 8.77116 144.769 9.52041 147.367 10.243C148.083 9.89669 149.825 8.931 150.364 7.29598ZM135.829 12.0412C136.5 10.0565 133.903 8.55471 133.725 8.47479C133.592 8.85108 133.32 9.44049 132.876 10.1098C131.938 11.5584 131.039 12.0146 131.267 12.6839C131.4 13.0602 131.894 13.5963 133.725 14.0791C134.219 13.866 135.423 13.1667 135.829 12.0412ZM123.347 5.09487C124.335 2.2544 120.622 0.136529 120.35 0C120.128 0.536126 119.773 1.36862 119.146 2.33431C117.802 4.3989 116.548 5.06823 116.865 6.03392C117.042 6.57005 117.758 7.32262 120.35 8.04523C121.066 7.69558 122.814 6.70658 123.347 5.09487ZM117.042 12.7372C117.847 10.4328 114.85 8.74452 114.628 8.63463C114.45 9.0642 114.178 9.73686 113.646 10.5127C112.569 12.1744 111.542 12.7105 111.809 13.4897C111.942 13.9193 112.524 14.5354 114.628 15.0981C115.211 14.8018 116.598 14.0259 117.042 12.7372ZM103.445 8.60799C105.681 7.88539 106.264 7.13281 106.442 6.59669C106.714 5.63099 105.637 4.96167 104.477 2.89708C103.939 1.93139 103.628 1.10222 103.445 0.566096C103.223 0.699295 100.093 2.81716 100.897 5.66096C101.391 7.29598 102.868 8.28499 103.445 8.60799ZM98.794 13.2733C99.5099 11.1288 96.7405 9.54705 96.5574 9.44049C96.4242 9.84342 96.1134 10.4595 95.6638 11.1821C94.6371 12.7372 93.6992 13.22 93.9656 13.9459C94.0988 14.3489 94.6371 14.9116 96.6018 15.4478C97.0513 15.2313 98.3944 14.4821 98.794 13.2733ZM86.6286 7.29598C87.6165 4.45218 83.9036 2.33431 83.6316 2.20112C83.4096 2.73724 83.0544 3.56974 82.4273 4.5321C81.0842 6.59669 79.8355 7.26934 80.1463 8.23171C80.3239 8.77116 81.0398 9.52041 83.6316 10.243C84.3476 9.89669 86.0958 8.931 86.6286 7.29598ZM73.7972 11.8547C74.4687 9.84342 71.8713 8.31496 71.6937 8.23171C71.5605 8.60799 71.2886 9.20073 70.8446 9.89669C69.9067 11.3719 69.0076 11.8281 69.2351 12.524C69.3683 12.927 69.8567 13.4365 71.6937 13.9459C72.1877 13.6762 73.392 12.9803 73.7972 11.8547ZM65.9662 7.74886C66.6822 5.66096 63.9572 4.10586 63.7796 4.02261C63.6408 4.42554 63.3744 5.01495 62.8805 5.74088C61.8981 7.2427 60.9602 7.74886 61.1822 8.44815C61.3154 8.85108 61.8537 9.38721 63.7296 9.92333C64.268 9.65361 65.5666 8.931 65.9662 7.74886ZM56.9809 6.14048C57.9633 3.30001 54.2504 1.18214 53.984 1.04561C53.7564 1.58174 53.4012 2.41423 52.7741 3.37993C51.431 5.44451 50.1823 6.11717 50.4931 7.07953C50.6707 7.61566 51.3866 8.36824 53.984 9.09084C54.6555 8.71788 56.3982 7.74886 56.9809 6.14048ZM46.869 13.1135C47.4073 11.5051 45.3483 10.3263 45.2151 10.243C45.0819 10.5394 44.9043 11.0222 44.5491 11.5584C43.7832 12.7105 43.0728 13.0868 43.2504 13.6229C43.3392 13.9459 43.7388 14.3489 45.2151 14.7485C45.5758 14.562 46.5582 13.9992 46.869 13.1135ZM36.2742 7.96531C37.0345 5.76752 34.1708 4.10586 33.9432 4.02261C33.7656 4.45218 33.4992 5.06823 33.0053 5.8208C31.9785 7.42918 30.9962 7.93867 31.2182 8.68791C31.3514 9.11748 31.8897 9.68025 33.9044 10.243C34.4816 9.97661 35.869 9.22404 36.2742 7.96531ZM23.6592 11.4518C25.8958 10.7259 26.523 9.97661 26.6562 9.44049C26.9226 8.47479 25.8514 7.80547 24.686 5.74088C24.1532 4.77519 23.8368 3.94269 23.6592 3.40657C23.4372 3.53977 20.2627 5.66096 21.1118 8.50143C21.6058 10.1365 23.1209 11.1288 23.6592 11.4518ZM13.9136 12.5507C14.8959 9.70689 11.183 7.58902 10.9111 7.45582C10.6891 7.99195 10.3339 8.82444 9.70673 9.79014C8.36365 11.8547 7.10937 12.524 7.42572 13.4897C7.60331 14.0259 8.31925 14.7751 10.9111 15.501C11.5826 15.1514 13.3752 14.1591 13.9136 12.5507Z" fill="#F9B53F"/>
</svg>
