<svg width="587" height="291" viewBox="0 0 587 291" fill="none" xmlns="http://www.w3.org/2000/svg">
<path d="M226.812 203.477C223.198 195.729 220.314 188.428 217.981 181.785C229.206 182.609 241.074 183.143 253.526 183.298C264.617 183.438 275.255 183.257 285.378 182.838C281.628 188.484 277.785 194.784 273.968 201.815C272.002 205.459 270.025 209.273 268.125 213.269C262.001 226.041 257.599 237.985 254.409 248.45C247.49 239.628 239.929 228.663 232.8 215.441C230.611 211.361 228.603 207.365 226.812 203.477Z" fill="#3BA27A"/>
<path d="M336.668 201.615C334.274 198.337 331.875 195.098 329.471 191.818L325.769 186.785C324.034 184.42 322.306 182.086 320.572 179.721C330.547 178.566 341.031 177.073 351.929 175.189C363.504 173.15 374.49 170.812 384.839 168.332C383.538 175.587 381.848 183.508 379.539 191.925L378.034 197.235C377.624 198.535 377.221 199.857 376.818 201.178C374.416 208.826 371.794 215.91 369.134 222.423C368.245 224.54 367.388 226.56 366.494 228.556C365.197 231.478 363.895 234.289 362.634 236.934C359.963 233.297 357.263 229.655 354.603 226.009C353.469 224.469 352.335 222.929 351.203 221.369C346.367 214.795 341.505 208.189 336.668 201.615Z" fill="#446DB7"/>
<path d="M510.412 121.116L574.217 158.325C572.452 146.977 571.1 133.997 570.721 119.658C570.363 106.483 570.939 94.4385 571.937 83.7513C564.065 89.2581 555.68 94.8299 546.826 100.351C534.253 108.169 522.072 115.058 510.412 121.116ZM159.701 174.194C169.389 175.97 178.761 177.454 187.775 178.659C179.519 186.985 170.329 197.613 161.488 210.771C155.113 220.248 150.073 229.322 146.072 237.541C141.75 228.156 137.353 217.246 133.517 204.884C129.148 190.787 126.424 177.791 124.692 166.499C135.651 169.298 147.35 171.921 159.701 174.194Z" fill="#F14947"/>
<path d="M571.287 99.7956C571.631 99.5572 571.71 99.1029 571.472 98.759L564.725 88.6061C564.496 88.2635 564.043 88.1747 563.699 88.413C563.356 88.6514 563.277 89.1057 563.505 89.4483L570.262 99.6025C570.424 99.8355 570.669 99.9682 570.914 99.9493C571.057 99.9375 571.174 99.892 571.287 99.7956ZM529.77 131.06C530.12 130.853 530.23 130.392 529.992 130.049L520.931 115.446C520.724 115.096 520.273 114.987 519.931 115.216C519.591 115.424 519.471 115.884 519.709 116.227L528.768 130.84C528.91 131.07 529.187 131.197 529.451 131.181C529.543 131.172 529.659 131.137 529.77 131.06ZM570.526 117.956C570.876 117.749 570.986 117.289 570.778 116.949L557.019 93.5285C556.812 93.1786 556.353 93.0586 556.013 93.2672C555.673 93.4757 555.553 93.9349 555.76 94.2848L569.522 117.675C569.661 117.935 569.937 118.062 570.213 118.037C570.325 118.031 570.44 117.996 570.526 117.956ZM572.058 137.443C572.398 137.235 572.508 136.774 572.28 136.432L549.039 98.9405C548.84 98.6017 548.381 98.4818 548.037 98.7202C547.697 98.9287 547.587 99.3891 547.815 99.7317L571.046 137.222C571.188 137.452 571.465 137.579 571.73 137.563C571.822 137.554 571.938 137.509 572.058 137.443ZM557.876 149.113C558.182 148.85 558.241 148.393 557.978 148.086L528.486 111.14C528.224 110.824 527.767 110.765 527.459 111.038C527.152 111.301 527.095 111.748 527.357 112.065L556.849 149.011C557.014 149.214 557.234 149.313 557.469 149.293C557.616 149.251 557.762 149.21 557.876 149.113ZM574.625 158.923C574.968 158.694 575.048 158.23 574.819 157.887L538.691 105.238C538.453 104.894 537.999 104.816 537.655 105.054C537.322 105.284 537.232 105.747 537.47 106.09L573.598 158.739C573.761 158.963 574.011 159.065 574.246 159.045C574.395 159.065 574.51 159.029 574.625 158.923ZM369.099 222.459C368.95 222.44 368.776 222.458 368.594 222.465C366.635 222.615 365.213 224.32 365.365 226.269C365.439 227.187 365.859 227.999 366.47 228.583L369.099 222.459ZM355.997 219.282C354.229 218.427 352.142 219.187 351.29 220.936C351.233 221.059 351.162 221.222 351.111 221.377C352.247 222.907 353.371 224.446 354.511 226.018C355.796 226.002 357.024 225.252 357.609 224.004C358.492 222.25 357.764 220.146 355.997 219.282ZM378.003 197.241C377.692 197.383 377.307 197.474 376.919 197.505C374.96 197.656 373.302 196.189 373.15 194.241C373.006 192.303 374.448 190.601 376.387 190.448C377.662 190.35 378.806 190.952 379.509 191.921L378.003 197.241ZM360.112 203.695C358.185 203.84 356.732 205.551 356.885 207.49C357.027 209.437 358.727 210.899 360.656 210.744C362.583 210.599 364.035 208.898 363.883 206.95C363.739 205.012 362.04 203.55 360.112 203.695ZM365.091 176.728C363.163 176.882 361.711 178.583 361.863 180.532C362.006 182.469 363.706 183.931 365.634 183.786C367.561 183.642 369.014 181.931 368.861 179.992C368.718 178.045 367.05 176.577 365.091 176.728ZM347.497 189.088C345.57 189.233 344.118 190.934 344.27 192.882C344.414 194.82 346.112 196.291 348.041 196.137C349.968 195.992 351.42 194.291 351.278 192.344C351.124 190.405 349.456 188.937 347.497 189.088ZM328.571 184.794C327.266 184.888 326.192 185.699 325.678 186.784L329.379 191.827C331.21 191.568 332.492 189.936 332.352 188.05C332.229 186.105 330.53 184.643 328.571 184.794ZM126.655 177.72L147.903 172.568C148.279 172.475 148.554 172.066 148.431 171.687C148.308 171.307 147.939 171.038 147.551 171.149L126.304 176.301C125.928 176.394 125.653 176.803 125.776 177.182C125.861 177.537 126.183 177.78 126.54 177.755C126.595 177.722 126.626 177.716 126.655 177.72ZM128.68 187.061L167.136 176.205C167.515 176.092 167.75 175.678 167.627 175.298C167.516 174.91 167.112 174.676 166.732 174.799L128.276 185.655C127.898 185.768 127.663 186.182 127.775 186.56C127.861 186.914 128.207 187.131 128.533 187.102C128.568 187.066 128.619 187.063 128.68 187.061ZM131.09 196.623L187.977 179.362C188.356 179.239 188.59 178.835 188.469 178.446C188.356 178.068 187.942 177.833 187.574 177.947L130.688 195.207C130.298 195.329 130.064 195.733 130.186 196.122C130.302 196.47 130.612 196.652 130.938 196.633C131.005 196.662 131.03 196.625 131.09 196.623ZM133.749 205.591L179.569 188.395C179.942 188.241 180.145 187.843 179.996 187.43C179.844 187.047 179.446 186.844 179.033 186.993L133.221 204.21C132.847 204.364 132.633 204.77 132.792 205.184C132.902 205.502 133.211 205.693 133.538 205.665C133.602 205.633 133.684 205.623 133.749 205.591ZM136.752 214.472L172.241 197.194C172.617 197.02 172.754 196.583 172.581 196.207C172.397 195.83 171.971 195.684 171.596 195.858L136.117 213.138C135.741 213.312 135.594 213.747 135.767 214.123C135.911 214.414 136.194 214.572 136.49 214.55C136.582 214.541 136.668 214.502 136.752 214.472ZM140.014 223.145L162.96 209.78C163.308 209.582 163.418 209.122 163.242 208.766C163.044 208.427 162.584 208.307 162.238 208.485L139.293 221.85C138.943 222.057 138.833 222.518 139.011 222.864C139.149 223.124 139.425 223.25 139.69 223.234C139.819 223.251 139.904 223.221 140.014 223.145ZM142.59 229.476L155.151 221.99C155.491 221.782 155.611 221.322 155.403 220.972C155.195 220.632 154.736 220.513 154.396 220.721L141.835 228.207C141.495 228.416 141.385 228.876 141.582 229.225C141.72 229.485 142.006 229.613 142.272 229.587C142.388 229.551 142.48 229.543 142.59 229.476ZM420.177 158.558L474.237 208.03C476.464 200.097 478.522 191.435 480.186 182.076C483.354 164.206 484.408 147.922 484.343 133.886C474.393 138.437 463.696 142.983 452.306 147.349C441.169 151.626 430.409 155.335 420.177 158.558ZM66.1565 148.22C75.7138 151.788 84.9994 154.957 93.9348 157.788C87.2154 163.989 80.2534 170.896 73.1986 178.599C62.3963 190.372 53.2855 201.95 45.6342 212.707C41.6223 200.534 37.8226 186.328 34.9846 170.308C32.6161 156.984 31.3491 144.671 30.7317 133.584C41.7204 138.579 53.5255 143.507 66.1565 148.22Z" fill="#F9B53F"/>
<path d="M296.687 180.503C302.988 180.044 309.302 179.477 315.732 178.803C438.014 165.73 529.217 114.083 584.194 73.0647C584.841 72.5929 585.745 72.7097 586.247 73.3602C586.717 74.0169 586.609 74.932 585.958 75.4337C530.668 116.684 438.976 168.601 316.041 181.721C310.53 182.322 305.045 182.804 299.649 183.218C296.058 183.501 292.461 183.744 288.924 183.923C170.365 190.69 74.4051 157.304 13.11 126.853C12.3997 126.489 12.089 125.61 12.4487 124.859C12.8144 124.139 13.6829 123.827 14.4329 124.196C76.7171 155.199 175.15 189.218 296.687 180.503Z" fill="#F79748"/>
</svg>
