<svg width="179" height="177" viewBox="0 0 179 177" fill="none" xmlns="http://www.w3.org/2000/svg">
<path d="M79.5388 62.1517C86.0045 65.9705 92.716 70.9898 99.1079 77.5252C112.142 90.9564 118.214 105.236 121.078 113.615C117.44 112.66 112.424 111.14 106.594 108.702C97.6943 104.92 86.9223 98.9464 76.5395 89.4363C60.7153 75.0176 53.0491 59.2549 49.554 50.5233C55.4502 51.7607 66.9639 54.7313 79.5388 62.1517Z" fill="#F9B53F"/>
<path d="M174.586 112.201C175.115 110.362 174.058 108.42 172.222 107.854L157.988 103.683C156.148 103.15 154.206 104.212 153.64 106.051C153.112 107.887 154.173 109.833 156.008 110.399L170.243 114.57C170.558 114.672 170.915 114.709 171.23 114.709C172.75 114.709 174.127 113.722 174.586 112.201ZM146.474 26.9838L153.149 9.52477C153.82 7.72191 152.935 5.70599 151.133 5.03402C149.334 4.32927 147.318 5.24708 146.65 7.04994L139.971 24.509C139.303 26.3118 140.184 28.3277 141.987 28.9997C142.409 29.139 142.835 29.2456 143.221 29.2456C144.601 29.2456 145.941 28.3974 146.474 26.9838ZM68.5905 23.3453C70.2171 22.3168 70.6761 20.1247 69.6517 18.5349L62.1289 6.83687C61.1045 5.21021 58.9124 4.7513 57.3226 5.77975C55.7001 6.80409 55.2411 8.99211 56.2655 10.5819L63.7883 22.2841C64.4562 23.3084 65.5871 23.8739 66.718 23.8739C67.3531 23.9066 67.9882 23.7304 68.5905 23.3453ZM89.6757 99.6512C89.0037 99.6512 88.3358 99.475 87.7335 99.0529C86.1437 97.9917 85.7217 95.7996 86.7788 94.2098C89.4298 90.2517 95.0802 83.2534 102.886 80.9916C112.142 78.3406 120.795 80.8482 129.166 83.2534C131.424 83.8885 133.547 84.5236 135.698 85.0193C140.397 86.1502 145.343 87.0353 149.403 85.7282C153.82 84.3146 157.598 80.5655 160.704 77.0663C161.978 75.6199 164.203 75.5134 165.617 76.7836C167.063 78.0579 167.17 80.2828 165.9 81.6964C162.155 85.9044 157.529 90.4648 151.522 92.3701C145.835 94.1729 139.762 93.1486 134.075 91.7719C131.781 91.2064 129.482 90.5672 127.257 89.8953C119.488 87.6704 112.175 85.5479 104.828 87.6335C100.661 88.8381 96.211 92.62 92.5726 98.0245C91.9006 99.0857 90.8066 99.6512 89.6757 99.6512Z" fill="#F14947"/>
<path d="M140.221 130.119C142.094 129.697 143.294 127.821 142.868 125.948L140.926 117.36C140.504 115.488 138.631 114.32 136.759 114.709C134.886 115.135 133.686 117.008 134.108 118.88L136.054 127.468C136.406 129.095 137.853 130.189 139.443 130.189C139.688 130.226 139.971 130.189 140.221 130.119ZM177.659 68.3388C178.896 66.8515 178.72 64.6635 177.237 63.4261C174.869 61.4101 170.878 58.8657 165.334 58.0175C159.012 57.0259 153.853 58.8288 151.346 59.9965C149.616 60.8078 148.838 62.8934 149.649 64.6266C150.465 66.3598 152.546 67.1342 154.279 66.3229C156.078 65.4748 159.753 64.2005 164.273 64.9093C168.194 65.5116 171.054 67.3473 172.75 68.7978C173.385 69.3632 174.197 69.609 174.975 69.609C176 69.609 176.987 69.187 177.659 68.3388ZM76.5394 92.9355C75.4782 92.9355 74.4538 92.4766 73.7818 91.5957C72.6182 90.0755 72.9009 87.8834 74.4169 86.7157C81.3415 81.344 85.7217 75.4069 87.3442 69.0436C89.2864 61.4798 87.2049 54.7642 84.98 47.6593C82.5789 39.9193 79.8214 31.1549 82.5789 20.8008C84.2384 14.4703 87.6269 8.60696 92.6094 3.37458C93.9492 1.99376 96.1413 1.92411 97.5181 3.26805C98.8948 4.612 98.9644 6.80411 97.6246 8.18083C93.4575 12.5651 90.6303 17.4082 89.2864 22.5668C87.0615 30.9788 89.2864 38.0837 91.6178 45.5737C94.023 53.3178 96.5306 61.3036 94.0926 70.7768C92.0439 78.693 86.8525 85.9044 78.6577 92.2308C78.0226 92.7266 77.281 92.9355 76.5394 92.9355Z" fill="#446DB7"/>
<path d="M52.9425 40.415C53.3686 38.5425 52.2009 36.67 50.3284 36.2439L39.4498 33.7691C37.5772 33.347 35.7088 34.5107 35.2827 36.3873C34.8607 38.2598 36.0243 40.1323 37.8968 40.5585L48.7754 43.0292C49.0213 43.1029 49.304 43.1029 49.5539 43.1029C51.1437 43.1029 52.5901 42.0048 52.9425 40.415ZM76.5394 89.4732C71.9831 85.3389 68.1316 81.0981 64.8454 76.9597C62.092 73.4606 59.7237 70.0351 57.7487 66.8187C53.8275 60.4185 51.2134 54.6945 49.5539 50.593L31.5746 96.2954L27.0551 107.78L0 176.703L11.6161 170.659L21.5441 165.5L71.5939 139.416L82.5421 133.725L121.078 113.648C111.822 111.21 93.7403 105.129 76.5394 89.4732ZM114.789 29.2455C113.695 29.2455 112.601 28.717 111.929 27.7254C110.835 26.1356 111.224 23.9804 112.81 22.8864C114.297 21.862 117.862 18.9283 118.923 13.7656C119.734 9.80748 118.64 6.52136 117.899 4.8947C117.12 3.12872 117.899 1.07592 119.665 0.301512C121.431 -0.476994 123.479 0.301512 124.254 2.06749C125.315 4.43579 126.942 9.31169 125.737 15.1792C124.184 22.8126 118.956 27.1272 116.768 28.6473C116.165 29.0325 115.461 29.2455 114.789 29.2455Z" fill="#3BA27A"/>
<path d="M76.5395 129.271C73.0771 129.271 70.2499 132.062 70.2499 135.561C70.2499 137.011 70.7457 138.355 71.557 139.416L82.5053 133.725C81.7309 131.144 79.3298 129.271 76.5395 129.271ZM31.5746 96.2954L27.0552 107.78C28.0099 108.383 29.1039 108.702 30.3044 108.702C33.7667 108.702 36.5898 105.908 36.5898 102.409C36.5898 99.4053 34.4346 96.8608 31.5746 96.2954ZM95.1171 109.444C91.6548 109.444 88.8276 112.271 88.8276 115.733C88.8276 119.2 91.6179 122.027 95.1171 122.027C98.5794 122.027 101.402 119.233 101.402 115.733C101.402 112.271 98.6121 109.444 95.1171 109.444ZM44.1126 123.015C40.6503 123.015 37.8272 125.809 37.8272 129.308C37.8272 132.77 40.6175 135.598 44.1126 135.598C47.6118 135.598 50.4021 132.807 50.4021 129.308C50.4021 125.809 47.5749 123.015 44.1126 123.015ZM15.2546 159.281C11.7964 159.281 8.96924 162.071 8.96924 165.57C8.96924 167.693 9.99359 169.528 11.5834 170.696L21.5442 165.5C21.5073 162.034 18.717 159.281 15.2546 159.281ZM57.7488 66.7818C55.7001 67.8062 54.2865 69.9286 54.2865 72.4035C54.2865 75.8658 57.0768 78.693 60.5719 78.693C62.2313 78.693 63.7883 78.021 64.8824 76.9598C62.092 73.4606 59.7237 70.0352 57.7488 66.7818ZM161.52 38.9318C156.82 37.0921 147.248 34.5107 136.124 37.551C121.82 41.4763 114.33 52.0435 111.785 56.4277C110.798 58.0872 111.363 60.2096 113.023 61.1971C113.588 61.5167 114.19 61.6929 114.789 61.6929C115.989 61.6929 117.157 61.0578 117.792 59.9597C119.91 56.3212 126.126 47.5568 137.959 44.3035C147.142 41.759 155.091 43.9511 158.975 45.4344C160.778 46.1432 162.79 45.2213 163.494 43.4553C164.203 41.6894 163.318 39.6366 161.52 38.9318Z" fill="#F9B53F"/>
<path d="M139.832 127.538C140.078 127.468 140.221 127.255 140.147 127.01L137.996 117.819C137.923 117.573 137.714 117.43 137.464 117.504C137.218 117.573 137.079 117.786 137.148 118.032L139.303 127.223C139.336 127.432 139.512 127.575 139.725 127.575C139.762 127.538 139.795 127.538 139.832 127.538ZM67.0376 21.0098C67.2465 20.8705 67.3203 20.6247 67.1769 20.4116L59.5475 8.28741C59.4082 8.07434 59.1583 8.04156 58.9493 8.14809C58.7362 8.28741 58.6666 8.53325 58.8059 8.74631L66.4353 20.8705C66.5049 21.0098 66.6483 21.0836 66.7876 21.0836C66.8942 21.0467 66.9638 21.0467 67.0376 21.0098ZM114.33 57.9479C116.555 54.3053 123.053 45.4344 135.206 41.546C146.966 37.7313 157.209 40.874 161.061 42.3614C161.27 42.431 161.519 42.3245 161.626 42.1114C161.728 41.8984 161.589 41.6156 161.376 41.546C156.504 39.6366 146.544 36.9528 134.956 40.6978C122.561 44.6928 115.883 53.7767 113.588 57.4849C113.449 57.6979 113.518 57.9479 113.732 58.0872C113.801 58.1241 113.871 58.1568 113.941 58.1568C114.084 58.1568 114.223 58.0872 114.33 57.9479ZM79.4322 92.0177C79.5756 91.8416 79.5756 91.5588 79.3994 91.4195C72.8272 85.7282 66.931 79.2585 61.9158 72.1904C58.2077 66.9949 54.9584 61.4102 52.2378 55.6124C52.1312 55.4034 51.8854 55.2969 51.6723 55.4034C51.4593 55.5058 51.3527 55.7558 51.4593 55.9688C54.2168 61.7994 57.466 67.417 61.207 72.6862C66.2591 79.8239 72.1921 86.3633 78.834 92.0546C78.9036 92.1243 79.0102 92.1612 79.1167 92.1612C79.2232 92.1612 79.3625 92.1243 79.4322 92.0177ZM90.3477 119.835C90.5607 119.692 90.5935 119.409 90.4542 119.233C88.5817 116.619 89.1103 112.943 91.6547 111.071C92.8922 110.149 94.5147 109.759 96.1045 110.042C97.7312 110.325 99.1407 111.247 100.063 112.624C100.202 112.837 100.448 112.874 100.661 112.73C100.874 112.591 100.907 112.341 100.767 112.128C99.7061 110.538 98.1163 109.514 96.2479 109.194C94.4451 108.879 92.5726 109.301 91.1262 110.362C88.2293 112.517 87.5942 116.725 89.7454 119.728C89.8191 119.835 89.9584 119.905 90.1018 119.905C90.1715 119.905 90.278 119.868 90.3477 119.835ZM9.49779 168.045C9.71086 167.975 9.85427 167.725 9.78051 167.48C8.93645 164.861 9.92392 162.001 12.1857 160.588C14.2344 159.313 16.9182 159.457 18.8604 160.94C19.0365 161.079 19.3193 161.047 19.4627 160.87C19.602 160.694 19.5651 160.412 19.3889 160.268C17.1312 158.572 14.0582 158.396 11.7268 159.879C9.11264 161.506 7.98176 164.759 8.96923 167.795C9.04298 167.975 9.21917 168.115 9.39536 168.115C9.39536 168.045 9.42814 168.045 9.49779 168.045ZM44.1126 135.987C43.8668 135.987 43.6906 135.774 43.6906 135.561C43.6906 135.315 43.9037 135.139 44.1126 135.139C47.3291 135.139 49.9432 132.525 49.9432 129.308C49.9432 126.092 47.3291 123.473 44.1126 123.473C43.8668 123.473 43.6906 123.265 43.6906 123.051C43.6906 122.838 43.9037 122.625 44.1126 122.625C47.8249 122.625 50.8242 125.633 50.8242 129.341C50.8242 132.984 47.8249 135.987 44.1126 135.987Z" fill="#3A5471"/>
</svg>
