<svg width="179" height="177" viewBox="0 0 179 177" fill="none" xmlns="http://www.w3.org/2000/svg">
<path d="M92.1429 57.8834C86.1216 61.4364 79.8741 66.1124 73.918 72.2027C61.7834 84.7091 56.1224 98.0089 53.4586 105.809C56.8468 104.919 61.5189 103.505 66.9462 101.236C75.2365 97.7137 85.2669 92.1485 94.937 83.2948C109.674 69.8647 116.814 55.1852 120.069 47.052C114.576 48.2057 103.852 50.9691 92.1429 57.8834Z" fill="#F9B53F"/>
<path d="M3.62476 104.494C3.13033 102.781 4.11919 100.972 5.82861 100.443L19.0862 96.5601C20.7956 96.0657 22.6047 97.0545 23.1298 98.7639C23.6242 100.477 22.6392 102.286 20.9259 102.815L7.67218 106.698C7.37706 106.797 7.04744 106.832 6.74848 106.832C5.33418 106.832 4.05403 105.908 3.62476 104.494ZM29.8103 25.1323L23.5936 8.86984C22.9688 7.19108 23.789 5.31302 25.4678 4.68827C27.1427 4.03287 29.0208 4.88758 29.6455 6.56634L35.8623 22.8288C36.4871 24.5038 35.663 26.3818 33.9881 27.0066C33.5933 27.1369 33.1985 27.2365 32.8344 27.2365C31.5504 27.2365 30.3009 26.447 29.8103 25.1323ZM102.338 21.7403C100.828 20.786 100.399 18.7431 101.353 17.2636L108.359 6.36703C109.314 4.85308 111.353 4.42764 112.832 5.38201C114.346 6.33637 114.772 8.37541 113.821 9.8587L106.815 20.7515C106.19 21.7058 105.136 22.2348 104.082 22.2348C103.492 22.2654 102.898 22.1006 102.338 21.7403ZM82.7028 92.8078C83.3275 92.8078 83.9522 92.643 84.5118 92.2482C85.9913 91.2593 86.3861 89.2203 85.401 87.737C82.9327 84.0499 77.6703 77.5341 70.3995 75.4261C61.7834 72.9578 53.7231 75.2958 45.9272 77.5341C43.823 78.1282 41.8491 78.7185 39.8407 79.1784C35.4675 80.2324 30.8605 81.0565 27.0776 79.8377C22.9688 78.523 19.4465 75.0313 16.5527 71.7735C15.3684 70.4243 13.2949 70.3247 11.9802 71.509C10.6311 72.6972 10.5314 74.7707 11.7158 76.0854C15.2036 80.0025 19.5117 84.2492 25.1037 86.0276C30.4006 87.7064 36.0578 86.752 41.3547 85.468C43.4934 84.9391 45.6321 84.3488 47.7018 83.7241C54.9381 81.6467 61.7489 79.6728 68.5904 81.6161C72.4731 82.7352 76.6163 86.2576 80.0045 91.2938C80.6292 92.2789 81.6487 92.8078 82.7028 92.8078Z" fill="#3BA27A"/>
<path d="M35.6325 121.182C33.8886 120.787 32.7694 119.043 33.1642 117.299L34.9733 109.3C35.368 107.552 37.112 106.468 38.8559 106.832C40.5998 107.227 41.7151 108.971 41.3204 110.715L39.5113 118.714C39.1855 120.228 37.8364 121.247 36.3531 121.247C36.1231 121.282 35.8625 121.247 35.6325 121.182ZM0.765684 63.6441C-0.387984 62.2605 -0.223174 60.2215 1.16046 59.0678C3.36431 57.1936 7.07828 54.8211 12.2449 54.0315C18.132 53.1116 22.9345 54.7904 25.2687 55.8751C26.8823 56.634 27.6067 58.5734 26.8478 60.187C26.0927 61.8006 24.1495 62.525 22.5397 61.7661C20.861 60.9765 17.4421 59.7922 13.2299 60.4514C9.58109 61.011 6.91347 62.7204 5.33436 64.0734C4.74411 64.5985 3.98905 64.8285 3.26466 64.8285C2.3103 64.8285 1.39043 64.4337 0.765684 63.6441ZM94.9372 86.5527C95.926 86.5527 96.8804 86.1272 97.5051 85.3032C98.5898 83.8889 98.3253 81.846 96.911 80.7613C90.4643 75.7557 86.3862 70.225 84.8723 64.3034C83.0632 57.2587 85.0064 51.0036 87.0761 44.3882C89.3145 37.1788 91.8786 29.0149 89.3145 19.3716C87.766 13.4768 84.6116 8.01511 79.9701 3.14364C78.7207 1.85966 76.6816 1.7945 75.4015 3.04399C74.1175 4.29731 74.0523 6.33635 75.3018 7.62033C79.1844 11.7022 81.8137 16.2096 83.0632 21.0159C85.1367 28.8501 83.0632 35.4655 80.8938 42.445C78.6555 49.6545 76.3213 57.0939 78.5903 65.9131C80.4991 73.2874 85.3322 80.0024 92.9633 85.8934C93.5574 86.3572 94.2473 86.5527 94.9372 86.5527Z" fill="#446DB7"/>
<path d="M116.91 37.6387C116.516 35.8948 117.604 34.1508 119.344 33.7561L129.478 31.4526C131.222 31.0578 132.962 32.1425 133.361 33.8864C133.752 35.6303 132.667 37.378 130.923 37.7728L120.793 40.0763C120.563 40.1415 120.299 40.1415 120.069 40.1415C118.589 40.1415 117.24 39.122 116.91 37.6387ZM94.937 83.3293C99.1799 79.4773 102.767 75.5257 105.826 71.6738C108.394 68.4159 110.598 65.2232 112.438 62.2298C116.09 56.2698 118.524 50.9384 120.069 47.121L136.814 89.6802L141.022 100.377L166.219 164.565L155.399 158.939L146.155 154.132L99.544 129.84L89.345 124.539L53.4587 105.843C62.0786 103.57 78.9198 97.9092 94.937 83.3293ZM59.3152 27.2365C60.3347 27.2365 61.3542 26.7459 61.9789 25.8222C62.9985 24.3427 62.6382 22.3344 61.1549 21.3148C59.7751 20.3605 56.4521 17.6277 55.467 12.8214C54.7081 9.13426 55.7277 6.07187 56.4214 4.55792C57.142 2.91366 56.4214 1.00493 54.7771 0.280536C53.129 -0.443859 51.2241 0.280537 50.4998 1.9248C49.5109 4.13248 48.0008 8.67433 49.1161 14.136C50.5649 21.2459 55.4325 25.2626 57.4716 26.6769C58.0312 27.041 58.6904 27.2365 59.3152 27.2365Z" fill="#F14947"/>
<path d="M94.937 120.392C98.1603 120.392 100.793 122.991 100.793 126.253C100.793 127.602 100.334 128.851 99.5746 129.84L89.3794 124.539C90.1038 122.136 92.3383 120.392 94.937 120.392ZM136.814 89.6803L141.022 100.378C140.133 100.937 139.114 101.236 137.994 101.236C134.771 101.236 132.142 98.6337 132.142 95.3758C132.142 92.5779 134.146 90.2054 136.814 89.6803ZM77.6358 101.926C80.8592 101.926 83.4923 104.559 83.4923 107.786C83.4923 111.01 80.8936 113.643 77.6358 113.643C74.4124 113.643 71.7831 111.044 71.7831 107.786C71.7831 104.559 74.3817 101.926 77.6358 101.926ZM125.135 114.567C128.359 114.567 130.988 117.165 130.988 120.423C130.988 123.65 128.389 126.283 125.135 126.283C121.878 126.283 119.279 123.685 119.279 120.423C119.279 117.165 121.912 114.567 125.135 114.567ZM152.011 148.337C155.234 148.337 157.864 150.94 157.864 154.198C157.864 156.171 156.909 157.885 155.43 158.969L146.154 154.132C146.189 150.905 148.784 148.337 152.011 148.337ZM112.437 62.1954C114.346 63.1498 115.661 65.1236 115.661 67.4271C115.661 70.6544 113.062 73.2875 109.808 73.2875C108.26 73.2875 106.815 72.6627 105.795 71.6739C108.394 68.416 110.598 65.2233 112.437 62.1954ZM15.7977 36.259C20.1709 34.5457 29.0859 32.1425 39.4459 34.975C52.7687 38.6276 59.7443 48.4702 62.1092 52.5521C63.0329 54.0967 62.5039 56.0744 60.9593 56.9943C60.4342 57.2894 59.8747 57.4542 59.3151 57.4542C58.1959 57.4542 57.1112 56.864 56.5171 55.8406C54.5471 52.4525 48.7558 44.2886 37.7365 41.2607C29.1856 38.8921 21.7845 40.9311 18.1663 42.3147C16.4876 42.974 14.6133 42.1154 13.9541 40.4712C13.2948 38.8231 14.1189 36.9144 15.7977 36.259Z" fill="#F9B53F"/>
<path d="M35.9927 118.779C35.7627 118.714 35.6324 118.514 35.6976 118.284L37.7021 109.726C37.7711 109.496 37.9666 109.365 38.1965 109.431C38.4265 109.496 38.5568 109.695 38.4917 109.925L36.4871 118.484C36.4526 118.679 36.2878 118.813 36.0923 118.813C36.0578 118.779 36.0272 118.779 35.9927 118.779ZM103.787 19.5671C103.591 19.4368 103.522 19.2069 103.657 19.0075L110.759 7.72C110.893 7.5207 111.123 7.49003 111.318 7.58585C111.518 7.72 111.583 7.94997 111.453 8.14544L104.347 19.4368C104.281 19.5671 104.147 19.6323 104.017 19.6323C103.917 19.6016 103.852 19.6016 103.787 19.5671ZM59.7406 53.9664C57.6709 50.5743 51.6189 42.3147 40.3007 38.6927C29.3466 35.1397 19.8107 38.068 16.2232 39.4516C16.0277 39.5168 15.7977 39.4171 15.6981 39.2178C15.5984 39.0223 15.7288 38.7579 15.9281 38.6927C20.4661 36.9143 29.7414 34.4153 40.5307 37.9032C52.0789 41.621 58.2956 50.0838 60.4343 53.5371C60.5647 53.7364 60.4995 53.9664 60.3002 54.0967C60.235 54.1312 60.1699 54.1618 60.1047 54.1618C59.9744 54.1618 59.8403 54.0967 59.7406 53.9664ZM92.2426 85.698C92.1085 85.5332 92.1085 85.2687 92.2733 85.1384C98.3942 79.8376 103.887 73.8163 108.555 67.2316C112.012 62.3946 115.036 57.1936 117.57 51.7932C117.669 51.5977 117.899 51.4981 118.095 51.5977C118.294 51.6935 118.394 51.9235 118.294 52.1228C115.726 57.5538 112.702 62.7894 109.214 67.6916C104.511 74.3414 98.9845 80.4317 92.8022 85.7325C92.7332 85.7976 92.6374 85.8283 92.5377 85.8283C92.4381 85.8283 92.3078 85.7976 92.2426 85.698ZM82.0781 111.604C81.8788 111.47 81.8481 111.209 81.9784 111.044C83.7223 108.607 83.2279 105.184 80.8592 103.44C79.7094 102.585 78.1955 102.221 76.716 102.486C75.2021 102.75 73.8874 103.605 73.0327 104.889C72.8986 105.084 72.6686 105.119 72.4731 104.988C72.2738 104.854 72.2431 104.624 72.3735 104.429C73.3585 102.945 74.8418 101.991 76.5857 101.696C78.2606 101.397 80.0045 101.796 81.3537 102.781C84.052 104.789 84.6422 108.706 82.6377 111.504C82.5687 111.604 82.4384 111.669 82.308 111.669C82.2429 111.669 82.1432 111.634 82.0781 111.604ZM157.369 156.501C157.174 156.436 157.043 156.206 157.109 155.976C157.894 153.538 156.974 150.871 154.87 149.556C152.962 148.372 150.463 148.502 148.654 149.886C148.489 150.016 148.224 149.985 148.094 149.82C147.964 149.656 147.994 149.391 148.159 149.261C150.263 147.678 153.126 147.513 155.3 148.897C157.733 150.411 158.784 153.439 157.864 156.271C157.799 156.436 157.634 156.566 157.469 156.566C157.469 156.501 157.438 156.501 157.369 156.501ZM125.136 126.647C125.366 126.647 125.53 126.448 125.53 126.253C125.53 126.019 125.331 125.854 125.136 125.854C122.142 125.854 119.708 123.42 119.708 120.423C119.708 117.43 122.142 114.992 125.136 114.992C125.366 114.992 125.53 114.796 125.53 114.597C125.53 114.402 125.331 114.202 125.136 114.202C121.682 114.202 118.884 117 118.884 120.457C118.884 123.849 121.682 126.647 125.136 126.647Z" fill="#3A5471"/>
</svg>
