<svg width="587" height="291" viewBox="0 0 587 291" fill="none" xmlns="http://www.w3.org/2000/svg">
<path d="M359.902 202.644C363.516 194.895 366.4 187.595 368.733 180.951C357.508 181.775 345.64 182.309 333.187 182.464C322.097 182.604 311.459 182.423 301.336 182.004C305.085 187.65 308.929 193.95 312.746 200.981C314.712 204.625 316.689 208.439 318.589 212.436C324.713 225.207 329.115 237.151 332.305 247.616C339.224 238.794 346.785 227.829 353.914 214.607C356.103 210.527 358.111 206.531 359.902 202.644Z" fill="#3BA27A"/>
<path d="M250.046 200.781C252.44 197.503 254.839 194.264 257.243 190.984L260.945 185.951C262.679 183.586 264.408 181.252 266.142 178.887C256.167 177.732 245.683 176.239 234.785 174.355C223.21 172.316 212.223 169.978 201.875 167.498C203.176 174.753 204.866 182.674 207.175 191.091L208.679 196.401C209.09 197.701 209.493 199.023 209.896 200.344C212.298 207.992 214.92 215.076 217.58 221.589C218.469 223.706 219.326 225.727 220.22 227.722C221.517 230.644 222.819 233.455 224.08 236.1C226.751 232.463 229.451 228.821 232.111 225.175C233.245 223.635 234.379 222.095 235.51 220.535C240.347 213.962 245.209 207.355 250.046 200.781Z" fill="#446DB7"/>
<path d="M76.3015 120.282L12.4964 157.491C14.2619 146.144 15.6143 133.163 15.9934 118.824C16.3511 105.649 15.7744 93.6047 14.7772 82.9174C22.649 88.4243 31.0342 93.996 39.8875 99.5174C52.4611 107.335 64.642 114.224 76.3015 120.282ZM427.013 173.36C417.325 175.137 407.953 176.62 398.939 177.825C407.195 186.151 416.385 196.779 425.226 209.937C431.601 219.414 436.641 228.489 440.642 236.707C444.964 227.322 449.361 216.413 453.197 204.051C457.566 189.953 460.29 176.957 462.022 165.665C451.063 168.465 439.363 171.087 427.013 173.36Z" fill="#F14947"/>
<path d="M15.4264 98.9617C15.0826 98.7234 15.0037 98.269 15.242 97.9251L21.9891 87.7723C22.2175 87.4297 22.6706 87.3408 23.0145 87.5792C23.3583 87.8175 23.4373 88.2719 23.2088 88.6145L16.4518 98.7686C16.29 99.0016 16.0446 99.1343 15.7997 99.1155C15.6568 99.1036 15.5399 99.0581 15.4264 98.9617ZM56.9439 130.226C56.594 130.019 56.484 129.559 56.7223 129.215L65.7829 114.612C65.9901 114.262 66.4406 114.154 66.7832 114.382C67.1232 114.59 67.2432 115.05 67.0048 115.394L57.9456 130.006C57.8037 130.236 57.5272 130.363 57.2625 130.347C57.1705 130.338 57.0548 130.303 56.9439 130.226ZM16.1875 117.122C15.8376 116.915 15.7276 116.455 15.9361 116.115L29.6945 92.6947C29.9018 92.3447 30.3609 92.2248 30.7009 92.4333C31.041 92.6418 31.1609 93.101 30.9537 93.451L17.1914 116.841C17.0534 117.101 16.7768 117.228 16.5009 117.203C16.3891 117.197 16.2734 117.162 16.1875 117.122ZM14.6559 136.61C14.3159 136.401 14.2058 135.941 14.4343 135.598L37.6753 98.1066C37.8739 97.7679 38.333 97.648 38.6769 97.8863C39.0169 98.0948 39.1269 98.5553 38.8985 98.8979L15.6674 136.388C15.5255 136.618 15.249 136.745 14.9843 136.729C14.8924 136.72 14.7754 136.675 14.6559 136.61ZM28.8381 148.279C28.5314 148.016 28.4724 147.559 28.7357 147.253L58.2279 110.307C58.4899 109.99 58.9468 109.931 59.2548 110.204C59.5615 110.468 59.6193 110.915 59.3572 111.231L29.8651 148.177C29.6995 148.38 29.48 148.479 29.2451 148.459C29.0983 148.418 28.9516 148.376 28.8381 148.279ZM12.0889 158.089C11.7463 157.86 11.6661 157.396 11.8945 157.053L48.0226 104.404C48.2609 104.061 48.7153 103.982 49.0591 104.22C49.3918 104.45 49.4819 104.913 49.2436 105.257L13.1156 157.906C12.9525 158.129 12.7032 158.232 12.4683 158.211C12.3193 158.231 12.2036 158.195 12.0889 158.089ZM217.614 221.625C217.763 221.606 217.937 221.624 218.12 221.631C220.079 221.782 221.501 223.486 221.348 225.435C221.275 226.353 220.855 227.165 220.244 227.749L217.614 221.625ZM230.716 218.448C232.484 217.593 234.572 218.354 235.424 220.102C235.481 220.226 235.552 220.388 235.602 220.543C234.467 222.073 233.343 223.612 232.203 225.184C230.918 225.168 229.69 224.418 229.105 223.17C228.222 221.416 228.95 219.312 230.716 218.448ZM208.71 196.407C209.022 196.549 209.407 196.64 209.795 196.671C211.753 196.822 213.412 195.355 213.564 193.407C213.708 191.469 212.266 189.767 210.327 189.614C209.052 189.516 207.908 190.118 207.205 191.088L208.71 196.407ZM226.602 202.861C228.529 203.006 229.982 204.717 229.829 206.656C229.687 208.603 227.987 210.065 226.058 209.91C224.131 209.765 222.679 208.064 222.831 206.116C222.975 204.178 224.674 202.717 226.602 202.861ZM221.622 175.894C223.551 176.049 225.003 177.75 224.851 179.698C224.707 181.636 223.008 183.097 221.08 182.953C219.153 182.808 217.7 181.097 217.853 179.158C217.995 177.211 219.664 175.743 221.622 175.894ZM239.217 188.254C241.144 188.399 242.596 190.1 242.444 192.048C242.3 193.986 240.602 195.457 238.673 195.303C236.746 195.158 235.294 193.457 235.436 191.51C235.589 189.571 237.258 188.103 239.217 188.254ZM258.143 183.96C259.448 184.054 260.522 184.865 261.036 185.95L257.335 190.993C255.504 190.734 254.222 189.102 254.362 187.216C254.485 185.271 256.184 183.809 258.143 183.96ZM460.058 176.886L438.811 171.734C438.435 171.641 438.16 171.232 438.283 170.853C438.406 170.474 438.775 170.204 439.163 170.315L460.41 175.467C460.786 175.56 461.061 175.969 460.938 176.348C460.853 176.703 460.531 176.946 460.174 176.922C460.119 176.888 460.088 176.882 460.058 176.886ZM458.034 186.227L419.577 175.371C419.199 175.258 418.964 174.844 419.087 174.465C419.198 174.077 419.602 173.843 419.982 173.965L458.438 184.821C458.816 184.934 459.051 185.348 458.938 185.726C458.853 186.081 458.507 186.297 458.18 186.268C458.145 186.233 458.095 186.229 458.034 186.227ZM455.623 195.789L398.737 178.528C398.358 178.406 398.124 178.002 398.245 177.612C398.358 177.234 398.772 176.999 399.14 177.113L456.026 194.374C456.416 194.495 456.65 194.899 456.528 195.288C456.412 195.637 456.102 195.818 455.776 195.799C455.709 195.828 455.684 195.791 455.623 195.789ZM452.965 204.757L407.145 187.561C406.772 187.407 406.569 187.009 406.718 186.596C406.87 186.213 407.268 186.01 407.681 186.159L453.493 203.376C453.867 203.53 454.081 203.936 453.922 204.351C453.812 204.668 453.503 204.859 453.176 204.831C453.112 204.799 453.03 204.789 452.965 204.757ZM449.962 213.638L414.473 196.36C414.097 196.186 413.96 195.749 414.133 195.373C414.317 194.996 414.742 194.85 415.118 195.024L450.597 212.304C450.973 212.478 451.12 212.913 450.947 213.289C450.803 213.58 450.52 213.738 450.224 213.716C450.132 213.707 450.046 213.668 449.962 213.638ZM446.699 222.311L423.754 208.946C423.406 208.748 423.296 208.288 423.472 207.932C423.67 207.593 424.13 207.473 424.476 207.651L447.421 221.016C447.771 221.223 447.881 221.684 447.703 222.03C447.565 222.29 447.289 222.417 447.024 222.4C446.895 222.417 446.81 222.388 446.699 222.311ZM444.124 228.643L431.563 221.156C431.223 220.948 431.103 220.489 431.31 220.139C431.519 219.799 431.978 219.679 432.318 219.887L444.879 227.373C445.219 227.582 445.329 228.042 445.132 228.391C444.994 228.651 444.707 228.779 444.441 228.753C444.326 228.717 444.234 228.709 444.124 228.643ZM166.537 157.724L112.477 207.196C110.25 199.263 108.192 190.601 106.528 181.243C103.36 163.373 102.306 147.088 102.371 133.052C112.321 137.603 123.018 142.149 134.408 146.515C145.544 150.792 156.305 154.501 166.537 157.724ZM520.557 147.386C511 150.954 501.715 154.123 492.779 156.954C499.498 163.155 506.46 170.062 513.515 177.765C524.318 189.538 533.428 201.116 541.08 211.873C545.092 199.7 548.891 185.494 551.729 169.474C554.098 156.15 555.365 143.838 555.982 132.75C544.993 137.745 533.188 142.674 520.557 147.386Z" fill="#F9B53F"/>
<path d="M290.026 179.669C283.726 179.21 277.411 178.643 270.982 177.969C148.7 164.896 57.4972 113.249 2.51967 72.2309C1.87293 71.759 0.969008 71.8758 0.467311 72.5264C-0.00326118 73.183 0.104896 74.0982 0.755423 74.5999C56.0457 115.85 147.738 167.768 270.672 180.887C276.183 181.488 281.669 181.971 287.065 182.384C290.656 182.668 294.253 182.91 297.79 183.089C416.349 189.856 512.309 156.47 573.604 126.019C574.314 125.655 574.625 124.776 574.265 124.025C573.899 123.305 573.031 122.993 572.281 123.362C509.997 154.366 411.564 188.384 290.026 179.669Z" fill="#F79748"/>
</svg>
