<svg width="20" height="20" viewBox="0 0 20 20" xmlns="http://www.w3.org/2000/svg">
<path d="M10 3.2767L9.63089 3.61398C9.72562 3.71765 9.85957 3.7767 10 3.7767C10.1404 3.7767 10.2744 3.71765 10.3691 3.61398L10 3.2767ZM2.36737 2.78535L1.99825 2.44807L2.36737 2.78535ZM2.36737 10.647L1.92893 10.8874L2.36737 10.647ZM10 19L9.65961 19.3662C9.85214 19.5452 10.1504 19.5445 10.3421 19.3647L10 19ZM10.3691 2.93942C8.97273 1.41125 7.51093 0.574792 6.03908 0.504759C4.55546 0.434165 3.18672 1.14744 1.99825 2.44807L2.73648 3.12263C3.7929 1.9665 4.89355 1.45138 5.99155 1.50363C7.10133 1.55643 8.33341 2.19404 9.63089 3.61398L10.3691 2.93942ZM1.99825 2.44807C0.772256 3.78978 0.399623 5.2826 0.522147 6.75757C0.642866 8.21081 1.24193 9.63429 1.92893 10.8874L2.8058 10.4066C2.14587 9.20293 1.62248 7.92398 1.51871 6.67478C1.41675 5.4473 1.71758 4.23769 2.73648 3.12263L1.99825 2.44807ZM1.92893 10.8874C2.30808 11.5789 2.99136 12.4557 3.77556 13.3622C4.56649 14.2765 5.48448 15.2486 6.35436 16.1361C7.22488 17.0243 8.0507 17.8313 8.65869 18.4162C8.96278 18.7087 9.21262 18.9458 9.3866 19.11C9.4736 19.1921 9.54164 19.256 9.58804 19.2994C9.61124 19.3211 9.62903 19.3377 9.64107 19.349C9.64709 19.3546 9.65167 19.3589 9.65477 19.3617C9.65633 19.3632 9.65751 19.3643 9.65831 19.365C9.65872 19.3654 9.65903 19.3657 9.65924 19.3659C9.65935 19.366 9.65944 19.3661 9.6595 19.3661C9.65956 19.3662 9.65961 19.3662 10 19C10.3404 18.6338 10.3404 18.6338 10.3404 18.6337C10.3403 18.6337 10.3403 18.6336 10.3402 18.6336C10.34 18.6334 10.3398 18.6332 10.3394 18.6329C10.3387 18.6322 10.3376 18.6312 10.3362 18.6299C10.3333 18.6272 10.3289 18.6231 10.3231 18.6177C10.3115 18.6069 10.2942 18.5907 10.2714 18.5694C10.226 18.5268 10.1589 18.4638 10.0729 18.3827C9.90096 18.2205 9.65346 17.9855 9.35194 17.6955C8.74871 17.1152 7.93025 16.3153 7.06853 15.4361C6.20618 14.5563 5.30397 13.6005 4.53184 12.708C3.75298 11.8077 3.13034 10.9986 2.8058 10.4066L1.92893 10.8874ZM10 19C10.3421 19.3647 10.3421 19.3646 10.3422 19.3646C10.3422 19.3645 10.3423 19.3644 10.3424 19.3643C10.3427 19.3641 10.343 19.3638 10.3434 19.3635C10.3442 19.3627 10.3454 19.3616 10.3469 19.3601C10.3501 19.3572 10.3547 19.3528 10.3607 19.3471C10.3729 19.3357 10.3908 19.3188 10.4142 19.2967C10.461 19.2525 10.5296 19.1876 10.6174 19.1041C10.7928 18.9372 11.0447 18.6962 11.3511 18.3995C11.9636 17.8062 12.7949 16.989 13.6689 16.0942C14.5423 15.2 15.4619 14.2248 16.2496 13.3161C17.0299 12.416 17.7065 11.5523 18.0711 10.8874L17.1942 10.4066C16.8853 10.9701 16.2711 11.7647 15.494 12.6611C14.7244 13.5489 13.8199 14.5084 12.9535 15.3954C12.0878 16.2817 11.2634 17.0922 10.6553 17.6812C10.3514 17.9756 10.1016 18.2145 9.92808 18.3796C9.8413 18.4622 9.77357 18.5263 9.72763 18.5697C9.70466 18.5913 9.68714 18.6079 9.67541 18.6189C9.66954 18.6244 9.66512 18.6286 9.6622 18.6313C9.66073 18.6327 9.65964 18.6337 9.65893 18.6344C9.65857 18.6347 9.65831 18.635 9.65814 18.6351C9.65806 18.6352 9.658 18.6353 9.65796 18.6353C9.65793 18.6353 9.65793 18.6353 10 19ZM18.0711 10.8874C18.7581 9.6343 19.3571 8.21081 19.4779 6.75757C19.6004 5.28261 19.2277 3.78978 18.0017 2.44807L17.2635 3.12263C18.2824 4.23769 18.5833 5.44731 18.4813 6.67479C18.3775 7.92398 17.8541 9.20294 17.1942 10.4066L18.0711 10.8874ZM18.0017 2.44807C16.8133 1.14744 15.4445 0.43417 13.9609 0.504762C12.4891 0.574794 11.0273 1.41125 9.63089 2.93942L10.3691 3.61398C11.6666 2.19404 12.8987 1.55644 14.0084 1.50363C15.1065 1.45139 16.2071 1.9665 17.2635 3.12263L18.0017 2.44807Z"/>
</svg>
