<svg width="9" height="13" viewBox="0 0 9 13" xmlns="http://www.w3.org/2000/svg">
	<path
		d="M0 4.55C0 2.0345 2.01214 0 4.5 0C6.98786 0 9 2.0345 9 4.55C9 7.9625 4.5 13 4.5 13C4.5 13 2.25039 10.4817 0.932325 7.8H4.5C6.2752 7.8 7.71429 6.34493 7.71429 4.55C7.71429 2.75507 6.2752 1.3 4.5 1.3C2.7248 1.3 1.28571 2.75507 1.28571 4.55C1.28571 5.28164 1.52482 5.95682 1.92834 6.5H0.38076C0.144113 5.82341 0 5.16069 0 4.55ZM4.5 6.5C5.56512 6.5 6.42857 5.62696 6.42857 4.55C6.42857 3.47304 5.56512 2.6 4.5 2.6C3.43488 2.6 2.57143 3.47304 2.57143 4.55C2.57143 5.62696 3.43488 6.5 4.5 6.5Z" />
</svg>
