<svg width="44" height="70" viewBox="0 0 44 70" fill="none" xmlns="http://www.w3.org/2000/svg">
<path d="M44 21.9685C44 30.3336 39.318 37.6066 32.428 41.3172C29.3246 42.9885 25.7732 43.937 22 43.937C18.2268 43.937 14.6754 42.9885 11.572 41.3172C4.68203 37.6066 0 30.3336 0 21.9685C0 9.83564 9.84974 0 22 0C34.1503 0 44 9.83564 44 21.9685Z" fill="#FA4A0C"/>
<path d="M22 43.937C18.2268 43.937 14.6754 42.9885 11.572 41.3172C19.1859 56.1705 21.1304 72.521 22 69.05C22.8696 65.579 24.8664 55.3727 32.428 41.3172C29.3246 42.9885 25.7732 43.937 22 43.937Z" fill="#FA4A0C"/>
<path d="M22.2607 13.7476C22.1909 13.6808 22.098 13.6436 22.0015 13.6436C21.9049 13.6436 21.812 13.6808 21.7422 13.7476L13.1125 21.9915C13.0759 22.0265 13.0467 22.0687 13.0268 22.1153C13.0069 22.162 12.9967 22.2122 12.9968 22.2629L12.9954 30.0001C12.9954 30.3979 13.1534 30.7794 13.4347 31.0607C13.716 31.342 14.0975 31.5001 14.4954 31.5001H19.0001C19.199 31.5001 19.3897 31.4211 19.5304 31.2804C19.671 31.1397 19.7501 30.949 19.7501 30.7501V24.3751C19.7501 24.2756 19.7896 24.1802 19.8599 24.1099C19.9302 24.0396 20.0256 24.0001 20.1251 24.0001H23.8751C23.9745 24.0001 24.0699 24.0396 24.1402 24.1099C24.2105 24.1802 24.2501 24.2756 24.2501 24.3751V30.7501C24.2501 30.949 24.3291 31.1397 24.4697 31.2804C24.6104 31.4211 24.8011 31.5001 25.0001 31.5001H29.5029C29.9007 31.5001 30.2822 31.342 30.5635 31.0607C30.8448 30.7794 31.0029 30.3979 31.0029 30.0001V22.2629C31.0029 22.2122 30.9927 22.162 30.9728 22.1153C30.9529 22.0687 30.9237 22.0265 30.8871 21.9915L22.2607 13.7476Z" fill="#FFFDFD"/>
<path d="M33.0114 20.4445L29.5052 17.0902V12C29.5052 11.8011 29.4261 11.6103 29.2855 11.4697C29.1448 11.329 28.9541 11.25 28.7552 11.25H26.5052C26.3062 11.25 26.1155 11.329 25.9748 11.4697C25.8342 11.6103 25.7552 11.8011 25.7552 12V13.5L23.0402 10.9041C22.7861 10.6472 22.4083 10.5 22 10.5C21.5931 10.5 21.2163 10.6472 20.9622 10.9045L10.9919 20.4436C10.7003 20.7248 10.6638 21.1875 10.9291 21.4922C10.9957 21.5691 11.0773 21.6316 11.1688 21.676C11.2604 21.7204 11.36 21.7457 11.4617 21.7503C11.5633 21.755 11.6649 21.7389 11.7601 21.7031C11.8553 21.6672 11.9423 21.6124 12.0156 21.5419L21.7422 12.2475C21.812 12.1807 21.9048 12.1435 22.0014 12.1435C22.098 12.1435 22.1908 12.1807 22.2606 12.2475L31.9881 21.5419C32.1314 21.6793 32.3233 21.7543 32.5218 21.7504C32.7203 21.7465 32.9092 21.6641 33.047 21.5212C33.3348 21.2231 33.3109 20.7309 33.0114 20.4445Z" fill="#FFFDFD"/>
</svg>
