<svg width="48" height="48" viewBox="0 0 48 48" fill="none" xmlns="http://www.w3.org/2000/svg">
<circle cx="24" cy="24" r="23.5" fill="#FF652A" stroke="white"/>
<path d="M15.1059 37.6021C15.1822 37.7026 15.2944 37.7725 15.4168 37.8248C15.5416 37.878 15.6969 37.9215 15.8818 37.9581C16.2517 38.0316 16.7724 38.0836 17.4755 38.1186C18.8839 38.1888 21.0623 38.1923 24.3132 38.1451L32.8929 38.021L33.1259 38.0177V37.7846V30.8175V23.8504V9.91616V9.6831L32.8928 9.6798L24.2005 9.55664C20.4184 9.50298 18.2236 9.49511 16.9385 9.58039C16.2985 9.62287 15.8622 9.68945 15.5621 9.7947C15.2479 9.90489 15.0631 10.065 14.9583 10.2929C14.9292 10.3562 14.9102 10.4395 14.8955 10.5207C14.8798 10.608 14.8653 10.7159 14.8518 10.8413C14.8248 11.0923 14.8005 11.4248 14.7787 11.825C14.735 12.6262 14.7005 13.7097 14.6748 14.9789C14.6233 17.5179 14.6066 20.8074 14.6212 24.083C14.6359 27.3585 14.6819 30.622 14.7559 33.1089C14.7929 34.352 14.8369 35.4032 14.8877 36.1656C14.913 36.5464 14.9403 36.8584 14.9697 37.0877C14.9843 37.2019 15 37.3 15.0173 37.3778C15.0259 37.4163 15.0358 37.4539 15.0475 37.4877C15.0577 37.5172 15.0753 37.5617 15.1059 37.6021ZM15.1059 37.6021L15.2942 37.4593M19.6194 19.8932C18.702 17.723 19.2954 15.6405 21.0478 14.6165C21.3325 14.4501 21.8255 14.2874 22.4035 14.1666C22.9762 14.047 23.609 13.9732 24.1611 13.9732C25.4598 13.9732 26.7159 14.4421 27.6446 15.1611C28.5765 15.8826 29.1512 16.832 29.1512 17.7832C29.1512 17.9591 29.095 18.2381 28.9798 18.6089C28.8664 18.9737 28.702 19.408 28.4999 19.8863C28.0959 20.8425 27.5462 21.9619 26.9666 23.03C26.3868 24.0986 25.7802 25.1101 25.2634 25.8519C25.0043 26.2236 24.7722 26.5213 24.5806 26.7235C24.4845 26.825 24.4043 26.8963 24.341 26.9406C24.2966 26.9716 24.2719 26.9813 24.2639 26.9842C24.2567 26.9822 24.2406 26.977 24.2139 26.9631C24.1711 26.9407 24.1155 26.9035 24.0471 26.8478C23.9102 26.7365 23.7423 26.5681 23.5497 26.3482C23.1656 25.9098 22.7031 25.2897 22.2214 24.5731C21.2578 23.1396 20.2331 21.3441 19.6194 19.8932ZM19.6194 19.8932L19.4017 19.9852M19.4017 19.9852C18.447 17.727 19.0548 15.5074 20.9285 14.4124L19.4017 19.9852ZM23.0019 17.1921C22.705 17.5928 22.7618 18.0498 23.0378 18.3854C23.3051 18.7104 23.7675 18.9176 24.3012 18.9176C24.8903 18.9176 25.3139 18.3735 25.3139 17.7823C25.3139 17.1853 24.8904 16.7968 24.4091 16.682C23.9301 16.5678 23.3577 16.7116 23.0019 17.1921ZM23.0019 17.1921L23.1915 17.3325M24.1938 10.0294L24.1972 9.793M24.1938 10.0294L32.6531 10.1492V23.8504V37.5517L24.3064 37.6723C21.0545 37.7196 18.8903 37.7158 17.4991 37.6465C16.8024 37.6118 16.3092 37.561 15.9737 37.4945C15.806 37.4612 15.6858 37.4255 15.6026 37.3901C15.5386 37.3626 15.5067 37.3397 15.492 37.3262C15.4885 37.3151 15.484 37.2983 15.4787 37.2749C15.466 37.2175 15.4524 37.1357 15.4386 37.0277C15.411 36.8126 15.3845 36.5117 15.3594 36.1341C15.3092 35.3806 15.2654 34.336 15.2284 33.0949C15.1546 30.6133 15.1087 27.3541 15.094 24.0809C15.0794 20.8077 15.0961 17.5223 15.1474 14.9885C15.1731 13.7213 15.2075 12.644 15.2507 11.8508C15.2724 11.4539 15.2962 11.1308 15.3219 10.8918C15.3348 10.7722 15.3478 10.6765 15.3608 10.6045C15.3673 10.5686 15.3734 10.5407 15.3788 10.5198C15.3839 10.5005 15.3877 10.4906 15.3877 10.4906C15.4275 10.4041 15.4967 10.3186 15.7185 10.2408C15.9545 10.1581 16.3365 10.0942 16.9698 10.0521C18.2316 9.9684 20.4043 9.9756 24.1938 10.0294ZM33.312 9.29039L33.3841 9.0653M33.312 9.29039C33.363 9.30674 33.407 9.33326 33.4516 9.38947C33.5005 9.45104 33.5551 9.55485 33.6081 9.73398C33.7148 10.0955 33.797 10.6999 33.8565 11.713C33.975 13.732 34 17.2932 34 23.5839C34 28.8243 33.9573 32.4168 33.8554 34.7475C33.8044 35.9138 33.7388 36.758 33.6575 37.3321C33.6168 37.6198 33.5732 37.8323 33.5281 37.981C33.5055 38.055 33.4842 38.108 33.4655 38.1441C33.446 38.1819 33.4349 38.1905 33.4384 38.1876C33.4194 38.2035 33.3626 38.2358 33.238 38.2737C33.1191 38.3098 32.9583 38.3451 32.7509 38.3781C32.3363 38.4446 31.7559 38.4996 30.9934 38.5434C29.4694 38.6311 27.24 38.672 24.1999 38.672C20.5832 38.672 18.3698 38.6412 16.9738 38.5387C15.5635 38.4346 15.0468 38.2585 14.7615 38.0207C14.6314 37.9122 14.5051 37.7293 14.398 37.3C14.2899 36.8667 14.2079 36.2103 14.148 35.1836C14.0285 33.1335 14 29.6646 14 23.6837C14 18.6118 14.043 15.1276 14.145 12.863C14.1961 11.7298 14.2617 10.9086 14.3428 10.3488C14.3835 10.0684 14.427 9.86111 14.4719 9.71605C14.4943 9.64368 14.5155 9.59194 14.534 9.55656C14.5452 9.5352 14.5536 9.52328 14.5582 9.5175C14.564 9.51491 14.5753 9.51013 14.5944 9.5038C14.6337 9.49074 14.6898 9.47615 14.7649 9.46071C14.9145 9.42993 15.1208 9.39945 15.3795 9.36988C15.8957 9.31086 16.602 9.25745 17.4404 9.21078C19.116 9.1175 21.3061 9.05181 23.5287 9.02059C25.7512 8.98938 28.0035 8.99268 29.8035 9.03717C30.7038 9.05941 31.4888 9.09192 32.0995 9.13533C32.7214 9.17954 33.1347 9.23362 33.312 9.29039ZM29.3876 17.7832C29.3876 15.6877 26.8678 13.7368 24.1611 13.7368L29.3876 17.7832ZM20.2287 17.9985C20.2287 14.786 24.8545 13.3391 27.1932 15.8202L20.2287 17.9985ZM19.184 20.0773C19.8127 21.5638 20.8541 23.3865 21.8291 24.8368C22.3167 25.5622 22.7916 26.2004 23.1941 26.6598C23.3948 26.8889 23.5825 27.0793 23.7487 27.2145C23.8317 27.2821 23.9145 27.3401 23.9951 27.3822C24.0729 27.4228 24.1664 27.458 24.2661 27.458C24.3982 27.458 24.5186 27.3932 24.6118 27.3281C24.7117 27.2583 24.8166 27.1619 24.9239 27.0487C25.1391 26.8215 25.3867 26.5018 25.6512 26.1221C26.1816 25.361 26.7974 24.3331 27.3821 23.2555C27.9671 22.1774 28.524 21.044 28.9354 20.0704C29.141 19.5837 29.3116 19.134 29.4312 18.7492C29.549 18.3703 29.624 18.0342 29.624 17.7832C29.624 16.6389 28.9387 15.5651 27.9341 14.7873C26.9262 14.007 25.5691 13.5005 24.1611 13.5005C23.5715 13.5005 22.9059 13.5787 22.3068 13.7038C21.7129 13.8279 21.1604 14.0031 20.8093 14.2083C18.8141 15.3743 18.1921 17.7309 19.184 20.0773ZM27.0212 15.9824C27.3135 16.2924 27.581 16.6694 27.7743 17.0246C27.9731 17.3898 28.0737 17.696 28.0737 17.8722C28.0737 17.9663 28.0315 18.154 27.9331 18.4366C27.838 18.7097 27.7 19.0453 27.5303 19.4219C27.1913 20.1744 26.7316 21.078 26.2519 21.9489C25.772 22.8201 25.2749 23.6537 24.8617 24.2673C24.6545 24.575 24.4722 24.8218 24.3263 24.9893C24.2528 25.0737 24.1941 25.1315 24.1505 25.1663C24.1441 25.1714 24.1384 25.1757 24.1334 25.1792C24.1238 25.1748 24.1109 25.168 24.0942 25.1575C24.0454 25.1269 23.983 25.0763 23.9075 25.0016C23.7568 24.8527 23.5766 24.631 23.3765 24.3498C22.9776 23.7892 22.519 23.0198 22.084 22.1964C21.6494 21.3735 21.2418 20.5032 20.9436 19.7425C20.7944 19.3621 20.6737 19.012 20.5907 18.7108C20.5066 18.406 20.4651 18.1652 20.4651 17.9985C20.4651 16.5233 21.5251 15.4313 22.9045 14.9998C24.2835 14.5685 25.925 14.8194 27.0212 15.9824ZM23.3818 17.4735C23.6117 17.1629 23.9821 17.0662 24.2995 17.1419C24.6146 17.217 24.8411 17.4488 24.8411 17.7823C24.8411 18.18 24.5664 18.4449 24.3012 18.4449C23.8828 18.4449 23.5651 18.2822 23.403 18.0851C23.2496 17.8986 23.2278 17.6814 23.3818 17.4735ZM28.5464 17.8722C28.5464 17.5715 28.3957 17.1773 28.1896 16.7986C27.978 16.4099 27.6871 15.9994 27.3652 15.6581C26.1227 14.3399 24.2819 14.0737 22.7634 14.5486C21.2452 15.0234 19.9923 16.2611 19.9923 17.9985C19.9923 18.2289 20.0471 18.518 20.1349 18.8364C20.2237 19.1585 20.3505 19.5249 20.5034 19.9151C20.8094 20.6956 21.225 21.5822 21.666 22.4172C22.1067 23.2515 22.5761 24.0405 22.9913 24.6239C23.1983 24.9148 23.3966 25.1614 23.5752 25.3379C23.6643 25.426 23.7541 25.5022 23.8428 25.5579C23.9277 25.6112 24.034 25.66 24.1508 25.66C24.2198 25.66 24.2789 25.638 24.3217 25.6168C24.3661 25.5947 24.4077 25.5659 24.4454 25.5357C24.5208 25.4756 24.6008 25.3939 24.6828 25.2998C24.8476 25.1106 25.0426 24.8452 25.2539 24.5314C25.6776 23.902 26.1822 23.0553 26.666 22.177C27.15 21.2983 27.6158 20.3831 27.9614 19.6161C28.1341 19.2328 28.2781 18.8833 28.3796 18.5921C28.4776 18.3105 28.5464 18.0547 28.5464 17.8722ZM16.7598 32.6156C16.7598 32.7375 16.835 32.8153 16.8807 32.8515C16.929 32.8898 16.9858 32.916 17.0364 32.9352C17.14 32.9746 17.28 33.007 17.4443 33.0354C17.7768 33.0926 18.2582 33.1408 18.8667 33.1798C20.0862 33.2581 21.8428 33.3013 24 33.3013C26.1572 33.3013 27.9138 33.2581 29.1333 33.1798C29.7418 33.1408 30.2232 33.0926 30.5557 33.0354C30.72 33.007 30.86 32.9746 30.9636 32.9352C31.0142 32.916 31.071 32.8898 31.1193 32.8515C31.165 32.8153 31.2402 32.7375 31.2402 32.6156C31.2402 32.4936 31.165 32.4158 31.1193 32.3796C31.071 32.3414 31.0142 32.3151 30.9636 32.2959C30.86 32.2565 30.72 32.224 30.5557 32.1957C30.2232 32.1384 29.7418 32.0903 29.1333 32.0512C27.9138 31.9729 26.1572 31.9297 24 31.9297C21.8428 31.9297 20.0862 31.9729 18.8667 32.0512C18.2582 32.0903 17.7768 32.1384 17.4443 32.1957C17.28 32.224 17.14 32.2565 17.0364 32.2959C16.9858 32.3151 16.929 32.3414 16.8807 32.3796C16.835 32.4158 16.7598 32.4936 16.7598 32.6156ZM24 32.8285C21.8471 32.8285 20.1019 32.7853 18.8969 32.708C18.4749 32.681 18.1225 32.6498 17.8436 32.6156C18.1225 32.5813 18.4749 32.5501 18.8969 32.5231C20.1019 32.4456 21.8471 32.4023 24 32.4023C26.1529 32.4023 27.8981 32.4456 29.1031 32.5231C29.525 32.5501 29.8775 32.5813 30.1564 32.6156C29.8775 32.6498 29.525 32.681 29.1031 32.708C27.8981 32.7853 26.1529 32.8285 24 32.8285ZM22.1473 35.3125C22.1473 35.498 22.281 35.6188 22.3818 35.6848C22.4927 35.7573 22.6375 35.8138 22.7952 35.8576C23.1139 35.9462 23.5402 35.9985 24 35.9985C24.4598 35.9985 24.8861 35.9462 25.2048 35.8576C25.3625 35.8138 25.5073 35.7573 25.6182 35.6848C25.719 35.6188 25.8526 35.498 25.8526 35.3125C25.8526 35.1269 25.719 35.0061 25.6182 34.9402C25.5073 34.8676 25.3625 34.8111 25.2048 34.7674C24.8861 34.6787 24.4598 34.6267 24 34.6267C23.5402 34.6267 23.1139 34.6787 22.7952 34.7674C22.6375 34.8111 22.4927 34.8676 22.3818 34.9402C22.281 35.0061 22.1473 35.1269 22.1473 35.3125ZM24 35.5257C23.5708 35.5257 23.189 35.4765 22.9219 35.4023C22.8158 35.3727 22.7359 35.3413 22.6807 35.3125C22.7359 35.2836 22.8158 35.2522 22.9219 35.2229C23.189 35.1484 23.5708 35.0995 24 35.0995C24.4292 35.0995 24.811 35.1484 25.0782 35.2229C25.1842 35.2522 25.2641 35.2836 25.3193 35.3125C25.2641 35.3413 25.1842 35.3727 25.0782 35.4023C24.811 35.4765 24.4292 35.5257 24 35.5257ZM22.606 35.3635C22.606 35.3635 22.6065 35.3626 22.6081 35.3609L22.606 35.3635ZM25.394 35.3635C25.394 35.3635 25.393 35.3626 25.3918 35.3609L25.394 35.3635ZM25.3919 35.264C25.3931 35.2624 25.394 35.2614 25.394 35.2614L25.3919 35.264Z" stroke="white" stroke-width="0.8"/>
</svg>
