<svg xmlns="http://www.w3.org/2000/svg" viewBox="0 0 57 57"><title>confirmacion</title><g id="Capa_2" data-name="Capa 2"><g id="Capa_1-2" data-name="Capa 1"><circle cx="28.5" cy="28.5" r="28.5" fill="#fa7a0e"/><g id="vLi02X.tif"><path d="M39.91,45.64a6.44,6.44,0,0,1-5.32-2c-.41-.4-.85-.76-1.28-1.14-1.57-1.39-3.15-2.76-4.7-4.18a5.82,5.82,0,0,1-1.78-6.35,6.08,6.08,0,0,1,9.63-3c.49.4,1,.83,1.47,1.28.35-.56.69-1.09,1-1.64a.63.63,0,0,0,0-.34c-.13-2.48-.25-5-.4-7.44a2.19,2.19,0,0,0-2.17-2c-.69,0-1.38,0-2.12,0v-.43c0-1.26,0-2.53-.08-3.78a6.93,6.93,0,0,0-5.91-6,1.25,1.25,0,0,1-.26-.07H26.57c-.37.08-.74.15-1.1.25a7,7,0,0,0-5.13,6.73c0,1.09,0,2.18,0,3.34-.46,0-.91,0-1.36,0a8.47,8.47,0,0,0-1.13.05A2.18,2.18,0,0,0,16,21q-.5,9.18-1,18.37c-.12,2.23-.23,4.47-.35,6.7a2.2,2.2,0,0,0,1.72,2.41l.1.06H38.13a6.25,6.25,0,0,0,.94-.45A2.26,2.26,0,0,0,39.91,45.64ZM24.4,16.83c0-.53,0-1.07,0-1.6a2.9,2.9,0,0,1,2.78-2.66,2.82,2.82,0,0,1,3,2.51c.12,1.22,0,2.47,0,3.72H24.4C24.4,18.13,24.39,17.48,24.4,16.83Z" fill="#fff"/><path d="M50.66,26.68c-1.12,1.82-2.26,3.62-3.39,5.43l-5.54,8.82a2.67,2.67,0,0,1-3.16,1.22,3.06,3.06,0,0,1-1-.57q-3.3-2.89-6.58-5.82a2.71,2.71,0,1,1,3.62-4l3.83,3.39c.1.1.21.18.36.31,1-1.56,1.92-3.06,2.87-4.57,1.48-2.36,3-4.72,4.44-7.08a2.7,2.7,0,1,1,4.56,2.9Z" fill="#fff"/></g></g></g></svg>