<svg xmlns="http://www.w3.org/2000/svg" viewBox="0 0 65.14 57"><title>delivery</title><g id="Capa_2" data-name="Capa 2"><g id="Capa_1-2" data-name="Capa 1"><circle cx="36.64" cy="28.5" r="28.5" fill="#fa7a0e"/><g id="vP5RJD"><path d="M58.25,35.25c-1.58-1.81-3.54-2.2-5.83-2a9,9,0,0,1,.7-.83,1.45,1.45,0,0,0,.28-2.13c-.88-1.44-1.64-3-2.46-4.44-.45-.81-.91-1.6-1.46-2.57a19.89,19.89,0,0,0,2.32.32,1.24,1.24,0,0,0,1-.42,4.85,4.85,0,0,0,.69-3.37c-.09-.56-.37-.83-.93-.67a13.86,13.86,0,0,0-3.7,1.13,3.92,3.92,0,0,1-3,.34,3.29,3.29,0,0,1-1-.21,2.72,2.72,0,0,1-1.13-.88c-.68-1.22-1.26-2.5-1.82-3.77-.11-.23,0-.57.08-.93,1.93.89,1.94.89,2.62-.35-.31-.22-.62-.45-.95-.66a2.3,2.3,0,0,1-1-2.45c.1-.71.36-1,1.1-.68s1.38.47,2.1.71a3.3,3.3,0,0,0-2.63-3.66,3.16,3.16,0,0,0-3.89,1.58c-.81,1.59-.76,3.48.41,4.43a4,4,0,0,0-.87.51,16.06,16.06,0,0,0-2.94,3.07,69.68,69.68,0,0,0-3.6,7.43,3.92,3.92,0,0,0,.14,3.95H29.76c0-.23,0-.38.06-.54.53-2.88,1.05-5.75,1.58-8.63.12-.66.14-1.15-.78-1.14-3,0-6.05,0-9.08,0a.91.91,0,0,0-1.05.88q-.82,4.61-1.71,9.21c-.13.71.13,1,.82.93s1.45,0,2.2,0c-.06.82-1,1.55.09,2.07a2,2,0,0,1-1.36,1.67,9.35,9.35,0,0,0-5.05,6.12,3.08,3.08,0,0,0,0,.76h2.47v.88a4.33,4.33,0,0,0,4.51,4.57,6.8,6.8,0,0,0,6.23-4.52c.19-.53.25-1.1,1.05-1,.52.11,1.06.12,1.57.25a8.72,8.72,0,0,0,1.66.55c3.65,0,7.29,0,10.94,0h1c.07.56.12,1,.18,1.5l1.54-.75c.08.22.13.37.18.53a4.39,4.39,0,0,0,4.44,3.37c3.87.11,8.46-4.73,5.63-9.35ZM22.5,43.07c-1.44-.18-2.27-1.33-2.09-3h6A3.62,3.62,0,0,1,22.5,43.07ZM40,34.69c-.37,1.28-.74,2.56-1.06,3.85-.12.5-.33.73-.86.67a6.32,6.32,0,0,0-.87,0c-2.41,0-3.4-1.21-2.68-3.5a26.66,26.66,0,0,1,1.88-3.93,1,1,0,0,1,.57-.45c1.29-.34,1.29-.33,1.5-1.7l3,.4C40.89,31.62,40.41,33.16,40,34.69Zm7.89-.33c-.57,2.32-1.65,3.73-3,4.32-1-.47-1.88-.84-2.85-1.27.22-.65.44-1.38.69-2.1.64-1.78,1.31-3.54,1.92-5.32.68-2,.3-2.82-1.7-3.46-1.63-.52-3.31-.91-5.21-1.42l2.53-5.2c1.11,1.06,1.59,2.63,3.3,2.67,1.39,0,2.79.16,4.31.24C48.41,26.69,48.78,30.53,47.84,34.36Zm6.69,7.31c-1.18,1.44-3.19,1.93-4.38.93a4.41,4.41,0,0,1-1-1.79c-.08-.19.2-.68.43-.81,1.58-.89,3.19-1.72,4.81-2.59A3,3,0,0,1,54.53,41.67Z" fill="#fff"/><path d="M19.76,31.13c-.26.2-.5.56-.77.57-1.39.05-2.78,0-4.18,0h0c-1.33,0-2.66,0-4,0-.28,0-.54-.3-.81-.47.28-.21.55-.61.83-.62,2.76,0,5.51,0,8.27,0C19.33,30.62,19.54,31,19.76,31.13Z" fill="#fff"/><path d="M17.73,26.2c-.28.22-.54.61-.82.63-1.3.07-2.6,0-3.9,0s-2.47,0-3.71,0c-.26,0-.5-.33-.75-.5.25-.21.5-.58.75-.59q3.9-.06,7.81,0C17.31,25.75,17.52,26,17.73,26.2Z" fill="#fff"/><path d="M15.81,34.91c-.26.2-.5.57-.76.58-1.39.06-2.79,0-4.18,0s-2.66,0-4,0c-.27,0-.54-.28-.82-.43.27-.22.53-.63.81-.63,2.75,0,5.51,0,8.26,0C15.36,34.43,15.58,34.75,15.81,34.91Z" fill="#fff"/><path d="M7.71,31.1c-.11.23-.32.54-.54.58a7.79,7.79,0,0,1-1.45,0v0a6.39,6.39,0,0,1-1.16,0c-.23-.05-.42-.29-.63-.45.17-.21.34-.59.52-.6a25.68,25.68,0,0,1,2.91,0C7.49,30.64,7.75,31,7.71,31.1Z" fill="#fff"/><path d="M18.38,22.44a.79.79,0,0,1-.44.54,11.51,11.51,0,0,1-1.45.1v0a8.81,8.81,0,0,1-1.26,0c-.21,0-.39-.25-.58-.39.16-.22.3-.61.47-.62A28.22,28.22,0,0,1,18,22C18.16,22,18.41,22.32,18.38,22.44Z" fill="#fff"/><path d="M3.7,34.82c-.06.24-.27.61-.44.63-1,.06-1.94,0-2.91,0C.22,35.47,0,35.13,0,35a.82.82,0,0,1,.46-.54A13.16,13.16,0,0,1,2,34.38v0a6.41,6.41,0,0,1,1.16,0C3.38,34.46,3.73,34.73,3.7,34.82Z" fill="#fff"/></g></g></g></svg>