<svg xmlns="http://www.w3.org/2000/svg" viewBox="0 0 57 57"><title>preparacion</title><g id="Capa_2" data-name="Capa 2"><g id="Capa_1-2" data-name="Capa 1"><circle cx="28.5" cy="28.5" r="28.5" fill="#fa7a0e"/><path d="M18.12,22.55a8.58,8.58,0,0,0-.87-.09c-1.3,0-2.6,0-3.9,0a1,1,0,0,1-1.13-.9c0-.47.49-.88,1.14-.88,2,0,3.91,0,5.86,0a.82.82,0,0,0,.52-.14c.6-.53,1.18-1.09,1.75-1.64a2.61,2.61,0,0,0,.24-.38H14.15a1.76,1.76,0,0,1-.23,0c-.63-.07-1.13-.49-1.13-.95s.58-.91,1.21-.91c3.61,0,7.23,0,10.85,0a13.34,13.34,0,0,0,2.32-.48c-1-1.2-1.19-2.33-.24-3.43a2.18,2.18,0,0,1,2.58-.47c1,.51,1.29,1.38,1,3.29.85.1,1.7.16,2.54.29a14.58,14.58,0,0,1,9.34,5.31,15.26,15.26,0,0,1,3.36,8,1.41,1.41,0,0,1-1,1.51l-.17,0-1.73.2A3,3,0,0,0,43,28.3a14.92,14.92,0,0,0-4.28-8.07,16,16,0,0,0-7.31-4,1.34,1.34,0,0,0-.35,0,2,2,0,0,0-.3.05,5.92,5.92,0,0,0,.48.4,14.33,14.33,0,0,1,6,7.88,45.44,45.44,0,0,1,1.28,5.57c.17.88-.35,1.45-1.32,1.59l-6.75.93c-3.44.48-6.89.94-10.32,1.48A42.73,42.73,0,0,1,13,34.4c-.63,0-1-.36-1-.86a1,1,0,0,1,1-.93c.75,0,1.49,0,2.24,0s.68-.08.61-.71c0-.15-.05-.3-.06-.46-.08-1-.08-1-1.1-1h-6c-.57,0-1.15-.5-1.14-.93a1.1,1.1,0,0,1,1.13-.93c2.18,0,4.37,0,6.55,0,.54,0,.76-.14.86-.69.34-1.74.36-1.44-1.21-1.46-.76,0-1.53,0-2.29,0s-1.09-.4-1-1,.48-.8,1.15-.81c1.26,0,2.52,0,3.79,0a.73.73,0,0,0,.8-.54A15.05,15.05,0,0,1,18.12,22.55Z" fill="#fff"/><path d="M31.2,39c-4.9,0-9.8,0-14.7,0a2.69,2.69,0,0,1-1.37-.42,1.32,1.32,0,0,1-.55-1.61,1.65,1.65,0,0,1,1.36-1.17,3.28,3.28,0,0,1,.63,0H45.73a3.2,3.2,0,0,1,1.12.15,1.52,1.52,0,0,1,1,1.78A1.67,1.67,0,0,1,46.3,39H31.2Z" fill="#fff"/><path d="M6.78,26.44H4.89a.89.89,0,1,1,0-1.76c1.34,0,2.68,0,4,0a.86.86,0,0,1,1,.84c0,.52-.32.88-.95.91s-1.42,0-2.12,0Z" fill="#fff"/><path d="M9.18,22.44c-.25,0-.5,0-.74,0a1,1,0,0,1-.93-.87,1,1,0,0,1,.89-.9,11.31,11.31,0,0,1,1.54,0,1,1,0,0,1,1,.9,1,1,0,0,1-1,.87H9.18Z" fill="#fff"/><path d="M8,32.55a3.09,3.09,0,0,1,.87.22,1,1,0,0,1,.49.64c0,.29-.22.74-.44.81a4.59,4.59,0,0,1-1.61.14.83.83,0,0,1-.74-.88c0-.52.36-.73.79-.84a3.28,3.28,0,0,1,.63,0Z" fill="#fff"/></g></g></svg>