<svg width="100" height="100" viewBox="0 0 100 100" fill="none" xmlns="http://www.w3.org/2000/svg">
<g clip-path="url(#clip0_1095_3547)">
<path fill-rule="evenodd" clip-rule="evenodd" d="M81.1802 46.0317C71.6108 46.0317 63.9553 53.8095 63.9553 63.1746C63.9553 72.6984 71.6108 80.3174 81.1802 80.3174C90.5901 80.3174 98.4051 72.6984 98.4051 63.1746C98.5646 53.8095 90.7496 46.0317 81.1802 46.0317Z" fill="#FA790E"/>
<g clip-path="url(#clip1_1095_3547)">
<path d="M81.5789 76.8419C82.6581 76.8419 83.533 76.0037 83.533 74.9697C83.533 73.9357 82.6581 73.0974 81.5789 73.0974C80.4997 73.0974 79.6248 73.9357 79.6248 74.9697C79.6248 76.0037 80.4997 76.8419 81.5789 76.8419Z" fill="white"/>
<path d="M81.5788 71.9491C80.8232 71.9491 80.1979 71.3875 80.1458 70.651L78.9603 54.4622C78.843 52.9144 79.8853 51.5789 81.2532 51.5789H81.9045C83.2724 51.5789 84.3146 52.9144 84.1974 54.4622L83.0119 70.651C82.9598 71.3875 82.3344 71.9491 81.5788 71.9491Z" fill="white"/>
</g>
<path fill-rule="evenodd" clip-rule="evenodd" d="M94.8963 77.6191C98.4051 81.7461 100 88.0953 100 100H50.7177H50.0797H0C0 67.3016 12.2807 75.3969 36.6826 61.4286V55.873C32.3764 52.8572 31.5789 47.3016 29.984 41.5873H29.8246C29.1866 41.5873 28.5486 40.635 28.5486 39.5238C28.5486 39.3651 28.7081 39.2064 28.7081 38.8889C28.2297 38.254 27.9107 37.4603 27.4322 36.1905C26.9537 34.4445 25.5183 30.7937 26.7943 29.3651C28.0702 28.254 28.8676 29.3651 28.8676 29.3651C27.2727 20.1588 24.8804 7.93654 37.799 4.12701C37.799 -3.80949 68.1021 -0.158701 71.7703 12.6984C73.5247 17.6191 71.2919 29.2064 71.2919 29.2064C71.6108 28.4127 72.2488 28.254 72.8868 28.7302C74.4817 29.8413 72.7273 34.4445 72.2488 36.1905C71.9298 37.6191 71.4514 38.4127 70.9729 39.2064L71.1324 39.5238C71.1324 40.635 70.4944 41.5873 69.8565 41.5873C69.2185 43.8096 68.74 46.1905 67.9426 48.4127C63.7959 51.9048 61.244 57.1429 61.244 63.1746C61.244 74.127 70.1754 82.8572 81.1802 82.8572C86.6029 82.8572 91.3876 80.9524 94.8963 77.6191Z" fill="#727270"/>
</g>
<defs>
<clipPath id="clip0_1095_3547">
<rect width="100" height="100" fill="white"/>
</clipPath>
<clipPath id="clip1_1095_3547">
<rect width="5.26315" height="25.2632" fill="white" transform="translate(78.9474 51.5789)"/>
</clipPath>
</defs>
</svg>
