<svg width="22" height="25" viewBox="0 0 22 25"  xmlns="http://www.w3.org/2000/svg">
<path d="M4.78571 9.94444C4.78571 10.2206 5.00957 10.4444 5.28571 10.4444C5.56186 10.4444 5.78571 10.2206 5.78571 9.94444H4.78571ZM16.2143 9.94444C16.2143 10.2206 16.4381 10.4444 16.7143 10.4444C16.9904 10.4444 17.2143 10.2206 17.2143 9.94444H16.2143ZM20.5 8.11111V22H21.5V8.11111H20.5ZM19 23.5H3V24.5H19V23.5ZM1.5 22V8.11111H0.5V22H1.5ZM9.57143 1.5H12.4286V0.5H9.57143V1.5ZM12.4286 1.5C14.5733 1.5 16.2143 3.04337 16.2143 4.83333H17.2143C17.2143 2.38911 15.0177 0.5 12.4286 0.5V1.5ZM5.78571 4.83333C5.78571 3.04337 7.42673 1.5 9.57143 1.5V0.5C6.98226 0.5 4.78571 2.38911 4.78571 4.83333H5.78571ZM3 6.61111H5.28571V5.61111H3V6.61111ZM5.78571 6.11111V4.83333H4.78571V6.11111H5.78571ZM16.2143 4.83333V6.11111H17.2143V4.83333H16.2143ZM16.7143 6.61111H19V5.61111H16.7143V6.61111ZM16.7143 5.61111H5.28571V6.61111H16.7143V5.61111ZM16.2143 6.11111V9.94444H17.2143V6.11111H16.2143ZM5.78571 9.94444V6.11111H4.78571V9.94444H5.78571ZM3 23.5C2.17157 23.5 1.5 22.8284 1.5 22H0.5C0.5 23.3807 1.61929 24.5 3 24.5V23.5ZM20.5 22C20.5 22.8284 19.8284 23.5 19 23.5V24.5C20.3807 24.5 21.5 23.3807 21.5 22H20.5ZM21.5 8.11111C21.5 6.7304 20.3807 5.61111 19 5.61111V6.61111C19.8284 6.61111 20.5 7.28268 20.5 8.11111H21.5ZM1.5 8.11111C1.5 7.28268 2.17157 6.61111 3 6.61111V5.61111C1.61929 5.61111 0.5 6.7304 0.5 8.11111H1.5Z" />
</svg>
