<svg width="91" height="68" viewBox="0 0 91 68" fill="none" xmlns="http://www.w3.org/2000/svg">
<g clip-path="url(#clip0_1684_20698)">
<path fill-rule="evenodd" clip-rule="evenodd" d="M1.66058 12.1546H28.2299L31.219 0.985507C31.8832 0.328502 32.2153 0 32.8796 0H57.7883C58.4526 0 59.4489 0.328502 59.4489 1.31401L62.438 12.1546H89.3394C90.0037 12.1546 91 12.8116 91 13.7971V66.686C91 67.343 90.3358 68.3285 89.3394 68.3285H1.66058C0.664234 68.3285 0 67.6715 0 66.686V13.7971C0 12.8116 0.664234 12.1546 1.66058 12.1546ZM76.719 21.0242C78.7117 21.0242 80.7044 22.6667 80.7044 24.9662C80.7044 26.9372 78.7117 28.9082 76.719 28.9082C74.7263 28.9082 72.7336 26.9372 72.7336 24.9662C73.0657 22.6667 74.7263 21.0242 76.719 21.0242ZM45.5 24.6377C49.4854 24.6377 53.1387 26.2802 55.7956 28.9082C58.4526 31.5362 60.1131 35.1498 60.1131 39.0918C60.1131 43.0338 58.4526 46.6473 55.7956 49.2754C53.1387 51.9034 49.4854 53.5459 45.5 53.5459C41.5146 53.5459 37.5292 51.9034 34.8723 49.2754C32.2153 46.6473 30.5547 43.0338 30.5547 39.0918C30.5547 35.1498 32.2153 31.2077 34.8723 28.9082C37.5292 26.2802 41.5146 24.6377 45.5 24.6377ZM53.4708 31.2077C51.4781 29.2367 48.4891 27.9227 45.5 27.9227C42.1788 27.9227 39.5219 29.2367 37.1971 31.2077C35.2044 33.1787 33.8759 36.1353 33.8759 39.4203C33.8759 42.3768 35.2044 45.3333 37.1971 47.3043C39.1898 49.2754 42.1788 50.5894 45.5 50.5894C48.4891 50.5894 51.4781 49.2754 53.4708 47.3043C55.4635 45.3333 56.792 42.3768 56.792 39.4203C56.792 35.8068 55.4635 33.1787 53.4708 31.2077ZM29.5584 15.4396H3.32117V64.715H87.3467V15.4396H61.1095C60.4453 15.4396 59.781 14.7826 59.4489 14.1256L56.4599 2.95652H34.208L31.219 13.7971C31.219 14.7826 30.5547 15.4396 29.5584 15.4396Z" fill="#018992"/>
</g>
<defs>
<clipPath id="clip0_1684_20698">
<rect width="91" height="68" fill="white"/>
</clipPath>
</defs>
</svg>
