<?xml version="1.0" encoding="UTF-8"?>
<svg id="Capa_2" xmlns="http://www.w3.org/2000/svg" viewBox="0 0 33.52 34.71">
    <g >
        <path 
            d="M29.4,15.25L20,.23c-.16-.25-.47-.3-.69-.12-.22,.18-.28,.53-.12,.78l8.99,14.36H6.66L16.98,4.43c.2-.21,.21-.56,.03-.78-.19-.23-.5-.25-.7-.04L5.19,15.25H0l5.04,18.09c.22,.79,.96,1.37,1.81,1.37H26.66c.85,0,1.59-.58,1.81-1.37l5.04-18.09h-4.12ZM8.16,29.94l-2.22-8.42h3.13l1.58,8.42h-2.49Zm5.09,0l-.91-8.42h3.13l.27,8.42h-2.49Zm7.57,0h-2.49l.41-8.42h3.13l-1.05,8.42Zm5.09,0h-2.49l1.72-8.42h3.13l-2.36,8.42Z" />
    </g>
</svg>