<svg width="28" height="28" viewBox="0 0 28 28" xmlns="http://www.w3.org/2000/svg">
<path d="M26.4256 16.6471L26.3973 16.6247L24.4949 15.1607C24.3744 15.0671 24.2783 14.9469 24.2144 14.8098C24.1504 14.6728 24.1206 14.5228 24.1272 14.3722V13.6884C24.1212 13.5387 24.1514 13.3898 24.2154 13.2539C24.2794 13.1179 24.3754 12.9988 24.4955 12.9064L26.3973 11.4418L26.4256 11.4193C26.7189 11.1795 26.9157 10.8452 26.9809 10.4761C27.0461 10.107 26.9753 9.72716 26.7813 9.40456L24.2068 5.03321C24.2038 5.02909 24.2012 5.02473 24.1989 5.0202C24.0039 4.70206 23.7014 4.461 23.3441 4.3389C22.9867 4.2168 22.5971 4.22135 22.2429 4.35178L22.2218 4.35947L19.9854 5.24261C19.8443 5.29861 19.6916 5.3209 19.54 5.30763C19.3883 5.29437 19.242 5.24593 19.1132 5.1663C18.9155 5.04406 18.7146 4.92851 18.5104 4.81967C18.3781 4.74924 18.2644 4.64927 18.1787 4.52782C18.0929 4.40637 18.0374 4.26684 18.0167 4.12049L17.6798 1.77866L17.6725 1.73607C17.5992 1.37335 17.4008 1.04646 17.1108 0.810333C16.8208 0.574211 16.4568 0.443248 16.08 0.439453H10.9249C10.5428 0.440653 10.1734 0.574152 9.88171 0.816432C9.59005 1.05871 9.39488 1.39423 9.33057 1.76387L9.32515 1.797L8.9894 4.14356C8.9688 4.28949 8.91377 4.42869 8.82869 4.55007C8.74362 4.67145 8.63083 4.77167 8.49933 4.84274C8.29459 4.95095 8.09355 5.06577 7.89654 5.18701C7.76794 5.26614 7.62205 5.31421 7.47084 5.32727C7.31964 5.34033 7.16743 5.31801 7.02672 5.26213L4.78857 4.37485L4.76747 4.36657C4.41271 4.236 4.02253 4.23161 3.66481 4.35417C3.30709 4.47673 3.00448 4.71848 2.80962 5.03735L2.80178 5.05036L0.223663 9.42467C0.0293427 9.7476 -0.041581 10.1278 0.0235748 10.4974C0.0887306 10.8669 0.285717 11.2017 0.579308 11.4418L0.607639 11.4642L2.51004 12.9283C2.63051 13.0218 2.72665 13.142 2.79058 13.2791C2.8545 13.4162 2.88437 13.5661 2.87774 13.7167V14.4005C2.88377 14.5502 2.85353 14.6991 2.78951 14.835C2.72548 14.971 2.62949 15.0901 2.50943 15.1825L0.607639 16.6471L0.579308 16.6696C0.286007 16.9094 0.0891813 17.2437 0.0240257 17.6128C-0.0411299 17.9819 0.029634 18.3617 0.223663 18.6843L2.79817 23.0557C2.80113 23.0598 2.80375 23.0642 2.806 23.0687C3.00108 23.3868 3.30354 23.6279 3.66086 23.75C4.01818 23.8721 4.40779 23.8675 4.76205 23.7371L4.78315 23.7294L7.01768 22.8463C7.15883 22.7903 7.31152 22.768 7.46317 22.7813C7.61482 22.7945 7.76108 22.843 7.88991 22.9226C8.08763 23.0452 8.28856 23.1608 8.4927 23.2692C8.62506 23.3397 8.7387 23.4396 8.82445 23.5611C8.9102 23.6825 8.96567 23.8221 8.98638 23.9684L9.32153 26.3102L9.32876 26.3528C9.40225 26.7161 9.60113 27.0435 9.89189 27.2797C10.1827 27.5159 10.5475 27.6465 10.9249 27.6495H16.08C16.4621 27.6483 16.8316 27.5148 17.1232 27.2725C17.4149 27.0302 17.6101 26.6947 17.6744 26.325L17.6798 26.2919L18.0155 23.9453C18.0365 23.7991 18.0919 23.6598 18.1776 23.5384C18.2632 23.417 18.3765 23.3169 18.5086 23.2462C18.7148 23.1373 18.9161 23.022 19.1114 22.9019C19.24 22.8228 19.3859 22.7747 19.5371 22.7616C19.6883 22.7486 19.8405 22.7709 19.9812 22.8268L22.2194 23.7111L22.2405 23.7194C22.5952 23.8502 22.9855 23.8547 23.3433 23.7321C23.701 23.6095 24.0036 23.3676 24.1983 23.0486C24.2007 23.0441 24.2033 23.0398 24.2062 23.0356L26.7807 18.6648C26.9753 18.3419 27.0465 17.9616 26.9815 17.5919C26.9164 17.2222 26.7194 16.8873 26.4256 16.6471ZM18.3193 14.2669C18.2754 15.1829 17.9613 16.0667 17.415 16.8107C16.8688 17.5547 16.114 18.127 15.2425 18.4579C14.3709 18.7888 13.4202 18.8641 12.5059 18.6746C11.5915 18.4851 10.753 18.039 10.0923 17.3905C9.43153 16.7421 8.97702 15.9192 8.78403 15.0219C8.59103 14.1246 8.66786 13.1917 9.00517 12.3365C9.34248 11.4813 9.92575 10.7407 10.684 10.2047C11.4423 9.66876 12.343 9.36057 13.2764 9.3176C13.9466 9.28865 14.6155 9.39686 15.2408 9.63534C15.866 9.87383 16.4338 10.2374 16.9081 10.7029C17.3824 11.1684 17.7528 11.7256 17.9958 12.3392C18.2387 12.9528 18.3489 13.6092 18.3193 14.2669Z"/>
</svg>
