<svg xmlns="http://www.w3.org/2000/svg" viewBox="0 0 34.7 21.85"><title>contacto</title><g id="Capa_2" data-name="Capa 2"><g id="Capa_1-2" data-name="Capa 1"><path d="M.3,0,16.61,12.07a1.57,1.57,0,0,0,1.78,0L34.7.05Z" fill="#636363"/><path d="M11.65,10.18.31,20.77a2,2,0,0,1-.31-1V1.58Z" fill="#636363"/><path d="M21.83,10.94,33.25,21.61a2.33,2.33,0,0,1-1.06.24H2.36a2.29,2.29,0,0,1-1-.2L12.79,11l4.48,3.33Z" fill="#636363"/><path d="M34.55,1.58V19.73a2,2,0,0,1-.29,1L23,10.13Z" fill="#636363"/></g></g></svg>