<svg width="15" height="22" viewBox="0 0 15 22" fill="none" xmlns="http://www.w3.org/2000/svg">
<g clip-path="url(#clip0_1651_19358)">
<path d="M0 1.23377V7.20677H15V1.23377C15 0.548342 14.451 0 13.7647 0H1.23529C0.54902 0 0 0.548342 0 1.23377ZM13.0784 5.83592H1.92157V1.88003H13.0784V5.83592Z" fill="#666666"/>
<path d="M1.23529 21.3461H13.7647C14.451 21.3461 15 20.7978 15 20.1124V7.57886H0V20.1124C0 20.7782 0.54902 21.3461 1.23529 21.3461ZM11.5882 8.83221H12.7255C12.9216 8.83221 13.0784 8.98888 13.0784 9.18472V10.3206C13.0784 10.5164 12.9216 10.6731 12.7255 10.6731H11.5882C11.3922 10.6731 11.2353 10.5164 11.2353 10.3206V9.18472C11.2549 8.98888 11.4118 8.83221 11.5882 8.83221ZM11.5882 11.7698H12.7255C12.9216 11.7698 13.0784 11.9264 13.0784 12.1223V13.2581C13.0784 13.4539 12.9216 13.6106 12.7255 13.6106H11.5882C11.3922 13.6106 11.2353 13.4539 11.2353 13.2581V12.1223C11.2549 11.9264 11.4118 11.7698 11.5882 11.7698ZM11.5882 14.6877H12.7255C12.9216 14.6877 13.0784 14.8444 13.0784 15.0402V19.094C13.0784 19.2899 12.9216 19.4465 12.7255 19.4465H11.5882C11.3922 19.4465 11.2353 19.2899 11.2353 19.094V15.0402C11.2549 14.8444 11.4118 14.6877 11.5882 14.6877ZM7.94118 8.83221H9.07843C9.27451 8.83221 9.43137 8.98888 9.43137 9.18472V10.3206C9.43137 10.5164 9.27451 10.6731 9.07843 10.6731H7.94118C7.7451 10.6731 7.58824 10.5164 7.58824 10.3206V9.18472C7.58824 8.98888 7.7451 8.83221 7.94118 8.83221ZM7.94118 11.7698H9.07843C9.27451 11.7698 9.43137 11.9264 9.43137 12.1223V13.2581C9.43137 13.4539 9.27451 13.6106 9.07843 13.6106H7.94118C7.7451 13.6106 7.58824 13.4539 7.58824 13.2581V12.1223C7.58824 11.9264 7.7451 11.7698 7.94118 11.7698ZM7.94118 14.6877H9.07843C9.27451 14.6877 9.43137 14.8444 9.43137 15.0402V16.1761C9.43137 16.3719 9.27451 16.5286 9.07843 16.5286H7.94118C7.7451 16.5286 7.58824 16.3719 7.58824 16.1761V15.0402C7.58824 14.8444 7.7451 14.6877 7.94118 14.6877ZM7.94118 17.6253H9.07843C9.27451 17.6253 9.43137 17.7819 9.43137 17.9778V19.1136C9.43137 19.3095 9.27451 19.4661 9.07843 19.4661H7.94118C7.7451 19.4661 7.58824 19.3095 7.58824 19.1136V17.9778C7.58824 17.7819 7.7451 17.6253 7.94118 17.6253ZM5.11765 8.83221H6.2549C6.45098 8.83221 6.60784 8.98888 6.60784 9.18472V10.3206C6.60784 10.5164 6.45098 10.6731 6.2549 10.6731H5.11765C4.92157 10.6731 4.76471 10.5164 4.76471 10.3206V9.18472C4.76471 8.98888 4.92157 8.83221 5.11765 8.83221ZM5.11765 11.7698H6.2549C6.45098 11.7698 6.60784 11.9264 6.60784 12.1223V13.2581C6.60784 13.4539 6.45098 13.6106 6.2549 13.6106H5.11765C4.92157 13.6106 4.76471 13.4539 4.76471 13.2581V12.1223C4.76471 11.9264 4.92157 11.7698 5.11765 11.7698ZM5.11765 14.6877H6.2549C6.45098 14.6877 6.60784 14.8444 6.60784 15.0402V16.1761C6.60784 16.3719 6.45098 16.5286 6.2549 16.5286H5.11765C4.92157 16.5286 4.76471 16.3719 4.76471 16.1761V15.0402C4.76471 14.8444 4.92157 14.6877 5.11765 14.6877ZM5.11765 17.6253H6.2549C6.45098 17.6253 6.60784 17.7819 6.60784 17.9778V19.1136C6.60784 19.3095 6.45098 19.4661 6.2549 19.4661H5.11765C4.92157 19.4661 4.76471 19.3095 4.76471 19.1136V17.9778C4.76471 17.7819 4.92157 17.6253 5.11765 17.6253ZM2.27451 8.83221H3.41176C3.60784 8.83221 3.76471 8.98888 3.76471 9.18472V10.3206C3.76471 10.5164 3.60784 10.6731 3.41176 10.6731H2.27451C2.07843 10.6731 1.92157 10.5164 1.92157 10.3206V9.18472C1.92157 8.98888 2.07843 8.83221 2.27451 8.83221ZM2.27451 11.7698H3.41176C3.60784 11.7698 3.76471 11.9264 3.76471 12.1223V13.2581C3.76471 13.4539 3.60784 13.6106 3.41176 13.6106H2.27451C2.07843 13.6106 1.92157 13.4539 1.92157 13.2581V12.1223C1.92157 11.9264 2.07843 11.7698 2.27451 11.7698ZM2.27451 14.6877H3.41176C3.60784 14.6877 3.76471 14.8444 3.76471 15.0402V16.1761C3.76471 16.3719 3.60784 16.5286 3.41176 16.5286H2.27451C2.07843 16.5286 1.92157 16.3719 1.92157 16.1761V15.0402C1.92157 14.8444 2.07843 14.6877 2.27451 14.6877ZM2.27451 17.6253H3.41176C3.60784 17.6253 3.76471 17.7819 3.76471 17.9778V19.1136C3.76471 19.3095 3.60784 19.4661 3.41176 19.4661H2.27451C2.07843 19.4661 1.92157 19.3095 1.92157 19.1136V17.9778C1.92157 17.7819 2.07843 17.6253 2.27451 17.6253Z" fill="#666666"/>
</g>
<defs>
<clipPath id="clip0_1651_19358">
<rect width="15" height="21.3462" fill="white"/>
</clipPath>
</defs>
</svg>
