<svg width="25" height="25" viewBox="0 0 25 25" fill="none" xmlns="http://www.w3.org/2000/svg">
<path d="M23.6111 4.6875H18.0556V1.5625C18.0556 0.698242 17.4349 0 16.6667 0H8.33333C7.5651 0 6.94444 0.698242 6.94444 1.5625V4.6875H1.38889C0.62066 4.6875 0 5.38574 0 6.25V24.2188C0 24.6484 0.3125 25 0.694444 25H24.3056C24.6875 25 25 24.6484 25 24.2188V6.25C25 5.38574 24.3793 4.6875 23.6111 4.6875ZM6.94444 21.2891C6.94444 21.6113 6.71007 21.875 6.42361 21.875H4.6875C4.40104 21.875 4.16667 21.6113 4.16667 21.2891V19.3359C4.16667 19.0137 4.40104 18.75 4.6875 18.75H6.42361C6.71007 18.75 6.94444 19.0137 6.94444 19.3359V21.2891ZM6.94444 15.0391C6.94444 15.3613 6.71007 15.625 6.42361 15.625H4.6875C4.40104 15.625 4.16667 15.3613 4.16667 15.0391V13.0859C4.16667 12.7637 4.40104 12.5 4.6875 12.5H6.42361C6.71007 12.5 6.94444 12.7637 6.94444 13.0859V15.0391ZM13.8889 21.2891C13.8889 21.6113 13.6545 21.875 13.3681 21.875H11.6319C11.3455 21.875 11.1111 21.6113 11.1111 21.2891V19.3359C11.1111 19.0137 11.3455 18.75 11.6319 18.75H13.3681C13.6545 18.75 13.8889 19.0137 13.8889 19.3359V21.2891ZM13.8889 15.0391C13.8889 15.3613 13.6545 15.625 13.3681 15.625H11.6319C11.3455 15.625 11.1111 15.3613 11.1111 15.0391V13.0859C11.1111 12.7637 11.3455 12.5 11.6319 12.5H13.3681C13.6545 12.5 13.8889 12.7637 13.8889 13.0859V15.0391ZM14.5833 6.73828C14.5833 6.89941 14.4661 7.03125 14.3229 7.03125H13.1944V8.30078C13.1944 8.46191 13.0773 8.59375 12.934 8.59375H12.066C11.9227 8.59375 11.8056 8.46191 11.8056 8.30078V7.03125H10.6771C10.5339 7.03125 10.4167 6.89941 10.4167 6.73828V5.76172C10.4167 5.60059 10.5339 5.46875 10.6771 5.46875H11.8056V4.19922C11.8056 4.03809 11.9227 3.90625 12.066 3.90625H12.934C13.0773 3.90625 13.1944 4.03809 13.1944 4.19922V5.46875H14.3229C14.4661 5.46875 14.5833 5.60059 14.5833 5.76172V6.73828ZM20.8333 21.2891C20.8333 21.6113 20.599 21.875 20.3125 21.875H18.5764C18.2899 21.875 18.0556 21.6113 18.0556 21.2891V19.3359C18.0556 19.0137 18.2899 18.75 18.5764 18.75H20.3125C20.599 18.75 20.8333 19.0137 20.8333 19.3359V21.2891ZM20.8333 15.0391C20.8333 15.3613 20.599 15.625 20.3125 15.625H18.5764C18.2899 15.625 18.0556 15.3613 18.0556 15.0391V13.0859C18.0556 12.7637 18.2899 12.5 18.5764 12.5H20.3125C20.599 12.5 20.8333 12.7637 20.8333 13.0859V15.0391Z" fill="white"/>
</svg>
