<svg width="25" height="25" viewBox="0 0 25 25" fill="none" xmlns="http://www.w3.org/2000/svg">
<path d="M0.669643 9.375H24.3304C24.6987 9.375 25 9.63867 25 9.96094V22.6562C25 23.9502 23.8002 25 22.3214 25H2.67857C1.19978 25 0 23.9502 0 22.6562V9.96094C0 9.63867 0.301339 9.375 0.669643 9.375ZM25 7.22656V5.46875C25 4.1748 23.8002 3.125 22.3214 3.125H19.6429V0.585938C19.6429 0.263672 19.3415 0 18.9732 0H16.7411C16.3728 0 16.0714 0.263672 16.0714 0.585938V3.125H8.92857V0.585938C8.92857 0.263672 8.62723 0 8.25893 0H6.02679C5.65848 0 5.35714 0.263672 5.35714 0.585938V3.125H2.67857C1.19978 3.125 0 4.1748 0 5.46875V7.22656C0 7.54883 0.301339 7.8125 0.669643 7.8125H24.3304C24.6987 7.8125 25 7.54883 25 7.22656Z" fill="white"/>
</svg>
