<svg width="26" height="24" viewBox="0 0 26 24" fill="none" xmlns="http://www.w3.org/2000/svg">
<path d="M13 0C5.81855 0 0 5.37097 0 12C0 18.629 5.81855 24 13 24C20.1815 24 26 18.629 26 12C26 5.37097 20.1815 0 13 0ZM15.9931 16.9403L11.3698 13.8387C11.2073 13.7274 11.1129 13.5532 11.1129 13.3694V5.22581C11.1129 4.90645 11.396 4.64516 11.7419 4.64516H14.2581C14.604 4.64516 14.8871 4.90645 14.8871 5.22581V11.8887L18.2157 14.1242C18.4988 14.3129 18.5565 14.6758 18.352 14.9371L16.8738 16.8145C16.6694 17.071 16.2762 17.129 15.9931 16.9403Z" fill="white"/>
</svg>
