<svg width="22" height="20" viewBox="0 0 22 20" fill="none" xmlns="http://www.w3.org/2000/svg">
	<path fill-rule="evenodd" clip-rule="evenodd"
		d="M5.08885 18C5.08885 16.9 6.0271 16 7.18674 16C8.34638 16 9.29517 16.9 9.29517 18C9.29517 19.1 8.34638 20 7.18674 20C6.0271 20 5.08885 19.1 5.08885 18ZM15.631 18C15.631 16.9 16.5693 16 17.7289 16C18.8885 16 19.8373 16.9 19.8373 18C19.8373 19.1 18.8885 20 17.7289 20C16.5693 20 15.631 19.1 15.631 18Z"
		fill="#ADB3BC" />
	<path fill-rule="evenodd" clip-rule="evenodd"
		d="M16.2003 11C16.9909 11 17.6867 10.59 18.0452 9.97L21.8192 3.48C22.2093 2.82 21.7033 2 20.9021 2H5.2997L4.30873 0H0.86145V2H2.96988L6.76506 9.59L5.34186 12.03C4.57229 13.37 5.58433 15 7.18674 15H19.8373V13H7.18674L8.34638 11H16.2003ZM19.1099 4H6.3012L8.79969 9H16.2003L19.1099 4Z"
		fill="#ADB3BC" />
</svg>
