<svg width="20" height="21" viewBox="0 0 20 21" fill="none" xmlns="http://www.w3.org/2000/svg">
	<path
		d="M11.8756 7.5V8.75C11.8756 9.00781 11.6646 9.21875 11.4068 9.21875H9.2192V11.4063C9.2192 11.6641 9.00825 11.875 8.75043 11.875H7.50037C7.24254 11.875 7.03159 11.6641 7.03159 11.4063V9.21875H4.84399C4.58616 9.21875 4.37521 9.00781 4.37521 8.75V7.5C4.37521 7.24219 4.58616 7.03125 4.84399 7.03125H7.03159V4.84375C7.03159 4.58594 7.24254 4.375 7.50037 4.375H8.75043C9.00825 4.375 9.2192 4.58594 9.2192 4.84375V7.03125H11.4068C11.6646 7.03125 11.8756 7.24219 11.8756 7.5ZM19.7275 18.6211L18.622 19.7266C18.2548 20.0938 17.661 20.0938 17.2977 19.7266L13.3991 15.832C13.2233 15.6563 13.1256 15.418 13.1256 15.168V14.5313C11.7467 15.6094 10.0122 16.25 8.1254 16.25C3.6369 16.25 0 12.6133 0 8.125C0 3.63672 3.6369 0 8.1254 0C12.6139 0 16.2508 3.63672 16.2508 8.125C16.2508 10.0117 15.6101 11.7461 14.532 13.125H15.1687C15.4187 13.125 15.657 13.2227 15.8328 13.3984L19.7275 17.293C20.0908 17.6602 20.0908 18.2539 19.7275 18.6211ZM13.4382 8.125C13.4382 5.1875 11.063 2.8125 8.1254 2.8125C5.18775 2.8125 2.81264 5.1875 2.81264 8.125C2.81264 11.0625 5.18775 13.4375 8.1254 13.4375C11.063 13.4375 13.4382 11.0625 13.4382 8.125Z"
		 fill-opacity="0.9" />
</svg>
