<svg width="20" height="20" viewBox="0 0 20 20" fill="none" xmlns="http://www.w3.org/2000/svg">
	<path
		d="M16.9588 2.6424H13.7573V1.35241C13.7573 0.606685 13.1506 0 12.4049 0H7.5949C6.84917 0 6.24249 0.606685 6.24249 1.35241V2.6424H3.04099C2.53709 2.6424 2.1272 3.05229 2.1272 3.55619V5.23092C2.1272 5.73482 2.53709 6.14471 3.04099 6.14471H3.57172V18.7206C3.57172 19.4261 4.14566 19.9999 4.85103 19.9999H15.1487C15.8541 19.9999 16.428 19.4261 16.428 18.7206V6.14478H16.9588C17.4627 6.14478 17.8726 5.73489 17.8726 5.23099V3.55619C17.8726 3.05236 17.4626 2.6424 16.9588 2.6424ZM7.33904 1.35241C7.33904 1.21374 7.45622 1.09655 7.5949 1.09655H12.4049C12.5436 1.09655 12.6608 1.21374 12.6608 1.35241V2.6424H7.33904V1.35241ZM15.3314 18.7207C15.3314 18.8197 15.2477 18.9034 15.1487 18.9034H4.85103C4.75198 18.9034 4.66827 18.8197 4.66827 18.7207V6.14478H15.3314V18.7207ZM16.776 5.04823H3.22375V3.73895H16.776V5.04823Z"
		fill="#ADB3BC" />
	<path
		d="M6.79076 17.3533C7.09356 17.3533 7.33904 17.1078 7.33904 16.805V8.44125C7.33904 8.13846 7.09356 7.89298 6.79076 7.89298C6.48789 7.89298 6.24249 8.13846 6.24249 8.44125V16.805C6.24249 17.1078 6.48789 17.3533 6.79076 17.3533Z"
		fill="#ADB3BC" />
	<path
		d="M9.99993 17.3533C10.3028 17.3533 10.5482 17.1078 10.5482 16.805V8.44125C10.5482 8.13846 10.3028 7.89298 9.99993 7.89298C9.69706 7.89298 9.45165 8.13846 9.45165 8.44125V16.805C9.45165 17.1078 9.69714 17.3533 9.99993 17.3533Z"
		fill="#ADB3BC" />
	<path
		d="M13.209 17.3533C13.5119 17.3533 13.7573 17.1078 13.7573 16.805V8.44125C13.7573 8.13846 13.5119 7.89298 13.209 7.89298C12.9062 7.89298 12.6608 8.13846 12.6608 8.44125V16.805C12.6608 17.1078 12.9062 17.3533 13.209 17.3533Z"
		fill="#ADB3BC" />
</svg>
