<svg width="22" height="21" viewBox="0 0 22 21"   xmlns="http://www.w3.org/2000/svg">
	<path
		d="M3.66667 15.1536H18.3333C18.8375 15.1536 19.25 14.7747 19.25 14.3117C19.25 13.8487 18.8375 13.4699 18.3333 13.4699H3.66667C3.1625 13.4699 2.75 13.8487 2.75 14.3117C2.75 14.7747 3.1625 15.1536 3.66667 15.1536ZM3.66667 10.9444H18.3333C18.8375 10.9444 19.25 10.5655 19.25 10.1025C19.25 9.63952 18.8375 9.2607 18.3333 9.2607H3.66667C3.1625 9.2607 2.75 9.63952 2.75 10.1025C2.75 10.5655 3.1625 10.9444 3.66667 10.9444ZM2.75 5.89335C2.75 6.35636 3.1625 6.73519 3.66667 6.73519H18.3333C18.8375 6.73519 19.25 6.35636 19.25 5.89335C19.25 5.43034 18.8375 5.05151 18.3333 5.05151H3.66667C3.1625 5.05151 2.75 5.43034 2.75 5.89335Z"
		  />
</svg>
