<?xml version="1.0" encoding="utf-8"?>
<!-- Generator: Adobe Illustrator 25.2.3, SVG Export Plug-In . SVG Version: 6.00 Build 0)  -->
<svg version="1.1" id="Capa_1" xmlns="http://www.w3.org/2000/svg" xmlns:xlink="http://www.w3.org/1999/xlink" x="0px" y="0px"
	 viewBox="0 0 28 28" style="enable-background:new 0 0 28 28;" xml:space="preserve">
<style type="text/css">
	.st0{fill-rule:evenodd;clip-rule:evenodd;fill:#FFFFFF;}
</style>
<g>
	<path class="st0" d="M18.7,5.1l4.9,4.9l0.7-0.7l-4.8-4.9L18.7,5.1z M23.5,1.8L23.5,1.8c1.9,0,3.5,1.6,3.5,3.5
		c0,0.8-0.3,1.5-0.7,2.1l-1.4,1.4l-4.8-4.9l1.3-1.4C22,2,22.7,1.8,23.5,1.8L23.5,1.8z M17.3,6.4L17.3,6.4l4.9,4.9l0.7-0.7L18,5.7
		L17.3,6.4z M16.5,7L16.5,7L2.8,20.7c-0.1,0.1-0.2,0.2-0.2,0.4l-1.8,5.4c0,0.1,0,0.2,0,0.3v0c0,0.2,0.1,0.4,0.3,0.6
		c0.2,0.2,0.4,0.3,0.6,0.3c0.1,0,0.2,0,0.3-0.1l5.4-1.8c0.2-0.1,0.3-0.1,0.4-0.2l13.7-13.7L16.5,7z M6.8,24.3L6.8,24.3
		C6.8,24.3,6.8,24.3,6.8,24.3C6.8,24.4,6.8,24.4,6.8,24.3C6.8,24.4,6.8,24.4,6.8,24.3L6.8,24.3c-0.2,0.1-0.7,0.4-1.8,0.8
		c-0.1,0-0.3,0.1-0.4,0.1L3,23.7c0.1-0.2,0.1-0.3,0.2-0.4c0.4-1.1,0.7-1.6,0.8-1.8l0,0l0,0c0,0,0,0,0,0L4,21.3L7,24.2L6.8,24.3z"/>
</g>
</svg>
