<svg width="25" height="49" viewBox="0 0 25 49" fill="none" xmlns="http://www.w3.org/2000/svg">
<path fill-rule="evenodd" clip-rule="evenodd" d="M3.58531 19.9069C0.825638 19.9069 -0.554199 21.9679 -0.554199 24.0288C-0.554199 26.7768 1.51556 28.1507 3.58531 28.1507C6.34499 28.1507 7.72482 26.0898 7.72482 24.0288C7.72482 21.9679 5.65507 19.9069 3.58531 19.9069Z" fill="#888888"/>
<path fill-rule="evenodd" clip-rule="evenodd" d="M-1.24487 32.2729V35.0209V39.8298V44.6386C-1.24487 46.6996 0.824883 48.7605 2.89464 48.7605C4.9644 48.7605 7.03415 46.6996 7.03415 44.6386V32.2729L18.0729 38.4558C20.8325 39.8298 23.5922 39.1428 24.2821 37.0818C25.662 35.0209 24.972 32.2729 22.9023 30.899L11.8636 24.7161L22.9023 18.5333C24.972 17.1593 25.662 14.4114 24.2821 12.3504C23.5922 10.2895 20.8325 9.6025 18.7628 10.9765L7.72407 17.1593V4.79362C7.72407 2.73267 5.65432 0.671722 3.58456 0.671722C0.824882 -0.0152614 -1.24487 2.04569 -1.24487 4.79362V17.1593C-1.24487 17.8463 -0.554955 17.8463 -0.554955 17.8463C-0.554955 17.8463 -0.554955 17.8463 0.134964 17.8463C0.824882 17.1593 2.20472 17.1593 2.89464 17.1593C3.58456 17.1593 4.9644 17.1593 5.65432 17.8463C5.65432 17.8463 6.34423 17.8463 6.34423 18.5333L7.03415 19.2203C9.10391 19.2203 9.79383 19.9072 9.79383 20.5942C10.4837 21.2812 11.1737 22.6552 11.1737 23.3422C11.1737 24.0291 11.1737 24.0291 11.1737 24.7161C11.1737 25.4031 11.1737 25.4031 11.1737 26.0901C11.1737 26.7771 10.4837 28.151 10.4837 28.838C9.79383 29.525 9.10391 30.212 8.41399 30.899L7.72407 31.586C7.72407 31.586 7.03415 31.586 7.03415 32.2729H6.34423C5.65432 32.2729 4.9644 32.2729 4.27448 32.2729C2.89464 32.2729 2.20472 32.2729 1.5148 31.586C1.5148 31.586 1.5148 31.586 0.824883 31.586C-0.554954 31.586 -1.24487 32.2729 -1.24487 32.2729Z" fill="#888888"/>
</svg>
