<svg width="266" height="94" viewBox="0 0 266 94" fill="none" xmlns="http://www.w3.org/2000/svg">
<path d="M17.9675 7.45097C17.1833 7.25784 16.3867 7.72901 16.1914 8.50561L4.80464 53.6004C4.6093 54.377 5.08588 55.1632 5.87141 55.3563C5.99056 55.3864 6.61954 55.4001 6.7373 55.4001C7.39399 55.4001 7.9911 54.9605 8.15735 54.3017L8.66026 52.2157L14.7575 83.7179C14.7575 83.7179 15.4931 85.2095 17.0019 84.7712C18.5106 84.3329 17.8899 81.962 17.8899 81.962L11.4976 40.4516L15.9711 21.9037L16.2468 29.3286C16.2468 29.3286 16.2801 30.4805 17.4119 30.4476C18.5438 30.4147 18.7766 30.0203 18.8431 29.1971C18.9054 28.4246 19.0523 11.0915 19.0703 8.96718C19.1271 8.2755 18.6713 7.62491 17.9675 7.45097Z" fill="#E30613"/>
<path d="M39.4553 53.6004L28.0685 8.50561C27.8732 7.72901 27.0766 7.25784 26.2924 7.45097C25.6607 7.60711 25.2298 8.14538 25.1869 8.75488C25.1813 8.82474 25.1827 8.89596 25.1883 8.96855C25.2063 11.0929 25.3531 28.426 25.4155 29.1985C25.482 30.0216 25.7147 30.4161 26.8466 30.449C27.9785 30.4819 28.0117 29.33 28.0117 29.33L28.2874 21.905L32.761 40.453L26.3686 81.9634C26.3686 81.9634 25.7466 84.3329 27.2567 84.7726C28.7654 85.2109 29.5011 83.7193 29.5011 83.7193L35.5983 52.217L36.1012 54.303C36.2674 54.9618 36.8646 55.4015 37.5212 55.4015C37.639 55.4015 38.268 55.3878 38.3871 55.3577C39.1727 55.1618 39.6506 54.3756 39.4553 53.6004Z" fill="#E30613"/>
<path d="M80.4207 16.0675L76.3739 23.1062L65.019 23.0994L61.2327 38.556L75.2032 38.5642L71.1564 45.24L54.5578 45.2304C54.0936 45.2304 53.6697 45.0482 53.2846 44.6839C52.7872 44.2716 52.542 43.7101 52.5489 42.9978C52.5517 42.7609 52.5822 42.5308 52.6417 42.3089L57.9216 18.9726C58.1294 18.1343 58.5963 17.4221 59.3222 16.8359C59.9817 16.3141 60.6148 16.0538 61.2202 16.0538L80.4207 16.0675Z" />
<path d="M103.3 45.2427L83.7942 45.2331L86.7535 39.9723C87.1192 39.3203 87.8036 38.919 88.5448 38.919L94.0602 38.9217L92.5016 27.7384L83.0004 44.1963C82.6305 44.8359 81.953 45.229 81.2201 45.229L74.0783 45.2249L90.864 16.0552L99.2167 16.0607L103.3 45.2427Z" />
<path d="M263.939 45.2427L244.433 45.2331L247.388 39.9791C247.757 39.323 248.447 38.9176 249.192 38.919L254.698 38.9217L253.139 27.7384L243.645 44.1895C243.272 44.8346 242.591 45.2304 241.852 45.2304L234.719 45.2263L251.504 16.0566L259.857 16.062L263.939 45.2427Z" />
<path d="M125.993 45.2427L104.023 45.2304L110.361 16.0552L117.884 16.0593L112.889 38.9204L122.492 38.9258C123.263 38.9258 123.949 39.4093 124.201 40.1298L125.993 45.2427Z" />
<path d="M162.811 16.0675L160.599 21.9571C160.25 22.6625 159.536 23.109 158.756 23.1076L149.579 23.1007C148.892 23.1007 148.294 23.5623 148.129 24.2211L147.494 27.4878L158.363 27.4946C160.797 27.5494 160.487 29.6258 160.312 30.4545C160.266 30.6722 159.471 34.6319 157.796 42.324C157.624 43.1636 157.183 43.8744 156.468 44.4606C155.819 44.9825 155.212 45.2441 154.651 45.2427L135.947 45.2331L137.079 40.5105C137.303 39.5751 138.13 38.5547 139.082 38.5547L150.25 38.5615C150.689 38.5615 151.069 38.2588 151.163 37.8342L152.286 33.4472L141.43 33.4403C140.986 33.4403 140.566 33.2582 140.171 32.8938C139.694 32.4816 139.46 31.92 139.467 31.2078C139.47 30.9859 140.308 26.666 141.983 18.9753C142.173 18.1371 142.62 17.4249 143.324 16.8386C143.955 16.3168 144.561 16.0566 145.14 16.0566L162.811 16.0675Z" />
<path d="M185.265 16.0716L184.249 20.749C184.042 21.7051 183.205 22.3858 182.236 22.3858L177.214 22.383L172.563 43.6114C172.354 44.5661 171.517 45.2441 170.552 45.2441L164.683 45.24L169.691 22.3789L162.998 22.3748L164.369 16.0607L185.265 16.0716Z" />
<path d="M206.923 15.9785L205.712 21.1969C205.503 22.1338 204.666 22.7994 203.701 22.7994L193.465 22.7939L192.181 27.548L204.215 27.5549L203.158 33.313L191.124 33.3061L189.84 38.4163L201.743 38.4245L200.788 43.6156C200.59 44.5647 199.748 45.2455 198.771 45.2455L180.974 45.2359L187.495 15.9689L206.923 15.9785Z" />
<path d="M229.852 18.2973C229.849 18.5507 229.82 18.7808 229.763 18.9863L224.04 45.2427L216.517 45.2386L221.512 22.3776L215.662 22.3734L211.025 43.6005C210.816 44.5551 209.979 45.2345 209.014 45.2345L203.173 45.2304L209.511 16.0552L227.902 16.0661C228.337 16.0661 228.753 16.2483 229.148 16.6126C229.625 17.0235 229.859 17.5851 229.852 18.2973Z" />
<path d="M240.064 16.0675L234.055 43.6073C233.847 44.562 233.009 45.2427 232.042 45.2413L226.203 45.2372L232.185 17.6988C232.393 16.7428 233.229 16.062 234.198 16.0634L240.064 16.0675Z" />
<path d="M140.764 16.0661L134.399 45.2427L126.904 45.2386L132.886 17.7002C133.094 16.7441 133.931 16.0634 134.899 16.0648L140.764 16.0661Z" />
<path d="M109.071 75.9656L88.5461 75.9533L94.4674 48.6943L101.496 48.6984L96.8295 70.0583L105.802 70.0624C106.522 70.0624 107.163 70.5144 107.399 71.1882L109.071 75.9656Z" />
<path d="M182.419 75.9656L163.953 75.956L166.75 70.9828C167.099 70.3623 167.752 69.9788 168.458 69.9788L173.672 69.9816L172.196 59.3927L163.206 74.9685C162.854 75.5794 162.207 75.9533 161.509 75.9533L154.755 75.9492L170.647 48.3327L178.555 48.3382L182.419 75.9656Z" />
<path d="M70.5995 50.8282C70.5967 51.0788 69.965 54.0181 68.7028 59.6433C68.5214 60.4268 68.0988 61.0911 67.4352 61.6362C66.8408 62.1238 66.2631 62.3662 65.7007 62.3662C66.1163 62.3662 66.5125 62.4991 66.8907 62.7662C67.3978 63.1059 67.6485 63.5784 67.6416 64.1838C67.6402 64.3468 66.9808 67.3669 65.6646 73.2427C65.4831 74.0399 65.0731 74.6891 64.4371 75.1918C63.7818 75.7081 63.1917 75.9656 62.6624 75.9656L45.1328 75.9547L51.1829 48.734L68.7389 48.7449C69.1545 48.7449 69.5507 48.9161 69.9276 49.2544C70.382 49.6393 70.6064 50.1625 70.5995 50.8282ZM60.4042 64.6221L54.821 64.6193L53.5949 70.0679L59.1781 70.0706L60.4042 64.6221ZM62.6375 54.6331L57.0543 54.6304L55.8282 60.0789L61.4114 60.0816L62.6375 54.6331Z" />
<path d="M151.994 48.7504L135.945 75.9656L127.972 75.9615L124.075 48.7326L132.048 48.7367L134.384 65.0645L144.021 48.7436L151.994 48.7504Z" />
<path d="M84.8596 75.9656L66.8852 75.9095L72.9395 48.6888H92.3505L87.0125 74.2125C86.8144 75.2329 85.9097 75.9684 84.8596 75.9656ZM84.7224 54.5866L80.1339 54.5838C79.3345 54.5838 78.6418 55.133 78.4687 55.9042L75.3058 70.0213L80.2226 70.0281C80.8765 70.0281 81.4432 69.5789 81.5845 68.9488L84.7224 54.5866Z" />
<path d="M122.871 48.7066L116.925 75.9656L109.922 75.9615L115.511 50.2324C115.704 49.3394 116.487 48.7039 117.391 48.7039L122.871 48.7066Z" />
<path d="M159.635 48.7066L153.688 75.9656L146.685 75.9615L152.274 50.2324C152.468 49.3394 153.251 48.7039 154.154 48.7039L159.635 48.7066Z" />
<path d="M185.582 75.993C185.088 75.993 184.791 75.7424 184.676 75.2288C184.651 75.1164 184.643 74.9959 184.65 74.8672L185.983 64.2249H189.295L188.112 73.5413H190.917L192.101 64.2249H195.421L194.23 73.5413H197.035L198.219 64.2249H201.541L200.2 74.8562C200.164 75.1438 200.018 75.4082 199.767 75.641C199.512 75.8739 199.24 75.993 198.958 75.993H185.582Z" fill="#B5B5B7"/>
<path d="M202.146 75.993C201.652 75.993 201.356 75.7424 201.24 75.2288C201.215 75.1206 201.207 74.9987 201.214 74.8672L202.4 65.3617C202.434 65.0686 202.576 64.8043 202.822 64.5755C203.077 64.3427 203.353 64.2249 203.641 64.2249H210.909C211.404 64.2249 211.7 64.4755 211.815 64.9892C211.843 65.1138 211.852 65.2343 211.841 65.348L210.637 74.8562C210.604 75.1562 210.459 75.4191 210.207 75.6397C209.95 75.8739 209.677 75.993 209.396 75.993H202.146ZM204.675 73.5413H207.481L208.36 66.6752H205.554L204.675 73.5413Z" fill="#B5B5B7"/>
<path d="M218.356 75.993L216.214 69.179H218.483L218.807 66.6766H216L214.817 75.993H211.514L212.993 64.2249H221.355C221.85 64.2249 222.146 64.4755 222.261 64.9892C222.289 65.1111 222.298 65.233 222.289 65.348L221.722 69.9021C221.686 70.1884 221.541 70.4527 221.29 70.6883C221.035 70.9198 220.762 71.039 220.481 71.039H219.723L221.291 75.993H218.356Z" fill="#B5B5B7"/>
<path d="M227.463 75.993L225.891 71.9498L225.772 71.9635L225.265 75.993H221.96L223.439 64.2249H226.753L226.246 68.2394L226.359 68.2791L228.966 64.2249H232.837L229.066 70.1062L231.347 75.993H227.463Z" fill="#B5B5B7"/>
<path d="M233.487 75.993C232.993 75.993 232.696 75.7424 232.581 75.2288C232.556 75.1192 232.548 74.9973 232.553 74.8672L233.739 65.3617C233.774 65.0672 233.915 64.8029 234.162 64.5755C234.417 64.3427 234.692 64.2249 234.981 64.2249H242.248C242.743 64.2249 243.04 64.4755 243.155 64.9892C243.182 65.1111 243.191 65.2316 243.182 65.3494L241.978 74.8562C241.945 75.1562 241.8 75.4191 241.547 75.6397C241.291 75.8739 241.018 75.993 240.737 75.993H233.487ZM236.015 73.5413H238.821L239.699 66.6752H236.892L236.015 73.5413Z" fill="#B5B5B7"/>
<path d="M243.933 75.993C243.439 75.993 243.142 75.7424 243.027 75.2288C243.002 75.1192 242.994 74.9973 242.999 74.8672L244.332 64.2249H247.645L246.463 73.5413H249.268L250.45 64.2249H253.772L252.276 75.993H243.933Z" fill="#B5B5B7"/>
<path d="M257.128 80.7841V66.6643H254.453V64.2249H262.683V66.6643H260.015V83.1591L257.128 80.7841Z" fill="#B5B5B7"/>
<path d="M209.285 48.982L208.842 51.9884H202.308L201.895 54.7688H207.203C207.763 54.7688 208.097 55.0852 208.207 55.718C208.234 55.8686 208.239 56.0152 208.224 56.159L207.456 61.4815C207.408 61.8513 207.238 62.1705 206.947 62.4416C206.65 62.7279 206.343 62.8717 206.024 62.8717H198.282L197.498 59.8653H204.012L204.425 57.0849H199.108C198.55 57.0849 198.214 56.7685 198.105 56.1357C198.08 55.9933 198.077 55.8453 198.098 55.6947L198.866 50.3722C198.915 50.0106 199.083 49.6901 199.367 49.412C199.664 49.1258 199.974 48.982 200.299 48.982H209.285Z" fill="#B5B5B7"/>
<path d="M220.442 48.9805L219.999 51.9869H216.736L215.143 62.8689H211.462L213.055 51.9869H209.783L210.226 48.9805H220.442Z" fill="#B5B5B7"/>
<path d="M231.376 49.9297C231.402 50.0804 231.408 50.2269 231.392 50.3694L230.625 55.6919C230.574 56.0466 230.403 56.3658 230.115 56.6534C229.818 56.9396 229.511 57.0821 229.192 57.0821H228.475L229.974 62.8675H226.701L224.619 54.766H227.074L227.487 51.9856H224.623L223.03 62.8675H219.368L221.384 48.9792H230.373C230.93 48.9805 231.265 49.2969 231.376 49.9297Z" fill="#B5B5B7"/>
<path d="M242.755 48.9805L241.094 51.9869H235.777L235.364 54.7674H240.672L240.348 57.0835H235.03L234.618 59.8639H241.153L239.491 62.8703H230.522L232.539 48.9819H242.755V48.9805Z" fill="#B5B5B7"/>
<path d="M253.505 48.9805L251.844 51.9869H246.527L246.114 54.7674H251.421L251.097 57.0835H245.78L245.367 59.8639H251.901L250.241 62.8703H241.272L243.288 48.9819H253.505V48.9805Z" fill="#B5B5B7"/>
<path d="M264.252 48.9805L263.808 51.9869H260.546L258.952 62.8689H255.271L256.865 51.9869H253.592L254.036 48.9805H264.252Z" fill="#B5B5B7"/>
</svg>
