<svg width="248" height="244" viewBox="0 0 248 244" fill="none" xmlns="http://www.w3.org/2000/svg">
<path d="M231.926 166.757C206.365 223.739 141.095 247.263 90.3722 242.17C76.5206 240.777 48.6521 237.982 27.2261 216.992C-13.9281 176.691 -6.04025 94.0776 34.8702 46.0803C40.1374 39.8989 76.5816 -1.49906 132.214 0.0419406C172.95 1.16504 201.141 24.6805 204.571 27.6058C208.898 31.3059 218.44 40.0817 226.929 53.8898C246.884 86.3291 247.902 131.149 231.926 166.757Z" fill="url(#paint0_linear_308_5345)"/>
<path d="M223.673 19.4394C223.089 18.2031 221.226 18.5775 221.174 19.9444C220.608 33.1517 218.049 67.7327 206.469 88.4796C187.62 122.268 181.352 171.415 203.109 190.986C203.109 190.986 287.541 154.011 223.673 19.4394Z" fill="#BDD0FB"/>
<path opacity="0.43" d="M225.379 37.6877C225.44 38.0969 225.466 38.4452 225.501 38.8195L225.588 39.9165L225.736 42.1018C225.823 43.5644 225.893 45.0183 225.963 46.481C226.084 49.3976 226.171 52.3228 226.241 55.2481C226.354 61.09 226.311 66.9405 226.171 72.7824C226.05 78.6243 225.754 84.4748 225.344 90.308C224.926 96.1411 224.422 101.974 223.734 107.781C222.376 119.404 220.373 130.957 217.57 142.328C216.107 147.995 214.496 153.628 212.564 159.157C210.587 164.668 208.385 170.1 205.79 175.35C205.738 175.463 205.599 175.507 205.486 175.455C205.372 175.402 205.329 175.263 205.381 175.159C207.758 169.839 209.847 164.389 211.667 158.861C213.504 153.332 215.01 147.699 216.377 142.04C217.735 136.381 218.867 130.661 219.868 124.924C220.869 119.186 221.627 113.406 222.358 107.625C223.769 96.0541 224.552 84.4052 225.022 72.7563C225.24 66.9318 225.344 61.0987 225.353 55.2655C225.362 52.349 225.336 49.4324 225.275 46.5158L225.153 42.1453L225.066 39.96L225.014 38.8718C224.987 38.5148 224.97 38.1317 224.935 37.8183L224.926 37.7661C224.909 37.6442 225.005 37.531 225.127 37.5136C225.257 37.4788 225.362 37.5658 225.379 37.6877Z" fill="white"/>
<path d="M174.134 1.39152C173.264 0.416422 171.662 1.26963 171.975 2.53203C175.057 14.7991 182.144 47.2035 177.19 69.3956C169.128 105.518 176.781 152.305 202.073 164.319C202.073 164.319 269.415 107.372 174.134 1.39152Z" fill="#91B3FA"/>
<path opacity="0.43" d="M180.682 17.6547C180.856 18.0204 180.969 18.3251 181.099 18.6559L181.483 19.6397L182.214 21.6073C182.693 22.922 183.154 24.2453 183.616 25.5599C184.53 28.2066 185.409 30.862 186.262 33.5261C187.96 38.8543 189.51 44.2347 190.99 49.6239C192.47 55.0217 193.802 60.4544 195.012 65.9219C196.222 71.3894 197.354 76.8656 198.303 82.3853C200.227 93.4161 201.55 104.56 202.081 115.747C202.29 121.346 202.343 126.952 202.081 132.55C201.777 138.149 201.228 143.729 200.279 149.249C200.262 149.371 200.14 149.449 200.018 149.432C199.896 149.414 199.818 149.301 199.835 149.179C200.566 143.651 200.993 138.088 201.15 132.516C201.324 126.944 201.167 121.372 200.871 115.808C200.575 110.245 200.053 104.691 199.4 99.1622C198.747 93.625 197.868 88.1227 196.962 82.6204C195.099 71.6244 192.644 60.733 189.893 49.9199C188.508 44.5133 187.011 39.1416 185.426 33.7873C184.634 31.1145 183.824 28.4417 182.971 25.7863L181.665 21.8076L180.995 19.8226L180.647 18.8388C180.525 18.5166 180.403 18.1684 180.29 17.8985L180.272 17.855C180.229 17.7418 180.281 17.6112 180.394 17.5677C180.507 17.5067 180.629 17.5502 180.682 17.6547Z" fill="white"/>
<g opacity="0.3">
<path opacity="0.3" d="M71.837 48.2043C72.281 48.2305 72.638 48.5961 72.6554 49.0488C72.6902 50.0414 72.6902 51.0513 72.638 52.0438C72.6119 52.5313 72.2027 52.9057 71.7151 52.8796C71.7064 52.8796 71.7064 52.8796 71.6977 52.8796C71.2189 52.8448 70.8532 52.4443 70.8793 51.9654C70.9229 51.0164 70.9316 50.0588 70.8967 49.1185C70.8793 48.6309 71.2537 48.2305 71.7412 48.2043C71.7761 48.2043 71.8109 48.2043 71.837 48.2043ZM71.2711 55.831C71.3059 55.831 71.3408 55.8397 71.3756 55.8484C71.8544 55.9354 72.1678 56.3969 72.0808 56.8757C71.8979 57.8508 71.6716 58.8346 71.4104 59.7923C71.2798 60.2624 70.801 60.5323 70.3308 60.4017C69.8607 60.2711 69.5908 59.7923 69.7214 59.3222C69.9739 58.4167 70.1915 57.4852 70.3657 56.5536C70.4353 56.1096 70.8358 55.8049 71.2711 55.831ZM69.0336 63.1442C69.1294 63.1529 69.2251 63.1703 69.3209 63.2138C69.7649 63.4054 69.9739 63.9277 69.7736 64.3718C69.3819 65.2859 68.9378 66.1914 68.4677 67.062C68.2413 67.4886 67.7016 67.6453 67.275 67.4189C66.8484 67.1926 66.6916 66.6528 66.918 66.2262C67.3707 65.3991 67.7886 64.5372 68.163 63.6666C68.3284 63.3183 68.6767 63.1181 69.0336 63.1442ZM65.2203 69.7783C65.3857 69.787 65.5424 69.848 65.6817 69.9437C66.0735 70.231 66.1519 70.7795 65.8646 71.1713C65.2725 71.9723 64.6457 72.7558 63.984 73.5046C63.6619 73.8702 63.1134 73.905 62.7477 73.5829C62.3821 73.2608 62.3472 72.7123 62.6694 72.3466C63.2962 71.6414 63.8882 70.8927 64.4541 70.1266C64.6457 69.8828 64.933 69.7522 65.2203 69.7783ZM60.0314 75.3851C60.2578 75.4025 60.4754 75.4983 60.6408 75.6898C60.9543 76.0555 60.9194 76.6127 60.5538 76.9261C59.805 77.5704 59.0128 78.1972 58.2118 78.7805C57.82 79.0678 57.2715 78.9808 56.9842 78.589C56.6969 78.1972 56.784 77.6487 57.1758 77.3614C57.9419 76.8042 58.6906 76.2122 59.4045 75.5941C59.5787 75.4373 59.805 75.3677 60.0314 75.3851ZM53.7194 79.7121C54.0154 79.7295 54.2853 79.8949 54.4333 80.1735C54.6597 80.6001 54.503 81.1312 54.0677 81.3576C53.1883 81.8277 52.2829 82.263 51.3687 82.6548C50.9247 82.8463 50.411 82.6374 50.2195 82.1933C50.028 81.7493 50.2369 81.2357 50.6809 81.0441C51.5516 80.6698 52.4135 80.2606 53.2493 79.8166C53.3973 79.7295 53.5627 79.7034 53.7194 79.7121ZM21.489 79.6424C21.6109 79.6511 21.7328 79.686 21.846 79.7469C22.6731 80.1909 23.535 80.6088 24.4056 80.9832C24.8496 81.1747 25.0586 81.6884 24.8671 82.1324C24.6755 82.5764 24.1619 82.7854 23.7091 82.5938C22.795 82.202 21.8895 81.758 21.0102 81.2879C20.5836 81.0615 20.4269 80.5218 20.6533 80.0952C20.8187 79.7904 21.1495 79.6163 21.489 79.6424ZM46.6151 82.5242C46.9808 82.5503 47.3029 82.8028 47.4074 83.1684C47.538 83.6386 47.2594 84.1174 46.7893 84.248C45.8316 84.5092 44.8478 84.7269 43.8727 84.9097C43.3938 84.9967 42.9411 84.6833 42.8541 84.2045C42.767 83.7256 43.0804 83.2729 43.5593 83.1859C44.4908 83.0204 45.4224 82.8115 46.3278 82.559C46.4236 82.5329 46.5194 82.5155 46.6151 82.5242ZM28.5846 82.4807C28.6455 82.4807 28.6978 82.4981 28.7587 82.5068C29.6729 82.7592 30.6044 82.9682 31.5273 83.1423C32.0061 83.2294 32.3196 83.6908 32.2325 84.1609C32.1454 84.6398 31.684 84.9532 31.2139 84.8662C30.2388 84.6833 29.255 84.457 28.2973 84.1958C27.8272 84.0652 27.5573 83.5863 27.6792 83.1162C27.7923 82.7157 28.1754 82.4545 28.5846 82.4807ZM39.0582 83.6821C39.5022 83.7082 39.8591 84.0739 39.8765 84.5266C39.894 85.0142 39.5196 85.4233 39.032 85.4408C38.0395 85.4756 37.0296 85.4756 36.0371 85.4321C36.0284 85.4321 36.0284 85.4321 36.0197 85.4321C35.5409 85.3972 35.1839 84.9967 35.2013 84.5179C35.2274 84.0304 35.6366 83.656 36.1155 83.6821C37.0557 83.7256 38.0134 83.7256 38.9624 83.6908C38.9972 83.6821 39.032 83.6821 39.0582 83.6821Z" fill="#91B3FA"/>
<path opacity="0.3" d="M16.3436 76.2383C16.5178 76.247 16.6832 76.308 16.8312 76.4299C17.1881 76.7085 17.5538 76.9958 17.9194 77.2657C18.3112 77.553 18.3896 78.1014 18.111 78.4932C17.8237 78.885 17.2752 78.9721 16.8834 78.676C16.5003 78.3887 16.1173 78.1014 15.7429 77.7967C15.3685 77.492 15.2989 76.9435 15.6036 76.5605C15.7864 76.3341 16.065 76.2209 16.3436 76.2383Z" fill="#91B3FA"/>
</g>
<g opacity="0.3">
<path opacity="0.3" d="M3.63243 52.6881C4.05903 52.7143 4.40728 53.0451 4.45081 53.4804C4.49434 53.9331 4.54658 54.3859 4.60752 54.8386C4.66846 55.3174 4.33763 55.7614 3.85008 55.8224C3.37124 55.8833 2.92722 55.5525 2.86628 55.0649C2.80534 54.5861 2.74439 54.1073 2.70086 53.6371C2.65733 53.1583 3.01428 52.723 3.49313 52.6794C3.53666 52.6881 3.58889 52.6881 3.63243 52.6881Z" fill="#91B3FA"/>
<path opacity="0.3" d="M39.9286 15.4169C40.3291 15.443 40.7383 15.4778 41.1388 15.5214C41.6176 15.5736 41.9746 16.0002 41.9223 16.479C41.8701 16.9579 41.4435 17.3148 40.9646 17.2626C40.0331 17.1668 39.0928 17.1146 38.1699 17.0972C37.6824 17.0885 37.2993 16.688 37.308 16.2004C37.3167 15.7129 37.7172 15.3298 38.2048 15.3385C38.7794 15.3472 39.354 15.3733 39.9286 15.4169ZM45.7095 16.2962C45.7617 16.2962 45.8053 16.3049 45.8575 16.3223C46.8065 16.5487 47.7642 16.8273 48.687 17.132C49.1485 17.2887 49.3922 17.785 49.2442 18.2377C49.0875 18.6991 48.5913 18.9516 48.1385 18.7949C47.2592 18.4989 46.3538 18.2464 45.4483 18.0287C44.9782 17.9156 44.6909 17.4454 44.8041 16.9666C44.8998 16.5487 45.2916 16.2701 45.7095 16.2962ZM33.5905 15.5823C33.9997 15.6084 34.3479 15.9305 34.4002 16.3572C34.4611 16.836 34.1129 17.2713 33.634 17.3322C32.7112 17.4454 31.7883 17.5934 30.8742 17.785C30.3953 17.8807 29.9339 17.576 29.8381 17.1059C29.7423 16.627 30.0471 16.1656 30.5172 16.0698C31.4749 15.8696 32.4587 15.7129 33.4251 15.5997C33.486 15.5736 33.5382 15.5736 33.5905 15.5823ZM52.7876 18.8558C52.9008 18.8645 53.014 18.8906 53.1185 18.9429C53.9978 19.3782 54.8684 19.8483 55.7042 20.3533C56.1221 20.6058 56.2527 21.1456 56.0002 21.5547C55.7478 21.9726 55.208 22.1032 54.7988 21.8508C54.0065 21.3719 53.1794 20.9192 52.3436 20.51C51.9083 20.2923 51.7342 19.77 51.9431 19.3347C52.1086 19.0125 52.4481 18.8297 52.7876 18.8558ZM26.2686 17.2887C26.6081 17.3148 26.9128 17.5325 27.0347 17.872C27.2001 18.3247 26.9564 18.8297 26.5036 18.9951C25.633 19.3085 24.7537 19.6568 23.9092 20.0399C23.4652 20.2401 22.9515 20.0399 22.7513 19.6046C22.551 19.1605 22.7513 18.6469 23.1866 18.4466C24.0746 18.0462 24.9975 17.6718 25.9203 17.3497C26.0335 17.2974 26.1554 17.2887 26.2686 17.2887ZM19.4952 20.5709C19.765 20.5884 20.0262 20.7364 20.1829 20.9801C20.4441 21.3893 20.3135 21.9291 19.9043 22.1903C19.1208 22.6866 18.3459 23.2176 17.5972 23.7748C17.2141 24.0708 16.6569 23.9925 16.3696 23.6007C16.0823 23.2089 16.152 22.6604 16.5437 22.3731C17.3273 21.7898 18.137 21.2239 18.9728 20.7015C19.1382 20.6058 19.321 20.5622 19.4952 20.5709ZM13.6098 25.2549C13.8187 25.2723 14.0189 25.3506 14.1757 25.5161C14.5152 25.8643 14.5152 26.4128 14.167 26.7611C13.5053 27.414 12.861 28.1018 12.2603 28.8157C11.9469 29.1814 11.3897 29.2249 11.024 28.9115C10.6584 28.5981 10.6148 28.0409 10.9283 27.6752C11.5638 26.9352 12.2342 26.2039 12.9307 25.5161C13.1135 25.3158 13.366 25.2375 13.6098 25.2549ZM8.87359 31.1054C9.01289 31.1142 9.16089 31.1577 9.29149 31.2447C9.70068 31.5059 9.82256 32.0457 9.56138 32.4549C9.05642 33.2385 8.58629 34.0481 8.15098 34.8752C7.92461 35.3018 7.39353 35.4672 6.96693 35.2409C6.54033 35.0145 6.37491 34.4835 6.60127 34.0568C7.05399 33.1949 7.55895 32.333 8.08132 31.5146C8.25545 31.2273 8.56017 31.0793 8.87359 31.1054ZM5.53911 37.8527C5.61747 37.8615 5.69583 37.8789 5.78289 37.905C6.23561 38.0704 6.47068 38.5754 6.30526 39.0281C5.99184 39.8987 5.70453 40.7954 5.46076 41.6922C5.33887 42.1623 4.85133 42.4409 4.38119 42.3103C3.91106 42.1884 3.63246 41.7009 3.76305 41.2307C4.01553 40.2818 4.31154 39.3415 4.65108 38.4186C4.79038 38.053 5.15604 37.8266 5.53911 37.8527ZM3.77176 45.166C3.78917 45.166 3.80658 45.166 3.82399 45.1747C4.30284 45.2356 4.64238 45.6796 4.58143 46.1585C4.49437 46.8375 4.42472 47.5253 4.38119 48.2044C4.36378 48.4482 4.35507 48.7007 4.33766 48.9444C4.31154 49.432 3.90235 49.8064 3.42351 49.7802C2.93596 49.7715 2.56159 49.3449 2.58771 48.8661C2.59642 48.6049 2.61383 48.3524 2.63124 48.0912C2.68348 47.3773 2.75313 46.646 2.84019 45.9321C2.90114 45.462 3.31033 45.1311 3.77176 45.166Z" fill="#91B3FA"/>
<path opacity="0.3" d="M59.152 22.9217C59.3261 22.9304 59.5002 23 59.6482 23.1132C60.0139 23.4092 60.3883 23.7226 60.7452 24.0448C61.1109 24.3669 61.1457 24.9154 60.8236 25.281C60.5014 25.6467 59.9529 25.6815 59.5873 25.3594C59.2477 25.0547 58.8908 24.7587 58.5425 24.4801C58.1682 24.1754 58.1072 23.6269 58.4119 23.2438C58.5948 23.0174 58.8734 22.9043 59.152 22.9217Z" fill="#91B3FA"/>
</g>
<path d="M57.2887 33.0033C57.1842 32.864 57.0101 32.7943 56.8359 32.8466L52.0475 34.2483C50.2976 32.7073 48.2952 31.4275 46.0838 30.4959L45.2654 25.5769C45.2393 25.4028 45.1 25.2722 44.9259 25.2374L39.0231 24.2362C38.8489 24.21 38.6748 24.2884 38.5965 24.4451L36.2023 28.8243C33.8081 28.9723 31.4922 29.5121 29.3331 30.4001L25.276 27.4923C25.1367 27.3878 24.9451 27.3878 24.7971 27.4923L19.913 30.9573C19.7737 31.0618 19.704 31.2359 19.7563 31.4101L21.1579 36.1985C19.617 37.9484 18.3371 39.9508 17.4056 42.1622L12.4866 42.9806C12.3125 43.0067 12.1819 43.146 12.147 43.3201L11.1458 49.2229C11.1197 49.3971 11.1981 49.5712 11.3548 49.6496L15.734 52.0438C15.882 54.438 16.4218 56.7538 17.3098 58.9129L14.4019 62.97C14.2975 63.1093 14.2975 63.3009 14.4019 63.4489L17.867 68.3331C17.9715 68.4724 18.1456 68.542 18.3197 68.4898L23.1081 67.0881C24.8581 68.6291 26.8605 69.9089 29.0719 70.8404L29.8903 75.7594C29.9164 75.9336 30.0557 76.0642 30.2298 76.099L36.1326 77.1002C36.3067 77.1263 36.4809 77.048 36.5592 76.8912L38.9534 72.512C41.3476 72.364 43.6635 71.8242 45.8226 70.9362L49.8797 73.8441C50.019 73.9485 50.2105 73.9485 50.3585 73.8441L55.2427 70.379C55.382 70.2745 55.4517 70.1004 55.3994 69.9263L53.9977 65.1379C55.5387 63.3879 56.8185 61.3855 57.7501 59.1741L62.6691 58.3558C62.8432 58.3296 62.9738 58.1903 63.0086 58.0162L64.0099 52.1134C64.036 51.9393 63.9576 51.7651 63.8009 51.6868L59.4217 49.2926C59.2737 46.8984 58.7339 44.5825 57.8459 42.4234L60.7537 38.3663C60.8582 38.227 60.8582 38.0355 60.7537 37.8875L57.2887 33.0033Z" fill="#91B3FA"/>
<path d="M37.987 44.6608C40.9123 44.8611 43.3413 47.1769 43.5851 50.1893C43.8463 53.4976 41.3737 56.4055 38.0566 56.6667C36.4547 56.7973 34.8963 56.2923 33.6774 55.2476C32.4498 54.2028 31.7098 52.7489 31.5792 51.1469C31.318 47.8386 33.7906 44.9307 37.1077 44.6695C37.395 44.6434 37.691 44.6434 37.987 44.6608ZM37.2557 55.2737C37.482 55.2911 37.7084 55.2911 37.9435 55.2737C40.477 55.0734 42.3836 52.8446 42.1834 50.3024C41.9831 47.7689 39.7543 45.8623 37.2121 46.0625C34.6786 46.2628 32.772 48.4915 32.9722 51.0338C33.068 52.2613 33.6426 53.3844 34.5829 54.1767C35.3403 54.8297 36.2719 55.204 37.2557 55.2737Z" fill="#BDD0FB"/>
<path d="M38.4398 35.972C38.9447 36.0068 39.4497 36.0678 39.9547 36.1461C40.1114 36.1723 40.2681 36.1984 40.4248 36.2332C41.1996 36.3899 41.9658 36.6076 42.7058 36.8862C42.7145 36.8862 42.7232 36.8949 42.7319 36.8949C42.7581 36.9036 42.7929 36.9123 42.819 36.9297C42.8712 36.9471 42.9322 36.9732 42.9844 36.9906C43.1324 37.0516 43.2108 37.1909 43.2021 37.3389C43.2021 37.3737 43.1934 37.4085 43.176 37.4434C43.1063 37.6262 42.8974 37.7133 42.7232 37.6349C41.8004 37.2605 40.8253 36.9906 39.8328 36.8252C34.9051 35.9894 30.1341 37.8264 27.0085 41.2828C25.2673 43.2069 24.0397 45.6272 23.5696 48.3696C23.4912 48.8485 23.4303 49.3273 23.3955 49.8149C23.1778 53.0449 24.0746 56.2226 25.9725 58.8954C28.1491 61.9687 31.3965 64.006 35.114 64.6328C42.7842 65.93 50.0713 60.7499 51.3772 53.0884C51.4556 52.6183 51.5165 52.1394 51.5426 51.6693C51.6819 49.6059 51.3685 47.5426 50.6111 45.6185C50.5936 45.5662 50.5849 45.514 50.5849 45.4705C50.5936 45.3399 50.6807 45.218 50.8113 45.1658C50.9941 45.0961 51.1944 45.1832 51.264 45.366C52.0563 47.3858 52.3784 49.5537 52.2391 51.7215C52.2043 52.2178 52.1434 52.7227 52.065 53.219C50.6981 61.2635 43.0367 66.7049 34.9921 65.338C31.0918 64.6763 27.6876 62.5346 25.3979 59.3133C23.4042 56.5099 22.4639 53.1668 22.6903 49.7801C22.7251 49.2751 22.786 48.7701 22.8731 48.2652C23.5348 44.3648 25.6765 40.9607 28.8978 38.6709C31.7186 36.6859 35.0531 35.7457 38.4398 35.972Z" fill="#BDD0FB"/>
<g opacity="0.3">
<path opacity="0.3" d="M103.275 27.1355C103.51 27.1529 103.71 27.3183 103.771 27.5621C103.867 28.0148 103.963 28.4675 104.032 28.929C104.076 29.225 103.876 29.5036 103.58 29.5471C103.284 29.5993 103.005 29.3904 102.962 29.0944C102.892 28.6591 102.805 28.2238 102.718 27.7972C102.657 27.5012 102.84 27.2139 103.127 27.1529C103.179 27.1355 103.231 27.1268 103.275 27.1355Z" fill="#91B3FA"/>
<path opacity="0.3" d="M103.806 31.271C104.076 31.2884 104.302 31.5148 104.311 31.7934C104.337 32.5856 104.328 33.3866 104.276 34.1789C104.267 34.3443 104.25 34.5097 104.241 34.6751C104.215 34.9711 103.937 35.1801 103.649 35.1714C103.353 35.1453 103.127 34.8841 103.153 34.5881C103.171 34.4313 103.179 34.2659 103.188 34.1092C103.24 33.3518 103.249 32.5856 103.223 31.8369C103.214 31.5409 103.449 31.2884 103.745 31.2797C103.771 31.271 103.789 31.271 103.806 31.271ZM103.31 36.8778C103.336 36.8778 103.362 36.8865 103.388 36.8865C103.684 36.9474 103.867 37.2347 103.806 37.5308C103.606 38.471 103.345 39.4026 103.031 40.308C102.935 40.5953 102.622 40.7433 102.343 40.6476C102.056 40.5518 101.908 40.2384 102.004 39.9598C102.3 39.0979 102.552 38.2011 102.744 37.3044C102.796 37.0432 103.04 36.8604 103.31 36.8778ZM101.464 42.1973C101.534 42.206 101.603 42.2234 101.664 42.2495C101.934 42.3801 102.047 42.7109 101.908 42.9721C101.482 43.834 101.003 44.6785 100.472 45.4795C100.306 45.732 99.9753 45.8016 99.7229 45.6362C99.4704 45.4708 99.4007 45.1313 99.5662 44.8875C100.071 44.1213 100.533 43.3204 100.933 42.4933C101.046 42.293 101.255 42.1799 101.464 42.1973ZM98.3734 46.8986C98.4866 46.9073 98.5998 46.9509 98.6868 47.0292C98.9132 47.2208 98.9393 47.569 98.7478 47.7954C98.1209 48.5267 97.4505 49.2232 96.7453 49.8761C96.5277 50.0764 96.1794 50.059 95.9792 49.8413C95.779 49.6237 95.7877 49.2754 96.014 49.0752C96.6844 48.457 97.3287 47.7867 97.9207 47.0902C98.0426 46.9596 98.208 46.8899 98.3734 46.8986ZM94.2293 50.7119C94.386 50.7206 94.534 50.799 94.6384 50.9383C94.8126 51.1821 94.7516 51.5216 94.5079 51.6957C93.7243 52.2529 92.9059 52.7666 92.0614 53.228C91.8002 53.376 91.4694 53.2716 91.3301 53.0104C91.1908 52.7492 91.2866 52.4184 91.5477 52.2791C92.3487 51.8437 93.1323 51.3562 93.881 50.8164C93.9855 50.7293 94.1074 50.7032 94.2293 50.7119ZM89.2841 53.3935C89.4844 53.4109 89.6759 53.5327 89.7543 53.733C89.8674 54.0116 89.7281 54.325 89.4495 54.4382C88.5528 54.7864 87.6299 55.0912 86.7071 55.3262C86.4198 55.3959 86.1238 55.2217 86.0454 54.9344C85.9671 54.6471 86.1499 54.3511 86.4372 54.2728C87.3252 54.0464 88.2046 53.7591 89.0578 53.4283C89.1274 53.4021 89.2058 53.3847 89.2841 53.3935ZM83.834 54.7864C84.0865 54.8039 84.3042 54.9954 84.339 55.2566C84.3738 55.5526 84.1649 55.8225 83.8689 55.866C82.9199 55.9879 81.9535 56.0488 80.9871 56.0488C80.6911 56.0488 80.4473 55.8051 80.4473 55.5091C80.4473 55.213 80.6911 54.9693 80.9871 54.9693C81.9013 54.9693 82.8328 54.9083 83.7383 54.7951C83.7644 54.7864 83.7992 54.7864 83.834 54.7864ZM75.4326 54.2902C75.4674 54.2902 75.4935 54.2989 75.5283 54.3076C76.2945 54.4991 77.0868 54.6471 77.879 54.7603C78.0009 54.7777 78.1141 54.7951 78.236 54.8039C78.532 54.8387 78.7496 55.1086 78.7061 55.4046C78.6713 55.7006 78.4014 55.927 78.1054 55.8747C77.9835 55.8573 77.8529 55.8399 77.731 55.8225C76.9039 55.7093 76.0768 55.5526 75.2672 55.3523C74.9799 55.2827 74.797 54.9867 74.8754 54.6994C74.9276 54.4469 75.1714 54.2728 75.4326 54.2902Z" fill="#91B3FA"/>
</g>
<g opacity="0.3">
<path opacity="0.3" d="M82.1537 9.24427C82.4497 9.26169 82.676 9.51417 82.6586 9.81888C82.6412 10.1149 82.3887 10.35 82.084 10.3326C81.1873 10.2803 80.2731 10.289 79.3764 10.35C79.0804 10.3674 78.8192 10.141 78.8018 9.845C78.7844 9.54899 79.0107 9.2878 79.3067 9.27039C80.247 9.20074 81.2047 9.19204 82.1537 9.24427C82.1537 9.24427 82.145 9.24427 82.1537 9.24427ZM84.9135 9.56641C84.9309 9.56641 84.9484 9.5664 84.9745 9.57511C85.906 9.74053 86.8376 9.95818 87.7343 10.2368C88.0217 10.3238 88.1871 10.6286 88.1 10.9159C88.0129 11.2032 87.7082 11.3599 87.4209 11.2815C86.559 11.0203 85.671 10.8114 84.7829 10.6547C84.4869 10.6024 84.2954 10.3238 84.3389 10.0278C84.3912 9.73182 84.6349 9.54899 84.9135 9.56641ZM76.6339 9.61864C76.8777 9.63605 77.0779 9.81018 77.1302 10.054C77.1824 10.35 76.9909 10.6286 76.7036 10.6895C75.8156 10.8636 74.9362 11.09 74.083 11.3599C73.7957 11.4469 73.491 11.2989 73.4039 11.0116C73.3082 10.7243 73.4649 10.4196 73.7522 10.3326C74.6489 10.0452 75.5718 9.81017 76.5033 9.62734C76.5382 9.61864 76.5904 9.61864 76.6339 9.61864ZM90.2069 11.1771C90.2679 11.1771 90.3288 11.1945 90.3897 11.2206C91.2517 11.6037 92.1049 12.039 92.9145 12.5265C93.1757 12.6832 93.2541 13.0141 93.0974 13.2665C92.9407 13.519 92.6098 13.6061 92.3573 13.4494C91.5825 12.9879 90.7728 12.57 89.9544 12.2044C89.6845 12.0825 89.5539 11.7604 89.6758 11.4905C89.7716 11.2815 89.9893 11.1596 90.2069 11.1771ZM71.3667 11.3164C71.5582 11.3251 71.741 11.4469 71.8194 11.6298C71.9413 11.8997 71.8281 12.2218 71.5582 12.3524C70.7398 12.7268 69.9389 13.1621 69.1727 13.6322C68.9202 13.7889 68.5807 13.7106 68.424 13.4581C68.2673 13.2056 68.3456 12.8661 68.5981 12.7093C69.3991 12.2131 70.2436 11.7604 71.0968 11.3686C71.1839 11.3251 71.2796 11.3076 71.3667 11.3164ZM66.6566 14.2242C66.8046 14.2329 66.9439 14.3026 67.0397 14.4245C67.2225 14.6595 67.1877 14.9991 66.9526 15.1906C66.2474 15.7565 65.5683 16.366 64.9415 17.0102C64.7326 17.2279 64.3843 17.2279 64.1754 17.0189C63.9577 16.81 63.9577 16.4704 64.1667 16.2528C64.8283 15.5824 65.5335 14.9381 66.2736 14.3461C66.3867 14.259 66.526 14.2155 66.6566 14.2242ZM62.7737 18.1855C62.8781 18.1943 62.9826 18.2291 63.0697 18.2987C63.3047 18.4816 63.3483 18.8211 63.1741 19.0562C62.6257 19.7701 62.112 20.5275 61.6593 21.3024C61.5113 21.5636 61.1717 21.6419 60.9192 21.4939C60.6581 21.3459 60.571 21.0064 60.7277 20.7539C61.2065 19.9442 61.7376 19.1519 62.3122 18.4032C62.4254 18.2465 62.5995 18.1681 62.7737 18.1855Z" fill="#91B3FA"/>
<path opacity="0.3" d="M94.9867 14.0327C95.0912 14.0414 95.1956 14.0762 95.2827 14.1458C95.6484 14.4332 96.0053 14.7292 96.3536 15.0252C96.58 15.2254 96.5974 15.565 96.4058 15.7913C96.2056 16.0177 95.866 16.0351 95.6397 15.8436C95.3088 15.5563 94.9693 15.269 94.621 14.9991C94.386 14.8162 94.3424 14.4767 94.5253 14.2416C94.6385 14.0936 94.8126 14.0153 94.9867 14.0327Z" fill="#91B3FA"/>
</g>
<path d="M94.0639 20.989C93.9942 20.8933 93.8723 20.8497 93.7591 20.8846L90.5553 21.8248C89.3886 20.7888 88.0392 19.9356 86.5591 19.3175L86.0106 16.0265C85.9932 15.9133 85.8974 15.8176 85.7843 15.8001L81.8317 15.1298C81.7185 15.1124 81.6053 15.1646 81.5444 15.2691L79.9424 18.2031C78.3405 18.2988 76.7908 18.6645 75.3455 19.2565L72.6292 17.315C72.5334 17.2454 72.4029 17.2454 72.3071 17.315L69.0423 19.6396C68.9465 19.7092 68.903 19.8311 68.9378 19.9443L69.8781 23.1482C68.842 24.3148 67.9888 25.6643 67.3707 27.1443L64.0797 27.6928C63.9665 27.7102 63.8708 27.806 63.8534 27.9192L63.183 31.8718C63.1656 31.985 63.2178 32.0982 63.3223 32.1591L66.2563 33.761C66.352 35.363 66.7177 36.9127 67.3097 38.3579L65.3682 41.0743C65.2986 41.17 65.2986 41.3006 65.3682 41.3964L67.6928 44.6612C67.7625 44.757 67.8843 44.8005 67.9975 44.7657L71.2014 43.8254C72.368 44.8615 73.7175 45.7147 75.1975 46.3328L75.746 49.6237C75.7634 49.7369 75.8592 49.8327 75.9724 49.8501L79.925 50.5205C80.0382 50.5379 80.1514 50.4857 80.2123 50.3812L81.8142 47.4472C83.4162 47.3514 84.9659 46.9858 86.4111 46.3937L89.1275 48.3352C89.2232 48.4049 89.3538 48.4049 89.4496 48.3352L92.7144 46.0107C92.8102 45.941 92.8537 45.8191 92.8189 45.706L91.8786 42.5021C92.9146 41.3354 93.7679 39.986 94.386 38.5059L97.6769 37.9574C97.7901 37.94 97.8859 37.8443 97.9033 37.7311L98.5737 33.7785C98.5911 33.6653 98.5389 33.5521 98.4344 33.4912L95.5004 31.8892C95.4046 30.2873 95.039 28.7376 94.4469 27.2923L96.3884 24.576C96.4581 24.4802 96.4581 24.3496 96.3884 24.2539L94.0639 20.989Z" fill="#91B3FA"/>
<path d="M81.1612 28.7201C82.0319 28.7811 82.859 29.1119 83.538 29.6952C84.3738 30.4091 84.8788 31.4017 84.9659 32.4899C85.1487 34.7448 83.4597 36.7211 81.2048 36.904C78.9499 37.0781 76.9736 35.3978 76.7907 33.1429C76.7037 32.0546 77.0432 30.9925 77.7571 30.1567C78.471 29.3209 79.4635 28.8159 80.5518 28.7288C80.7608 28.7027 80.961 28.7027 81.1612 28.7201ZM80.6737 35.8244C80.8217 35.8331 80.9697 35.8331 81.1177 35.8244C82.7719 35.6938 84.0169 34.2399 83.8863 32.577C83.8254 31.776 83.451 31.0447 82.8328 30.5223C82.2234 30 81.4398 29.7475 80.6389 29.8084C79.8379 29.8694 79.1066 30.2437 78.5842 30.8619C78.0618 31.4713 77.8093 32.2549 77.8703 33.0558C77.9922 34.5533 79.2023 35.7199 80.6737 35.8244Z" fill="#BDD0FB"/>
<path d="M81.4922 22.6781C81.8318 22.7043 82.18 22.7391 82.5195 22.8C83.2073 22.9132 83.8777 23.1047 84.522 23.3572C84.5481 23.3659 84.5829 23.3833 84.609 23.3921C84.8354 23.4791 84.966 23.7055 84.9486 23.9318C84.9486 23.9841 84.9312 24.045 84.9137 24.0973C84.8006 24.3759 84.4871 24.5064 84.2085 24.402C83.6078 24.1582 82.981 23.9841 82.3367 23.8796C82.3019 23.8709 82.2671 23.8709 82.2322 23.8622C80.7174 23.6184 79.1938 23.7664 77.7834 24.2627C77.0172 24.5326 76.2859 24.9069 75.5981 25.3858C75.5894 25.3858 75.5894 25.3945 75.5807 25.3945C75.5633 25.4032 75.5459 25.4206 75.5285 25.4293C73.5435 26.8397 72.2201 28.9466 71.8109 31.3495C71.7587 31.6629 71.7239 31.9677 71.6978 32.2811C71.5585 34.3706 72.1331 36.4252 73.3606 38.1578C74.771 40.1428 76.8779 41.4661 79.2808 41.8753C81.6838 42.2845 84.1041 41.7273 86.0891 40.3169C88.0741 38.9065 89.3974 36.7996 89.8066 34.3967C89.8589 34.092 89.8937 33.7873 89.9111 33.4738C89.9982 32.1418 89.7979 30.801 89.3104 29.556C89.2843 29.4777 89.2668 29.3993 89.2755 29.321C89.293 29.1207 89.4148 28.9292 89.6151 28.8508C89.8937 28.7464 90.2071 28.877 90.3203 29.1556C90.8601 30.5486 91.0951 32.046 90.9907 33.5348C90.9646 33.883 90.9297 34.2226 90.8688 34.5621C90.4161 37.2523 88.936 39.603 86.7072 41.1788C84.4871 42.7546 81.7795 43.3815 79.0893 42.9201C76.3991 42.4673 74.0484 40.9873 72.4726 38.7672C71.097 36.8344 70.4528 34.5273 70.6095 32.194C70.6356 31.8458 70.6704 31.4975 70.7314 31.1493C71.6281 25.9517 76.3295 22.3299 81.4922 22.6781Z" fill="#BDD0FB"/>
<path d="M245.438 225.184V152.287C245.438 142.71 237.742 134.918 228.165 134.814C199.426 134.501 140.146 134.483 91.6346 138.575C85.0179 139.132 79.8638 144.556 79.6287 151.199L75.0928 221.676C74.7533 231 82.1274 238.783 91.4518 238.966L228.74 241.578C237.907 241.744 245.438 234.361 245.438 225.184Z" fill="url(#paint1_linear_308_5345)"/>
<path d="M228.783 160.175C228.905 166.374 228.722 176.221 228.574 182.576C228.496 185.884 225.588 188.409 222.306 188.017L198.651 185.249C195.5 184.883 193.279 181.975 193.75 178.841L196.649 159.47C197.058 156.719 199.426 154.681 202.203 154.681H223.168C226.224 154.69 228.722 157.119 228.783 160.175Z" fill="white"/>
<path opacity="0.37" d="M166.969 196.88L147.241 199.005C144.481 199.301 142.122 197.028 142.331 194.26L146.64 135.563C154.911 135.302 163.069 135.11 170.939 134.971V192.449C170.939 194.73 169.233 196.637 166.969 196.88Z" fill="white"/>
<path d="M158.881 186.712C158.82 187.765 157.95 188.583 156.905 188.583C156.87 188.583 156.827 188.583 156.792 188.583C155.695 188.522 154.859 187.582 154.929 186.485L157.906 135.258C159.238 135.223 160.562 135.197 161.885 135.162L158.881 186.712Z" fill="white"/>
<path d="M217.848 178.667C218.197 178.667 218.484 178.397 218.51 178.049L219.537 161.916C219.563 161.551 219.285 161.237 218.919 161.211C218.536 161.185 218.24 161.464 218.214 161.829L217.187 177.962C217.161 178.328 217.439 178.641 217.805 178.667C217.822 178.667 217.831 178.667 217.848 178.667Z" fill="url(#paint2_linear_308_5345)"/>
<path d="M215.741 178.667C216.098 178.667 216.394 178.388 216.403 178.032L216.943 161.585C216.952 161.22 216.664 160.915 216.307 160.898C215.889 160.88 215.637 161.176 215.62 161.533L215.08 177.979C215.071 178.345 215.358 178.65 215.715 178.667C215.715 178.667 215.733 178.667 215.741 178.667Z" fill="url(#paint3_linear_308_5345)"/>
<path d="M212.886 178.667C212.52 178.65 212.242 178.336 212.259 177.979C212.52 172.451 213.025 161.916 213.025 161.559C213.025 161.194 213.321 160.906 213.687 160.906C214.053 160.906 214.349 161.203 214.349 161.568C214.349 161.838 213.704 175.341 213.574 178.04C213.556 178.397 213.269 178.667 212.912 178.667C212.903 178.667 212.895 178.667 212.886 178.667ZM213.017 161.559H213.025H213.017Z" fill="url(#paint4_linear_308_5345)"/>
<path d="M208.507 179.329C209.22 179.329 209.804 178.763 209.83 178.049C210.387 162.117 210.291 161.76 210.23 161.516C210.039 160.811 209.308 160.393 208.602 160.584C207.958 160.758 207.549 161.385 207.636 162.038C207.679 162.996 207.383 172.268 207.183 177.953C207.157 178.685 207.732 179.294 208.454 179.32C208.472 179.329 208.489 179.329 208.507 179.329Z" fill="url(#paint5_linear_308_5345)"/>
<path d="M205.642 178.667C206.008 178.667 206.304 178.371 206.304 178.005V161.873C206.304 161.507 206.008 161.211 205.642 161.211C205.276 161.211 204.98 161.507 204.98 161.873V178.005C204.98 178.371 205.276 178.667 205.642 178.667Z" fill="url(#paint6_linear_308_5345)"/>
<path d="M203.326 178.667C203.683 178.667 203.979 178.38 203.988 178.023C204.119 172.416 204.415 163.257 204.676 162.16C204.789 161.951 204.789 161.69 204.65 161.472C204.449 161.168 204.04 161.081 203.736 161.281C203.379 161.516 203.03 161.742 202.665 177.988C202.656 178.354 202.943 178.658 203.309 178.667H203.326V178.667Z" fill="url(#paint7_linear_308_5345)"/>
<path d="M221.409 180.138C222.106 180.138 222.689 179.59 222.732 178.885L223.612 161.942C223.647 161.211 223.089 160.593 222.358 160.549C221.662 160.497 221.009 161.072 220.965 161.803L220.086 178.745C220.051 179.477 220.608 180.095 221.339 180.138C221.357 180.138 221.383 180.138 221.409 180.138Z" fill="url(#paint8_linear_308_5345)"/>
<path d="M209.316 126.534V75.3419C209.316 68.612 203.91 63.1445 197.189 63.0662C176.999 62.8485 135.375 62.8311 101.307 65.7041C96.6581 66.0959 93.0451 69.9092 92.8709 74.567L89.6845 124.062C89.4494 130.609 94.6209 136.076 101.177 136.198L197.589 138.027C204.032 138.166 209.316 132.977 209.316 126.534Z" fill="url(#paint9_linear_308_5345)"/>
<path d="M197.624 80.8791C197.711 85.2322 197.58 92.1449 197.476 96.6112C197.424 98.9357 195.378 100.703 193.07 100.433L176.459 98.483C174.248 98.2218 172.689 96.1846 173.02 93.9819L175.057 80.3828C175.345 78.45 177.008 77.0222 178.958 77.0222H193.68C195.822 77.0309 197.58 78.7373 197.624 80.8791Z" fill="white"/>
<path opacity="0.37" d="M154.206 106.658L140.346 108.156C138.404 108.364 136.75 106.763 136.898 104.821L139.928 63.5972C145.735 63.4143 151.464 63.2751 156.992 63.188V103.559C157.001 105.152 155.799 106.493 154.206 106.658Z" fill="white"/>
<path d="M148.53 99.519C148.486 100.259 147.877 100.834 147.137 100.834C147.111 100.834 147.084 100.834 147.058 100.834C146.292 100.79 145.7 100.128 145.744 99.3623L147.833 63.3883C148.773 63.3622 149.696 63.3448 150.628 63.3274L148.53 99.519Z" fill="white"/>
<path d="M189.936 93.8687C190.18 93.8687 190.38 93.6771 190.398 93.4334L191.12 82.0979C191.138 81.8454 190.946 81.6191 190.685 81.6016C190.415 81.5842 190.206 81.7845 190.189 82.037L189.466 93.3724C189.449 93.6249 189.64 93.8513 189.901 93.8687C189.919 93.8687 189.928 93.8687 189.936 93.8687Z" fill="url(#paint10_linear_308_5345)"/>
<path d="M188.456 93.8689C188.709 93.8689 188.909 93.6686 188.918 93.4161L189.292 81.8717C189.301 81.6105 189.1 81.4016 188.839 81.3929C188.543 81.3754 188.369 81.5844 188.36 81.8456L187.986 93.39C187.977 93.6425 188.178 93.8601 188.439 93.8689C188.448 93.8689 188.456 93.8689 188.456 93.8689Z" fill="url(#paint11_linear_308_5345)"/>
<path d="M186.454 93.8688C186.201 93.8601 186.001 93.6425 186.01 93.3813C186.193 89.4983 186.541 82.098 186.55 81.8542C186.55 81.6018 186.759 81.3928 187.011 81.3928C187.272 81.3928 187.472 81.6018 187.472 81.8542C187.472 82.0458 187.02 91.5269 186.933 93.4248C186.924 93.6773 186.715 93.8688 186.471 93.8688C186.471 93.8688 186.462 93.8688 186.454 93.8688ZM186.541 81.8542H186.55H186.541Z" fill="url(#paint12_linear_308_5345)"/>
<path d="M183.381 94.3303C183.877 94.3303 184.295 93.9385 184.312 93.4336C184.704 82.2461 184.634 81.9936 184.591 81.8282C184.46 81.332 183.938 81.0447 183.45 81.1753C182.998 81.2971 182.71 81.7412 182.771 82.1939C182.797 82.8642 182.597 89.3765 182.458 93.3726C182.44 93.8863 182.841 94.3129 183.355 94.3303C183.355 94.3303 183.372 94.3303 183.381 94.3303Z" fill="url(#paint13_linear_308_5345)"/>
<path d="M181.369 93.8687C181.631 93.8687 181.831 93.6598 181.831 93.4073V82.0718C181.831 81.8106 181.622 81.6104 181.369 81.6104C181.117 81.6104 180.908 81.8193 180.908 82.0718V93.4073C180.899 93.6598 181.108 93.8687 181.369 93.8687Z" fill="url(#paint14_linear_308_5345)"/>
<path d="M179.741 93.8688C179.994 93.8688 180.203 93.6686 180.203 93.4161C180.29 89.4809 180.499 83.047 180.682 82.2722C180.76 82.1242 180.76 81.9413 180.664 81.7933C180.525 81.5757 180.238 81.5234 180.02 81.6627C179.768 81.8282 179.524 81.9849 179.271 93.3987C179.263 93.6599 179.472 93.8688 179.724 93.8775H179.741V93.8688Z" fill="url(#paint15_linear_308_5345)"/>
<path d="M192.444 94.8961C192.931 94.8961 193.349 94.513 193.375 94.0168L193.994 82.1154C194.02 81.6017 193.628 81.1664 193.114 81.1403C192.627 81.1055 192.165 81.506 192.139 82.0196L191.521 93.921C191.495 94.4347 191.887 94.87 192.4 94.8961C192.409 94.8961 192.426 94.8961 192.444 94.8961Z" fill="url(#paint16_linear_308_5345)"/>
<path d="M46.6149 131.253C46.6149 131.253 55.1208 150.65 67.205 153.654C69.547 154.107 72.2895 153.906 73.5257 154.673C74.9187 155.543 73.221 157.877 72.5419 159.653C71.8628 161.429 71.6017 160.593 71.2969 160.027C70.9922 159.461 72.2633 157.676 70.6092 156.971C68.9463 156.266 69.4512 157.345 70.2348 158.277C71.0183 159.209 70.9922 160.645 70.94 160.715C70.8878 160.793 69.6341 160.158 68.45 159.609C67.4314 159.13 66.8655 157.824 66.7262 157.467C64.332 157.189 49.3486 154.829 42.9844 139.08C42.967 139.089 42.3575 123.452 46.6149 131.253Z" fill="url(#paint17_linear_308_5345)"/>
<path d="M10.0314 237.704L9.86603 241.543C9.8312 242.274 9.30883 242.884 8.59492 243.023C7.38476 243.258 5.44329 243.554 3.51051 243.502C2.66601 243.476 2.04787 242.666 2.24811 241.848C2.59636 240.342 3.28415 238.069 4.41595 236.676L8.63846 236.346C9.4046 236.293 10.0663 236.929 10.0314 237.704Z" fill="url(#paint18_linear_308_5345)"/>
<path d="M39.615 190.56L40.6511 194.695C40.6511 194.695 40.1461 219.046 40.4769 228.745C40.5292 230.269 41.0341 231.731 41.9309 232.959L46.6061 239.375L35.5753 233.977L35.2619 232.706L36.8029 230.199L32.4324 203.305C32.1799 201.73 32.3802 200.102 33.0157 198.639L34.8788 194.373L39.615 190.56Z" fill="url(#paint19_linear_308_5345)"/>
<path d="M47.381 240.298L44.0204 240.559C43.3936 240.612 42.7755 240.368 42.3489 239.898C41.1909 238.618 38.8141 236.128 37.7694 236.137C36.3677 236.154 36.9336 241.108 36.9336 241.108L36.15 241.169L34.6787 235.066C34.3043 233.533 34.9573 231.931 36.298 231.096C36.298 231.096 36.803 233.438 38.6139 234.343C40.4335 235.257 46.0403 238.583 46.0403 238.583C46.0403 238.583 46.6845 238.435 47.4072 238.513C48.4867 238.627 48.4606 240.211 47.381 240.298Z" fill="url(#paint20_linear_308_5345)"/>
<path d="M25.3283 193.676C25.3283 193.676 13.4182 221.275 11.6683 227.5C9.91832 233.725 9.53525 238.836 9.54395 239.314C9.55266 240.063 8.68204 240.855 6.12242 241.056C4.79907 241.16 4.11128 240.681 3.75433 240.194C3.44961 239.776 3.39737 239.227 3.58891 238.748C4.26799 237.051 6.42713 231.618 7.19328 229.172C8.10743 226.255 9.54395 213.231 10.5365 208.669C11.529 204.107 12.6608 199.144 18.1457 194.234C18.137 194.234 21.8371 190.002 25.3283 193.676Z" fill="url(#paint21_linear_308_5345)"/>
<path d="M30.7697 149.545C33.1814 133.987 23.3782 126.055 23.3782 126.055C26.3122 122.765 30.7436 120.283 34.139 118.707C37.2123 117.288 40.8341 117.793 43.3937 120.005C46.2058 122.434 49.2704 125.881 48.8612 129.111C48.4259 132.524 43.385 149.789 43.385 149.789C43.385 149.789 37.7347 153.027 30.7697 149.545Z" fill="url(#paint22_linear_308_5345)"/>
<path d="M23.3693 157.737C24.4924 153.201 30.7696 149.553 30.7696 149.553C37.7346 153.027 43.3849 149.797 43.3849 149.797C43.3849 149.797 45.0913 154.725 44.5515 159.47C44.0117 164.215 40.6511 194.704 40.6511 194.704C31.8143 197.22 17.719 194.652 17.719 194.652C22.6467 184.039 22.2462 162.265 23.3693 157.737Z" fill="url(#paint23_linear_308_5345)"/>
<path d="M34.6527 109.096L32.7547 122.495C32.5632 123.679 33.6079 123.4 34.7659 123.095C36.6551 122.582 39.0754 121.642 39.7806 120.083C39.8503 119.926 39.8851 119.752 39.8938 119.578L40.4423 110.35C40.4858 109.618 40.0418 108.948 39.3453 108.704L36.8292 107.816C35.8629 107.468 34.8181 108.086 34.6527 109.096Z" fill="url(#paint24_linear_308_5345)"/>
<path d="M28.1838 132.124C27.6875 132.777 20.235 141.648 18.0933 151.556C15.9603 161.464 16.3347 166.888 16.3347 166.888C16.3347 166.888 18.5896 170.161 18.0672 171.441C17.5709 172.668 16.9876 174.932 15.9864 175.158C14.9852 175.385 14.2626 173.522 14.4106 171.554C14.5586 169.586 13.1221 168.768 13.5051 167.584C13.8969 166.4 11.1283 134.892 23.1951 126.186C23.2561 126.143 23.317 126.108 23.378 126.064C28.8193 128.032 28.9761 131.07 28.1838 132.124Z" fill="url(#paint25_linear_308_5345)"/>
<path d="M36.7681 98.4741C36.7681 98.4741 40.8427 99.5798 44.2207 104.795C47.59 110.01 45.9793 112.848 43.5764 113.536C41.1648 114.224 37.4821 114.668 33.1028 111.586C28.7149 108.521 31.4922 97.2204 36.7681 98.4741Z" fill="url(#paint26_linear_308_5345)"/>
<path d="M35.3054 108.269C35.3054 108.269 31.3005 100.511 38.5092 99.4405L40.3724 100.398C40.3724 100.398 42.4096 95.5228 37.7692 93.9556C33.1288 92.3885 26.8952 95.1832 25.833 101.295C24.7709 107.407 26.3641 111.046 29.8292 113.44C33.2855 115.826 34.13 112.474 34.13 112.474C34.13 112.474 32.1015 110.08 32.589 108.582C33.0853 107.085 34.8875 108.565 34.8875 108.565L35.3054 108.269Z" fill="url(#paint27_linear_308_5345)"/>
<path d="M34.6178 109.287C34.6178 109.287 32.5805 105.291 30.8479 107.224C29.1154 109.157 32.9636 110.889 34.4523 111.412L34.6178 109.287Z" fill="url(#paint28_linear_308_5345)"/>
<path d="M29.2982 100.094C29.2982 100.094 15.2899 95.7841 12.9828 110.393C10.6757 125.002 9.08242 129.686 5.60864 127.17C5.60864 127.17 6.18325 132.629 12.8522 130.191C30.1601 123.862 19.6256 103.585 29.2982 100.094Z" fill="url(#paint29_linear_308_5345)"/>
<path d="M79.8986 103.681C97.7519 103.681 112.225 89.2076 112.225 71.3544C112.225 53.5012 97.7519 39.0283 79.8986 39.0283C62.0454 39.0283 47.5725 53.5012 47.5725 71.3544C47.5725 89.2076 62.0454 103.681 79.8986 103.681Z" fill="white"/>
<path d="M78.6972 91.6748C77.1736 91.7705 75.7545 91.0653 74.971 89.8029L61.7375 68.5511C60.5013 66.5574 61.1629 63.8323 63.2263 62.4568C65.2897 61.0812 67.9625 61.5861 69.2074 63.5799L78.3838 78.3369L90.4941 53.6722C91.5824 51.4608 94.1942 50.4422 96.3272 51.3999C98.4603 52.3576 99.3048 54.9346 98.2252 57.146L82.5714 89.0542C81.8575 90.5168 80.4297 91.518 78.8539 91.6748C78.8017 91.666 78.7494 91.6748 78.6972 91.6748Z" fill="#32B768"/>
<path d="M90.6595 112.021L94.6905 114.189C99.5224 117.132 103.849 118.69 107.741 119.273C119.895 121.102 127.818 113.423 133.729 108.774C141.521 102.627 147.589 105.622 147.589 105.622L139.275 121.485C126.86 133.186 114.131 130.591 106.104 126.796C100.994 124.384 97.7899 121.485 97.7899 121.485C88.6745 116.035 90.6595 112.021 90.6595 112.021Z" fill="url(#paint30_linear_308_5345)"/>
<path d="M78.7843 117.698C79.0454 116.836 79.681 116.131 80.5255 115.8L88.7093 112.509C88.7093 112.509 88.8312 111.455 86.9768 110.75C85.1224 110.036 85.5577 107.964 85.5577 107.964C85.5577 107.964 88.0912 109.122 91.7913 110.95C93.9069 111.995 95.0997 113.849 95.7265 115.234L93.6196 118.002C88.5787 119.517 83.4769 119.805 78.3315 119.204L78.7843 117.698Z" fill="url(#paint31_linear_308_5345)"/>
<path d="M149.383 233.333C149.383 233.333 150.01 236.859 150.314 240.35C150.436 241.717 149.383 242.901 148.016 242.954C143.367 243.145 133.424 243.52 129.855 243.363C129.315 243.337 128.967 242.788 129.167 242.292C129.333 241.874 129.655 241.534 130.064 241.352L146.484 233.803L149.383 233.333Z" fill="url(#paint32_linear_308_5345)"/>
<path d="M149.896 231.261L149.4 235.475C149.4 235.475 146.527 236.816 144.56 235.31L145.752 230.608L149.896 231.261Z" fill="url(#paint33_linear_308_5345)"/>
<path d="M150.697 149.197C150.915 150.337 150.306 209.008 144.551 234.03C144.455 234.439 143.863 235.24 144.063 235.588C144.56 236.442 148.242 236.206 150.314 236.276C150.959 236.302 151.298 235.545 151.481 234.909C153.126 229.102 161.014 200.015 162.042 172.225C163.191 141.178 162.042 171.171 162.042 171.171L162.555 151.495L150.697 149.197Z" fill="url(#paint34_linear_308_5345)"/>
<path d="M168.275 235.17C168.275 235.17 169.268 236.946 170.226 241.683C170.4 242.536 169.799 243.354 168.937 243.441C167.405 243.589 165.037 243.79 163.147 243.772C162.277 243.763 161.598 243.006 161.702 242.144C161.911 240.42 162.564 237.582 164.584 235.379L168.275 235.17Z" fill="url(#paint35_linear_308_5345)"/>
<path d="M169.146 229.746L167.979 236.128C167.979 236.128 166.821 236.99 164.54 236.363L165.097 229.503L169.146 229.746Z" fill="url(#paint36_linear_308_5345)"/>
<path d="M171.958 151.486C176.668 181.148 171.288 227.074 169.355 235.614C169.233 236.137 168.833 236.537 168.328 236.624C167.466 236.772 166.047 236.894 164.645 236.468C164.166 236.32 163.827 235.867 163.8 235.344C163.539 228.44 164.009 186.041 159.621 169.282C159.395 168.429 158.899 167.689 158.211 167.184L150.994 161.298L150.863 148.613L171.958 151.486Z" fill="url(#paint37_linear_308_5345)"/>
<path d="M144.978 103.898C157.384 103.689 171.079 107.154 171.079 107.154C174.126 124.95 172.907 144.661 172.271 151.156C172.141 152.488 172.855 153.898 171.531 154.107C165.037 155.152 154.833 154.09 151.664 153.167C150.506 152.827 150.706 151.6 150.454 150.415C148.321 140.203 142.235 117.68 142.235 117.68C139.284 121.476 135.122 126.787 128.967 128.206C132.101 124.567 126.085 116.94 126.729 114.206C132.293 107.955 141.147 103.959 144.978 103.898Z" fill="url(#paint38_linear_308_5345)"/>
<path d="M157.549 93.8252L161.502 105.248C161.572 105.439 161.493 105.648 161.31 105.744C160.231 106.336 156.356 108.06 151.681 105.1C151.194 104.795 150.863 104.29 150.793 103.715L149.513 93.8339H157.549V93.8252Z" fill="url(#paint39_linear_308_5345)"/>
<path d="M148.956 83.2473C148.956 83.2473 144.621 91.405 145.178 94.7047C145.735 98.0043 151.107 97.7605 155.799 95.0877L159.082 86.2771L148.956 83.2473Z" fill="url(#paint40_linear_308_5345)"/>
<path d="M155.591 90.7608C155.399 90.6737 155.329 90.4386 155.443 90.2645C155.791 89.7334 156.444 88.6539 156.653 87.7049C156.653 87.7049 157.436 87.2086 154.668 86.5469C153.162 86.19 150.497 85.8853 149.322 84.8057C148.007 83.5955 150.428 81.3058 151.446 80.6964C152.787 79.8867 154.424 79.4079 155.939 79.8171C156.67 80.0173 157.332 80.4004 157.985 80.7922C159.09 81.4538 160.24 82.1416 160.945 83.2212C161.398 83.9177 161.641 84.7361 161.859 85.537C162.172 86.695 162.46 87.879 162.408 89.0717C162.259 92.2582 158.525 95.1226 155.521 95.4708C155.277 95.4969 155.086 95.2532 155.164 95.0268L156.392 91.4572C156.452 91.2918 156.365 91.109 156.209 91.0393L155.591 90.7608Z" fill="url(#paint41_linear_308_5345)"/>
<path d="M155.094 91.2743C155.094 91.2743 158.185 89.1587 158.403 90.9435C158.629 92.7283 155.625 93.5292 154.136 92.8588L155.094 91.2743Z" fill="url(#paint42_linear_308_5345)"/>
<path d="M147.372 81.2448C153.71 69.2824 170.121 80.1478 162.486 90.2296C156.809 86.4598 150.384 80.8443 147.372 81.2448Z" fill="url(#paint43_linear_308_5345)"/>
<path d="M157.271 86.3206L145.9 85.9723C145.613 85.9636 145.352 85.8069 145.204 85.5544C144.185 83.7174 142.697 82.5421 140.833 81.8978C140.598 81.8194 140.651 81.4712 140.894 81.4538L147.868 80.9836C147.877 80.9836 147.886 80.9836 147.894 80.9836C151.368 81.2535 154.45 83.343 157.384 86.0768C157.471 86.1551 157.401 86.3206 157.271 86.3206Z" fill="url(#paint44_linear_308_5345)"/>
<path d="M169.668 125.272C162.721 117.471 163.426 111.473 171.261 107.154C171.261 107.154 184.251 115.982 186.393 127.179C183.938 127.361 179.471 127.997 175.101 130.208C174.143 124.915 169.668 125.272 169.668 125.272Z" fill="url(#paint45_linear_308_5345)"/>
<path d="M154.58 133.29C154.58 133.29 169.172 141.535 174.091 134.492C175.11 133.029 175.353 131.575 175.11 130.191C179.48 127.98 183.946 127.344 186.402 127.161C187.046 130.539 186.706 134.126 184.721 137.757C176.102 153.532 152.648 136.886 152.648 136.886L154.58 133.29Z" fill="url(#paint46_linear_308_5345)"/>
<path d="M156.33 143.721L148.364 115.913C148.277 115.599 148.007 115.364 147.676 115.33C146.231 115.164 142.052 114.685 137.229 114.285C131.413 113.797 124.666 113.397 120.626 113.736C120.052 113.789 119.703 114.389 119.965 114.903C122.254 119.543 131.692 138.427 136.419 144.609C136.576 144.818 136.82 144.931 137.072 144.931L155.547 144.757C156.095 144.757 156.478 144.243 156.33 143.721Z" fill="url(#paint47_linear_308_5345)"/>
<path d="M136.411 111.873L130.639 110.915C130.334 110.863 130.081 111.159 130.177 111.455L130.752 113.188C130.804 113.336 130.935 113.449 131.091 113.466L136.646 114.206C136.933 114.241 137.168 113.98 137.107 113.701L136.75 112.187C136.707 112.03 136.576 111.899 136.411 111.873Z" fill="#91B3FA"/>
<path d="M140.729 116.766L140.25 114.285C140.207 114.032 139.998 113.849 139.745 113.823L128.088 112.639C127.696 112.596 127.382 112.961 127.469 113.344L128.209 116.435C128.27 116.679 128.488 116.862 128.741 116.87L140.137 117.445C140.511 117.462 140.799 117.123 140.729 116.766Z" fill="#91B3FA"/>
<path d="M154.406 137.008C154.406 137.008 155.512 132.446 155.068 130.827C154.624 129.207 153.753 127.127 150.863 127.588C147.972 128.049 144.568 129.268 144.568 129.268C144.568 129.268 144.742 131.375 146.936 130.696L145.578 131.75C145.578 131.75 145.77 133.439 147.624 132.533L146.362 133.935C146.362 133.935 147.154 135.319 148.521 134.431C149.888 133.543 150.541 137.557 154.406 137.008Z" fill="url(#paint48_linear_308_5345)"/>
<path d="M159.029 119.648C159.943 119.717 167.64 119.97 167.64 119.97L167.326 127.727L163.339 129.973L159.029 127.727V119.648Z" fill="url(#paint49_linear_308_5345)"/>
<path d="M158.42 119.648L167.631 119.961L168.006 122.939L163.208 124.184L158.115 121.911L158.42 119.648Z" fill="url(#paint50_linear_308_5345)"/>
<defs>
<linearGradient id="paint0_linear_308_5345" x1="254.914" y1="277.142" x2="79.5381" y2="81.0737" gradientUnits="userSpaceOnUse">
<stop stop-color="#DAE3FE"/>
<stop offset="1" stop-color="#E9EFFD"/>
</linearGradient>
<linearGradient id="paint1_linear_308_5345" x1="437.792" y1="-2.77692" x2="97.1578" y2="234.875" gradientUnits="userSpaceOnUse">
<stop stop-color="#FF928E"/>
<stop offset="1" stop-color="#FE7062"/>
</linearGradient>
<linearGradient id="paint2_linear_308_5345" x1="210.36" y1="158.315" x2="252.703" y2="219.843" gradientUnits="userSpaceOnUse">
<stop stop-color="#09005D"/>
<stop offset="1" stop-color="#1A0F91"/>
</linearGradient>
<linearGradient id="paint3_linear_308_5345" x1="208.837" y1="159.362" x2="251.18" y2="220.892" gradientUnits="userSpaceOnUse">
<stop stop-color="#09005D"/>
<stop offset="1" stop-color="#1A0F91"/>
</linearGradient>
<linearGradient id="paint4_linear_308_5345" x1="207" y1="160.627" x2="249.342" y2="222.157" gradientUnits="userSpaceOnUse">
<stop stop-color="#09005D"/>
<stop offset="1" stop-color="#1A0F91"/>
</linearGradient>
<linearGradient id="paint5_linear_308_5345" x1="203.823" y1="162.813" x2="246.165" y2="224.342" gradientUnits="userSpaceOnUse">
<stop stop-color="#09005D"/>
<stop offset="1" stop-color="#1A0F91"/>
</linearGradient>
<linearGradient id="paint6_linear_308_5345" x1="201.727" y1="164.255" x2="244.07" y2="225.785" gradientUnits="userSpaceOnUse">
<stop stop-color="#09005D"/>
<stop offset="1" stop-color="#1A0F91"/>
</linearGradient>
<linearGradient id="paint7_linear_308_5345" x1="200.427" y1="165.15" x2="242.769" y2="226.679" gradientUnits="userSpaceOnUse">
<stop stop-color="#09005D"/>
<stop offset="1" stop-color="#1A0F91"/>
</linearGradient>
<linearGradient id="paint8_linear_308_5345" x1="212.539" y1="156.815" x2="254.881" y2="218.344" gradientUnits="userSpaceOnUse">
<stop stop-color="#09005D"/>
<stop offset="1" stop-color="#1A0F91"/>
</linearGradient>
<linearGradient id="paint9_linear_308_5345" x1="246.92" y1="34.4543" x2="7.70125" y2="201.351" gradientUnits="userSpaceOnUse">
<stop stop-color="#FF928E"/>
<stop offset="1" stop-color="#FE7062"/>
</linearGradient>
<linearGradient id="paint10_linear_308_5345" x1="184.681" y1="79.5749" x2="214.417" y2="122.785" gradientUnits="userSpaceOnUse">
<stop stop-color="#09005D"/>
<stop offset="1" stop-color="#1A0F91"/>
</linearGradient>
<linearGradient id="paint11_linear_308_5345" x1="183.612" y1="80.3109" x2="213.349" y2="123.52" gradientUnits="userSpaceOnUse">
<stop stop-color="#09005D"/>
<stop offset="1" stop-color="#1A0F91"/>
</linearGradient>
<linearGradient id="paint12_linear_308_5345" x1="182.322" y1="81.1987" x2="212.058" y2="124.409" gradientUnits="userSpaceOnUse">
<stop stop-color="#09005D"/>
<stop offset="1" stop-color="#1A0F91"/>
</linearGradient>
<linearGradient id="paint13_linear_308_5345" x1="180.091" y1="82.7344" x2="209.827" y2="125.945" gradientUnits="userSpaceOnUse">
<stop stop-color="#09005D"/>
<stop offset="1" stop-color="#1A0F91"/>
</linearGradient>
<linearGradient id="paint14_linear_308_5345" x1="178.619" y1="83.7468" x2="208.355" y2="126.957" gradientUnits="userSpaceOnUse">
<stop stop-color="#09005D"/>
<stop offset="1" stop-color="#1A0F91"/>
</linearGradient>
<linearGradient id="paint15_linear_308_5345" x1="177.706" y1="84.3756" x2="207.441" y2="127.587" gradientUnits="userSpaceOnUse">
<stop stop-color="#09005D"/>
<stop offset="1" stop-color="#1A0F91"/>
</linearGradient>
<linearGradient id="paint16_linear_308_5345" x1="186.211" y1="78.5222" x2="215.948" y2="121.732" gradientUnits="userSpaceOnUse">
<stop stop-color="#09005D"/>
<stop offset="1" stop-color="#1A0F91"/>
</linearGradient>
<linearGradient id="paint17_linear_308_5345" x1="58.2389" y1="147.937" x2="60.8686" y2="120.888" gradientUnits="userSpaceOnUse">
<stop stop-color="#FEBBBA"/>
<stop offset="1" stop-color="#FF928E"/>
</linearGradient>
<linearGradient id="paint18_linear_308_5345" x1="10.194" y1="239.657" x2="2.05729" y2="240.292" gradientUnits="userSpaceOnUse">
<stop stop-color="#09005D"/>
<stop offset="1" stop-color="#1A0F91"/>
</linearGradient>
<linearGradient id="paint19_linear_308_5345" x1="47.0763" y1="269.064" x2="24.701" y2="133.121" gradientUnits="userSpaceOnUse">
<stop stop-color="#FEBBBA"/>
<stop offset="1" stop-color="#FF928E"/>
</linearGradient>
<linearGradient id="paint20_linear_308_5345" x1="47.8816" y1="235.225" x2="34.7153" y2="236.251" gradientUnits="userSpaceOnUse">
<stop stop-color="#09005D"/>
<stop offset="1" stop-color="#1A0F91"/>
</linearGradient>
<linearGradient id="paint21_linear_308_5345" x1="23.6809" y1="272.938" x2="1.29927" y2="136.957" gradientUnits="userSpaceOnUse">
<stop stop-color="#FEBBBA"/>
<stop offset="1" stop-color="#FF928E"/>
</linearGradient>
<linearGradient id="paint22_linear_308_5345" x1="46.6915" y1="117.812" x2="21.1318" y2="156.448" gradientUnits="userSpaceOnUse">
<stop stop-color="#4F52FF"/>
<stop offset="1" stop-color="#4042E2"/>
</linearGradient>
<linearGradient id="paint23_linear_308_5345" x1="59.2023" y1="142.752" x2="13.4328" y2="198.033" gradientUnits="userSpaceOnUse">
<stop stop-color="#09005D"/>
<stop offset="1" stop-color="#1A0F91"/>
</linearGradient>
<linearGradient id="paint24_linear_308_5345" x1="23.1085" y1="139.894" x2="35.9874" y2="116.712" gradientUnits="userSpaceOnUse">
<stop stop-color="#FEBBBA"/>
<stop offset="1" stop-color="#FF928E"/>
</linearGradient>
<linearGradient id="paint25_linear_308_5345" x1="20.8078" y1="155.696" x2="21.6921" y2="109.506" gradientUnits="userSpaceOnUse">
<stop stop-color="#FEBBBA"/>
<stop offset="1" stop-color="#FF928E"/>
</linearGradient>
<linearGradient id="paint26_linear_308_5345" x1="43.564" y1="102.227" x2="26.5595" y2="117.471" gradientUnits="userSpaceOnUse">
<stop stop-color="#FEBBBA"/>
<stop offset="1" stop-color="#FF928E"/>
</linearGradient>
<linearGradient id="paint27_linear_308_5345" x1="7.66612" y1="82.7493" x2="43.4772" y2="111.179" gradientUnits="userSpaceOnUse">
<stop stop-color="#09005D"/>
<stop offset="1" stop-color="#1A0F91"/>
</linearGradient>
<linearGradient id="paint28_linear_308_5345" x1="42.2188" y1="100.726" x2="25.2143" y2="115.971" gradientUnits="userSpaceOnUse">
<stop stop-color="#FEBBBA"/>
<stop offset="1" stop-color="#FF928E"/>
</linearGradient>
<linearGradient id="paint29_linear_308_5345" x1="-3.97925" y1="97.418" x2="31.8316" y2="125.847" gradientUnits="userSpaceOnUse">
<stop stop-color="#09005D"/>
<stop offset="1" stop-color="#1A0F91"/>
</linearGradient>
<linearGradient id="paint30_linear_308_5345" x1="82.2333" y1="63.1213" x2="181.354" y2="189.938" gradientUnits="userSpaceOnUse">
<stop stop-color="#A22B25"/>
<stop offset="1" stop-color="#C0423C"/>
</linearGradient>
<linearGradient id="paint31_linear_308_5345" x1="70.84" y1="96.2603" x2="126.668" y2="167.688" gradientUnits="userSpaceOnUse">
<stop stop-color="#A22B25"/>
<stop offset="1" stop-color="#C0423C"/>
</linearGradient>
<linearGradient id="paint32_linear_308_5345" x1="136.745" y1="225.841" x2="140.409" y2="243.659" gradientUnits="userSpaceOnUse">
<stop stop-color="#4F52FF"/>
<stop offset="1" stop-color="#4042E2"/>
</linearGradient>
<linearGradient id="paint33_linear_308_5345" x1="149.892" y1="233.319" x2="144.551" y2="233.319" gradientUnits="userSpaceOnUse">
<stop stop-color="#FEBBBA"/>
<stop offset="1" stop-color="#FF928E"/>
</linearGradient>
<linearGradient id="paint34_linear_308_5345" x1="174.425" y1="91.3509" x2="147.773" y2="207.193" gradientUnits="userSpaceOnUse">
<stop stop-color="#09005D"/>
<stop offset="1" stop-color="#1A0F91"/>
</linearGradient>
<linearGradient id="paint35_linear_308_5345" x1="166.115" y1="226.769" x2="165.948" y2="244.421" gradientUnits="userSpaceOnUse">
<stop stop-color="#4F52FF"/>
<stop offset="1" stop-color="#4042E2"/>
</linearGradient>
<linearGradient id="paint36_linear_308_5345" x1="169.144" y1="233.045" x2="164.532" y2="233.045" gradientUnits="userSpaceOnUse">
<stop stop-color="#FEBBBA"/>
<stop offset="1" stop-color="#FF928E"/>
</linearGradient>
<linearGradient id="paint37_linear_308_5345" x1="183.288" y1="91.3264" x2="156.293" y2="208.66" gradientUnits="userSpaceOnUse">
<stop stop-color="#09005D"/>
<stop offset="1" stop-color="#1A0F91"/>
</linearGradient>
<linearGradient id="paint38_linear_308_5345" x1="81.7842" y1="45.2769" x2="145.459" y2="113.309" gradientUnits="userSpaceOnUse">
<stop/>
<stop offset="1" stop-color="#4042E2"/>
</linearGradient>
<linearGradient id="paint39_linear_308_5345" x1="154.288" y1="113.967" x2="156.368" y2="89.5964" gradientUnits="userSpaceOnUse">
<stop stop-color="#A22B25"/>
<stop offset="1" stop-color="#C0423C"/>
</linearGradient>
<linearGradient id="paint40_linear_308_5345" x1="146.653" y1="92.6619" x2="159.856" y2="84.6089" gradientUnits="userSpaceOnUse">
<stop stop-color="#A22B25"/>
<stop offset="1" stop-color="#C0423C"/>
</linearGradient>
<linearGradient id="paint41_linear_308_5345" x1="165.238" y1="79.4991" x2="150.9" y2="90.8237" gradientUnits="userSpaceOnUse">
<stop stop-color="#09005D"/>
<stop offset="1" stop-color="#1A0F91"/>
</linearGradient>
<linearGradient id="paint42_linear_308_5345" x1="150.121" y1="95.665" x2="162" y2="88.4196" gradientUnits="userSpaceOnUse">
<stop stop-color="#A22B25"/>
<stop offset="1" stop-color="#C0423C"/>
</linearGradient>
<linearGradient id="paint43_linear_308_5345" x1="-24.7893" y1="33.833" x2="19.6492" y2="45.7218" gradientUnits="userSpaceOnUse">
<stop stop-color="#4F52FF"/>
<stop offset="1" stop-color="#4042E2"/>
</linearGradient>
<linearGradient id="paint44_linear_308_5345" x1="316.684" y1="39.0406" x2="275.762" y2="49.9886" gradientUnits="userSpaceOnUse">
<stop stop-color="#4F52FF"/>
<stop offset="1" stop-color="#4042E2"/>
</linearGradient>
<linearGradient id="paint45_linear_308_5345" x1="85.9002" y1="25.1358" x2="154.946" y2="98.9066" gradientUnits="userSpaceOnUse">
<stop stop-color="#4F52FF"/>
<stop offset="1" stop-color="#4042E2"/>
</linearGradient>
<linearGradient id="paint46_linear_308_5345" x1="186.697" y1="135.862" x2="152.648" y2="135.862" gradientUnits="userSpaceOnUse">
<stop stop-color="#A22B25"/>
<stop offset="1" stop-color="#C0423C"/>
</linearGradient>
<linearGradient id="paint47_linear_308_5345" x1="125.6" y1="113.813" x2="161.561" y2="148.883" gradientUnits="userSpaceOnUse">
<stop stop-color="#09005D"/>
<stop offset="1" stop-color="#1A0F91"/>
</linearGradient>
<linearGradient id="paint48_linear_308_5345" x1="155.176" y1="132.292" x2="144.568" y2="132.292" gradientUnits="userSpaceOnUse">
<stop stop-color="#A22B25"/>
<stop offset="1" stop-color="#C0423C"/>
</linearGradient>
<linearGradient id="paint49_linear_308_5345" x1="164.645" y1="120.969" x2="178.911" y2="94.5177" gradientUnits="userSpaceOnUse">
<stop stop-color="#4F52FF"/>
<stop offset="1" stop-color="#4042E2"/>
</linearGradient>
<linearGradient id="paint50_linear_308_5345" x1="163" y1="121.641" x2="178.157" y2="96.6755" gradientUnits="userSpaceOnUse">
<stop stop-color="#4F52FF"/>
<stop offset="1" stop-color="#4042E2"/>
</linearGradient>
</defs>
</svg>
