<svg xmlns="http://www.w3.org/2000/svg" viewBox="0 0 35.52 35.52"><title>novedades</title><g id="Capa_2" data-name="Capa 2"><g id="Capa_1-2" data-name="Capa 1"><path d="M29.59,27.21A2.59,2.59,0,0,1,27,29.61h-.38c-7.82,0-15.65,0-23.48,0A2.84,2.84,0,0,1,0,27.41v-.77a3.59,3.59,0,0,1,1.26-1.92,9.75,9.75,0,0,0,3.18-7.21c0-1.37,0-2.73,0-4.1a10.35,10.35,0,0,1,8.71-10.3l.17,0c0-.55,0-1.1,0-1.65A1.47,1.47,0,0,1,14.62,0a1.45,1.45,0,0,1,1.59,1.06,9.28,9.28,0,0,1,.08,1.07A1.58,1.58,0,0,1,16,3.2a11.83,11.83,0,0,0,6.37,17.72,11.37,11.37,0,0,0,3.38.53.37.37,0,0,1,.4.23A9.93,9.93,0,0,0,28.67,25,2.5,2.5,0,0,1,29.59,27.21Z" fill="#636363"/><path d="M20.22,31.09a4.83,4.83,0,0,1-.72,1.82,5.49,5.49,0,0,1-3.94,2.56.49.49,0,0,0-.16.05H14.22a13.06,13.06,0,0,1-2.08-.71,5.35,5.35,0,0,1-2.78-3.72Z" fill="#636363"/><path d="M25.93,0a9.62,9.62,0,1,0,9.59,9.65A9.62,9.62,0,0,0,25.93,0Zm2.88,13.25A1.08,1.08,0,0,1,28,14h0c-1.38,0-2.77,0-4.15,0a.91.91,0,0,1-.84-.85A11.65,11.65,0,0,1,23,11a3.07,3.07,0,0,1,2.87-2.44.89.89,0,0,0,.56-.2.65.65,0,0,0,.11-.55.71.71,0,0,0-.49-.34c-.66,0-1.32,0-2,0A1.11,1.11,0,0,1,23,6.19a1,1,0,0,1,1-1,21.86,21.86,0,0,1,2.56,0A2.74,2.74,0,0,1,28.86,7.9a2.77,2.77,0,0,1-2.32,2.79l-.48.05a.91.91,0,0,0-.86,1.11h2.48a1.08,1.08,0,0,1,.87.34A1.06,1.06,0,0,1,28.81,13.25Z" fill="#636363"/></g></g></svg>