<svg width="176" height="210" viewBox="0 0 176 210" fill="none" xmlns="http://www.w3.org/2000/svg">
<path fill-rule="evenodd" clip-rule="evenodd" d="M92.0055 1.19684L90.6659 2.39326V15.5855V28.7778L92.0055 29.975C93.8356 31.6107 95.8281 31.6099 97.4651 29.973L98.664 28.7741V15.7955C98.664 7.67854 98.5056 2.52164 98.2415 2.02822C97.7091 1.03318 95.7441 0 94.384 0C93.8126 0 92.7421 0.538535 92.0055 1.19684ZM47.3628 14.734C46.4552 15.6417 46.1639 16.3144 46.1639 17.5038C46.1639 18.8516 47.1249 20.5156 52.9246 29.2109C56.643 34.7858 60.1039 39.6154 60.615 39.9431C63.4963 41.7888 66.7538 40.03 66.7538 36.6282C66.7538 35.4773 65.486 33.303 60.0605 25.1512C56.3789 19.6194 52.9209 14.7431 52.3762 14.3145C50.868 13.1283 48.7951 13.3018 47.3628 14.734ZM137.305 14.0856C136.414 14.5802 124.982 31.2313 123.215 34.609C121.209 38.4427 124.823 42.2194 128.576 40.2109C129.066 39.9488 132.595 35.0319 136.419 29.2835C144.184 17.6113 144.429 16.9911 142.172 14.734C140.851 13.4129 138.968 13.1623 137.305 14.0856ZM89.0253 50.3922C85.995 52.2638 85.0825 54.5081 83.4956 63.9926C78.9629 91.0772 71.6363 105.593 60.3143 109.921C58.2849 110.697 56.8055 110.896 51.8762 111.056L45.8994 111.25L45.0053 108.798C43.2543 103.996 39.3787 100.559 34.7181 99.6754C31.0731 98.9838 13.5643 99.1409 10.669 99.8911C6.45836 100.982 3.41336 103.5 1.51352 107.461L0.431528 109.717L0.307662 122.778C0.169439 137.328 0.167387 137.315 2.92446 138.468C4.13401 138.973 4.51873 138.974 5.70983 138.477C8.42547 137.342 8.42958 137.32 8.43122 123.878C8.43327 106.689 7.55553 107.666 22.9901 107.666C34.8568 107.666 35.0733 107.71 36.7484 110.457C37.5265 111.733 37.5478 112.856 37.549 153.235L37.5507 194.703L36.6196 196.097C34.8469 198.75 34.0061 198.925 22.9901 198.925C11.9741 198.925 11.1333 198.75 9.36063 196.097C8.44516 194.726 8.42958 194.502 8.42958 182.55C8.42958 169.062 8.42629 169.045 5.70983 167.91C4.51873 167.413 4.13401 167.414 2.92446 167.919C0.167387 169.071 0.169439 169.059 0.307662 183.608C0.428658 196.35 0.455317 196.723 1.40688 198.827C2.63202 201.538 6.40874 205.117 9.11864 206.134C11.9967 207.214 31.3048 207.511 35.1677 206.535C40.4837 205.19 43.8831 201.668 45.5811 195.747C45.7403 195.191 53.8417 195.01 57.3017 195.484C58.9776 195.713 59.2447 195.924 60.697 198.167C63.733 202.856 68.853 206.205 76.7206 208.649L80.412 209.795H117.531H154.65L156.952 208.664C160.069 207.132 163.1 203.855 164.259 200.761C165.361 197.822 165.467 193.823 164.514 191.161C163.797 189.16 163.854 189.045 165.93 188.263C166.719 187.965 168.324 187.014 169.496 186.149C176.403 181.054 177.761 171.059 172.486 164.139L170.824 161.959L172.075 160.38C172.763 159.511 173.83 157.724 174.447 156.407C175.415 154.341 175.566 153.509 175.551 150.322C175.529 145.967 174.558 143.037 172.233 140.321L170.75 138.589L172.058 136.96C172.778 136.065 173.858 134.275 174.458 132.983C175.946 129.78 176.01 124.437 174.602 120.895C173.296 117.61 170.225 114.372 166.829 112.7L164.102 111.357L137.079 111.246L110.056 111.135L110.28 110.221C110.403 109.718 111.16 107.127 111.963 104.463C114.176 97.1209 115.077 92.2335 115.349 86.1041C115.845 74.9454 113.753 68.0453 107.542 60.3418C105.051 57.2529 98.9084 52.0792 96.0267 50.6432C93.5514 49.4099 90.7766 49.3102 89.0253 50.3922ZM99.312 63.7555C105.567 70.0182 107.543 75.3486 107.147 84.9023C106.872 91.5571 105.683 97.4601 102.937 105.806C101.715 109.521 100.715 113.03 100.715 113.605C100.715 115.301 102.104 117.405 103.808 118.289C104.921 118.867 106.455 119.161 108.985 119.282L112.579 119.454L112.034 120.533C109.57 125.408 110.57 132.509 114.32 136.769L116.004 138.682L114.739 139.99C114.043 140.71 112.956 142.406 112.324 143.76C111.304 145.943 111.174 146.684 111.177 150.322C111.179 154.964 111.876 157.046 114.498 160.245L115.96 162.029L114.634 163.54C113.904 164.371 112.827 166.074 112.241 167.325C111.314 169.301 111.174 170.139 111.174 173.711C111.174 177.506 111.275 178.027 112.484 180.482C113.204 181.945 114.345 183.67 115.019 184.316L116.244 185.489L114.845 187.596C112.855 190.593 111.928 194.6 112.526 197.624C112.779 198.904 113.108 200.366 113.256 200.874L113.525 201.797H98.3674C81.3943 201.797 79.6967 201.586 73.8495 198.751C70.0519 196.91 69.1019 196.051 66.559 192.158C63.5058 187.483 63.1338 187.34 53.4623 187.108L45.7538 186.924V153.198V119.472L52.2138 119.232C59.3903 118.966 62.0518 118.406 66.2329 116.282C78.6873 109.955 87.262 92.6846 91.6966 64.9966C92.8717 57.661 92.7052 58.0383 94.2847 59.1281C95.0013 59.6228 97.2637 61.7051 99.312 63.7555ZM163.383 120.132C165.262 121.092 166.125 122.023 166.939 123.971C168.652 128.071 166.188 132.947 161.808 134.126C160.741 134.414 154.027 134.523 142.241 134.445C125.012 134.331 124.242 134.293 122.869 133.486C122.082 133.024 120.914 131.899 120.272 130.986C117.913 127.63 119.059 122.505 122.649 120.352L124.299 119.363L143.08 119.359C160.704 119.356 161.954 119.403 163.383 120.132ZM87.5659 126.932C85.9331 127.82 85.4754 129.287 85.7809 132.658C86.6045 141.748 82.4275 149.142 74.2597 153.05C71.0403 154.591 65.4384 156.27 63.5168 156.27C62.9816 156.27 61.8971 156.54 61.1068 156.87C58.3152 158.036 57.8854 162.228 60.3886 163.868C61.7232 164.743 64.9056 164.53 70.0141 163.227C82.2946 160.093 90.3624 152.809 93.1646 142.324C94.0768 138.91 94.2043 130.834 93.3766 128.872C92.4247 126.615 89.775 125.73 87.5659 126.932ZM163.485 143.563C165.454 144.568 167.151 147.007 167.455 149.271C167.915 152.7 165.37 156.498 161.938 157.507C160.881 157.817 154.677 157.92 142.315 157.833L124.238 157.705L122.575 156.604C118.648 154.004 118.072 147.723 121.487 144.734C123.754 142.75 123.547 142.768 143.285 142.751C161.129 142.735 161.925 142.767 163.485 143.563ZM1.42534 150.496C-0.690659 152.612 0.0435207 155.721 2.9462 156.934C4.1176 157.423 4.53104 157.426 5.66102 156.954C7.43618 156.212 8.04936 155.398 8.31268 153.434C8.50422 152.007 8.37215 151.637 7.28196 150.547C5.54084 148.806 3.1361 148.785 1.42534 150.496ZM163.366 166.983C166.031 168.273 167.37 170.522 167.348 173.673C167.329 176.544 166.299 178.483 163.931 180.106L162.504 181.084L143.872 181.203C125.496 181.319 125.213 181.309 123.409 180.435C118.799 178.203 117.757 171.463 121.499 168.08C123.587 166.192 124.094 166.146 143.344 166.129C161.095 166.114 161.616 166.136 163.366 166.983ZM153.617 190.211C158.007 192.417 158.007 198.872 153.617 201.078C152.346 201.717 150.736 201.796 138.949 201.796C128.646 201.797 125.415 201.672 124.388 201.235C119.363 199.094 119.436 191.967 124.504 189.952C125.104 189.713 131.052 189.534 138.859 189.519C150.764 189.496 152.342 189.57 153.617 190.211Z" fill="#DB4213"/>
</svg>
