<svg width="144" height="187" viewBox="0 0 144 187" fill="none" xmlns="http://www.w3.org/2000/svg">
<path d="M110.811 0C113.298 0.838988 115.749 1.71445 117.615 3.68425C120.651 6.93077 121.712 10.7974 120.871 15.0653C117.615 31.4073 114.286 47.7494 111.03 64.1279C110.884 64.8939 110.262 66.2436 110.701 66.3165C111.762 66.4989 111.798 65.1128 112.201 64.3832C114.579 59.8965 116.81 55.3367 119.188 50.85C122.261 45.05 127.968 42.2777 133.638 43.7368C141.686 45.7796 145.381 54.2789 141.43 61.8663C135.833 72.6272 130.346 83.4611 124.456 94.0761C119.298 103.414 116.554 113.336 115.53 123.878C114.725 132.305 113.518 140.695 111.176 148.866C110.189 152.331 108.689 155.541 106.567 158.459C105.945 159.335 105.689 160.21 105.689 161.305C105.762 166.193 105.726 171.117 105.726 176.005C105.689 182.133 101.848 186 95.7387 186C79.6059 186 63.4366 186.036 47.3038 186C41.3043 186 37.4266 182.133 37.3534 176.115C37.2803 171.81 37.2071 167.506 37.39 163.238C37.6095 158.386 35.4877 154.556 32.1953 151.383C22.8669 142.373 13.3921 133.509 3.88068 124.681C1.21018 122.164 -0.0701991 119.319 0.00296541 115.671C0.112712 108.339 0.0395476 101.007 0.0395476 93.7113C0.0395476 88.6774 2.38081 85.4673 7.17309 84.0812C8.12422 83.7894 8.16081 83.4246 7.97789 82.695C7.1365 79.1567 8.16081 76.0196 10.1728 73.1014C12.697 69.4901 15.2578 65.8788 17.7819 62.2675C18.9891 60.5166 20.5256 59.1669 22.5742 58.5468C28.6103 56.7594 34.6098 54.899 40.719 53.3305C45.8039 52.0173 51.1815 54.4248 53.7423 59.0575C55.5714 62.3405 57.1078 65.8058 59.0467 69.1618C59.0467 68.5417 59.0467 67.8851 59.0467 67.265C59.0467 50.3028 59.0467 33.3771 59.0467 16.415C59.0467 9.81251 62.4123 5.17984 68.3386 3.50186C75.4356 1.45911 83.191 6.7119 83.7397 14.0804C83.9958 17.6917 84.069 21.3395 84.069 24.9508C84.1055 37.3532 84.069 49.7192 84.069 62.1216C84.325 62.1216 84.5811 62.1581 84.8372 62.1581C85.5688 58.948 86.2639 55.738 86.9955 52.5279C90.0685 38.6664 93.1414 24.8049 96.2509 10.9798C97.4947 5.36223 100.787 1.60502 106.567 0.3283C106.64 0.3283 106.677 0.145911 106.75 0.0364777C108.14 0 109.457 0 110.811 0ZM43.8285 112.133C44.5236 112.388 44.926 111.987 45.3649 111.841C47.1941 111.257 48.8403 111.877 49.4987 113.373C50.1938 115.014 49.4987 116.729 47.7062 117.568C43.9748 119.319 40.0605 119.756 35.9999 118.808C31.0613 117.641 27.4031 114.467 23.8912 111.111C22.5742 109.871 21.9523 108.047 21.8791 106.187C21.8426 105.056 21.806 103.889 21.7694 102.758C21.5499 95.7541 17.0137 90.6107 10.5752 90.0271C7.39258 89.7352 6.22195 90.7566 6.22195 94.0031C6.22195 101.226 6.25853 108.412 6.18536 115.598C6.14878 117.531 6.77068 118.917 8.16081 120.194C17.4161 128.839 26.5983 137.594 35.8536 146.239C38.3046 148.501 40.2069 151.054 41.4506 154.155C42.6944 157.292 45.1089 159.371 48.2549 160.539C49.828 161.122 51.4376 161.159 53.0838 161.268C54.3642 161.341 55.2787 162.071 55.6811 163.201C56.0835 164.259 55.9372 165.354 55.1324 166.266C54.291 167.214 53.1936 167.433 51.9863 167.36C49.0598 167.214 46.2795 166.557 43.4261 165.171C43.4261 168.746 43.4261 172.029 43.4261 175.349C43.4261 178.741 44.4504 179.799 47.8891 179.799C63.6195 179.799 79.3499 179.799 95.0802 179.799C95.7021 179.799 96.2874 179.799 96.8727 179.689C98.2629 179.398 99.2872 178.522 99.3238 177.136C99.4335 173.196 99.3603 169.22 99.3603 165.062C96.5801 166.448 93.8364 167.214 90.983 167.36C88.7149 167.469 87.1785 166.375 87.0321 164.515C86.8858 162.654 88.1662 161.378 90.5074 161.195C92.8121 161.013 95.0071 160.502 97.0191 159.189C101.226 156.453 103.458 152.331 104.848 147.771C107.628 138.834 108.542 129.532 109.567 120.304C110.628 110.819 113.152 101.846 117.651 93.4195C123.578 82.2938 129.431 71.0951 135.284 59.8965C135.65 59.2034 136.016 58.5103 136.272 57.7807C137.808 53.5493 134.626 49.3544 130.126 49.6827C127.346 49.9016 125.663 51.5066 124.456 53.8776C118.932 64.675 113.371 75.4725 107.811 86.2699C107.262 87.3642 106.64 88.4221 105.47 88.9327C104.116 89.5164 102.836 89.2975 101.702 88.422C100.129 87.1818 100.202 85.5038 100.531 83.7894C104.336 64.8939 108.177 45.9984 111.981 27.103C112.932 22.4338 113.957 17.7647 114.688 13.059C115.2 9.77603 113.079 7.07668 109.933 6.34713C107.043 5.69053 103.75 7.62385 102.726 10.5421C102.58 10.9798 102.47 11.454 102.36 11.9282C98.0434 30.6413 93.9096 49.3909 89.9221 68.1769C88.8247 73.3932 87.6906 78.5731 86.5566 83.7529C86.0444 86.1604 84.8738 87.3642 83.0081 87.5466C80.301 87.8019 78.6914 86.051 78.6548 82.8045C78.3621 63.07 78.1061 43.3356 77.8134 23.6011C77.7768 20.6829 77.7402 17.8011 77.5939 14.8829C77.4476 11.8917 75.1063 9.59365 72.1432 9.26535C68.0825 8.86409 65.2291 11.7094 65.2291 16.2326C65.2291 37.1708 65.2291 58.109 65.2291 79.0837C65.2291 79.7403 65.2657 80.4334 65.1925 81.09C65.0462 82.8774 64.0219 84.0082 62.3391 84.4095C60.6929 84.8107 59.3759 84.1542 58.4248 82.8045C58.0956 82.2938 57.8395 81.7466 57.5834 81.1995C54.7666 75.2536 51.9497 69.3077 49.1329 63.3618C47.377 59.6776 44.7065 58.4373 40.8287 59.5317C35.7072 60.9908 30.6223 62.5229 25.5008 64.0184C24.3667 64.3467 23.4156 64.9304 22.7205 65.9153C20.1964 69.5266 17.599 73.1379 15.1114 76.7492C13.2457 79.4485 13.575 82.5126 15.8797 84.4095C18.1843 86.3428 21.367 86.0875 23.7083 83.7164C25.9032 81.5278 27.9884 79.2661 30.1833 77.0775C35.2682 72.0435 42.6579 74.0498 44.487 80.9076C45.621 85.1755 46.6819 89.4434 47.7428 93.7113C50.0841 103.232 50.0841 103.232 44.4138 111.257C44.2675 111.622 44.048 111.841 43.8285 112.133ZM43.0237 100.715C43.0237 100.715 42.9139 100.241 42.8042 99.7666C41.4506 94.3314 40.0605 88.8963 38.707 83.4611C38.4143 82.3303 38.1948 81.1265 36.9144 80.7617C35.5609 80.3605 34.8293 81.3818 33.9879 82.1844C30.9515 85.0296 28.5737 88.568 24.8423 90.6472C24.1838 91.012 24.4033 91.3767 24.696 91.778C27.4396 95.6446 28.1347 100.058 28.025 104.691C27.9884 105.822 28.1713 106.88 29.1224 107.646C30.9881 109.178 32.8904 110.673 34.9756 111.95C35.7804 112.461 36.3291 112.388 36.8779 111.512C38.6704 108.704 40.5727 105.968 42.4384 103.232C42.8042 102.612 43.1334 101.992 43.0237 100.715Z" fill="#DE5738"/>
<path d="M43.8287 112.133C44.0482 111.841 44.2677 111.586 44.4141 111.367C50.0843 103.378 50.1209 103.378 47.743 93.8209C46.6822 89.553 45.6213 85.2486 44.4872 81.0172C42.6947 74.1593 35.2685 72.1531 30.1836 77.187C27.9886 79.3757 25.8669 81.6373 23.7085 83.826C21.3672 86.197 18.1846 86.4523 15.8799 84.519C13.5752 82.6222 13.246 79.5581 15.1117 76.8587C17.5993 73.2109 20.1966 69.6361 22.7208 66.0248C23.4158 65.0399 24.367 64.4563 25.501 64.128C30.6225 62.6324 35.7075 61.1003 40.829 59.6412C44.7067 58.5104 47.3772 59.7506 49.1332 63.4714C51.95 69.4172 54.7668 75.3631 57.5837 81.309C57.8397 81.8561 58.0958 82.4033 58.425 82.914C59.3762 84.3002 60.6931 84.9568 62.3393 84.519C64.0221 84.1178 65.0464 82.9505 65.1928 81.1996C65.2659 80.543 65.2294 79.8864 65.2294 79.1933C65.2294 58.2551 65.2294 37.3168 65.2294 16.3421C65.2294 11.8189 68.0828 8.97363 72.1434 9.37488C75.1066 9.6667 77.4478 11.9648 77.5941 14.9925C77.7405 17.9107 77.7771 20.7924 77.8136 23.7106C78.1063 43.4451 78.399 63.1795 78.655 82.914C78.6916 86.1605 80.3012 87.9115 83.0083 87.6561C84.874 87.4737 86.0081 86.27 86.5568 83.8624C87.6908 78.6826 88.8249 73.4663 89.9224 68.2864C93.9098 49.5004 98.0436 30.7508 102.36 12.0378C102.47 11.5635 102.58 11.0893 102.726 10.6516C103.75 7.69691 107.079 5.80006 109.933 6.45666C113.079 7.18622 115.201 9.88557 114.689 13.1686C113.957 17.8742 112.933 22.5433 111.981 27.2125C108.177 46.108 104.336 65.0034 100.531 83.8989C100.202 85.6134 100.129 87.3278 101.702 88.5316C102.836 89.407 104.116 89.5894 105.47 89.0423C106.677 88.5316 107.262 87.4737 107.811 86.3794C113.335 75.582 118.932 64.7846 124.456 53.9872C125.663 51.6161 127.383 50.0111 130.126 49.7922C134.626 49.4639 137.809 53.6589 136.272 57.8903C136.016 58.6198 135.65 59.3129 135.284 60.006C129.431 71.1682 123.578 82.3668 117.652 93.529C113.152 101.955 110.591 110.929 109.567 120.413C108.543 129.642 107.628 138.944 104.848 147.881C103.421 152.441 101.226 156.563 97.0193 159.298C95.0073 160.612 92.8124 161.086 90.5077 161.305C88.203 161.487 86.886 162.764 87.0324 164.624C87.1787 166.484 88.7151 167.579 90.9832 167.469C93.8367 167.324 96.5803 166.557 99.3606 165.171C99.3606 169.33 99.4337 173.306 99.324 177.245C99.2874 178.632 98.2631 179.507 96.873 179.799C96.2877 179.908 95.6658 179.908 95.0805 179.908C79.3501 179.908 63.6197 179.908 47.8894 179.908C44.4872 179.908 43.4629 178.887 43.4263 175.458C43.4263 172.139 43.4263 168.856 43.4263 165.281C46.2432 166.667 49.06 167.36 51.9866 167.469C53.1938 167.506 54.2913 167.324 55.1326 166.375C55.9375 165.463 56.0472 164.369 55.6814 163.311C55.2424 162.144 54.3644 161.414 53.084 161.378C51.4378 161.305 49.8282 161.232 48.2552 160.648C45.0725 159.481 42.6947 157.438 41.4509 154.264C40.2071 151.164 38.3048 148.61 35.8538 146.349C26.5985 137.704 17.4164 128.949 8.16105 120.304C6.77092 118.99 6.14902 117.604 6.1856 115.707C6.25877 108.521 6.22219 101.299 6.22219 94.1127C6.22219 90.9026 7.35624 89.8813 10.5755 90.1366C17.0505 90.7202 21.5867 95.8636 21.7696 102.867C21.8062 103.998 21.8062 105.165 21.8794 106.296C21.9526 108.193 22.5745 109.98 23.8914 111.221C27.4033 114.577 31.0615 117.75 36.0001 118.918C40.0608 119.866 43.9385 119.392 47.7065 117.677C49.499 116.838 50.2306 115.124 49.499 113.482C48.8405 111.95 47.1943 111.367 45.3652 111.95C44.8896 111.987 44.5238 112.388 43.8287 112.133ZM80.8866 143.175C80.4476 137.156 79.0209 131.502 75.8748 126.286C72.9482 121.471 68.9973 117.714 63.949 115.16C61.498 113.92 59.0835 115.27 59.0835 117.714C59.0835 119.246 59.9981 120.085 61.2785 120.778C67.1316 123.879 70.8996 128.73 72.9848 134.931C74.1554 138.433 74.4481 142.008 74.7041 145.619C74.8505 147.553 76.0943 148.756 77.8136 148.72C79.4964 148.683 80.7402 147.407 80.8866 145.51C80.9231 144.744 80.8866 143.978 80.8866 143.175ZM65.7781 102.32C63.9124 102.284 62.632 103.196 62.3393 104.655C62.0101 106.369 62.8149 107.755 64.5343 108.266C65.4123 108.521 66.3268 108.631 67.2048 108.85C76.4967 111.148 85.4593 113.92 90.9832 122.711C91.8246 124.061 93.5806 124.243 94.861 123.477C96.2145 122.675 96.7998 121.033 96.1048 119.538C95.5926 118.443 94.9341 117.422 94.2025 116.474C90.6174 111.658 85.6422 108.74 80.1915 106.442C75.4724 104.472 70.6069 103.086 65.7781 102.32Z" fill="#FDFDFD"/>
<path d="M43.0238 100.715C43.1336 101.955 42.8409 102.612 42.4019 103.232C40.5362 106.004 38.6705 108.704 36.8414 111.513C36.2561 112.388 35.7439 112.461 34.9391 111.95C32.8539 110.71 30.9517 109.178 29.086 107.646C28.1714 106.88 27.9885 105.822 27.9885 104.691C28.0983 100.059 27.4032 95.6447 24.6595 91.7781C24.3669 91.3404 24.1474 91.0121 24.8059 90.6473C28.5372 88.5681 30.9151 84.9932 33.9514 82.1845C34.7928 81.4184 35.5244 80.3606 36.878 80.7618C38.195 81.1266 38.4144 82.3304 38.6705 83.4612C40.0241 88.8964 41.3776 94.3315 42.7677 99.7667C42.9141 100.241 43.0238 100.715 43.0238 100.715Z" fill="#FCFCFC"/>
<path d="M80.8865 143.175C80.8865 143.978 80.9231 144.744 80.8865 145.546C80.7768 147.443 79.4964 148.72 77.8136 148.756C76.0942 148.793 74.8139 147.625 74.7041 145.656C74.448 142.044 74.192 138.433 72.9847 134.968C70.863 128.73 67.1316 123.915 61.2784 120.814C59.9981 120.158 59.0835 119.319 59.0835 117.75C59.0835 115.306 61.5345 113.956 63.9489 115.197C68.9973 117.75 72.9482 121.507 75.8747 126.322C79.0208 131.502 80.4475 137.193 80.8865 143.175Z" fill="#DE5738"/>
<path d="M65.7778 102.32C70.6066 103.086 75.4721 104.436 80.1912 106.442C85.6053 108.74 90.5805 111.658 94.2022 116.473C94.9338 117.422 95.5923 118.48 96.1045 119.538C96.7995 121.033 96.2142 122.675 94.8606 123.477C93.5803 124.243 91.7877 124.061 90.9829 122.711C85.4956 113.92 76.4964 111.148 67.2045 108.85C66.3265 108.631 65.4119 108.521 64.534 108.266C62.778 107.719 61.9732 106.333 62.339 104.655C62.6317 103.232 63.9121 102.284 65.7778 102.32Z" fill="#DE5738"/>
</svg>
