<svg width="45" height="45" viewBox="0 0 45 45" fill="none" xmlns="http://www.w3.org/2000/svg">
<g clip-path="url(#clip0_1239_13679)">
<path d="M22.1998 9.2999C21.9998 9.2999 21.7998 9.0999 21.7998 8.8999V5.2999C21.7998 5.0999 21.9998 4.8999 22.1998 4.8999C22.3998 4.8999 22.5998 5.0999 22.5998 5.2999V8.7999C22.6998 9.0999 22.4998 9.2999 22.1998 9.2999Z" fill="#018992"/>
<path d="M22.1998 40.0998C21.9998 40.0998 21.7998 39.8998 21.7998 39.6998V36.1998C21.7998 35.9998 21.9998 35.7998 22.1998 35.7998C22.3998 35.7998 22.5998 35.9998 22.5998 36.1998V39.6998C22.6998 39.8998 22.4998 40.0998 22.1998 40.0998Z" fill="#018992"/>
<path d="M13.88 7.50469L13.3604 7.80469L15.1104 10.8357L15.63 10.5357L13.88 7.50469Z" fill="#018992"/>
<path d="M29.3741 34.1546L28.8545 34.4546L30.6045 37.4856L31.1241 37.1856L29.3741 34.1546Z" fill="#018992"/>
<path d="M7.48219 13.6406L7.18213 14.1602L10.2131 15.9105L10.5132 15.3909L7.48219 13.6406Z" fill="#018992"/>
<path d="M34.1677 29.0322L33.8677 29.5518L36.8987 31.3018L37.1987 30.7822L34.1677 29.0322Z" fill="#018992"/>
<path d="M8.6002 22.9001H5.1002C4.9002 22.9001 4.7002 22.7001 4.7002 22.5001C4.7002 22.3001 4.9002 22.1001 5.1002 22.1001H8.6002C8.8002 22.1001 9.0002 22.3001 9.0002 22.5001C9.0002 22.7001 8.8002 22.9001 8.6002 22.9001Z" fill="#018992"/>
<path d="M39.4 22.9001H35.9C35.7 22.9001 35.5 22.7001 35.5 22.5001C35.5 22.3001 35.7 22.1001 35.9 22.1001H39.4C39.6 22.1001 39.8 22.3001 39.8 22.5001C39.8 22.8001 39.7 22.9001 39.4 22.9001Z" fill="#018992"/>
<path d="M10.2133 29.0919L7.18164 30.8408L7.48146 31.3605L10.5132 29.6116L10.2133 29.0919Z" fill="#018992"/>
<path d="M36.9149 13.6829L33.8843 15.4336L34.1844 15.9531L37.215 14.2024L36.9149 13.6829Z" fill="#018992"/>
<path d="M15.1967 34.2016L13.4453 37.2319L13.9648 37.5322L15.7162 34.5019L15.1967 34.2016Z" fill="#018992"/>
<path d="M30.5877 7.51357L28.8384 10.5449L29.358 10.8448L31.1073 7.81345L30.5877 7.51357Z" fill="#018992"/>
<path d="M22.4 23.7C22.3 23.7 22.3 23.7 22.4 23.7C22.2 23.7 22 23.6 22 23.4L22.1 11.8C22.1 11.6 22.2 11.5 22.4 11.5C22.6 11.5 22.7 11.6 22.7 11.8L22.6 23.4C22.6 23.5 22.5 23.6 22.4 23.7Z" fill="#018992"/>
<path d="M30.1 22.8998C30 22.8998 29.9 22.9998 29.8 22.9998L23.1 23.0998C22.8 23.0998 22.5 22.8998 22.5 22.4998C22.5 22.1998 22.7 21.8998 23.1 21.8998L29.8 21.7998C30.1 21.7998 30.4 21.9998 30.4 22.3998C30.3 22.5998 30.2 22.7998 30.1 22.8998Z" fill="#018992"/>
<path d="M24.0001 22.2C24.0001 23.2 23.2001 23.9 22.3001 23.9C21.3001 23.9 20.6001 23.1 20.6001 22.2C20.6001 21.2 21.4001 20.5 22.3001 20.5C23.2001 20.5 24.0001 21.3 24.0001 22.2Z" fill="#018992"/>
<path d="M22.2 0C10 0 0 10 0 22.2C0 34.4 10 44.4 22.2 44.4C34.5 44.4 44.4 34.4 44.4 22.2C44.4 10 34.5 0 22.2 0ZM22.2 40.8C12 40.8 3.7 32.5 3.7 22.2C3.7 11.9 12 3.7 22.2 3.7C32.4 3.7 40.7 12 40.7 22.2C40.7 32.4 32.5 40.8 22.2 40.8Z" fill="#018992"/>
</g>
<defs>
<clipPath id="clip0_1239_13679">
<rect width="44.5" height="44.5" fill="white"/>
</clipPath>
</defs>
</svg>
