<svg xmlns="http://www.w3.org/2000/svg" viewBox="0 0 28.8 29.46"><title>Tuerca</title><g id="Capa_2" data-name="Capa 2"><g id="Capa_1-2" data-name="Capa 1"><polygon points="18.8 6.49 10.01 6.49 11.11 0 17.7 0 18.8 6.49" fill="#fff"/><polygon points="10.01 22.97 18.8 22.97 17.7 29.46 11.11 29.46 10.01 22.97" fill="#fff"/><path d="M14.4,3.64A11.09,11.09,0,1,0,25.49,14.73,11.09,11.09,0,0,0,14.4,3.64Zm0,17.08a6,6,0,1,1,6-6A6,6,0,0,1,14.4,20.72Z" fill="#fff"/><polygon points="18.8 6.49 10.01 6.49 11.11 0 17.7 0 18.8 6.49" fill="#fff"/><polygon points="10.01 22.97 18.8 22.97 17.7 29.46 11.11 29.46 10.01 22.97" fill="#fff"/><polygon points="9.46 6.8 5.07 14.41 0 10.22 3.29 4.51 9.46 6.8" fill="#fff"/><polygon points="19.34 22.65 23.73 15.04 28.8 19.24 25.51 24.95 19.34 22.65" fill="#fff"/><polygon points="5.07 15.04 9.46 22.65 3.29 24.95 0 19.24 5.07 15.04" fill="#fff"/><polygon points="23.73 14.41 19.34 6.8 25.51 4.51 28.8 10.22 23.73 14.41" fill="#fff"/></g></g></svg>