<svg viewBox="0 0 10 10" xmlns="http://www.w3.org/2000/svg">
<path d="M8.50223 1.53718C7.56696 0.663741 6.32143 0.18335 4.99777 0.18335C2.26562 0.18335 0.0424107 2.25465 0.0424107 4.8001C0.0424107 5.61323 0.270089 6.40764 0.703125 7.10847L0 9.50003L2.62723 8.85743C3.35045 9.22552 4.16518 9.41893 4.99554 9.41893H4.99777C7.72768 9.41893 10 7.34763 10 4.80218C10 3.56897 9.4375 2.41062 8.50223 1.53718ZM4.99777 8.64115C4.2567 8.64115 3.53125 8.45606 2.89955 8.10669L2.75 8.0235L1.19196 8.40407L1.60714 6.98785L1.50893 6.84228C1.09598 6.23087 0.879464 5.52588 0.879464 4.8001C0.879464 2.68513 2.72768 0.963206 5 0.963206C6.10045 0.963206 7.13393 1.36249 7.91071 2.08828C8.6875 2.81406 9.16518 3.77693 9.16295 4.80218C9.16295 6.91923 7.26786 8.64115 4.99777 8.64115ZM7.2567 5.76712C7.13393 5.70889 6.52455 5.43022 6.41071 5.39279C6.29688 5.35328 6.21429 5.33456 6.1317 5.45102C6.04911 5.56748 5.8125 5.82535 5.73884 5.90437C5.66741 5.98132 5.59375 5.99172 5.47098 5.93349C4.7433 5.59451 4.26562 5.32832 3.78571 4.56094C3.65848 4.35714 3.91295 4.3717 4.14955 3.93082C4.18973 3.85387 4.16964 3.78732 4.13839 3.7291C4.10714 3.67087 3.85938 3.10313 3.7567 2.87229C3.65625 2.6477 3.55357 2.67889 3.47768 2.67473C3.40625 2.67057 3.32366 2.67057 3.24107 2.67057C3.15848 2.67057 3.02455 2.69969 2.91071 2.81406C2.79688 2.93052 2.47768 3.20919 2.47768 3.77693C2.47768 4.34466 2.92188 4.89368 2.98214 4.97063C3.04464 5.04757 3.85491 6.21216 5.09821 6.71334C5.88393 7.02945 6.19196 7.05648 6.58482 7.00241C6.82366 6.96914 7.31696 6.72374 7.41964 6.45339C7.52232 6.18304 7.52232 5.95221 7.49107 5.90437C7.46205 5.85238 7.37946 5.82327 7.2567 5.76712Z" fill="#018992"/>
</svg>
