<svg width="15" height="16" viewBox="0 0 15 16" fill="none" xmlns="http://www.w3.org/2000/svg">
<g clip-path="url(#clip0_1328_4457)">
<path fill-rule="evenodd" clip-rule="evenodd" d="M7.52747 0C11.7033 0 15.0549 3.35165 15.0549 7.52747C15.0549 11.7033 11.7033 15.0549 7.52747 15.0549C3.35165 15.0549 0 11.6484 0 7.52747C0 3.35165 3.35165 0 7.52747 0ZM7.52747 2.14286C6.75824 2.14286 6.0989 2.74725 6.0989 3.57143V7.8022C6.0989 8.57143 6.75824 9.23077 7.52747 9.23077C8.2967 9.23077 8.95604 8.62637 8.95604 7.8022V3.51648C8.9011 2.74725 8.2967 2.14286 7.52747 2.14286ZM7.52747 10.1099C6.75824 10.1099 6.0989 10.7143 6.0989 11.4835C6.0989 12.2527 6.75824 12.9121 7.52747 12.9121C8.2967 12.9121 8.95604 12.3077 8.95604 11.4835C8.9011 10.7143 8.2967 10.1099 7.52747 10.1099Z" fill="#FA790E"/>
</g>
<defs>
<clipPath id="clip0_1328_4457">
<rect width="15" height="15.0549" fill="white"/>
</clipPath>
</defs>
</svg>
