<svg width="15" height="12" viewBox="0 0 15 12" xmlns="http://www.w3.org/2000/svg">
	<path fill-rule="evenodd" clip-rule="evenodd"
		d="M7.18728 2.57382C9.2145 2.57391 11.1642 3.4116 12.6334 4.91376C12.744 5.02973 12.9209 5.02826 13.0298 4.91048L14.0874 3.76264C14.1426 3.7029 14.1733 3.62198 14.1729 3.53778C14.1724 3.45358 14.1408 3.37305 14.085 3.314C10.2288 -0.660332 4.14519 -0.660332 0.289003 3.314C0.233143 3.373 0.201449 3.45351 0.200934 3.53771C0.200419 3.62191 0.231125 3.70286 0.286258 3.76264L1.34413 4.91048C1.45302 5.02844 1.63 5.02991 1.74057 4.91376C3.20996 3.41151 5.15987 2.57381 7.18728 2.57382ZM7.18582 6.29937C8.3009 6.29929 9.37619 6.7559 10.2027 7.58046C10.3145 7.69748 10.4906 7.69494 10.5996 7.57474L11.6572 6.39758C11.7129 6.33583 11.7438 6.25207 11.743 6.16503C11.7422 6.07799 11.7097 5.99494 11.6529 5.93445C9.13586 3.35507 5.23792 3.35507 2.72089 5.93445C2.66403 5.99494 2.63159 6.07803 2.63085 6.1651C2.6301 6.25217 2.66111 6.33592 2.71692 6.39758L3.77415 7.57474C3.88313 7.69494 4.05924 7.69748 4.17104 7.58046C4.99705 6.75644 6.07148 6.29988 7.18582 6.29937ZM9.31301 9.02296C9.31463 9.10841 9.28337 9.1908 9.22661 9.25067L7.39073 11.2418C7.33691 11.3003 7.26354 11.3333 7.18698 11.3333C7.11042 11.3333 7.03705 11.3003 6.98323 11.2418L5.14705 9.25067C5.09032 9.19076 5.05912 9.10834 5.0608 9.02289C5.06248 8.93744 5.0969 8.85651 5.15593 8.79923C6.32839 7.73348 8.04557 7.73348 9.21803 8.79923C9.27702 8.85656 9.31139 8.93751 9.31301 9.02296Z" />
</svg>
