<svg width="52" height="38" viewBox="0 0 52 38" fill="none" xmlns="http://www.w3.org/2000/svg">
<path d="M12.9224 0.108597C12.6669 0.209431 12.5938 0.421177 12.7155 0.708549C12.7804 0.869881 12.9589 0.970711 13.3239 1.0665C13.4578 1.10179 13.7944 1.21775 14.0743 1.33371C14.5407 1.52024 14.6137 1.53537 15.0072 1.53537C15.2424 1.53033 15.5507 1.50512 15.6926 1.47487C15.8386 1.44462 15.9644 1.4295 15.9725 1.44462C15.9887 1.46479 16.2604 2.5941 16.9946 5.67956C17.1284 6.23414 17.4164 7.4542 17.6395 8.39698C17.8666 9.33472 18.037 10.1212 18.0248 10.1464C18.0167 10.1666 17.9396 10.2019 17.8626 10.222C17.7814 10.2422 17.7084 10.2825 17.7003 10.3128C17.6922 10.343 17.7165 10.4943 17.7571 10.6455C17.8261 10.8926 17.8463 10.9228 17.9315 10.9027C18.183 10.8522 18.1749 10.8371 18.3047 11.4119L18.4223 11.9513L17.3758 13.3478C16.7958 14.1192 16.2442 14.8603 16.1469 14.9914C15.9968 15.2031 15.9522 15.2334 15.863 15.2082C15.8062 15.188 15.7332 15.1275 15.7007 15.067C15.5872 14.8603 15.4411 14.7292 15.2789 14.6738C15.1856 14.6435 15.0761 14.5578 15.0153 14.4671C14.9017 14.3057 14.703 14.1747 14.5569 14.1747C14.5123 14.1747 14.4353 14.1192 14.3906 14.0486C14.2892 13.8873 14.1351 13.7864 13.9526 13.7663C13.8715 13.7562 13.7336 13.6755 13.6362 13.5848C13.478 13.4386 13.2996 13.3781 13.1292 13.4134C13.113 13.4184 13.0319 13.3579 12.9548 13.2823C12.8494 13.1865 12.752 13.1411 12.5817 13.126C12.4519 13.1159 12.2572 13.0504 12.1396 12.9798C11.9773 12.884 11.8922 12.8638 11.7745 12.889C11.661 12.9092 11.5677 12.889 11.4217 12.8134C11.2635 12.7227 11.1905 12.7126 11.0364 12.7428C10.935 12.763 10.8336 12.7731 10.8092 12.763C10.4888 12.637 10.3712 12.6168 10.2292 12.6773C10.1075 12.7277 10.0507 12.7277 9.90879 12.6622C9.76277 12.6017 9.7141 12.6017 9.56403 12.6571C9.46669 12.6924 9.34906 12.7227 9.30039 12.7176C9.24766 12.7176 9.10976 12.7075 8.99619 12.7025C8.87046 12.6975 8.73661 12.7227 8.67983 12.763C8.61899 12.8084 8.49325 12.8285 8.35129 12.8185C8.18094 12.8084 8.07954 12.8336 7.95786 12.9092C7.84835 12.9798 7.7145 13.0151 7.57255 13.0151C7.41031 13.0151 7.31702 13.0453 7.21156 13.1361C7.11828 13.2117 6.99254 13.2621 6.84247 13.2772C6.68023 13.2924 6.57883 13.3377 6.47338 13.4335C6.39631 13.5092 6.28274 13.5697 6.21785 13.5697C6.06372 13.5747 5.77575 13.7411 5.71085 13.8671C5.6784 13.9327 5.61756 13.973 5.54456 13.973C5.38232 13.973 5.15924 14.1142 5.0619 14.2755C5.00511 14.3713 4.92805 14.4267 4.81448 14.4469C4.68875 14.4721 4.60357 14.5376 4.47378 14.704C4.38049 14.8301 4.2872 14.9309 4.27098 14.9309C4.16958 14.9309 3.88161 15.1678 3.8086 15.3141C3.75993 15.4149 3.65853 15.5208 3.57741 15.5661C3.39083 15.6619 3.2651 15.8031 3.20426 15.9896C3.17587 16.0703 3.10286 16.161 3.03391 16.1963C2.88789 16.272 2.73782 16.4585 2.67293 16.6501C2.64859 16.7257 2.5553 16.8467 2.46607 16.9223C2.35656 17.0131 2.27544 17.1391 2.20243 17.3307C2.14971 17.4819 2.08887 17.6029 2.06859 17.6029C1.98747 17.6029 1.78467 17.9256 1.74411 18.1172C1.71572 18.2382 1.64676 18.3743 1.57376 18.4499C1.44397 18.5911 1.33851 18.8381 1.33851 19.0196C1.33851 19.0751 1.29389 19.1709 1.23711 19.2263C1.10326 19.3574 1.01809 19.5641 1.00592 19.796C1.00186 19.9221 0.957248 20.0431 0.884241 20.1439C0.782841 20.2851 0.67333 20.7035 0.713889 20.7892C0.726057 20.8094 0.685498 20.9102 0.624658 21.0111C0.543538 21.1421 0.507035 21.2631 0.494867 21.4749C0.486755 21.6362 0.434027 21.8782 0.377243 22.0295C0.296124 22.2311 0.2799 22.337 0.30018 22.4882C0.316404 22.6294 0.30018 22.7504 0.23934 22.9218C0.170389 23.1134 0.162277 23.2092 0.186613 23.3957C0.202836 23.5218 0.210948 23.6478 0.202836 23.6781C0.101437 24.0814 0.0852131 24.2276 0.133885 24.399C0.174445 24.5452 0.174445 24.6208 0.133885 24.762C0.0689892 24.999 0.0689892 25.1351 0.137941 25.3418C0.186613 25.483 0.190669 25.5687 0.154165 25.7905C0.113605 26.0274 0.117661 26.0829 0.190669 26.2644C0.251508 26.4207 0.267732 26.5366 0.251508 26.7434C0.23934 26.9501 0.255564 27.061 0.324516 27.2273C0.373187 27.3483 0.409691 27.5147 0.405635 27.6004C0.393467 27.8979 0.405635 27.9735 0.502979 28.15C0.563818 28.2659 0.604378 28.4222 0.616546 28.6087C0.628714 28.8104 0.665218 28.9364 0.742281 29.0675C0.803121 29.1633 0.851793 29.3045 0.851793 29.3851C0.855849 29.5767 0.989696 29.9347 1.0911 30.0153C1.14382 30.0557 1.17627 30.1313 1.17627 30.2221C1.17627 30.4187 1.28578 30.6859 1.41963 30.827C1.48858 30.9027 1.54131 31.0186 1.55753 31.1447C1.58187 31.2858 1.64271 31.4018 1.76844 31.553C1.86579 31.674 1.94691 31.7849 1.94691 31.8051C1.94691 31.9312 2.13754 32.2891 2.25516 32.3799C2.33628 32.4404 2.42146 32.5664 2.45796 32.6672C2.53502 32.8991 2.64859 33.0554 2.79866 33.1311C2.86356 33.1663 2.93656 33.2571 2.96496 33.3428C3.0258 33.5243 3.17587 33.7108 3.32999 33.7915C3.39083 33.8218 3.48818 33.9377 3.54902 34.0486C3.62202 34.1847 3.72342 34.2856 3.87755 34.3763C3.99923 34.4419 4.09657 34.5175 4.09657 34.5377C4.09657 34.6334 4.36427 34.9007 4.51028 34.9511C4.60763 34.9813 4.71714 35.067 4.77798 35.1578C4.89154 35.3191 5.09029 35.4502 5.2363 35.4502C5.28092 35.4502 5.35798 35.5056 5.4026 35.5762C5.50805 35.7426 5.67435 35.8485 5.86092 35.8636C5.96232 35.8686 6.05967 35.9241 6.14079 36.0148C6.25435 36.1409 6.591 36.277 6.65995 36.2266C6.67617 36.2115 6.75729 36.2619 6.83841 36.3375C6.94387 36.4383 7.04121 36.4837 7.21156 36.4988C7.34135 36.5089 7.53604 36.5745 7.65772 36.645C7.81996 36.7408 7.90514 36.766 8.02276 36.7408C8.12821 36.7207 8.23367 36.7459 8.38374 36.8215C8.57032 36.9173 8.62304 36.9223 8.78934 36.877C8.89885 36.8417 9.00025 36.8366 9.02459 36.8618C9.12193 36.9627 9.42207 37.008 9.56809 36.9475C9.68165 36.8971 9.74655 36.8971 9.85606 36.9475C10.0507 37.0282 10.2049 37.0282 10.3387 36.9375C10.4361 36.877 10.4969 36.877 10.6713 36.9223C10.8579 36.9677 10.9147 36.9627 11.0526 36.887C11.1661 36.8215 11.2878 36.7963 11.4663 36.8064C11.6691 36.8165 11.7461 36.8013 11.8638 36.7106C11.9733 36.6249 12.0503 36.6047 12.168 36.6249C12.3221 36.6501 12.6141 36.5291 12.6709 36.4131C12.6871 36.3829 12.7804 36.3577 12.8818 36.3577C13.0846 36.3577 13.2955 36.2669 13.3807 36.1409C13.4091 36.0905 13.4943 36.0552 13.5673 36.0552C13.7417 36.0552 13.9485 35.9443 14.0702 35.7829C14.127 35.7124 14.2122 35.6519 14.2649 35.6519C14.419 35.6519 14.6178 35.5258 14.7313 35.3544C14.7922 35.2687 14.8733 35.1981 14.9098 35.1981C15.0396 35.1981 15.3113 35.0015 15.3925 34.8452C15.4371 34.7645 15.4979 34.6939 15.5263 34.6939C15.6439 34.6939 15.9035 34.4772 15.9928 34.3158C16.0414 34.22 16.1469 34.1091 16.228 34.0688C16.3781 33.9932 16.6295 33.6655 16.6295 33.5495C16.6295 33.5142 16.6539 33.484 16.6823 33.484C16.7999 33.484 17.0635 33.1865 17.1284 32.9848C17.1649 32.8689 17.2136 32.7781 17.2379 32.7781C17.3231 32.7781 17.5624 32.4555 17.607 32.279C17.6354 32.1631 17.7003 32.0471 17.7896 31.9765C17.9153 31.8707 18.0897 31.5177 18.0897 31.3715C18.0897 31.3362 18.1465 31.2505 18.2114 31.18C18.3614 31.0287 18.4547 30.8119 18.4547 30.6355C18.4547 30.5649 18.4791 30.5094 18.5075 30.5094C18.8563 30.4993 22.9244 29.9901 23.1191 29.9296C23.6626 29.7582 24.2832 29.2994 24.6523 28.7953C24.8672 28.5029 25.0944 28.0138 25.1755 27.6861C25.212 27.5349 25.2566 27.3937 25.2688 27.3685C25.285 27.3483 25.4594 27.2929 25.6581 27.2475C25.9258 27.187 26.2949 27.1618 27.0737 27.1568C28.2377 27.1467 28.331 27.1265 28.4527 26.8291C28.5298 26.6425 28.5298 26.5619 28.4527 26.3753C28.331 26.0829 28.181 26.0375 27.2156 26.0073C26.2138 25.9669 25.3215 25.8258 25.2404 25.6846C25.212 25.6392 25.1836 25.5687 25.1836 25.5334C25.1795 25.4981 25.1755 25.4527 25.1714 25.4275C25.1633 25.372 25.0254 24.999 24.9808 24.9133C24.9605 24.8729 24.924 24.7822 24.8956 24.7116C24.8672 24.641 24.8226 24.5452 24.7902 24.4998C24.7415 24.4242 24.7415 24.399 24.8064 24.2931C24.851 24.2326 26.8749 21.1371 29.3126 17.4214L33.7417 10.6707L34.2933 10.1464C34.5975 9.85905 34.8612 9.6473 34.8814 9.66747C34.8977 9.69267 34.9747 9.94979 35.0477 10.2422C35.1207 10.5346 35.2019 10.7968 35.2343 10.827C35.2627 10.8573 35.433 10.9228 35.6115 10.9682C36.2321 11.1396 36.1753 11.0842 36.443 11.7043C36.5768 12.0118 36.7026 12.2538 36.7269 12.2387C36.7553 12.2286 36.9013 12.6319 37.0838 13.2016C37.384 14.1595 37.3921 14.1898 37.3231 14.3057C37.2866 14.3713 37.2177 14.4267 37.1771 14.4267C37.0392 14.4267 36.7715 14.6234 36.6863 14.7796C36.6417 14.8603 36.5809 14.9309 36.5525 14.9309C36.4308 14.9309 36.1712 15.1477 36.0739 15.3292C36.0171 15.4401 35.9279 15.5409 35.8751 15.556C35.7372 15.6014 35.5507 15.8132 35.4898 15.9896C35.4614 16.0703 35.4168 16.1409 35.3925 16.1409C35.283 16.1409 35.0477 16.403 34.9626 16.6198C34.9139 16.7459 34.8571 16.8467 34.8368 16.8467C34.7557 16.8467 34.5123 17.1744 34.4718 17.3458C34.4434 17.4618 34.3785 17.5777 34.2893 17.6483C34.1635 17.7542 33.9891 18.1071 33.9891 18.2533C33.9891 18.2886 33.9323 18.3743 33.8674 18.4449C33.7255 18.5911 33.6241 18.8079 33.6241 18.9692C33.6241 19.0297 33.5632 19.1658 33.4862 19.2717C33.3564 19.4482 33.259 19.7305 33.259 19.9271C33.259 19.9725 33.2307 20.0431 33.1901 20.0784C33.0928 20.1792 32.967 20.5624 32.9792 20.7186C32.9873 20.8044 32.9467 20.9405 32.8778 21.0665C32.7845 21.2379 32.7642 21.3337 32.7683 21.5404C32.7683 21.732 32.748 21.8379 32.679 21.9589C32.6101 22.0799 32.5898 22.1908 32.5858 22.4429C32.5858 22.6546 32.5574 22.8311 32.5127 22.942C32.456 23.0781 32.4438 23.1789 32.4641 23.3907C32.4844 23.5924 32.4722 23.7285 32.4235 23.8898C32.3667 24.0763 32.3627 24.152 32.3992 24.3637C32.4357 24.5553 32.4357 24.6662 32.3992 24.8376C32.3586 25.0141 32.3627 25.1099 32.3992 25.2762C32.46 25.5334 32.46 25.5283 32.4276 25.851C32.4032 26.0527 32.4154 26.1434 32.4762 26.3047C32.5371 26.4509 32.5492 26.5467 32.5249 26.6778C32.4884 26.8744 32.5127 27.0358 32.602 27.2576C32.6385 27.3383 32.6669 27.5349 32.6709 27.6912C32.675 27.913 32.6953 28.0138 32.7764 28.1449C32.8494 28.2659 32.8818 28.3869 32.8899 28.5583C32.894 28.8104 32.967 29.0322 33.0725 29.1432C33.109 29.1835 33.1374 29.2894 33.1374 29.3851C33.1374 29.607 33.2225 29.849 33.3564 30.0002C33.4213 30.0809 33.4618 30.1767 33.4618 30.2674C33.4618 30.454 33.543 30.6455 33.7011 30.8321C33.7701 30.9178 33.8269 31.0237 33.8269 31.0791C33.8269 31.2505 33.9526 31.5077 34.0905 31.6236C34.1716 31.6942 34.2365 31.8001 34.2487 31.8858C34.2812 32.0824 34.4191 32.3093 34.557 32.4C34.6259 32.4454 34.6908 32.5412 34.7192 32.6471C34.7638 32.8235 34.9747 33.0958 35.1126 33.1512C35.1532 33.1714 35.2221 33.2823 35.2668 33.3983C35.3276 33.5545 35.4006 33.6453 35.5426 33.7411C35.6521 33.8117 35.7738 33.9377 35.8143 34.0234C35.9076 34.22 36.0698 34.3763 36.2199 34.4167C36.2889 34.4368 36.3416 34.4721 36.3416 34.4923C36.3416 34.5982 36.6377 34.8956 36.7918 34.946C36.8932 34.9813 37.0027 35.067 37.0635 35.1578C37.1771 35.3191 37.3759 35.4502 37.5219 35.4502C37.5665 35.4502 37.6436 35.5056 37.6882 35.5762C37.7896 35.7376 37.9437 35.8384 38.1262 35.8586C38.2033 35.8686 38.3331 35.9392 38.4101 36.0148C38.548 36.1459 38.8766 36.277 38.9455 36.2266C38.9617 36.2115 39.0429 36.2619 39.124 36.3375C39.2294 36.4383 39.3268 36.4837 39.4971 36.4988C39.6269 36.5089 39.8216 36.5745 39.9433 36.645C40.1055 36.7408 40.1907 36.766 40.3083 36.7408C40.4138 36.7207 40.5192 36.7459 40.6693 36.8215C40.8518 36.9123 40.9086 36.9223 41.0627 36.877C41.1844 36.8417 41.2655 36.8417 41.3142 36.877C41.4562 36.9778 41.7117 37.008 41.8577 36.9425C41.9713 36.8921 42.0281 36.8921 42.1214 36.9425C42.2836 37.0282 42.4377 37.0282 42.6081 36.9425C42.7216 36.882 42.7906 36.877 42.9609 36.9223C43.1435 36.9677 43.2002 36.9627 43.3381 36.887C43.4436 36.8265 43.5774 36.8013 43.7275 36.8064C43.8979 36.8165 44.0033 36.7913 44.1291 36.7106C44.2223 36.6501 44.3562 36.6047 44.4251 36.6098C44.6645 36.6249 44.7253 36.6098 44.8672 36.4888C44.9605 36.4131 45.0863 36.3627 45.2363 36.3476C45.3986 36.3325 45.5 36.2871 45.6054 36.1913C45.6825 36.1157 45.7961 36.0552 45.861 36.0552C46.0151 36.0501 46.3031 35.8838 46.368 35.7577C46.4004 35.6922 46.4612 35.6519 46.5343 35.6519C46.6965 35.6519 46.9196 35.5107 47.0169 35.3494C47.0737 35.2536 47.1508 35.1981 47.2643 35.1779C47.3901 35.1527 47.4752 35.0872 47.605 34.9208C47.6983 34.7948 47.7916 34.6939 47.8078 34.6939C47.9092 34.6939 48.1972 34.457 48.2702 34.3108C48.3189 34.21 48.4203 34.1041 48.5014 34.0587C48.688 33.9629 48.8137 33.8218 48.8746 33.6352C48.9029 33.5545 48.976 33.4638 49.0449 33.4285C49.1909 33.3529 49.341 33.1663 49.4059 32.9748C49.4302 32.8991 49.5235 32.7781 49.6127 32.7025C49.7223 32.6118 49.8034 32.4857 49.8764 32.2941C49.9291 32.1429 49.9899 32.0219 50.0102 32.0219C50.0913 32.0219 50.2941 31.6992 50.3347 31.5077C50.3631 31.3867 50.432 31.2505 50.5051 31.1749C50.6348 31.0337 50.7403 30.7867 50.7403 30.6052C50.7403 30.5498 50.7849 30.454 50.8417 30.3985C50.9715 30.2725 51.0526 30.0809 51.0688 29.854C51.077 29.7582 51.1337 29.5969 51.1946 29.5011C51.3 29.3297 51.4055 28.9213 51.3649 28.8356C51.3528 28.8154 51.3933 28.7146 51.4542 28.6138C51.5353 28.4827 51.5718 28.3617 51.5839 28.15C51.5921 27.9886 51.6448 27.7466 51.7016 27.5954C51.7786 27.3937 51.7989 27.2878 51.7786 27.1416C51.7624 27.0106 51.7827 26.8795 51.8435 26.6929C51.9165 26.4661 51.9246 26.3955 51.8881 26.2039C51.8598 26.0527 51.8598 25.9518 51.8881 25.8913C51.9652 25.7199 51.9936 25.3972 51.9409 25.2157C51.9044 25.0796 51.9044 24.999 51.9449 24.8628C52.0098 24.6259 52.0098 24.4898 51.9409 24.2831C51.8922 24.1419 51.8881 24.0562 51.9246 23.8344C51.9652 23.5974 51.9612 23.5419 51.8881 23.3604C51.8273 23.2042 51.8111 23.0882 51.8273 22.8815C51.8395 22.6748 51.8232 22.5639 51.7543 22.3975C51.7056 22.2765 51.6691 22.1101 51.6732 22.0244C51.6853 21.727 51.6732 21.6513 51.5758 21.4749C51.515 21.3589 51.4744 21.2026 51.4623 21.0161C51.4501 20.8144 51.4136 20.6884 51.3365 20.5573C51.2757 20.4615 51.227 20.3204 51.227 20.2397C51.223 20.0481 51.0891 19.6902 50.9877 19.6095C50.935 19.5692 50.9025 19.4935 50.9025 19.4028C50.9025 19.2062 50.793 18.939 50.6592 18.7978C50.5902 18.7222 50.5375 18.6062 50.5213 18.4802C50.4969 18.339 50.4361 18.2231 50.3104 18.0718C50.213 17.9508 50.1319 17.8399 50.1319 17.8197C50.1319 17.6937 49.9413 17.3357 49.8237 17.245C49.7425 17.1845 49.6574 17.0584 49.6209 16.9576C49.5438 16.7257 49.4302 16.5694 49.2802 16.4938C49.2153 16.4635 49.1422 16.3677 49.1179 16.2871C49.0611 16.1257 48.8421 15.8636 48.7204 15.8182C48.6758 15.798 48.5906 15.6922 48.5298 15.5813C48.4568 15.4401 48.3554 15.3393 48.2013 15.2485C48.0796 15.183 47.9822 15.1073 47.9822 15.0872C47.9822 14.9914 47.7267 14.7393 47.5726 14.6839C47.4793 14.6486 47.3576 14.5528 47.3008 14.4671C47.1873 14.3057 46.9885 14.1747 46.8425 14.1747C46.7979 14.1747 46.7208 14.1192 46.6762 14.0486C46.5708 13.8822 46.4045 13.7764 46.2138 13.7612C46.1205 13.7562 46.0232 13.7058 45.9583 13.6302C45.8285 13.4789 45.719 13.4235 45.5203 13.4083C45.431 13.4033 45.3093 13.3478 45.2323 13.2722C45.1349 13.1865 45.0295 13.1411 44.8672 13.131C44.7375 13.1159 44.5671 13.0605 44.4738 13C44.3603 12.9243 44.2467 12.8941 44.0885 12.8991C43.9384 12.9042 43.8086 12.8689 43.687 12.7983C43.5328 12.7126 43.4801 12.7025 43.3057 12.7479C43.1475 12.7882 43.0786 12.7832 42.9893 12.7277C42.8595 12.647 42.5472 12.6269 42.4499 12.6975C42.4012 12.7328 42.3201 12.7227 42.1944 12.6723C42.0402 12.6067 41.9794 12.6067 41.8415 12.6571C41.7482 12.6924 41.6346 12.7227 41.586 12.7176C41.5332 12.7176 41.3953 12.7075 41.2777 12.7025C41.1357 12.6975 41.0262 12.7176 40.9613 12.768C40.8924 12.8285 40.795 12.8437 40.6166 12.8235C40.4178 12.8084 40.3448 12.8235 40.2313 12.9092C40.1339 12.9848 40.0244 13.0151 39.8662 13.0151C39.6918 13.0151 39.6026 13.0453 39.489 13.1411C39.3917 13.2218 39.2822 13.2672 39.1808 13.2672C38.9901 13.2672 38.8238 13.3428 38.7062 13.4789C38.6535 13.5394 38.6048 13.5747 38.5927 13.5596C38.5278 13.4789 37.9761 11.669 38.0045 11.6286C38.0208 11.5984 37.9275 11.2001 37.7896 10.7312L37.5462 9.8893H37.1163H36.6823L36.5363 9.69771C36.4592 9.59688 36.3659 9.41034 36.3294 9.2843C36.0658 8.31128 35.0883 5.22078 34.9788 4.9939C34.9017 4.84266 34.8287 4.63595 34.8165 4.54016L34.7963 4.36875L35.5628 3.92509C35.9847 3.68309 36.3456 3.48647 36.3619 3.48647C36.3821 3.48647 36.4268 3.52176 36.4592 3.56209C36.5119 3.61755 36.5606 3.62259 36.6945 3.57722C36.8608 3.5268 36.8689 3.53184 37.1163 3.77888C37.3475 4.0108 37.388 4.036 37.6476 4.06625L37.9315 4.10154L38.1506 3.83434C38.3047 3.64276 38.3615 3.53688 38.3452 3.47638C38.3168 3.36547 38.3412 3.36547 38.5602 3.4663C38.7184 3.54192 38.7427 3.54192 38.8076 3.47134C38.8685 3.4058 38.9009 3.4058 39.1402 3.50663C39.2862 3.56713 39.5134 3.70325 39.6472 3.80913L39.8865 4.00071L40.0041 3.83938C40.065 3.75367 40.1136 3.6478 40.1055 3.61251C40.0771 3.4663 39.6797 3.12851 39.3755 2.99239C39.1686 2.90668 39.0591 2.83106 39.0591 2.78064C39.0591 2.74031 38.9942 2.58402 38.9131 2.43782L38.7711 2.17061L38.8887 1.9992C39.1564 1.62612 39.0631 1.05642 38.6941 0.824505C38.4426 0.663174 38.2682 0.698463 37.9315 0.975754C37.2988 1.50008 36.9824 1.6967 35.721 2.38236C34.6421 2.96214 34.3825 3.08818 34.3542 3.02768C34.2649 2.85627 33.5916 3.05793 33.4253 3.30497C33.3888 3.36043 33.4294 3.57722 33.6119 4.278C33.8228 5.09474 33.8431 5.21069 33.8309 5.55856C33.8228 5.81569 33.8431 6.00222 33.8837 6.12826C33.9323 6.26943 33.9323 6.31985 33.8958 6.33497C33.8674 6.35009 32.2248 6.85929 30.2373 7.47437C28.254 8.0844 25.0132 9.08264 23.042 9.69267C21.0708 10.2977 19.4363 10.7968 19.4079 10.7968C19.3795 10.7968 19.3389 10.7111 19.3187 10.6002L19.2781 10.4035L19.5133 10.3178L19.7445 10.2271L19.7608 9.90442C19.7689 9.72292 19.7608 9.56663 19.7486 9.55655C19.7364 9.54647 19.5782 9.59688 19.4038 9.66242C19.2294 9.73301 19.0794 9.78846 19.0753 9.78846C19.0631 9.78846 18.9496 9.30951 18.2114 6.15851C17.8504 4.62083 17.4448 2.89156 17.3109 2.31178C17.173 1.73703 17.0757 1.25304 17.0879 1.23792C17.1 1.21775 17.6476 1.19254 18.3006 1.18246C19.4484 1.15725 19.5093 1.16229 20.1015 1.28833C20.791 1.43454 20.9329 1.44462 21.0019 1.35891C21.1479 1.17742 20.9857 0.935421 20.576 0.718632C20.1623 0.506886 19.6594 0.451427 17.6435 0.411095C15.8305 0.375805 15.1978 0.325386 14.4393 0.159016C14.1189 0.0833893 13.0603 0.0531425 12.9224 0.108597ZM33.109 8.33648C33.0846 8.37177 31.2635 11.1598 29.0611 14.5276C26.8547 17.8953 24.6969 21.1976 24.2629 21.8631C23.8289 22.5286 23.4557 23.0932 23.4395 23.1184C23.4192 23.1437 23.2935 23.1285 23.1313 23.0731C22.9488 23.0075 22.7176 22.9773 22.4418 22.9773C22.2106 22.9773 22.024 22.9672 22.024 22.9622C22.024 22.9521 20.288 15.0116 19.8865 13.1815C19.8054 12.8134 19.7486 12.5008 19.7608 12.4857C19.7851 12.4504 19.704 12.4807 26.952 10.217C30.2982 9.17339 33.0441 8.30623 33.0522 8.29615C33.0968 8.24574 33.1455 8.28102 33.109 8.33648ZM18.8319 13.7461C18.9131 14.1041 19.1807 15.2989 19.4282 16.393C19.6756 17.487 20.0366 19.0751 20.2272 19.9221C20.4178 20.7691 20.6531 21.8076 20.7504 22.2362C20.8478 22.6647 20.9248 23.0227 20.9167 23.0277C20.9127 23.0327 20.6044 23.0479 20.2312 23.0579L19.558 23.0781L19.562 22.821C19.562 22.6647 19.5377 22.5034 19.489 22.3925C19.4444 22.2866 19.4119 22.1051 19.4079 21.9337C19.4038 21.7118 19.3835 21.611 19.3024 21.4799C19.2294 21.3589 19.197 21.2379 19.1889 21.0665C19.1848 20.8144 19.1118 20.5926 19.0063 20.4817C18.9698 20.4414 18.9414 20.3355 18.9414 20.2397C18.9414 20.0179 18.8563 19.7759 18.7224 19.6246C18.6575 19.544 18.617 19.4482 18.617 19.3574C18.617 19.1658 18.5277 18.9541 18.3736 18.7978C18.3087 18.7272 18.2519 18.6213 18.2519 18.5608C18.2519 18.3894 18.1059 18.0869 17.9761 17.9962C17.8991 17.9407 17.8463 17.85 17.8301 17.7491C17.7977 17.5424 17.6638 17.3156 17.5219 17.2248C17.457 17.1845 17.384 17.0736 17.3474 16.9576C17.2826 16.761 17.1 16.5291 16.9662 16.4736C16.9256 16.4535 16.8607 16.3476 16.8161 16.2367C16.7756 16.1257 16.6904 15.9947 16.6295 15.9443L16.516 15.8585L17.5746 14.4419C18.1586 13.6604 18.6494 13.0353 18.6616 13.0554C18.6738 13.0756 18.7508 13.3831 18.8319 13.7461ZM10.5456 15.3897C11.4947 15.4956 12.4032 15.8081 13.2428 16.3123C13.7255 16.6047 14.4515 17.1744 14.4312 17.245C14.4231 17.2702 13.5146 18.4953 12.4113 19.9674C10.428 22.6143 10.4036 22.6445 10.3347 22.5336C10.2779 22.4378 10.2576 22.4277 10.1643 22.4832C10.0751 22.5336 10.0386 22.5286 9.9534 22.463C9.86012 22.3824 9.84795 22.3874 9.77494 22.4681C9.70599 22.5437 9.67354 22.5487 9.59242 22.5034C9.5113 22.458 9.48291 22.463 9.42207 22.5336C9.38557 22.579 9.29634 22.6193 9.23144 22.6193C9.13815 22.6193 9.09354 22.6496 9.06515 22.7353C9.04081 22.8059 8.99214 22.8462 8.94347 22.8412C8.79745 22.8311 8.76906 22.8462 8.74472 22.9672C8.7285 23.0579 8.68794 23.0983 8.60682 23.1084C8.52164 23.1184 8.49325 23.1537 8.48514 23.2647C8.47703 23.3604 8.44052 23.4209 8.37157 23.4512C8.30262 23.4865 8.27423 23.5369 8.27423 23.6377C8.27423 23.7285 8.24178 23.8041 8.18905 23.8444C8.12416 23.8948 8.10793 23.9453 8.12416 24.0461C8.14038 24.1419 8.1201 24.2175 8.06332 24.2931C7.99842 24.3788 7.99031 24.4192 8.03087 24.5099C8.06737 24.5956 8.06332 24.641 8.01059 24.7469C7.94975 24.8628 7.94975 24.878 8.01465 24.9687C8.07143 25.0494 8.07549 25.0897 8.03898 25.1905C7.99842 25.2964 8.00654 25.3317 8.07954 25.4124C8.14038 25.483 8.15661 25.5485 8.13633 25.6392C8.11605 25.7401 8.13227 25.7854 8.21339 25.851C8.27017 25.8964 8.31479 25.972 8.31073 26.0174C8.29856 26.1787 8.31479 26.214 8.41213 26.2442C8.48514 26.2644 8.51759 26.3148 8.5257 26.4106C8.53381 26.5215 8.5622 26.5568 8.65144 26.577C8.71633 26.5921 8.78528 26.6526 8.81367 26.7282C8.85423 26.824 8.89074 26.8492 8.97186 26.8391L9.07731 26.824L9.02053 27.1063C8.98808 27.2626 8.96375 27.4945 8.97186 27.6256C8.97997 27.8172 9.00431 27.8727 9.08543 27.9231C9.29228 28.0542 10.8903 27.9584 10.9796 27.8071C11.008 27.7567 11.0323 27.7466 11.0526 27.787C11.0688 27.8172 11.0607 27.8727 11.0323 27.913C10.9958 27.9634 10.9998 28.0088 11.0364 28.0995C11.0647 28.1651 11.085 28.2558 11.0769 28.3062C11.0729 28.3516 11.0972 28.4071 11.1296 28.4222C11.1661 28.4373 11.1945 28.4726 11.1945 28.4928C11.1945 28.5936 10.9106 28.8709 10.4726 29.1986C10.0791 29.491 9.90473 29.5818 9.45858 29.7431C9.10976 29.8691 8.88668 29.9801 8.81773 30.0607C8.7285 30.1666 8.70416 30.1716 8.55815 30.1212C8.46892 30.091 8.3878 30.0859 8.37563 30.1011C8.33912 30.1817 8.67983 30.9985 8.8299 31.1951C8.98808 31.4018 9.272 31.543 9.6127 31.5782C9.73438 31.5934 9.75466 31.5782 9.76683 31.4774C9.77494 31.4018 9.80739 31.3665 9.86417 31.3665C9.94935 31.3665 14.0053 30.9682 15.1613 30.8472C15.4979 30.8119 15.7778 30.7968 15.7778 30.822C15.7778 30.8926 15.0274 31.8303 14.7273 32.1328C12.9305 33.9327 10.6105 34.6486 8.37968 34.0839C5.72708 33.4134 3.52874 30.9985 2.68104 27.8122C1.76844 24.3738 2.47013 20.6783 4.5184 18.1273C6.11645 16.1459 8.33101 15.1376 10.5456 15.3897ZM42.8109 15.3846C44.8105 15.6165 46.6154 16.7459 47.9011 18.576C50.3793 22.095 50.428 27.2979 48.0187 30.8875C46.2422 33.5344 43.399 34.7746 40.6734 34.089C37.6557 33.3277 35.2911 30.3632 34.703 26.6022C34.1716 23.2092 35.21 19.6549 37.3759 17.4719C37.676 17.1694 38.0816 16.8215 38.1019 16.8517C38.11 16.8618 38.7752 18.9339 39.5864 21.4598C40.3935 23.9806 41.0587 26.0577 41.0668 26.0627C41.0749 26.0728 41.2655 25.9972 41.4967 25.8913C41.809 25.7502 41.9632 25.7048 42.1254 25.7149C42.3647 25.7249 42.5837 25.614 42.746 25.3972C42.8028 25.3267 42.8677 25.2662 42.896 25.2662C42.9609 25.2662 42.9325 24.7721 42.8474 24.4746C42.7379 24.1016 42.4215 23.8696 42.0849 23.915L41.9145 23.9402L41.8253 23.6579C41.7807 23.5016 41.4481 22.4126 41.0871 21.2329C40.7261 20.0532 40.2232 18.4096 39.9676 17.5777C39.7121 16.7408 39.5052 16.035 39.5052 16.0048C39.5052 15.9241 40.1623 15.667 40.6896 15.5359C41.444 15.3493 42.093 15.304 42.8109 15.3846ZM15.3803 18.2483C16.3213 19.4734 16.954 20.885 17.2785 22.4832C17.3474 22.8109 17.4002 23.0983 17.4002 23.1285C17.4002 23.189 17.315 23.1941 14.3988 23.3251C12.387 23.4159 11.4825 23.431 11.3689 23.3806C11.3081 23.3554 11.2757 23.305 11.2757 23.2243C11.2757 23.1588 11.2473 23.0832 11.2108 23.0579C11.154 23.0176 11.4866 22.5538 13.0765 20.4313C14.1432 19.0146 15.0274 17.855 15.0437 17.855C15.0639 17.855 15.214 18.0315 15.3803 18.2483ZM21.01 23.3806C21.0627 23.552 21.0627 23.552 20.9694 23.552C20.9208 23.552 20.864 23.6125 20.8275 23.7033C20.791 23.794 20.7342 23.8545 20.6815 23.8545C20.6328 23.8545 20.5882 23.9049 20.5638 23.9806C20.5436 24.0511 20.4827 24.1268 20.4259 24.152C20.3732 24.1822 20.3205 24.2578 20.3043 24.3335C20.288 24.4041 20.2312 24.4898 20.1785 24.52C20.1096 24.5603 20.0771 24.6158 20.0771 24.7065C20.0771 24.7822 20.0447 24.8628 19.996 24.9032C19.9473 24.9385 19.9149 25.0191 19.9149 25.1099C19.9149 25.1905 19.8865 25.2813 19.85 25.3216C19.8054 25.367 19.7932 25.4325 19.8094 25.5283C19.8257 25.6392 19.8175 25.6695 19.7608 25.6695C19.708 25.6695 19.6918 25.6241 19.6877 25.4779C19.6837 25.3771 19.6756 25.2006 19.6715 25.0897C19.6675 24.9788 19.6756 24.7872 19.6918 24.6612C19.7121 24.4998 19.704 24.3788 19.6634 24.2578C19.6229 24.1368 19.6147 24.036 19.6391 23.9301C19.6594 23.8444 19.6675 23.673 19.6553 23.5419L19.635 23.305L20.1704 23.2848C20.4665 23.2798 20.7666 23.2647 20.8396 23.2596C20.9492 23.2495 20.9775 23.2747 21.01 23.3806ZM17.457 23.5873C17.5056 23.9251 17.534 25.3468 17.4975 25.4225C17.4651 25.488 17.3312 25.483 16.4065 25.367C15.8265 25.2914 14.565 25.13 13.6038 25.009C11.9124 24.7973 11.8557 24.7872 11.7867 24.6713C11.7218 24.5654 11.7178 24.5351 11.7664 24.4242C11.8151 24.3133 11.811 24.2931 11.7299 24.2125C11.6569 24.1469 11.6447 24.0965 11.665 23.9705C11.6853 23.8394 11.6772 23.8091 11.6042 23.7789C11.4014 23.6982 11.5515 23.6529 12.0179 23.6529C12.6344 23.6529 17.2947 23.4411 17.4042 23.4109C17.4205 23.4058 17.4407 23.4865 17.457 23.5873ZM13.9323 26.0728C15.1816 26.2392 16.2523 26.3753 16.3172 26.3753C16.4024 26.3753 16.4389 26.4106 16.4714 26.5114C16.5646 26.819 16.7918 26.9954 17.096 27.0005C17.2866 27.0055 17.2988 27.0106 17.2826 27.1316C17.2501 27.4441 16.9702 28.3718 16.735 28.9717C16.4714 29.6322 16.0536 30.4439 15.94 30.5145C15.9076 30.5346 14.5083 30.6808 12.8331 30.8472L9.78305 31.1396L9.79117 30.9581C9.79522 30.8523 9.82361 30.7363 9.85606 30.6859C9.90068 30.6153 9.90068 30.5951 9.84795 30.5296C9.72627 30.3733 9.80333 30.2372 10.1197 30.0607C10.2819 29.97 10.578 29.7683 10.7727 29.607C10.9715 29.4507 11.2838 29.2087 11.4663 29.0726C11.9408 28.7247 12.1923 28.4222 12.2288 28.15C12.2937 27.671 12.1234 27.4038 11.4906 26.9803C11.0566 26.6929 10.9633 26.5467 11.1824 26.5165C11.2716 26.5064 11.3 26.4711 11.3162 26.3501C11.3284 26.2543 11.3649 26.1938 11.4176 26.1787C11.5231 26.1585 11.5636 26.0728 11.5352 25.9518C11.515 25.8712 11.5717 25.7754 11.6407 25.7703C11.6529 25.7703 12.6831 25.9064 13.9323 26.0728ZM19.7689 27.3282C19.8175 27.3937 19.8297 27.4643 19.8135 27.5349C19.7932 27.6105 19.8135 27.6811 19.8743 27.7618C19.9311 27.8374 19.9554 27.913 19.9392 27.9785C19.9189 28.0491 19.9433 28.0995 20.0163 28.16C20.0812 28.2105 20.1177 28.2911 20.1177 28.3667C20.1177 28.4525 20.1501 28.513 20.215 28.5482C20.2718 28.5835 20.3205 28.6642 20.3367 28.7499C20.3529 28.8558 20.3813 28.8961 20.4422 28.8961C20.4989 28.8961 20.5395 28.9465 20.5679 29.0474C20.6003 29.1583 20.6368 29.1986 20.7099 29.1986C20.7747 29.1986 20.8234 29.2389 20.8559 29.3246C20.8883 29.4154 20.9329 29.4507 21.01 29.4507C21.0871 29.4507 21.1438 29.4961 21.1925 29.5818C21.2452 29.6826 21.2817 29.7028 21.3548 29.6826C21.4237 29.6624 21.4683 29.6826 21.5129 29.7582C21.5576 29.8439 21.5941 29.8591 21.6955 29.8288C21.7766 29.8086 21.8212 29.8137 21.8212 29.849C21.8212 29.8792 21.7928 29.9044 21.7644 29.9044C21.6955 29.9044 19.0915 30.1918 18.8482 30.2271C18.7143 30.2473 18.6981 30.2372 18.7224 30.1666C18.7386 30.1162 18.7711 29.975 18.7954 29.849C18.8198 29.7179 18.8725 29.5717 18.909 29.5162C19.0104 29.3751 19.1118 29.0574 19.0996 28.9012C19.0915 28.8255 19.1321 28.6844 19.201 28.5583C19.2943 28.3869 19.3146 28.2911 19.3105 28.0844C19.3105 27.8979 19.3308 27.787 19.3876 27.6861C19.4322 27.6055 19.4809 27.4744 19.4931 27.3887C19.5255 27.2021 19.6594 27.1769 19.7689 27.3282Z" fill="#FA790E"/>
</svg>
