<svg width="149" height="150" viewBox="0 0 149 150" fill="none" xmlns="http://www.w3.org/2000/svg">
<path fill-rule="evenodd" clip-rule="evenodd" d="M27.1898 40.5546H115.781C117.715 40.5546 119.263 41.3277 120.423 42.4874C121.584 43.6471 122.358 45.1933 122.358 47.1261V60.2689V60.6555H121.584H94.5037C92.1825 60.6555 90.2482 61.4286 88.7007 62.9748C87.1533 64.521 86.3796 66.4538 86.3796 68.7731V85.7815C86.3796 88.1008 87.1533 90.0336 88.7007 91.5798C90.2482 93.1261 92.1825 93.8992 94.5037 93.8992H121.584H121.971V94.2857V107.429C121.971 108.975 121.197 110.908 120.037 112.067C118.876 113.227 117.328 114 115.394 114H27.1898C25.2555 114 23.708 113.227 22.5474 112.067C21.7737 110.908 21 109.361 21 107.815V47.1261C21 45.1933 21.7737 43.6471 22.9343 42.4874C24.0949 41.3277 25.6423 40.5546 27.1898 40.5546ZM94.5037 65.2941H123.131C125.066 65.2941 126.613 66.8403 126.613 68.7731V85.7815C126.613 87.7143 125.066 89.2605 123.131 89.2605H94.5037C92.5693 89.2605 91.0219 87.7143 91.0219 85.7815V68.7731C91.0219 66.8403 92.5693 65.2941 94.5037 65.2941ZM101.08 71.0924C104.562 71.0924 107.657 73.7983 107.657 77.6639C107.657 81.1429 104.949 84.2353 101.08 84.2353C97.5985 84.2353 94.5037 81.5294 94.5037 77.6639C94.5037 73.7983 97.5985 71.0924 101.08 71.0924ZM42.2774 36.6891C62.0073 32.0504 81.7372 27.0252 101.467 22C103.015 22 104.175 22.7731 104.949 24.3193C106.109 28.5714 107.27 32.8235 108.431 37.0756C86.3796 36.6891 64.3285 36.6891 42.2774 36.6891Z" fill="#FA790E"/>
<path fill-rule="evenodd" clip-rule="evenodd" d="M46.7176 56.0139C44.744 56.257 43.3107 56.6662 41.7737 57.4254C39.8259 58.3876 38.0823 59.8508 36.7519 61.6397C35.2878 63.6083 34.4608 65.6666 34.0808 68.2878C33.9731 69.0314 33.9731 88.9533 34.0808 89.6969C34.4849 92.4845 35.4792 94.7949 37.1701 96.8758C37.4239 97.1881 37.6538 97.4436 37.6811 97.4436C37.7084 97.4436 38.0772 97.1774 38.5007 96.852C38.9241 96.5266 39.6066 96.0035 40.0171 95.6895L40.7637 95.1187L41.249 95.1865C41.5159 95.2239 41.9195 95.2734 42.1459 95.2965L42.5576 95.3387L42.8536 94.9686C43.0164 94.765 43.4679 94.2055 43.857 93.7252C44.246 93.2449 44.6767 92.7086 44.8142 92.5334L45.0641 92.2149L44.9283 91.97C44.7067 91.57 44.5442 90.8821 44.5763 90.4798C44.6281 89.831 44.9853 89.2461 45.6258 88.7619L45.9897 88.4867L57.6642 88.4874C68.9908 88.4881 69.3456 88.4912 69.5716 88.5945C70.1109 88.8409 70.1851 89.1431 69.8006 89.5262L69.5626 89.7634L68.3588 89.9994C62.8228 91.0848 61.909 91.2688 60.9398 91.4934C59.5763 91.8094 57.7733 91.9775 56.0124 91.9528L54.9485 91.9378L54.6686 92.1202C53.947 92.5902 52.8454 93.0306 51.6263 93.3365L51.1038 93.4676L50.006 94.6527L48.9081 95.8379L49.3527 95.8541C49.5972 95.8629 50.5143 95.8883 51.3908 95.9104L52.9843 95.9506L52.6226 96.2367C52.4237 96.394 51.4294 97.1781 50.4131 97.9792C47.4315 100.329 46.2471 101.267 45.8587 101.583C45.5871 101.805 45.588 101.806 46.1297 101.903C46.6539 101.997 66.0575 102.041 67.1549 101.951C73.5145 101.428 78.7407 96.6089 79.8024 90.2885C80.0056 89.0784 80.0133 88.6027 79.9918 78.5416C79.9734 69.8864 79.96 68.6134 79.882 68.1188C79.3635 64.827 77.9513 62.0737 75.6401 59.8483C73.6035 57.8873 71.1754 56.6716 68.2188 56.1327L67.5469 56.0102L57.2162 56.0017C51.5344 55.997 46.81 56.0025 46.7176 56.0139ZM54.7954 59.2932C55.2007 59.4201 55.692 59.74 55.9641 60.0541C56.4972 60.6696 56.6829 61.5832 56.439 62.391C56.3729 62.6099 56.294 62.8045 56.2636 62.8233C56.2332 62.8423 56.2084 62.8852 56.2084 62.9189C56.2084 62.9603 56.3376 62.9692 56.6096 62.9462C57.1627 62.8996 58.7256 62.9995 59.5609 63.1349C65.4142 64.084 70.145 67.8343 72.2794 73.2175C72.7313 74.3573 73.1461 75.9591 73.1898 76.7329L73.2021 76.9523L72.1103 77.1344C71.1029 77.3024 68.116 77.7899 66.931 77.9796C66.6538 78.024 65.268 78.2507 63.8514 78.4833C62.4348 78.7159 60.9482 78.9582 60.5478 79.0218C60.1475 79.0853 59.3664 79.2119 58.812 79.303C56.882 79.6204 54.3814 80.0293 53.2968 80.205C51.705 80.4628 48.9696 80.909 47.5855 81.1368C46.9234 81.2458 46.0037 81.3957 45.5418 81.4701C45.0799 81.5445 43.8902 81.7387 42.8981 81.9018C41.906 82.0648 41.08 82.1839 41.0626 82.1664C40.9964 82.0997 40.8052 80.59 40.7606 79.7811C40.5294 75.5876 41.9467 71.58 44.7955 68.3713C45.6636 67.3935 46.8144 66.4095 48.0571 65.5827C48.875 65.0385 50.5853 64.2043 51.505 63.9008C51.9515 63.7535 52.3504 63.6218 52.3913 63.6082C52.4412 63.5917 52.4106 63.537 52.2981 63.4418C51.9328 63.1325 51.621 62.5033 51.5371 61.9061C51.4895 61.5672 51.5954 60.9603 51.763 60.6115C52.0476 60.0194 52.7395 59.4311 53.3439 59.2672C53.7388 59.1602 54.4092 59.1722 54.7954 59.2932ZM77.5721 83.4406C77.6962 83.5655 77.7095 83.6248 77.7095 84.0526V84.5263L77.3316 84.8056C77.1237 84.9593 76.5669 85.3684 76.0941 85.7148L75.2347 86.3447H56.9933H38.752L38.1173 85.8799C37.7683 85.6242 37.2173 85.2223 36.8928 84.9868L36.303 84.5584L36.2867 84.0633C36.2721 83.617 36.2827 83.5549 36.3945 83.4352L36.5185 83.3023H56.9766H77.4347L77.5721 83.4406Z" fill="white"/>
<path d="M74.5 0.489258C84.3603 0.489258 94.2206 2.68043 102.985 5.9672C112.298 9.80176 120.515 15.2797 127.088 22.401C134.21 29.5223 139.688 37.7393 143.522 46.504C147.357 55.2687 149 65.129 149 74.9893C149 84.8496 146.809 94.7098 143.522 103.475C139.688 112.787 134.21 121.004 127.088 127.578C119.967 134.699 111.75 140.177 102.985 144.011C94.2206 147.846 84.3603 149.489 74.5 149.489C64.6397 149.489 54.7794 147.298 46.0147 144.011C36.7022 140.177 28.4853 134.699 21.9118 127.578C14.7904 120.456 9.3125 112.239 5.47794 103.475C1.64338 94.7098 0 84.8496 0 74.9893C0 65.129 2.19118 55.2687 5.47794 46.504C8.76471 37.7393 14.7904 29.5223 21.364 22.401C28.4853 15.2797 36.7022 9.80176 45.4669 5.9672C54.7794 2.68043 64.0919 0.489258 74.5 0.489258ZM32.8676 25.6878L124.349 116.622C128.732 111.691 132.018 106.214 134.21 100.188C137.496 92.5187 139.14 84.3018 139.14 75.5371C139.14 66.7723 137.496 58.5554 134.21 50.8863C130.923 42.6694 125.993 35.5481 119.967 29.5223C113.941 23.4966 106.82 18.5665 99.1507 15.2797C91.4816 11.9929 83.2647 10.3496 74.5 10.3496C65.7353 10.3496 57.5184 11.9929 49.8493 15.2797C43.2757 18.0187 37.7978 21.3054 32.8676 25.6878ZM116.68 124.291L25.1985 32.8091C20.8162 38.2871 16.9816 43.765 14.2426 50.3385C10.9559 58.0076 9.3125 66.2246 9.3125 74.9893C9.3125 83.754 10.9559 91.9709 14.2426 99.64C17.5294 107.309 22.4596 114.43 28.4853 120.456C34.511 126.482 41.6324 131.412 49.3015 134.699C56.9706 137.986 65.1875 139.629 73.9522 139.629C82.7169 139.629 90.9338 137.986 98.603 134.699C105.724 132.508 111.75 128.673 116.68 124.291Z" fill="#FF382C"/>
</svg>
