<svg xmlns="http://www.w3.org/2000/svg" viewBox="0 0 35.18 43.07"><title>billetera</title><g id="Capa_2" data-name="Capa 2"><g id="Capa_1-2" data-name="Capa 1"><path d="M24.19,14a5.2,5.2,0,0,0-8.64-2.33A5.22,5.22,0,0,0,14.16,14,5.77,5.77,0,0,0,14,15.35a5.22,5.22,0,0,0,1.48,3.7,4.77,4.77,0,0,0,.64.55,5.18,5.18,0,0,0,3,1h.07a5.16,5.16,0,0,0,3.09-1,4.69,4.69,0,0,0,.54-.46,5.12,5.12,0,0,0,1.57-3.66A4.76,4.76,0,0,0,24.19,14Zm-1.88,4.6a4.53,4.53,0,0,1-1.54,1,4.47,4.47,0,0,1-3.18,0A4.38,4.38,0,0,1,16,18.54,4.49,4.49,0,0,1,14.92,14a4.6,4.6,0,0,1,1.13-1.82,4.48,4.48,0,0,1,6.34.09A4.43,4.43,0,0,1,23.44,14,4.49,4.49,0,0,1,22.31,18.62Z" fill="#636363"/><path d="M35.18,10.39v0Zm0-.12v0s0,0,0,0v-.06l0,.17v-.05Zm-.09-.33a.14.14,0,0,1,0,.06V9.94Zm0,1v0l0,.06Zm0-1.09,0,0v0h0l0,.09ZM35,11.14h0l0,0Zm-.18-1.6.07.08,0,0ZM14.89,30.78h0l-.05,0Zm-.17.14h0l0,0Zm-.11.07h0l-.05,0Zm-.4.14h0Zm-.18,0h0Zm-.16,0h0Zm-.09,0h.08l-.1,0Zm-.12,0h.09l-.11,0Zm-.05,0h0Zm-.15-.05h.06l-.09,0Zm-.08,0h0l-.05,0Zm-.16-.1h0l0,0h0l-.1-.07Zm-.05,0h0l0,0-.08-.06Zm-.05,0h0ZM6.57,24.12,10.35,28,4.13,21.61Z" fill="#636363"/><path d="M35.18,10.39v0h0v0h0v0a.43.43,0,0,0,0-.12V10a0,0,0,0,0,0,0,.14.14,0,0,0,0-.06v0l0-.09v0l0,0,0,0h0l0,0v0l0,0h0l-.07-.08L32.37,7l-4-4.12L25.9.39l0,0a1.32,1.32,0,0,0-1.82,0L21,3.35,10.2,13.87l-3,2.91-2.36,2.3-.7.68a1.48,1.48,0,0,0-.22.29,1.3,1.3,0,0,0,.17,1.53l0,0L10.35,28l.25.26L13,30.76l0,0,0,0h0l.08.06.1.07h0l.05,0h0l.09,0h.12l.11,0h.72l0,0h.06l0,0,.05,0h0s0,0,0,0h0l0,0h0l0,0h0l0,0h0l.05,0,3.06-3,6.61-6.44h-.12a.34.34,0,0,1,0-.68h.62a.32.32,0,0,1,.16,0h0l.69-.67,1-1,4.83-4.71.19-.18,2.87-2.8,0,0,0,0,0,0v0l0,0v0l0,0,0,0,0,0h0l0,0v0l0,0v0l0-.06h0a0,0,0,0,1,0,0s0,0,0,0,0,0,0,0v-.08a0,0,0,0,0,0,0v-.12s0,0,0,0v-.21Zm-29.82,11H4.74a.34.34,0,1,1,0-.68h.62a.34.34,0,1,1,0,.68Zm19.72-2.28-1,1-7.35,7.16A6.52,6.52,0,0,0,13.4,27a6.78,6.78,0,0,0-1.9.66L7.18,23.23a7,7,0,0,0,.71-1.87H7.21a.34.34,0,1,1,0-.68h.61a.35.35,0,0,1,.18.05c0-.23,0-.46.05-.68v-.41c0-.05,0-.09,0-.14v0c0-.06,0-.12,0-.18v0a1.1,1.1,0,0,0,0-.18s0-.09,0-.14,0-.06,0-.09a.5.5,0,0,0,0-.12s0-.08,0-.12h0c0-.05,0-.11,0-.16s0-.15,0-.22,0-.15-.07-.22L12,13.87,22.19,3.94a6.45,6.45,0,0,0,3.35.21,7.06,7.06,0,0,0,1.61-.52l4.46,4.58a6.31,6.31,0,0,0-.56,1.6,6.45,6.45,0,0,0,.12,3.34l-.74.72Z" fill="#636363"/><path d="M19.17,21a0,0,0,0,1,0,0h-.12A4.83,4.83,0,0,1,18,20.87.4.4,0,0,1,18,21v0a5.19,5.19,0,0,0,1,.11h.15A.33.33,0,0,1,19.17,21Zm4.09-9.63a5.76,5.76,0,0,0-8.57,7.69c.1.12.21.24.32.35a5.59,5.59,0,0,0,1.88,1.29h0a.29.29,0,0,1,.16,0h.23a5.61,5.61,0,0,1-2.14-1.37l-.21-.23a5.58,5.58,0,0,1,4.2-9.25h.07a5.6,5.6,0,0,1,3.93,1.68,5.57,5.57,0,0,1,.2,7.56c-.1.12-.2.22-.31.33a5.53,5.53,0,0,1-2.6,1.43.35.35,0,0,1,0,.18,5.79,5.79,0,0,0,2.68-1.48,6,6,0,0,0,.42-.46,5.77,5.77,0,0,0-.31-7.69Z" fill="#636363"/><path d="M22.42,18.05l-.67.65-.81-.84a5.41,5.41,0,0,1-1.66,1l-1-1.06a7,7,0,0,0,1.12-.47,4.16,4.16,0,0,0,.89-.62,1.25,1.25,0,0,0,.33-.46.32.32,0,0,0-.09-.34.3.3,0,0,0-.26-.09,1.78,1.78,0,0,0-.47.13c-.2.08-.47.19-.79.34a3.88,3.88,0,0,1-1,.3,1.66,1.66,0,0,1-.78-.07,1.72,1.72,0,0,1-.67-.47,1.43,1.43,0,0,1-.47-1.15,2.14,2.14,0,0,1,.33-.92c.1-.14.2-.29.33-.45L16,12.82l.66-.64.69.7A5.44,5.44,0,0,1,19,11.94l.51,1.29a4.33,4.33,0,0,0-1.37.75L18,14.1a1.1,1.1,0,0,0-.3.42.26.26,0,0,0,.07.28.34.34,0,0,0,.25.11,1.68,1.68,0,0,0,.41-.11,6.31,6.31,0,0,0,.71-.3,3.5,3.5,0,0,1,1.49-.4,1.49,1.49,0,0,1,1.05.5,1.63,1.63,0,0,1,.51,1.21,2.27,2.27,0,0,1-.59,1.38Z" fill="#636363"/><path d="M32.64,26.65V20.86a1.7,1.7,0,0,0-.2-.81,1.78,1.78,0,0,0-1.58-1H0V41.29a1.78,1.78,0,0,0,1.78,1.78H30.86a1.78,1.78,0,0,0,1.78-1.78V35.51a2.34,2.34,0,0,0,1.85-2.28v-4.3A2.34,2.34,0,0,0,32.64,26.65Zm-5.74-6h.62a.34.34,0,0,1,0,.68H26.9a.34.34,0,1,1,0-.68Zm-2.46,0h.62a.32.32,0,0,1,.16,0h0a.34.34,0,0,1,.18.3.34.34,0,0,1-.34.34h-.62a.34.34,0,0,1,0-.68ZM2.59,22.46l0-.25a2.18,2.18,0,0,1,.11-.44.36.36,0,0,1,.45-.19.34.34,0,0,1,.19.45.83.83,0,0,0-.07.27l0,.24a.35.35,0,0,1-.38.3A.33.33,0,0,1,2.59,22.46ZM3,32.84a.35.35,0,0,1-.35-.34v-.62a.35.35,0,0,1,.69,0v.62A.34.34,0,0,1,3,32.84Zm.34,1.51V35a.35.35,0,0,1-.69,0v-.61a.35.35,0,1,1,.69,0Zm-.34-4A.35.35,0,0,1,2.62,30v-.62a.35.35,0,0,1,.69,0V30A.34.34,0,0,1,3,30.38Zm0-2.46a.35.35,0,0,1-.35-.35V27a.35.35,0,0,1,.69,0v.61A.35.35,0,0,1,3,27.92Zm0-2.46a.35.35,0,0,1-.35-.35V24.5a.35.35,0,1,1,.69,0v.61A.35.35,0,0,1,3,25.46Zm-.35,12v-.61a.35.35,0,1,1,.69,0v.61a.35.35,0,1,1-.69,0ZM4,39.81a.35.35,0,0,1-.3.17.34.34,0,0,1-.17,0,1.71,1.71,0,0,1-.55-.52A.34.34,0,0,1,3,38.94.35.35,0,0,1,3.5,39a1.15,1.15,0,0,0,.34.32A.35.35,0,0,1,4,39.81ZM4.4,21a.34.34,0,0,1,.34-.34h.62a.34.34,0,1,1,0,.68H4.74A.34.34,0,0,1,4.4,21ZM6.09,40.18H5.47a.35.35,0,0,1,0-.69h.62a.35.35,0,0,1,0,.69ZM6.86,21a.35.35,0,0,1,.35-.34h.61a.35.35,0,0,1,.18.05.35.35,0,0,1-.11.63H7.21A.35.35,0,0,1,6.86,21ZM8.55,40.18H7.94a.35.35,0,1,1,0-.69h.61a.35.35,0,0,1,0,.69ZM9.33,21a.34.34,0,0,1,.34-.34h.61a.34.34,0,1,1,0,.68H9.67A.34.34,0,0,1,9.33,21ZM11,40.18H10.4a.35.35,0,1,1,0-.69H11a.35.35,0,1,1,0,.69ZM11.79,21a.34.34,0,0,1,.34-.34h.62a.34.34,0,1,1,0,.68h-.62A.34.34,0,0,1,11.79,21Zm1.68,19.16h-.61a.35.35,0,0,1,0-.69h.61a.35.35,0,1,1,0,.69ZM14.25,21a.34.34,0,0,1,.34-.34h.62a.34.34,0,1,1,0,.68h-.62A.34.34,0,0,1,14.25,21Zm1.69,19.16h-.62a.35.35,0,0,1,0-.69h.62a.35.35,0,0,1,0,.69ZM16.71,21a.34.34,0,0,1,.18-.3h0a.29.29,0,0,1,.16,0h.62a.35.35,0,0,1,.31.19A.4.4,0,0,1,18,21v0a.34.34,0,0,1-.34.3h-.62A.34.34,0,0,1,16.71,21ZM18.4,40.18h-.62a.35.35,0,0,1,0-.69h.62a.35.35,0,0,1,0,.69Zm.81-19a.33.33,0,0,1,0-.15,0,0,0,0,1,0,0,.33.33,0,0,1,.34-.31h.61a.34.34,0,0,1,.29.16.35.35,0,0,1,0,.18h0a.34.34,0,0,1-.34.34h-.61A.32.32,0,0,1,19.21,21.17Zm1.65,19h-.61a.35.35,0,1,1,0-.69h.61a.35.35,0,0,1,0,.69ZM21.64,21a.34.34,0,0,1,.34-.34h.61a.34.34,0,1,1,0,.68H22A.34.34,0,0,1,21.64,21Zm1.68,19.16h-.61a.35.35,0,1,1,0-.69h.61a.35.35,0,1,1,0,.69Zm-.12-9.1a2.6,2.6,0,1,1,2.6,2.61A2.59,2.59,0,0,1,23.2,31.08Zm2.58,9.1h-.61a.35.35,0,0,1,0-.69h.61a.35.35,0,1,1,0,.69Zm2.47,0h-.62a.35.35,0,0,1,0-.69h.62a.35.35,0,0,1,.34.35A.34.34,0,0,1,28.25,40.18Z" fill="#636363"/></g></g></svg>