<svg width="36" height="35" viewBox="0 0 36 35" fill="none" xmlns="http://www.w3.org/2000/svg">
<g clip-path="url(#clip0_1002_3642)">
<path fill-rule="evenodd" clip-rule="evenodd" d="M18.1282 0C27.9488 0 35.9563 7.86017 35.9563 17.5C35.9563 27.1398 27.9488 35 18.1282 35C8.3076 35 0.300049 27.214 0.300049 17.5C0.300049 7.86017 8.3076 0 18.1282 0Z" fill="#FF652A"/>
<path fill-rule="evenodd" clip-rule="evenodd" d="M8.42183 10.8937C7.89323 12.3762 8.11977 14.3034 8.42183 15.4153C10.0831 21.2711 14.463 25.5704 20.4286 27.2011C21.5613 27.4976 23.5247 27.6458 25.035 27.2011C25.6391 26.9787 26.0167 26.8305 26.4697 26.3116L28.7352 24.0879C29.2638 23.569 29.2638 22.6795 28.7352 22.1606L26.1677 19.6404C25.6391 19.1215 24.7329 19.1215 24.2043 19.6404L21.8634 21.9383C21.4858 22.3089 21.4103 22.4571 21.4103 22.6795C17.3325 21.3453 14.463 18.5285 13.1037 14.5258C13.3303 14.4517 13.4813 14.4517 13.8589 14.0069L16.1998 11.7091C16.7284 11.1902 16.7284 10.3007 16.1998 9.78185L13.5568 7.18749C13.0282 6.66862 12.122 6.66862 11.5934 7.18749L9.328 9.41123C8.87491 9.9301 8.64837 10.2266 8.42183 10.8937Z" fill="white"/>
</g>
<defs>
<clipPath id="clip0_1002_3642">
<rect width="35.6562" height="35" fill="white" transform="translate(0.300049)"/>
</clipPath>
</defs>
</svg>
