<svg width="35" height="35" viewBox="0 0 35 35" fill="none" xmlns="http://www.w3.org/2000/svg">
<path fill-rule="evenodd" clip-rule="evenodd" d="M17.5 0C27.1398 0 35 7.86017 35 17.5C35 27.1398 27.1398 35 17.5 35C7.86017 35 0 27.214 0 17.5C0 7.86017 7.86017 0 17.5 0Z" fill="#FF652A"/>
<g clip-path="url(#clip0_1002_3604)">
<path d="M22.2263 19.8065L22.8118 16.0598H19.2407V13.6011C19.2407 12.5473 19.7676 11.5521 21.3482 11.5521H22.9874V8.3909C22.9874 8.3909 21.5238 8.15674 20.0603 8.15674C17.0747 8.15674 15.1428 9.97152 15.1428 13.1913V16.0598H11.8645V19.8065H15.1428V28.8804H19.1822V19.8065H22.2263Z" fill="white"/>
</g>
<defs>
<clipPath id="clip0_1002_3604">
<rect width="11.1229" height="20.7237" fill="white" transform="translate(11.8645 8.15674)"/>
</clipPath>
</defs>
</svg>
