<svg width="35" height="35" viewBox="0 0 35 35" fill="none" xmlns="http://www.w3.org/2000/svg">
<path fill-rule="evenodd" clip-rule="evenodd" d="M17.5 0C27.1398 0 35 7.86017 35 17.5C35 27.1398 27.1398 35 17.5 35C7.86017 35 0 27.214 0 17.5C0 7.86017 7.86017 0 17.5 0Z" fill="#FF652A"/>
<path d="M23.3107 11.5591C22.6892 11.5591 22.1243 12.0676 22.1243 12.7455C22.1243 13.367 22.6327 13.932 23.3107 13.932C23.9322 13.932 24.4971 13.4235 24.4971 12.7455C24.4407 12.0676 23.9322 11.5591 23.3107 11.5591Z" fill="white"/>
<path d="M18.0566 13.085C15.3447 13.085 13.1414 15.2884 13.1414 18.0002C13.1414 20.7121 15.3447 22.9155 18.0566 22.9155C20.7685 22.9155 22.9719 20.7121 22.9719 18.0002C22.9719 15.2884 20.7685 13.085 18.0566 13.085ZM18.0566 21.1641C16.3052 21.1641 14.8928 19.7516 14.8928 18.0002C14.8928 16.2488 16.3052 14.8364 18.0566 14.8364C19.808 14.8364 21.2205 16.2488 21.2205 18.0002C21.2205 19.7516 19.808 21.1641 18.0566 21.1641Z" fill="white"/>
<path d="M22.0113 28H13.9887C10.7119 28 8 25.2881 8 22.0113V13.9887C8 10.7119 10.7119 8 13.9887 8H21.9548C25.2881 8 27.9435 10.7119 27.9435 13.9887V21.9548C28 25.2881 25.2881 28 22.0113 28ZM13.9887 9.86441C11.7288 9.86441 9.86441 11.7288 9.86441 13.9887V21.9548C9.86441 24.2147 11.7288 26.0791 13.9887 26.0791H21.9548C24.2147 26.0791 26.0791 24.2147 26.0791 21.9548V13.9887C26.0791 11.7288 24.2147 9.86441 21.9548 9.86441H13.9887Z" fill="white"/>
</svg>
