<?xml version="1.0" encoding="utf-8"?>
<!-- Generator: Adobe Illustrator 26.5.1, SVG Export Plug-In . SVG Version: 6.00 Build 0)  -->
<svg version="1.1" id="Capa_2_00000016072201175590250920000015470565735106150043_"
	 xmlns="http://www.w3.org/2000/svg" xmlns:xlink="http://www.w3.org/1999/xlink" x="0px" y="0px" viewBox="0 0 35.7 35"
	 style="enable-background:new 0 0 35.7 35;" xml:space="preserve">
<style type="text/css">
	.st0{clip-path:url(#SVGID_00000021088701881127461000000015118241015983830969_);}
	.st1{fill-rule:evenodd;clip-rule:evenodd;fill:#FF652A;}
	.st2{fill:#FFFFFF;}
</style>
<g id="Capa_1-2_00000062171315623291405130000010886863332452113074_">
	<g>
		<defs>
			<rect id="SVGID_1_" width="35.7" height="35"/>
		</defs>
		<clipPath id="SVGID_00000037688951951518932930000009882291907533102262_">
			<use xlink:href="#SVGID_1_"  style="overflow:visible;"/>
		</clipPath>
		<g style="clip-path:url(#SVGID_00000037688951951518932930000009882291907533102262_);">
			<path class="st1" d="M17.8,0c9.8,0,17.8,7.9,17.8,17.5S27.6,35,17.8,35S0,27.2,0,17.5S8,0,17.8,0z"/>
			<g id="Capa_2-2">
				<g id="Capa_1-2">
					<path class="st2" d="M8.9,11.8l8.6,6.3c0.3,0.2,0.7,0.2,0.9,0l8.6-6.3L8.9,11.8L8.9,11.8z"/>
					<path class="st2" d="M14.8,17.1l-5.9,5.6c-0.1-0.2-0.2-0.3-0.2-0.5v-9.5L14.8,17.1z"/>
					<path class="st2" d="M20.2,17.5l6,5.6c-0.2,0.1-0.4,0.1-0.6,0.1H10c-0.2,0-0.4,0-0.5-0.1l6-5.6l2.3,1.7L20.2,17.5z"/>
					<path class="st2" d="M26.9,12.6v9.5c0,0.2-0.1,0.4-0.2,0.5l-5.9-5.6C20.8,17.1,26.9,12.6,26.9,12.6z"/>
				</g>
			</g>
		</g>
	</g>
</g>
</svg>
