<svg width="35" height="35" viewBox="0 0 35 35" fill="none" xmlns="http://www.w3.org/2000/svg">
<path fill-rule="evenodd" clip-rule="evenodd" d="M17.5 0C27.1398 0 35 7.86017 35 17.5C35 27.1398 27.1398 35 17.5 35C7.86017 35 0 27.214 0 17.5C0 7.86017 7.86017 0 17.5 0Z" fill="#FF652A"/>
<g clip-path="url(#clip0_1002_3683)">
<path d="M26.1191 16.0886C25.9529 16.0886 25.7867 16.0886 25.6205 16.0886C23.8476 16.0886 22.1302 15.2022 21.1329 13.651V21.8504C21.1329 25.2299 18.4183 27.9446 15.0388 27.9446C11.6593 27.9446 8.94458 25.2299 8.94458 21.8504C8.94458 18.4709 11.6593 15.7562 15.0388 15.7562C15.1496 15.7562 15.3158 15.7562 15.4266 15.7562V18.7479C15.3158 18.7479 15.205 18.6925 15.0388 18.6925C13.3213 18.6925 11.9363 20.0776 11.9363 21.795C11.9363 23.5125 13.3213 24.8975 15.0388 24.8975C16.7562 24.8975 18.2521 23.5679 18.2521 21.8504L18.3075 8H21.1883C21.4654 10.5485 23.5152 12.5983 26.1191 12.7645V16.0886Z" fill="white"/>
</g>
<defs>
<clipPath id="clip0_1002_3683">
<rect width="17.1191" height="20" fill="white" transform="translate(9 8)"/>
</clipPath>
</defs>
</svg>
