<svg width="36" height="35" viewBox="0 0 36 35" fill="none" xmlns="http://www.w3.org/2000/svg">
<g clip-path="url(#clip0_1042_3579)">
<path fill-rule="evenodd" clip-rule="evenodd" d="M18.1282 0C27.9488 0 35.9563 7.86017 35.9563 17.5C35.9563 27.1398 27.9488 35 18.1282 35C8.3076 35 0.300049 27.214 0.300049 17.5C0.300049 7.86017 8.3076 0 18.1282 0Z" fill="#FF652A"/>
</g>
<g clip-path="url(#clip1_1042_3579)">
<path d="M9 27L10.4124 21.6328C9.62147 20.1638 9.16949 18.5254 9.16949 16.887C9.16949 11.4068 13.6328 7 19.0565 7C24.4802 7 28.9435 11.4068 28.9435 16.887C28.9435 22.3107 24.5367 26.774 19.0565 26.774C17.4181 26.774 15.8362 26.3785 14.3672 25.5876L9 27ZM14.6497 23.5537L14.9887 23.7797C16.2316 24.5141 17.6441 24.9096 19.0565 24.9096C23.4633 24.9096 27.0791 21.2938 27.0791 16.887C27.0791 12.4802 23.4633 8.86441 19.0565 8.86441C14.6497 8.86441 11.0339 12.4802 11.0339 16.887C11.0339 18.3559 11.4294 19.7684 12.2203 21.0113L12.4463 21.3503L11.6554 24.3446L14.6497 23.5537Z" fill="white"/>
<path fill-rule="evenodd" clip-rule="evenodd" d="M22.7288 18.2428C22.3333 18.0168 21.7684 17.7343 21.3164 17.9038C20.9774 18.0733 20.6949 18.6383 20.4689 18.9208C20.3559 19.0903 20.1865 19.0903 20.017 19.0338C18.661 18.4688 17.5876 17.5648 16.7966 16.3219C16.6836 16.1524 16.6836 15.9829 16.8531 15.8134C17.0791 15.5309 17.3616 15.2484 17.4181 14.853C17.4746 14.514 17.3051 14.062 17.1356 13.723C16.9661 13.3275 16.7401 12.7061 16.2881 12.4801C15.8927 12.2541 15.3842 12.3671 15.0452 12.6496C14.4802 13.1016 14.1978 13.8925 14.1978 14.627C14.1978 14.853 14.2543 15.0225 14.2543 15.2484C14.3672 15.7569 14.5932 16.2089 14.8757 16.6044C15.0452 16.9434 15.2712 17.2258 15.4972 17.5648C16.2317 18.5818 17.1356 19.4292 18.2091 20.1072C18.7175 20.4462 19.339 20.7287 19.904 20.8982C20.5819 21.1241 21.1469 21.3501 21.8814 21.2371C22.6158 21.0677 23.3503 20.6157 23.6893 19.8812C23.8023 19.6552 23.8023 19.4292 23.7458 19.2032C23.7458 18.7513 23.1243 18.4688 22.7288 18.2428Z" fill="white"/>
</g>
<defs>
<clipPath id="clip0_1042_3579">
<rect width="35.6562" height="35" fill="white" transform="translate(0.300049)"/>
</clipPath>
<clipPath id="clip1_1042_3579">
<rect width="19.9435" height="20" fill="white" transform="translate(9 7)"/>
</clipPath>
</defs>
</svg>
