<svg width="25" height="31" viewBox="0 0 25 31" xmlns="http://www.w3.org/2000/svg">
<path d="M1 27.6199C2.14015 24.6947 3.2803 21.7695 4.42045 18.8443C4.9756 18.6684 5.72774 18.5277 6.35453 18.8736C7.22009 19.3484 7.11861 20.345 7.97223 21.0309C8.40202 21.3767 9.13625 21.6991 10.4853 21.5409C9.39294 24.3488 8.30651 27.1509 7.21412 29.9589C6.46794 28.7571 5.72177 27.5554 4.9756 26.3537C3.6504 26.7757 2.3252 27.1978 1 27.6199Z" stroke="#FA790E" stroke-width="2" stroke-miterlimit="10" stroke-linecap="round" stroke-linejoin="round"/>
<path d="M24 27.6609C22.8598 24.7357 21.7197 21.8105 20.5795 18.8853C20.0244 18.7094 19.2723 18.5688 18.6455 18.9146C17.7799 19.3894 17.8814 20.386 17.0278 21.0719C16.598 21.4177 15.8637 21.7402 14.5147 21.5819C15.6071 24.3898 16.6935 27.1919 17.7859 29.9999C18.5321 28.7981 19.2782 27.5964 20.0244 26.3947C21.3496 26.8167 22.6748 27.2388 24 27.6609Z" stroke="#FA790E" stroke-width="2" stroke-miterlimit="10" stroke-linecap="round" stroke-linejoin="round"/>
<path d="M8.36025 1.47497C7.77525 1.92049 7.86479 2.34842 7.2201 3.12222C7.02311 3.35671 6.83209 3.58533 6.52766 3.78464C5.63822 4.37085 5.07113 3.90188 4.28317 4.36499C3.37583 4.9043 3.19078 6.10017 3.16093 6.29948C3.06542 6.90328 3.23256 7.11432 3.25644 7.63018C3.3221 9.39468 1.49547 9.79916 1.42981 11.2999C1.36415 12.7419 3.04154 12.9764 3.2445 15.0164C3.31016 15.6847 2.85649 16.1127 3.0893 16.8571C3.28629 17.4902 3.76384 17.9299 3.97873 18.0882C4.95174 18.8151 5.54868 18.264 6.36648 18.8678C7.07684 19.3954 6.76046 19.9054 7.69168 20.7379C7.91852 20.9372 8.34831 21.3123 9.02285 21.4999C9.69142 21.6817 10.2585 21.5879 10.7062 21.4999C11.6912 21.3182 11.6315 21.0427 12.2821 20.9782C13.273 20.8785 13.5238 21.4999 14.8072 21.5996C15.1713 21.6289 15.822 21.6817 16.4667 21.3944C17.6247 20.8844 17.3561 19.9347 18.4604 19.0965C19.6722 18.182 20.7407 18.7565 21.5048 17.7071C21.8988 17.1678 21.9764 16.5758 21.9764 16.5758C22.054 15.9778 21.8391 15.6789 21.9167 14.8933C21.9346 14.7233 21.9645 14.4068 22.0838 14.0668C22.4898 12.9237 23.4329 12.8181 23.6896 11.9154C23.8388 11.3819 23.6538 10.9012 23.5284 10.5788C23.0807 9.41813 22.1495 9.41226 21.9227 8.40398C21.8928 8.28088 21.9107 7.86467 21.9346 7.03225C21.9585 6.28776 21.9943 6.07672 21.8988 5.74258C21.7376 5.16224 21.3615 4.79292 21.2183 4.65223C20.2214 3.69671 19.3141 4.37085 18.3052 3.59119C17.4098 2.89946 17.762 2.15497 16.6457 1.43393C16.4905 1.33428 15.9712 1.006 15.2668 1.00014C14.7415 0.994276 14.3356 1.176 13.9655 1.34014C13.4103 1.58635 13.285 1.7798 12.8074 1.84428C12.6522 1.86773 12.3597 1.9029 12.0314 1.79152C11.7509 1.69773 11.6792 1.57462 11.2912 1.38118C11.136 1.29911 10.939 1.2229 10.6704 1.14669C10.3958 1.07048 9.90632 0.935655 9.30341 1.05876C9.14224 1.09393 8.74229 1.18186 8.36025 1.47497Z" stroke="#FA790E" stroke-width="2" stroke-miterlimit="10"/>
<path d="M12.5209 4.74049C8.81393 4.74635 5.76358 7.79465 5.7994 11.435C5.83522 14.9992 8.82587 17.9244 12.4075 17.9889C16.2219 18.0592 19.4036 14.8526 19.2663 11.1185C19.135 7.63051 16.1443 4.73463 12.5209 4.74049Z" stroke="#FA790E" stroke-width="2" stroke-miterlimit="10"/>
<path d="M12.5328 13.4104C13.285 13.7445 14.0311 14.0845 14.7833 14.4187C14.6937 13.6097 14.5982 12.8007 14.5087 11.9917C15.034 11.429 15.5653 10.8662 16.0906 10.3035C15.2967 10.1569 14.5027 10.0045 13.7028 9.85794C13.3268 9.1369 12.9507 8.42172 12.5686 7.70068C12.1687 8.40414 11.7688 9.10759 11.3688 9.81104C10.551 9.98104 9.7332 10.1452 8.90942 10.3152C9.48248 10.8662 10.0496 11.4231 10.6226 11.9742C10.5032 12.8242 10.3839 13.6742 10.2704 14.5242C11.0345 14.1607 11.7807 13.7856 12.5328 13.4104Z" stroke="#FA790E" stroke-width="2" stroke-miterlimit="10" stroke-linecap="round" stroke-linejoin="round"/>
</svg>
