<svg width="50" height="50" viewBox="0 0 50 50" fill="none" xmlns="http://www.w3.org/2000/svg">
<path d="M20 1C8.95161 1 0 9.95161 0 21C0 32.0484 8.95161 41 20 41C31.0484 41 40 32.0484 40 21C40 9.95161 31.0484 1 20 1ZM20 37.129C11.1048 37.129 3.87097 29.8952 3.87097 21C3.87097 12.1048 11.1048 4.87097 20 4.87097C28.8952 4.87097 36.129 12.1048 36.129 21C36.129 29.8952 28.8952 37.129 20 37.129ZM26.7742 25.5645C25.0968 27.5806 22.621 28.7419 20 28.7419C17.379 28.7419 14.9032 27.5887 13.2258 25.5645C12.5403 24.7419 11.3226 24.6371 10.5 25.3145C9.67742 26 9.57258 27.2177 10.25 28.0403C12.6694 30.9435 16.2258 32.6048 20 32.6048C23.7742 32.6048 27.3306 30.9435 29.75 28.0403C30.4355 27.2177 30.3226 26 29.5 25.3145C28.6774 24.6371 27.4597 24.7419 26.7742 25.5645ZM11.0081 17.371C11.629 16.2661 12.5565 15.629 13.5484 15.629C14.5403 15.629 15.4677 16.2661 16.0887 17.371L16.8548 18.7419C17.0242 19.0403 17.3548 19.121 17.6048 19.0403C17.8952 18.9516 18.0887 18.6774 18.0645 18.371C17.7984 14.9758 15.4677 12.6129 13.5484 12.6129C11.629 12.6129 9.29839 14.9758 9.03226 18.371C9.00806 18.6694 9.20161 18.9516 9.49194 19.0403C9.76613 19.129 10.0887 19 10.2419 18.7419L11.0081 17.371ZM26.4516 12.6129C24.5323 12.6129 22.2016 14.9758 21.9355 18.371C21.9113 18.6694 22.1048 18.9516 22.3952 19.0403C22.6774 19.129 22.9919 19 23.1452 18.7419L23.9113 17.371C24.5323 16.2661 25.4597 15.629 26.4516 15.629C27.4435 15.629 28.371 16.2661 28.9919 17.371L29.7581 18.7419C29.9274 19.0403 30.2581 19.121 30.5081 19.0403C30.7984 18.9516 30.9919 18.6774 30.9677 18.371C30.7016 14.9758 28.371 12.6129 26.4516 12.6129Z" fill="#FA790E"/>
</svg>
