<svg width="27" height="22" viewBox="0 0 27 22" fill="none" xmlns="http://www.w3.org/2000/svg">
<path d="M24.5885 12.3187C25.0509 11.6806 25.3125 11 25.3125 10.1771C25.3125 8.28588 23.3498 6.49988 20.7868 6.49988H18.8631C19.1225 5.94945 19.3298 5.29117 19.3298 4.50012C19.3298 1.37225 17.3422 0 14.3058 0C11.057 0 11.2423 4.07915 10.5216 4.66641C9.32201 5.64382 7.90515 7.52155 6.89555 8.25H1.6875C0.755525 8.25 0 8.86561 0 9.625V19.9375C0 20.6969 0.755525 21.3125 1.6875 21.3125H5.0625C5.84787 21.3125 6.50784 20.8753 6.69611 20.2834C9.04326 20.3264 10.6543 21.9996 16.0724 21.9996C16.4531 21.9996 16.875 22 17.2441 22C21.3109 22 23.1497 20.306 23.2 17.9038C23.9023 17.1121 24.2704 16.0509 24.1144 15.0253C24.634 14.2325 24.8349 13.2918 24.5885 12.3187ZM21.3321 14.6317C21.9945 15.5396 21.3986 16.7548 20.597 17.1054C21.003 19.2014 19.6684 19.9371 17.7957 19.9371H15.8013C12.0235 19.9371 9.57714 18.312 6.75 18.312V10.3125H7.32586C8.82141 10.3125 10.9107 7.26645 12.3114 6.12477C13.8069 4.90617 13.3086 2.87504 14.3058 2.0625C16.7985 2.0625 16.7985 3.47961 16.7985 4.50012C16.7985 6.1832 15.303 6.9373 15.303 8.56238H20.7868C21.9001 8.56238 22.7765 9.37492 22.7812 10.1875C22.786 10.9996 22.1052 11.8121 21.6069 11.8121C22.3182 12.4375 22.4702 13.7558 21.3321 14.6317ZM4.64062 18.5625C4.64062 19.1321 4.07399 19.5938 3.375 19.5938C2.67601 19.5938 2.10938 19.1321 2.10938 18.5625C2.10938 17.9929 2.67601 17.5312 3.375 17.5312C4.07399 17.5312 4.64062 17.9929 4.64062 18.5625Z" fill="#FA790E"/>
</svg>
