<svg width="290" height="182" viewBox="0 0 290 182" fill="none" xmlns="http://www.w3.org/2000/svg">
	<rect width="290" height="181.226" rx="30" fill="#FA790E" />
	<mask id="mask0_446_3528" style="mask-type:alpha" maskUnits="userSpaceOnUse" x="0" y="0" width="290" height="182">
		<rect width="290" height="181.226" rx="30" fill="#ED713C" />
	</mask>
	<g mask="url(#mask0_446_3528)">
		<ellipse opacity="0.1" cx="22.5556" cy="195.259" rx="147.762" ry="104.032" fill="black" />
		<ellipse opacity="0.08" cx="267.445" cy="-27.5385" rx="147.762" ry="104.032" fill="black" />
	</g>
	<rect x="27" y="129.45" width="33" height="23.5363" rx="5" fill="url(#paint0_radial_446_3528)" />
	<!-- <path fill-rule="evenodd" clip-rule="evenodd"
		d="M43.5 129.684L39.8333 135.835C39.8333 135.835 41.3 141.217 39.8333 145.83L43.5 152.75L47.1667 145.83C47.1667 145.83 45.7 141.986 47.1667 135.835C47.1667 135.835 43.5 129.684 43.5 129.684Z"
		stroke="#C7C7B6" stroke-width="1.3" stroke-linejoin="bevel" /> -->
	<path d="M27 136.117H39.8333" stroke="#C7C7B6" stroke-width="1.3" stroke-linejoin="bevel" />
	<path d="M46.7997 136.117H59.9996" stroke="#C7C7B6" stroke-width="1.3" stroke-linejoin="bevel" />
	<path d="M27 145.531H39.8333" stroke="#C7C7B6" stroke-width="1.3" stroke-linejoin="bevel" />
	<path d="M46.7997 145.531H59.9996" stroke="#C7C7B6" stroke-width="1.3" stroke-linejoin="bevel" />
	<ellipse cx="238" cy="32.3206" rx="20" ry="21.6223" fill="#FA790E" />
	<path
		d="M244.827 39.0652H230.864C230.673 39.0652 230.483 38.928 230.356 38.7907C230.229 38.6535 230.229 38.379 230.293 38.1732L231.498 34.8796L230.293 22.5974H226.421V21.2251H230.864C231.181 21.2251 231.435 21.4996 231.498 21.8426L232.768 34.8796C232.768 35.0169 232.768 35.0855 232.704 35.2227L231.816 37.6929H245.461L244.827 39.0652Z"
		fill="white" />
	<path
		d="M232.26 35.6344L232.006 34.2621L246.731 30.9685V25.342H231.498V23.9697H247.365C247.746 23.9697 248 24.2442 248 24.6559V31.5175C248 31.8605 247.81 32.135 247.492 32.2036L232.26 35.6344V35.6344Z"
		fill="white" />
	<path
		d="M245.461 43.1821C244.065 43.1821 242.923 41.9471 242.923 40.4375C242.923 38.928 244.065 37.6929 245.461 37.6929C246.858 37.6929 248 38.928 248 40.4375C248 41.9471 246.858 43.1821 245.461 43.1821ZM245.461 39.0652C244.763 39.0652 244.192 39.6827 244.192 40.4375C244.192 41.1923 244.763 41.8098 245.461 41.8098C246.159 41.8098 246.731 41.1923 246.731 40.4375C246.731 39.6827 246.159 39.0652 245.461 39.0652Z"
		fill="white" />
	<path
		d="M230.229 43.1821C228.833 43.1821 227.69 41.9471 227.69 40.4375C227.69 38.928 228.833 37.6929 230.229 37.6929C231.625 37.6929 232.768 38.928 232.768 40.4375C232.768 41.9471 231.625 43.1821 230.229 43.1821ZM230.229 39.0652C229.531 39.0652 228.96 39.6827 228.96 40.4375C228.96 41.1923 229.531 41.8098 230.229 41.8098C230.927 41.8098 231.498 41.1923 231.498 40.4375C231.498 39.6827 230.927 39.0652 230.229 39.0652Z"
		fill="white" />
	<defs>
		<radialGradient id="paint0_radial_446_3528" cx="0" cy="0" r="1" gradientUnits="userSpaceOnUse"
			gradientTransform="translate(45.9503 138.023) rotate(139.402) scale(22.9932 23.1068)">
			<stop stop-color="white" />
			<stop offset="1" stop-color="#DDDCDA" />
		</radialGradient>
	</defs>
</svg>
