<svg width="28" height="29" viewBox="0 0 28 29" fill="none" xmlns="http://www.w3.org/2000/svg">
<path d="M13.6392 0.89879C13.6315 0.919777 13.4794 2.05038 13.2113 4.09124L13.1571 4.50308L13.0256 4.5162C12.363 4.58965 12.1516 4.61851 11.85 4.67622C11.2931 4.78639 10.6538 4.97264 10.1768 5.16676C10.0737 5.20873 9.98602 5.23758 9.98086 5.23496C9.97828 5.22971 9.92672 5.09855 9.86485 4.94378C9.80297 4.78639 9.74367 4.65523 9.73594 4.64998C9.7282 4.64474 9.705 4.64998 9.68953 4.66048C9.66633 4.67622 9.68695 4.75229 9.77461 4.96477C9.83906 5.11954 9.89063 5.25595 9.89063 5.26644C9.89063 5.27693 9.80039 5.32415 9.69211 5.37399C8.77688 5.77796 7.8307 6.41278 7.00828 7.17876L6.74016 7.42534L6.33281 7.01087C5.99766 6.67248 5.92031 6.60165 5.90485 6.641C5.89195 6.67773 5.97445 6.77741 6.28125 7.08957L6.6757 7.49092L6.44625 7.75062C5.73727 8.54545 5.16234 9.42423 4.75758 10.3292C4.68539 10.4945 4.62094 10.6362 4.61578 10.6414C4.6132 10.6466 4.47914 10.5942 4.3193 10.5286C4.10016 10.4368 4.02539 10.4158 4.00992 10.4394C3.98156 10.4866 3.99188 10.4945 4.29609 10.6204C4.44563 10.6807 4.56938 10.7332 4.57453 10.7358C4.57711 10.7385 4.55906 10.7935 4.53328 10.8565C4.48172 10.9798 4.33734 11.4074 4.24969 11.6933C4.11047 12.1497 3.96094 12.9105 3.90938 13.4115C3.86555 13.8601 3.85524 13.923 3.83719 13.923C3.81399 13.923 0.57586 14.3664 0.449532 14.3847C0.36961 14.3978 0.354141 14.4136 0.346407 14.4792C0.338672 14.5238 0.346407 14.5605 0.361875 14.5657C0.377344 14.571 0.61711 14.6051 0.892969 14.6418C2.12273 14.8044 3.74695 15.0274 3.79594 15.0379C3.84492 15.0484 3.85266 15.0746 3.86813 15.2924C3.93258 16.2131 4.15172 17.2178 4.46625 18.0625C4.51781 18.1936 4.55391 18.3169 4.54875 18.3327C4.54359 18.3484 4.42242 18.4114 4.28063 18.4691C4.13625 18.5294 4.01766 18.5871 4.01508 18.6002C3.99188 18.6737 4.05375 18.6658 4.3193 18.5556L4.61063 18.4376L4.66219 18.5609C5.06953 19.5341 5.69602 20.5125 6.45914 21.3677L6.71438 21.6536L6.31992 22.055C6.00281 22.3776 5.92805 22.4668 5.95125 22.4957C5.97445 22.5245 6.05953 22.4511 6.3818 22.1232L6.78399 21.7166L6.96445 21.8897C7.50328 22.4065 8.17875 22.9102 8.88516 23.322C9.03211 23.4086 9.76945 23.7784 9.83391 23.7994C9.90352 23.8204 9.90094 23.8257 9.75914 24.1641C9.6818 24.3424 9.66633 24.4054 9.68953 24.4211C9.70758 24.4316 9.7282 24.4421 9.73594 24.4421C9.74367 24.4421 9.80039 24.311 9.86227 24.1536C9.92672 23.9935 9.97828 23.865 9.98086 23.865C9.98344 23.865 10.1123 23.9122 10.267 23.9726C11.0121 24.2585 11.8552 24.4605 12.6492 24.547C12.7988 24.5628 12.9766 24.5838 13.0488 24.5943L13.1777 24.6126L13.3479 25.898C13.4407 26.6036 13.5438 27.388 13.5773 27.6346L13.6366 28.0884H13.7166H13.7991L13.8403 27.7788C13.8635 27.611 13.9666 26.8266 14.0723 26.037L14.2605 24.6021L14.3895 24.589C14.4616 24.5811 14.6524 24.5628 14.8148 24.547C15.5883 24.471 16.6015 24.2191 17.3363 23.9201L17.4729 23.865L17.5245 23.9909C17.5554 24.0591 17.607 24.1877 17.643 24.2769C17.6869 24.3897 17.7178 24.4342 17.7436 24.4238C17.7926 24.4054 17.7926 24.4001 17.6766 24.1168C17.6198 23.9778 17.5734 23.8545 17.5734 23.8414C17.5734 23.8283 17.6353 23.7916 17.7101 23.7601C18.0478 23.6132 18.6408 23.2931 18.9656 23.0833C19.2415 22.9049 19.3163 22.8524 19.5973 22.6426C19.9814 22.3567 20.1877 22.1783 20.6491 21.7455L20.7213 21.6772L21.1132 22.076C21.4252 22.3934 21.5128 22.4695 21.5386 22.4432C21.5644 22.417 21.4896 22.3278 21.1802 22.013L20.7884 21.6143L20.8631 21.5225C20.9044 21.4753 21.041 21.3179 21.1673 21.1736C21.7345 20.5309 22.2141 19.7912 22.642 18.8966L22.8612 18.4376L23.1345 18.553C23.2866 18.616 23.418 18.6632 23.4309 18.6553C23.4902 18.616 23.4258 18.5687 23.168 18.4638L22.887 18.3484L22.954 18.1753C23.0984 17.7896 23.2273 17.3778 23.3227 16.9791C23.4619 16.402 23.516 16.0557 23.6011 15.2241L23.6191 15.0405L24.5988 14.9067C25.1377 14.8307 25.9188 14.7257 26.3339 14.668L27.0867 14.5657V14.4818C27.0867 14.4346 27.0764 14.3952 27.0661 14.3952C27.0532 14.3952 26.8366 14.3664 26.5814 14.3296C26.3288 14.2955 25.5605 14.188 24.8747 14.0935C24.1889 14.0017 23.6191 13.9178 23.6037 13.9099C23.5908 13.8994 23.5805 13.8391 23.5805 13.7709C23.5805 13.4535 23.4825 12.8239 23.3227 12.113C23.2608 11.8428 23.0571 11.1844 22.9385 10.8854C22.9076 10.8093 22.8844 10.7437 22.8844 10.7385C22.8844 10.7332 23.003 10.6781 23.1499 10.6178C23.4413 10.4971 23.4748 10.4735 23.4361 10.4342C23.4129 10.4106 23.2608 10.4656 22.8689 10.6335C22.8534 10.6414 22.8148 10.5837 22.7813 10.5076C22.6936 10.2978 22.4074 9.71803 22.2863 9.50555C21.9356 8.89172 21.4896 8.28313 20.9534 7.68504L20.7342 7.44108L21.1287 7.03973C21.4948 6.66723 21.5566 6.57804 21.4535 6.57804C21.4355 6.57804 21.2498 6.75642 21.0436 6.97677L20.6672 7.3755L20.5976 7.30992C19.9479 6.70133 19.4194 6.29474 18.7903 5.91437C18.5119 5.74386 17.8493 5.3976 17.643 5.30841L17.5451 5.26906L17.5889 5.16938C17.7488 4.78114 17.7823 4.68146 17.7488 4.66048C17.7023 4.63162 17.6998 4.63687 17.5734 4.9569L17.4626 5.23496L17.3311 5.1825C16.4777 4.84148 15.48 4.61064 14.4513 4.5162L14.2786 4.50308L14.2631 4.39291C14.2554 4.33257 14.1497 3.52725 14.0285 2.60388C13.9073 1.68051 13.8042 0.91453 13.8016 0.901415C13.7913 0.867311 13.6521 0.864689 13.6392 0.89879ZM12.9947 5.73075C12.9895 5.75698 12.9277 6.22653 12.8555 6.77478C12.7833 7.32304 12.7188 7.80308 12.7111 7.84243C12.6982 7.90277 12.6802 7.91588 12.577 7.929C12.3038 7.96835 11.8706 8.08901 11.4684 8.23591C11.3498 8.28051 11.2441 8.30412 11.2338 8.29362C11.2235 8.28051 11.1771 8.17558 11.1307 8.06016C11.0817 7.94474 10.9064 7.50928 10.7388 7.09482C10.5687 6.67773 10.432 6.32884 10.432 6.31572C10.432 6.26064 11.3782 5.96421 12.0176 5.81993C12.2058 5.77534 12.773 5.6914 12.8993 5.68878C12.987 5.68615 13.0024 5.69402 12.9947 5.73075ZM14.869 5.7255C15.4955 5.81469 16.1658 5.97733 16.6763 6.16882C17.0063 6.29211 17.0063 6.29211 17.0063 6.32097C17.0063 6.35245 16.2328 8.25952 16.2096 8.28838C16.2019 8.29887 16.0962 8.27264 15.9776 8.22804C15.6605 8.11525 15.3485 8.02606 15.0185 7.96048C14.7272 7.90014 14.7246 7.89752 14.7169 7.82145C14.7066 7.73488 14.4591 5.83567 14.4436 5.74386C14.4333 5.67304 14.4823 5.67041 14.869 5.7255ZM10.7543 7.37812L11.1488 8.34871L10.744 8.55857C10.2773 8.80515 10.1407 8.89172 9.7411 9.19339L9.44977 9.41374L9.3286 9.33766C9.26156 9.29569 8.92383 9.07534 8.57578 8.84712C8.22774 8.6189 7.86422 8.38019 7.76625 8.31723L7.59094 8.20181L7.78945 8.01294C8.41594 7.42534 9.14297 6.92431 9.94992 6.52296C10.2206 6.38917 10.3212 6.34982 10.3366 6.37606C10.3495 6.3918 10.5377 6.84299 10.7543 7.37812ZM17.4884 6.51509C18.2309 6.86922 18.9527 7.35714 19.6024 7.94998C19.7313 8.06803 19.8396 8.1782 19.8396 8.19394C19.8422 8.20968 19.8164 8.24641 19.7855 8.27526C19.721 8.3356 18.0762 9.43734 18.0504 9.43734C18.0427 9.43734 17.9241 9.35078 17.7848 9.24323C17.4059 8.94943 17.1094 8.76318 16.6814 8.54283L16.2921 8.34084L16.6866 7.3755C16.9057 6.84299 17.0888 6.3918 17.0939 6.37606C17.1094 6.33671 17.1223 6.33933 17.4884 6.51509ZM7.64766 8.49823C7.71727 8.60316 7.98797 9.02025 8.24836 9.42423L8.72274 10.1587L8.53195 10.3974C8.28961 10.7044 7.9725 11.2238 7.78688 11.612C7.70695 11.7799 7.63735 11.9189 7.63477 11.9241C7.63219 11.9268 7.50844 11.8796 7.36149 11.814C7.21453 11.751 6.78141 11.5674 6.39727 11.4048C6.0157 11.2447 5.69344 11.1031 5.68313 11.0952C5.65734 11.069 6.01313 10.3345 6.22195 9.98035C6.4282 9.63146 6.75305 9.15928 6.97992 8.88385C7.22742 8.5848 7.47492 8.30936 7.49813 8.30936C7.50844 8.30936 7.57547 8.39593 7.64766 8.49823ZM20.1722 8.53234C20.5331 8.91533 20.9147 9.43734 21.2344 9.9751C21.4458 10.3292 21.7835 11.0244 21.7706 11.069C21.7603 11.0978 19.8834 11.9032 19.8293 11.9005C19.8164 11.9005 19.7262 11.7379 19.6308 11.5385C19.458 11.1739 19.1538 10.6834 18.9115 10.3765C18.8419 10.2873 18.7877 10.2059 18.7903 10.1955C18.8084 10.1456 19.9608 8.33822 19.9737 8.3356C19.984 8.3356 20.0716 8.42479 20.1722 8.53234ZM12.5977 8.72121C12.5977 8.73957 12.3502 10.6152 12.3192 10.8145L12.3012 10.9457L12.0253 10.2637C11.8732 9.88854 11.6979 9.45571 11.636 9.30094L11.52 9.02288L11.703 8.95205C11.9093 8.87335 12.4816 8.70547 12.5538 8.70547C12.577 8.70284 12.5977 8.71071 12.5977 8.72121ZM15.2557 8.79203C15.5496 8.87598 15.663 8.9127 15.8513 8.98615L15.9183 9.01501L15.6373 9.70491C15.199 10.7778 15.1448 10.909 15.1345 10.9011C15.1268 10.8906 14.8406 8.77892 14.8406 8.72645C14.8406 8.68711 14.9205 8.70022 15.2557 8.79203ZM16.5164 9.30094C16.8335 9.47669 17.3672 9.84394 17.3672 9.88591C17.3672 9.90165 15.217 11.3523 15.1913 11.3523C15.1861 11.3523 15.1758 11.3024 15.1706 11.2395C15.1577 11.1267 15.2377 10.9142 15.8641 9.39537L16.0059 9.04911L16.1761 9.12781C16.2715 9.1724 16.4236 9.24847 16.5164 9.30094ZM11.8655 10.1141C12.2341 11.0191 12.3115 11.2474 12.247 11.2474C12.2419 11.2474 11.7701 10.9404 11.2003 10.5653C10.628 10.1902 10.151 9.87804 10.1355 9.8728C10.102 9.85706 10.1897 9.78361 10.4965 9.57637C10.7698 9.39013 11.3756 9.06223 11.4195 9.07796C11.4349 9.08321 11.636 9.55014 11.8655 10.1141ZM10.267 12.5511L10.5584 13.0023L10.414 13.0207C10.2773 13.0364 10.249 13.0285 9.8932 12.8816C8.69438 12.3806 8.34375 12.2284 8.34375 12.2022C8.34375 12.1025 8.75367 11.3602 8.99086 11.0349L9.14813 10.8198L9.5632 11.4598C9.79008 11.8114 10.1072 12.3019 10.267 12.5511ZM18.7516 11.4703C18.8857 11.6959 19.1306 12.1917 19.1152 12.2048C19.11 12.2101 18.6691 12.3963 18.1355 12.6219C17.295 12.9761 17.0063 13.0784 17.0063 13.0154C17.0063 13.0075 17.3105 12.5249 17.6791 11.9399L18.3546 10.8775L18.4913 11.069C18.566 11.1739 18.6846 11.3549 18.7516 11.4703ZM21.9098 11.3916C22.178 12.1235 22.3275 12.74 22.4203 13.4981C22.4384 13.6319 22.4461 13.7473 22.4409 13.7525C22.428 13.7656 20.2856 13.4666 20.2676 13.4482C20.2598 13.4377 20.2289 13.3197 20.2031 13.1859C20.1438 12.8974 20.033 12.4986 19.9298 12.2127C19.8886 12.1025 19.8628 12.0055 19.868 12.0002C19.8757 11.995 20.2418 11.8376 20.6801 11.654C21.1209 11.4703 21.5541 11.2867 21.6469 11.2474C21.7397 11.208 21.8222 11.1818 21.8299 11.1923C21.8377 11.2001 21.8738 11.2893 21.9098 11.3916ZM6.44109 11.5254C6.86906 11.7064 7.30735 11.89 7.41047 11.9346C7.51102 11.9766 7.5961 12.0186 7.5961 12.0265C7.5961 12.0343 7.55742 12.1471 7.50844 12.2809C7.42336 12.5117 7.29703 12.9865 7.23516 13.2987C7.21969 13.3827 7.20422 13.4509 7.20164 13.4535C7.17586 13.464 5.02828 13.7578 5.02055 13.7499C4.97672 13.7106 5.18297 12.5642 5.31445 12.113C5.43305 11.7012 5.61094 11.1949 5.63672 11.1949C5.64961 11.1949 6.01055 11.3444 6.44109 11.5254ZM19.2595 12.5642C19.3962 12.9577 19.4838 13.3302 19.4426 13.3407C19.4245 13.3459 18.9837 13.2882 18.4577 13.2148C17.9344 13.1439 17.4755 13.0836 17.4368 13.0836C17.3981 13.0836 17.3672 13.0757 17.3672 13.0626C17.3672 13.0469 19.0997 12.3045 19.1487 12.2993C19.159 12.2966 19.208 12.4173 19.2595 12.5642ZM9.20227 12.6901C9.66633 12.8842 10.0453 13.0495 10.0453 13.0574C10.0453 13.0731 8.0086 13.3538 7.99313 13.3381C7.96992 13.3171 8.20453 12.4986 8.27156 12.3675C8.28445 12.3412 8.31024 12.3229 8.32828 12.3281C8.34633 12.3334 8.74078 12.496 9.20227 12.6901ZM6.10852 15.3553C6.69117 15.434 7.17328 15.5022 7.17586 15.5075C7.18102 15.5127 7.20164 15.6098 7.21969 15.7252C7.2893 16.1239 7.44914 16.6958 7.5832 17.0263C7.59867 17.0604 7.58063 17.0814 7.50328 17.1129C7.05727 17.307 5.62125 17.9051 5.61867 17.8998C5.61352 17.8972 5.57484 17.7949 5.53102 17.6716C5.29641 17.0184 5.13914 16.3784 5.05922 15.7462C5.00766 15.3265 4.99992 15.2084 5.0257 15.2084C5.03859 15.2084 5.52586 15.274 6.10852 15.3553ZM22.4461 15.3317C22.4461 15.5022 22.3301 16.2367 22.2527 16.5725C22.1625 16.945 22.0284 17.4067 21.9279 17.669C21.8557 17.8657 21.8402 17.8867 21.7913 17.8736C21.7191 17.8552 19.9144 17.0945 19.8886 17.0735C19.8783 17.0656 19.9273 16.8873 19.9969 16.6774C20.0665 16.4676 20.1593 16.1213 20.2031 15.9062C20.247 15.6885 20.2856 15.5101 20.2908 15.5048C20.3011 15.4943 22.2785 15.2163 22.3765 15.211C22.4435 15.2084 22.4461 15.2137 22.4461 15.3317ZM9.16875 15.7724C10.4037 15.9403 10.3315 15.9272 10.2645 15.956C8.79492 16.5751 8.35664 16.7561 8.32313 16.7614C8.29735 16.7666 8.26641 16.722 8.22516 16.6197C8.1736 16.4807 8.00602 15.8773 7.96992 15.6885C7.95445 15.6045 7.95703 15.6019 8.02664 15.615C8.06531 15.6229 8.58094 15.6937 9.16875 15.7724ZM19.4941 15.6596C19.489 15.6937 19.4632 15.8013 19.4426 15.9036C19.3988 16.1029 19.2647 16.5515 19.208 16.6905L19.1745 16.7771L18.432 16.4623C18.0246 16.2918 17.5863 16.1082 17.4574 16.0557C17.2177 15.9586 17.148 15.9167 17.2125 15.9167C17.2331 15.9141 17.7436 15.8458 18.3469 15.7619C18.9502 15.6753 19.458 15.6071 19.4761 15.6045C19.4967 15.6019 19.5045 15.6229 19.4941 15.6596ZM17.6456 16.2341C18.0246 16.3941 18.517 16.6013 18.7388 16.6958L19.1435 16.8689L19.0662 17.0289C18.8599 17.4591 18.5686 17.9523 18.3804 18.191C18.334 18.2487 18.3314 18.2461 17.6044 17.1181C16.9109 16.0478 16.8567 15.9482 16.9495 15.9429C16.9547 15.9429 17.2666 16.0741 17.6456 16.2341ZM9.85711 17.1129L9.13266 18.2566L9.07336 18.1831C8.9161 17.9864 8.65055 17.5483 8.49328 17.2309L8.31797 16.8768L8.40305 16.84C8.44688 16.8217 8.87485 16.6407 9.34922 16.4413C9.8236 16.242 10.2645 16.0557 10.3289 16.0269C10.3934 15.9954 10.4759 15.9718 10.5145 15.9718C10.579 15.9691 10.5326 16.0452 9.85711 17.1129ZM20.7574 17.5483C21.1699 17.7214 21.5695 17.892 21.6469 17.9261C21.7552 17.9707 21.7861 17.9969 21.7809 18.0336C21.7758 18.0598 21.6804 18.2697 21.567 18.5032C21.2653 19.1275 20.9147 19.681 20.4841 20.2135C20.2547 20.4916 20.002 20.7696 19.9763 20.7696C19.9659 20.7696 19.8473 20.5965 19.7107 20.3814C19.5741 20.1689 19.3059 19.7544 19.1152 19.458L18.7671 18.9176L19.0043 18.5976C19.2776 18.2277 19.5225 17.8185 19.703 17.4276L19.8293 17.1548L19.9195 17.1942C19.9685 17.2152 20.3475 17.3752 20.7574 17.5483ZM7.78688 17.4827C8.0086 17.9418 8.18391 18.2303 8.45719 18.6028L8.70469 18.936L8.10656 19.8804L7.50844 20.8247L7.31508 20.6096C6.89485 20.1479 6.49008 19.5918 6.17039 19.0357C6.00281 18.7445 5.65992 18.0389 5.67024 18.0074C5.67539 17.9864 7.55742 17.1811 7.60899 17.1784C7.62445 17.1758 7.70438 17.3148 7.78688 17.4827ZM12.2883 17.871C12.2883 17.9549 12.2058 18.1674 11.6257 19.5892C11.5355 19.8121 11.4504 20.0063 11.4401 20.0168C11.4143 20.043 11.0869 19.8908 10.7723 19.7046C10.4681 19.5236 10.0891 19.2482 10.1098 19.2245C10.1381 19.1957 12.2496 17.7818 12.2702 17.7818C12.2805 17.7792 12.2883 17.8211 12.2883 17.871ZM16.2792 18.5163C16.8567 18.894 17.3388 19.2114 17.3491 19.2219C17.3749 19.2455 16.9779 19.5315 16.6634 19.7177C16.421 19.862 16.0317 20.0509 16.0188 20.0325C15.9853 19.9879 15.15 17.8841 15.15 17.8474C15.15 17.8159 15.1629 17.8054 15.1887 17.8159C15.2119 17.8238 15.7017 18.1385 16.2792 18.5163ZM15.5496 19.1249C15.7662 19.6574 15.9209 20.0745 15.908 20.085C15.8667 20.1243 15.3511 20.2922 15.0778 20.3604L14.8097 20.4234L14.8252 20.342C14.8329 20.2948 14.8973 19.8043 14.9695 19.2482C15.1139 18.1149 15.1191 18.0913 15.15 18.1464C15.1603 18.1674 15.3408 18.6081 15.5496 19.1249ZM12.4713 19.2823C12.5513 19.8908 12.6131 20.3945 12.608 20.3997C12.5899 20.4207 11.9815 20.2555 11.7443 20.1663L11.5226 20.085L11.9119 19.1301C12.1259 18.6028 12.3063 18.1726 12.3141 18.1726C12.3218 18.1726 12.3914 18.671 12.4713 19.2823ZM10.2129 20.2424C10.3521 20.3342 10.6202 20.4863 10.8059 20.5781C10.9889 20.6726 11.1384 20.7617 11.1333 20.7775C11.1178 20.8378 10.3495 22.7239 10.3315 22.7449C10.3057 22.7711 9.42141 22.3147 9.09656 22.1075C8.65055 21.8215 8.17102 21.4438 7.71469 21.0214L7.58836 20.9034L8.16586 20.5178C8.48297 20.3053 8.89805 20.0272 9.08883 19.9013L9.4343 19.6731L9.69469 19.8751C9.83906 19.9853 10.0711 20.1532 10.2129 20.2424ZM18.9166 20.2476C19.4039 20.5676 19.819 20.8431 19.837 20.8588C19.8628 20.885 19.8319 20.9296 19.6695 21.087C19.2827 21.4621 18.7671 21.8583 18.2309 22.1862C17.8725 22.4065 17.1558 22.7685 17.13 22.7423C17.1197 22.7318 16.9366 22.2937 16.7227 21.7664C16.5061 21.2392 16.3256 20.7959 16.3205 20.7801C16.3127 20.7644 16.4726 20.6699 16.6763 20.5676C17.0604 20.3735 17.5425 20.064 17.8467 19.8148C17.9447 19.7334 18.0272 19.6679 18.0272 19.6679C18.0298 19.6679 18.4294 19.9302 18.9166 20.2476ZM11.5613 20.9034C11.8603 21.0083 12.3708 21.1421 12.6028 21.1762C12.7163 21.1946 12.724 21.1998 12.7369 21.2916C12.8065 21.7455 13.0102 23.4007 12.9998 23.4138C12.9766 23.4374 12.4791 23.3718 12.0563 23.2879C11.471 23.1725 10.432 22.8498 10.432 22.7816C10.432 22.7685 10.6022 22.3435 10.8084 21.8373C11.0147 21.3284 11.1952 20.8877 11.208 20.8536C11.2209 20.8221 11.2364 20.7959 11.2441 20.7959C11.2519 20.7959 11.3937 20.8431 11.5613 20.9034ZM16.2509 20.8536C16.3463 21.0687 17.0372 22.7921 17.0295 22.8C17.014 22.8105 16.6737 22.9364 16.5035 22.9967C16.1142 23.1305 15.6244 23.2564 15.2145 23.3273C14.8845 23.3823 14.4565 23.4296 14.4384 23.4112C14.423 23.3981 14.6473 21.5933 14.704 21.2733C14.7143 21.2129 14.7323 21.1893 14.7684 21.1893C14.9257 21.1893 15.6914 20.99 15.9879 20.8719C16.2096 20.7827 16.2173 20.7827 16.2509 20.8536Z" fill="#FA790E"/>
</svg>
