<svg xmlns="http://www.w3.org/2000/svg" width="197.71" height="197.74" viewBox="0 0 197.71 197.74"><defs><style>.cls-1{fill:#ef3535;}</style></defs><g id="Capa_2" data-name="Capa 2"><g id="Capa_1-2" data-name="Capa 1"><path class="cls-1" d="M197.71,98.3a99.23,99.23,0,0,1-97.94,99.43C45.46,198.48.12,154.31,0,99.1-.12,44.46,43.29,1,97.83,0,151.94-.93,196.69,43,197.71,98.3Zm-98.94-22c-19.3,0-38.6.06-57.9,0-2.69,0-3.72.41-3.68,3.45.19,12.82.14,25.65,0,38.47,0,2.42.52,3.22,3.12,3.22q58.47-.14,116.94,0c2.67,0,3.09-.91,3.07-3.25-.09-12.7-.13-25.4,0-38.1,0-2.9-.59-3.84-3.7-3.82C137.37,76.41,118.07,76.33,98.77,76.33Z"/></g></g></svg>