<svg width="15" height="15" viewBox="0 0 15 15" fill="none" xmlns="http://www.w3.org/2000/svg">
<path fill-rule="evenodd" clip-rule="evenodd" d="M1.8 15C1.5 15 1.35 15 1.05 14.85C0.9 14.85 0.75 14.7 0.45 14.55C0.15 14.25 0 13.65 0 13.35C0 12.9 0.15 12.45 0.45 12.15L5.1 7.5L0.45 2.85C0.15 2.55 0 2.1 0 1.65C0 1.2 0.15 0.75 0.45 0.45C0.9 0.15 1.35 0 1.8 0C2.25 0 2.7 0.15 2.85 0.45L7.5 5.1L12.15 0.45C12.45 0.15 12.9 0 13.35 0C13.8 0 14.25 0.15 14.55 0.45C14.85 0.9 15 1.35 15 1.65C15 2.1 14.85 2.55 14.55 2.85L9.9 7.5L14.55 12.15C14.85 12.45 15 12.9 15 13.35C15 13.8 14.85 14.25 14.55 14.55C14.4 14.7 14.25 14.85 13.95 14.85C13.8 15 13.5 15 13.35 15C13.2 15 12.9 15 12.75 14.85C12.45 14.85 12.3 14.7 12.15 14.55L7.5 9.9L2.85 14.55C2.7 14.7 2.55 14.85 2.4 14.85C2.1 15 1.95 15 1.8 15Z" fill="white"/>
</svg>
