<svg width="17" height="22" viewBox="0 0 17 22" fill="none" xmlns="http://www.w3.org/2000/svg">
<path d="M16.5278 6.875C16.8347 6.875 17.059 6.45391 16.9852 6.01992L16.2769 1.89492C16.2238 1.58984 16.0349 1.375 15.8194 1.375H12.9005L13.6561 6.875H16.5278ZM8.02778 1.375H5.06163L4.30608 6.875H8.02778V1.375ZM11.9384 1.375H8.97222V6.875H12.6939L11.9384 1.375ZM0.472222 6.875H3.34392L4.09948 1.375H1.18056C0.965104 1.375 0.776215 1.58984 0.72309 1.89492L0.0147569 6.01992C-0.0590278 6.45391 0.165278 6.875 0.472222 6.875ZM16.5278 9.625H15.9375L16.0556 8.25H0.944444L1.0625 9.625H0.472222C0.2125 9.625 0 9.93437 0 10.3125V11.6875C0 12.0656 0.2125 12.375 0.472222 12.375H1.29861L1.88889 19.25V19.9375C1.88889 20.3156 2.10139 20.625 2.36111 20.625H3.30556C3.56528 20.625 3.77778 20.3156 3.77778 19.9375V19.25H13.2222V19.9375C13.2222 20.3156 13.4347 20.625 13.6944 20.625H14.6389C14.8986 20.625 15.1111 20.3156 15.1111 19.9375V19.25L15.7014 12.375H16.5278C16.7875 12.375 17 12.0656 17 11.6875V10.3125C17 9.93437 16.7875 9.625 16.5278 9.625Z" fill="#FA790E"/>
</svg>
