<?xml version="1.0" encoding="UTF-8"?>
<svg id="Capa_2" xmlns="http://www.w3.org/2000/svg" viewBox="0 0 25.04 33.54">
    <path
        d="M.25,10.29l7.69,2.56s.07,.04,.11,.07l.04,.07v20.21h0v.07c-.04,.07-.14,.14-.22,.11L.14,30.82c-.07,0-.14-.07-.14-.18V10.47H0v-.07c.04-.07,.14-.14,.25-.11H.25ZM21.33,2.17c1.41,1.33,2.27,3.21,2.27,5.23,0,.11-.04,.22-.04,.36v.22s.04,.07,.04,.11c0,3.93-7.29,12.92-7.54,13.24,0,.04-.04,.04-.04,.04-.07,.07-.18,.07-.25,0-.04-.04-7.51-9.24-7.54-13.28h0s0-.07,.04-.11c0-.07,0-.14-.04-.22v-.36c0-2.02,.87-3.9,2.27-5.23,1.37-1.34,3.28-2.17,5.41-2.17s4.04,.83,5.41,2.17h0Zm-3.43,4.08c-.5-.51-1.23-.8-1.98-.8s-1.48,.29-1.99,.8c-.5,.5-.83,1.15-.83,1.91s.32,1.44,.83,1.95c.51,.5,1.23,.79,1.99,.79s1.48-.29,1.98-.79c.51-.5,.79-1.19,.79-1.95s-.29-1.41-.79-1.91h0Zm-1.48,24.68l-7.43,2.45h-.07c-.11,0-.18-.07-.18-.18V14.9h0s.04-.11,.11-.14c.07-.04,.18,0,.25,.07,1.01,1.77,2.02,3.43,3.21,4.94,1.16,1.52,2.49,2.89,4.15,4.01,.07,.04,.11,.11,.11,.18v6.78h0c0,.07-.07,.14-.14,.18h0Zm8.41,2.6l-7.47-2.45c-.11,0-.14-.07-.14-.18v-8.19h0s0-.07,.04-.11l.14-.18h0c1.01-1.23,2.42-3.07,3.75-5.09,.97-1.44,1.95-2.99,2.67-4.51,.04-.07,.15-.11,.25-.07l.87,.29c.07,0,.11,.07,.11,.14v20.21h0v.03c-.03,.11-.14,.15-.22,.11h0Z" />
</svg>