<svg xmlns="http://www.w3.org/2000/svg" width="20" height="20.02" viewBox="0 0 20 20.02">
    <path
        d="M15.68,6.1,13.92,4.37,4.65,13.61a3.85,3.85,0,0,0-.56.65,1.14,1.14,0,0,0,.15,1.5A1.15,1.15,0,0,0,5.73,16a2.05,2.05,0,0,0,.49-.39C9.3,12.51,15.59,6.22,15.68,6.1Z" />
    <path
        d="M13.06,1.51,18.47,6.9a12.19,12.19,0,0,0,1.17-1.37,2.38,2.38,0,0,0-.35-2.94C18.77,2,18.21,1.48,17.65.94A2.61,2.61,0,0,0,13.72.85C13.48,1.08,13.06,1.51,13.06,1.51Z" />
    <path
        d="M17.47,7.86l-.85-.93-.6.61L7.31,16.25c-.17.17-.47.42-.52.62a.64.64,0,0,0,.15.66.73.73,0,0,0,.6.15c.15,0,.38-.27.51-.4L17.2,8.12Z" />
    <path
        d="M13.11,3.5l-.84-.92c-.25.24-.42.42-.6.6Q7.31,7.53,3,11.9c-.17.16-.47.41-.52.61a.66.66,0,0,0,.15.66.73.73,0,0,0,.6.15c.16,0,.38-.27.51-.39l9.15-9.16Z" />
    <path
        d="M5.93,18.55a1.41,1.41,0,0,0-1.4-1.25c-1-.12-1.62-.89-1.86-2.17A1.13,1.13,0,0,0,2,14.3l-.52-.24L0,20Z" />
</svg>