<svg width="36" height="36" viewBox="0 0 36 36" fill="none" xmlns="http://www.w3.org/2000/svg">
<path fill-rule="evenodd" clip-rule="evenodd" d="M16.4889 0.768023C16.0589 1.25785 15.2201 3.12017 14.0643 6.15205C12.6616 9.83035 12.2006 10.8127 11.8298 10.9124C11.5729 10.9815 10.2994 11.0476 9 11.0593C7.70062 11.071 5.4018 11.1518 3.8916 11.2384C1.42222 11.3804 1.08787 11.4506 0.57285 11.9343C0.159525 12.3225 0 12.7041 0 13.3037C0 14.0379 0.1683 14.2892 1.4427 15.4581C2.23627 16.1859 3.32483 17.1087 3.86145 17.5085C4.3983 17.9085 5.15227 18.516 5.5368 18.8585C5.92155 19.2012 6.57112 19.7346 6.9804 20.044C8.83485 21.4458 8.79097 20.6902 7.3476 26.3667C6.64267 29.1387 6.06802 31.6713 6.0705 31.9949C6.0768 32.8103 6.88185 33.769 7.56023 33.769C8.31443 33.769 10.2357 32.7687 14.3368 30.2403C16.2416 29.0661 17.9239 28.153 18.0756 28.2113C18.2272 28.2693 19.9292 29.2821 21.8581 30.4615C25.8658 32.9122 27.4786 33.769 28.0847 33.769C28.8403 33.769 29.7 32.7538 29.7 31.8617C29.7 31.4196 29.1377 28.8609 28.4508 26.1755L27.2014 21.2932L27.7195 20.9064C28.0044 20.6936 29.9081 19.1679 31.95 17.5159L35.6625 14.5122L35.7291 13.5019C35.7845 12.6609 35.6994 12.4014 35.2206 11.9517C34.6045 11.373 34.8226 11.3975 26.0962 10.9223L23.5049 10.7812L21.9521 6.69385C21.0982 4.44587 20.214 2.23075 19.9872 1.7713C19.0395 -0.147277 17.644 -0.547552 16.4889 0.768023Z" />
</svg>
