<svg width="16" height="13" viewBox="0 0 16 13" xmlns="http://www.w3.org/2000/svg">
	<path
		d="M13.9757 7.17579L8.62414 12.7016C8.54579 12.7839 8.452 12.8499 8.34813 12.896C8.24425 12.942 8.13233 12.9672 8.01874 12.97C7.90515 12.9727 7.79212 12.9531 7.68612 12.9122C7.58011 12.8713 7.4832 12.81 7.40091 12.7316C7.39075 12.7219 7.38059 12.7118 7.37091 12.7016L2.02414 7.17579C0.470912 5.56934 0.562847 2.90805 2.29994 1.42741C3.81446 0.135471 6.0693 0.367729 7.45801 1.79999L8.00478 2.36128L8.55156 1.79999C9.94027 0.367729 12.1951 0.135471 13.7096 1.42741C15.4419 2.90805 15.5338 5.56934 13.9757 7.17579Z" />
</svg>
