<svg width="315" height="317" viewBox="0 0 315 317" fill="none" xmlns="http://www.w3.org/2000/svg">
<g clip-path="url(#clip0_1705_4150)">
<path d="M78.426 199.658C70.542 189.606 59.283 182.218 48.51 175.612C38.61 169.565 17.01 147.364 15.75 150.531C9.08098 167.81 4.49998 174.829 4.49998 189.777C4.40998 211.285 -1.56602 231.939 0.449976 267.963C0.449976 276.674 13.689 283.757 30.06 283.784C46.431 283.811 59.76 276.782 59.76 268.08C58.734 247.076 65.664 240.461 72.36 232.029C78.462 224.271 79.389 200.891 78.426 199.658Z" fill="#FFC8B5"/>
<path d="M147.654 7.46954C147.51 0.270106 142.164 -2.91564 136.125 3.38386C127.935 11.9152 122.202 18.8986 119.619 22.0844V58.8285L119.673 58.7835C125.793 53.2129 130.338 44.6996 135.243 37.4822C144.306 29.0138 147.897 20.3115 147.654 7.46954Z" fill="#FFC8B5"/>
<path d="M33.426 207.317C33.426 207.317 27.783 220.24 26.892 222.975C26.001 225.711 26.676 233.199 28.692 237.995C30.708 242.792 41.292 240.398 46.107 233.568C50.922 226.737 33.426 207.317 33.426 207.317Z" fill="#FFA192"/>
<path d="M43.992 237.401C43.992 237.401 48.753 239.525 53.424 242.009C54.7045 242.739 56.1531 243.123 57.627 243.123C59.101 243.123 60.5495 242.739 61.83 242.009C61.83 242.009 52.533 236.223 50.238 235.962C47.943 235.701 43.992 237.401 43.992 237.401Z" fill="#FFA192"/>
<path d="M118.8 16.3069L112.833 12.8782C111.645 12.1492 110.133 12.1492 108.378 13.1391L39.744 52.736C36 54.8958 32.994 60.6824 32.994 65.596V232.83C32.994 235.53 33.894 237.329 35.325 238.229V238.274L41.238 241.658L108.342 198.309C112.032 196.185 115.056 190.416 115.056 185.494L118.8 16.3069Z" fill="#1F1942"/>
<path d="M45.486 241.181L114.129 201.584C117.819 199.46 120.834 193.692 120.834 188.769V21.5443C120.834 16.6217 117.819 14.3449 114.129 16.4687L45.486 56.0656C41.796 58.1984 38.781 63.967 38.781 68.8806V236.141C38.781 241.055 41.796 243.341 45.486 241.181Z" fill="#313166"/>
<path d="M46.449 236.555L111.717 198.947C115.092 197.004 117.846 191.748 117.846 187.248V24.2982C117.846 19.7986 116.631 18.4667 113.265 20.4195L47.7 58.0455C44.334 59.9894 41.571 65.245 41.571 69.7446V232.587C41.607 237.077 43.083 238.481 46.449 236.555Z" fill="#49498D"/>
<path d="M43.992 226.701L115.623 185.304V30.9756L43.992 72.3813V226.701Z" fill="#FA790E"/>
<path d="M49.968 210.916L111.024 175.621V63.1121L49.968 98.4073V210.916Z" fill="white"/>
<path d="M79.047 46.0405C79.047 47.5074 79.947 48.1824 81.036 47.5434C81.6443 47.1101 82.1421 46.5397 82.4892 45.8784C82.8363 45.2171 83.0229 44.4835 83.034 43.7367C83.034 42.2698 82.134 41.5949 81.036 42.2338C80.4299 42.6686 79.9342 43.2395 79.5887 43.9006C79.2433 44.5618 79.0578 45.2947 79.047 46.0405V46.0405Z" fill="white"/>
<path d="M87.3 41.028C87.3 42.1799 87.993 42.7018 88.857 42.2069C89.3329 41.8675 89.7225 41.4212 89.9945 40.9039C90.2665 40.3865 90.4133 39.8125 90.423 39.2281C90.423 38.0762 89.721 37.5453 88.857 38.0402C88.382 38.3819 87.9938 38.8302 87.7234 39.3491C87.453 39.8679 87.308 40.4429 87.3 41.028V41.028Z" fill="white"/>
<path d="M80.55 214.858C80.2263 214.84 79.9097 214.757 79.6192 214.613C79.3287 214.47 79.0704 214.268 78.8601 214.022C78.6497 213.775 78.4916 213.488 78.3953 213.179C78.299 212.87 78.2666 212.544 78.3 212.221V211.429C78.3103 210.668 78.5057 209.92 78.8695 209.25C79.2332 208.581 79.7544 208.01 80.388 207.587L87.588 203.429C87.9669 203.196 88.4029 203.071 88.848 203.069C89.1748 203.083 89.4952 203.164 89.7895 203.307C90.0838 203.45 90.3457 203.651 90.5591 203.899C90.7725 204.147 90.9328 204.436 91.0301 204.748C91.1274 205.061 91.1597 205.39 91.125 205.715V206.507C91.1157 207.268 90.9216 208.015 90.5594 208.685C90.1973 209.354 89.6779 209.925 89.046 210.35L81.846 214.507C81.4531 214.738 81.0056 214.859 80.55 214.858V214.858Z" fill="#313166"/>
<path d="M81.081 213.283L88.281 209.126C88.6904 208.831 89.0255 208.445 89.2598 207.998C89.4942 207.551 89.6212 207.056 89.631 206.552V205.76C89.631 204.77 89.019 204.311 88.281 204.734L81.081 208.892C80.6703 209.187 80.3345 209.575 80.1001 210.023C79.8657 210.472 79.7393 210.969 79.731 211.474V212.266C79.731 213.211 80.334 213.67 81.081 213.283Z" fill="white"/>
<path d="M54.5644 76.7761L56.7733 85.0164L55.2347 85.8666L53.0258 77.6263L54.5644 76.7761ZM58.4825 78.6527L58.8375 79.977L55.4425 81.853L55.0875 80.5287L58.4825 78.6527ZM57.8979 74.934L58.2544 76.264L54.5003 78.3385L54.1438 77.0085L57.8979 74.934ZM61.2604 74.6939L61.0607 82.6472L59.4247 83.5513L59.9903 73.7778L61.0314 73.2025L61.2604 74.6939ZM64.7788 80.5926L60.9117 74.8866L60.3698 73.5681L61.4211 72.9871L66.4199 79.6858L64.7788 80.5926ZM63.8642 77.5762L64.2207 78.9062L60.277 81.0855L59.9204 79.7555L63.8642 77.5762ZM68.923 76.3273L68.9343 68.8354L70.6472 67.8889L70.256 77.566L69.1277 78.1895L68.923 76.3273ZM65.5547 70.703L69.0563 76.2536L69.7842 77.8267L68.6457 78.4559L63.852 71.6438L65.5547 70.703ZM78.4594 68.0815L78.5641 68.472C78.732 69.0983 78.8058 69.703 78.7854 70.2861C78.7651 70.8692 78.6617 71.4136 78.4754 71.9194C78.2881 72.4214 78.0244 72.8726 77.6842 73.2728C77.3474 73.6712 76.9431 74.0008 76.4713 74.2615C76.0029 74.5203 75.549 74.665 75.1097 74.6955C74.6738 74.7241 74.2674 74.6432 73.8906 74.4529C73.5128 74.2588 73.1785 73.9562 72.8877 73.5451C72.6003 73.1321 72.3727 72.6124 72.2048 71.9861L72.1001 71.5956C71.9312 70.9655 71.8574 70.3608 71.8788 69.7815C71.8991 69.1984 72.0025 68.654 72.1888 68.1482C72.3785 67.6405 72.6417 67.1874 72.9785 66.7891C73.3187 66.3888 73.723 66.0593 74.1914 65.8004C74.6632 65.5397 75.1171 65.3951 75.553 65.3664C75.9923 65.336 76.3992 65.4187 76.7736 65.6147C77.1514 65.8087 77.484 66.1123 77.7714 66.5253C78.0612 66.9327 78.2905 67.4514 78.4594 68.0815ZM77.0102 69.3307L76.9025 68.9289C76.7851 68.4912 76.6461 68.1262 76.4853 67.8338C76.3245 67.5415 76.1436 67.3208 75.9428 67.1719C75.7419 67.023 75.5254 66.9477 75.2934 66.9459C75.0603 66.9405 74.8138 67.0095 74.554 67.1531C74.2942 67.2967 74.0791 67.4827 73.9087 67.7111C73.7407 67.9339 73.617 68.1972 73.5375 68.501C73.4614 68.803 73.432 69.1398 73.4492 69.5115C73.4664 69.8832 73.5337 70.2879 73.651 70.7256L73.7587 71.1274C73.875 71.5613 74.0141 71.9263 74.1759 72.2224C74.3367 72.5148 74.5181 72.7373 74.7199 72.89C74.9208 73.0389 75.1378 73.1161 75.3708 73.1216C75.6039 73.1271 75.8504 73.0581 76.1102 72.9145C76.37 72.7709 76.5852 72.5849 76.7555 72.3565C76.9259 72.128 77.0491 71.8629 77.1252 71.5609C77.2002 71.2552 77.2292 70.9165 77.212 70.5448C77.1937 70.1693 77.1265 69.7646 77.0102 69.3307ZM78.5143 63.5416L81.299 62.0028C81.87 61.6873 82.3859 61.5105 82.8468 61.4725C83.311 61.4325 83.7038 61.536 84.0252 61.783C84.3465 62.0299 84.5795 62.4232 84.7242 62.9627C84.8425 63.4042 84.8758 63.8211 84.824 64.2136C84.7746 64.6005 84.6551 64.9676 84.4656 65.3149C84.2785 65.6565 84.0375 65.9803 83.7426 66.2862L83.3313 66.8384L80.9107 68.176L80.5454 66.8573L82.3455 65.8626C82.6156 65.7134 82.8254 65.5368 82.9748 65.3329C83.1243 65.129 83.2182 64.9082 83.2565 64.6704C83.2983 64.4308 83.2858 64.1864 83.219 63.9374C83.1482 63.6733 83.0426 63.4696 82.9021 63.3263C82.7616 63.183 82.5871 63.1105 82.3786 63.1087C82.1701 63.107 81.9291 63.1817 81.6556 63.3328L80.4093 64.0215L82.2617 70.9318L80.7232 71.782L78.5143 63.5416ZM84.8978 69.4751L82.2105 66.743L83.8332 65.8333L86.5228 68.4862L86.544 68.5655L84.8978 69.4751ZM86.8788 58.9195L89.0877 67.1598L87.5543 68.0072L85.3454 59.7669L86.8788 58.9195ZM91.5047 56.3633L93.7136 64.6036L92.1802 65.451L89.9713 57.2106L91.5047 56.3633ZM93.8022 55.0937L94.1588 56.4237L88.0661 59.7904L87.7096 58.4604L93.8022 55.0937ZM101.722 55.2268L101.827 55.6173C101.995 56.2436 102.068 56.8483 102.048 57.4314C102.028 58.0145 101.924 58.5589 101.738 59.0647C101.551 59.5667 101.287 60.0179 100.947 60.4182C100.61 60.8165 100.206 61.1461 99.734 61.4068C99.2656 61.6656 98.8117 61.8103 98.3724 61.8408C97.9365 61.8694 97.5301 61.7885 97.1533 61.5982C96.7755 61.4042 96.4412 61.1015 96.1504 60.6904C95.863 60.2774 95.6354 59.7577 95.4675 59.1314L95.3628 58.7409C95.1939 58.1108 95.1201 57.5061 95.1415 56.9268C95.1619 56.3437 95.2652 55.7993 95.4515 55.2935C95.6412 54.7858 95.9044 54.3328 96.2412 53.9344C96.5814 53.5341 96.9857 53.2046 97.4541 52.9458C97.9259 52.685 98.3798 52.5404 98.8157 52.5118C99.255 52.4813 99.6619 52.564 100.036 52.76C100.414 52.954 100.747 53.2576 101.034 53.6706C101.324 54.078 101.553 54.5967 101.722 55.2268ZM100.273 56.476L100.165 56.0742C100.048 55.6365 99.9088 55.2715 99.748 54.9791C99.5872 54.6868 99.4063 54.4661 99.2055 54.3172C99.0046 54.1683 98.7881 54.093 98.5561 54.0913C98.323 54.0858 98.0766 54.1548 97.8167 54.2984C97.5569 54.442 97.3418 54.628 97.1714 54.8564C97.0034 55.0792 96.8797 55.3425 96.8002 55.6463C96.7242 55.9483 96.6947 56.2851 96.7119 56.6568C96.7291 57.0285 96.7964 57.4332 96.9137 57.8709L97.0214 58.2727C97.1377 58.7066 97.2768 59.0716 97.4386 59.3677C97.5994 59.6601 97.7808 59.8826 97.9826 60.0353C98.1835 60.1842 98.4005 60.2615 98.6335 60.2669C98.8666 60.2724 99.1131 60.2034 99.3729 60.0598C99.6328 59.9162 99.8479 59.7302 100.018 59.5018C100.189 59.2734 100.312 59.0082 100.388 58.7062C100.463 58.4005 100.492 58.0618 100.475 57.6901C100.456 57.3146 100.389 56.9099 100.273 56.476Z" fill="white"/>
<path d="M106.281 118.692C106.587 111.951 100.71 108.208 93.177 110.358C90.4346 111.195 87.8901 112.579 85.6967 114.426C83.5034 116.272 81.7067 118.544 80.415 121.104C78.462 117.504 73.827 115.893 68.31 117.504C60.777 119.655 54.405 126.899 54.099 133.64C54.0266 134.948 54.2289 136.257 54.693 137.482C55.1832 138.734 55.9969 139.834 57.051 140.668C57.5078 141.018 57.9994 141.319 58.518 141.568L78.507 154.167C78.5793 154.199 78.6575 154.216 78.7365 154.216C78.8155 154.216 78.8937 154.199 78.966 154.167C79.1471 154.11 79.309 154.004 79.434 153.861L101.934 128.465C103.361 126.869 104.508 125.043 105.327 123.065C105.886 121.671 106.209 120.193 106.281 118.692V118.692Z" fill="#FA4A0C"/>
<path d="M38.781 161.168C41.544 151.764 39.96 134.224 37.269 127.826C40.176 119.862 42.669 108.927 41.031 100.909C39.843 95.0145 36.369 86.7892 29.52 84.2604C28.0695 83.7274 26.4756 83.7341 25.0296 84.2794C23.5837 84.8247 22.3823 85.8721 21.645 87.2301C19.845 90.6769 20.871 95.0775 20.475 98.7942C19.917 103.96 17.622 108.756 15.786 113.544C12.78 121.355 13.986 126.899 14.553 134.674C15.453 146.949 6.64198 170.897 5.08498 183.118C3.28498 196.94 5.43598 199.019 5.08498 212.959C4.85098 222.471 14.193 225.756 20.7 220.483C24.228 217.576 29.547 216.991 33.453 207.362C37.521 197.201 39.6 170.222 38.781 161.168Z" fill="#FFC8B5"/>
<path d="M21.645 87.2301C22.752 84.6023 28.629 86.0062 30.861 89.462C33.507 93.5656 33.426 101.926 33.426 101.926L20.403 99.3342C20.403 99.3342 19.98 91.1808 21.645 87.2301Z" fill="#FFD7CB"/>
<path d="M135.243 133.451C134.658 127.835 132.057 123.065 129.573 117.99C128.313 115.416 127.206 111.933 124.353 113.418C124.092 113.553 120.852 115.695 120.627 117.756C120.294 120.771 120.627 124.352 120.627 127.763C117.792 131.858 113.373 135.286 110.862 139.75C109.819 141.534 109.214 143.54 109.095 145.603C108.976 147.666 109.347 149.728 110.178 151.62C111.456 154.32 113.526 156.12 117.234 153.87C121.923 151.035 125.856 146.833 129.573 142.864C132.795 139.417 135.774 138.436 135.243 133.451Z" fill="#FFC8B5"/>
<path d="M120.6 120.132V127.79L122.4 125.279L122.22 118.44C121.719 119.04 121.178 119.605 120.6 120.132V120.132Z" fill="#FFA192"/>
<path d="M120.411 137.689C117.862 139.301 115.669 141.418 113.967 143.908C111.852 147.282 113.544 147.966 114.606 150.9C114.989 152.148 115.29 153.42 115.506 154.707C118.882 153.161 121.915 150.954 124.425 148.218C126.288 146.095 123.561 140.074 120.411 137.689Z" fill="#FFD7CB"/>
<path d="M136.8 106.048C136.152 99.9462 133.326 94.7536 130.617 89.228C129.249 86.4202 128.043 82.6405 124.938 84.2514C124.659 84.4044 121.14 86.7262 120.888 88.976C120.519 92.2608 120.888 96.1755 120.888 99.8562C117.801 104.356 112.995 108.046 110.268 112.905C109.13 114.845 108.47 117.027 108.34 119.272C108.21 121.517 108.615 123.761 109.521 125.819C110.916 128.78 113.121 130.706 117.198 128.267C122.292 125.18 126.576 120.618 130.617 116.298C134.1 112.545 137.376 111.474 136.8 106.048Z" fill="#FFC8B5"/>
<path d="M120.897 91.5589V99.8922L122.841 97.1924L122.652 89.75C122.107 90.3908 121.521 90.995 120.897 91.5589Z" fill="#FFA192"/>
<path d="M120.663 110.691C117.89 112.444 115.505 114.743 113.652 117.45C111.348 121.122 113.184 121.869 114.345 125.063C114.764 126.42 115.092 127.803 115.326 129.203C118.998 127.522 122.297 125.123 125.028 122.147C127.053 119.808 124.092 113.265 120.663 110.691Z" fill="#FFD7CB"/>
<path d="M137.313 73.2543C136.647 66.9548 133.713 61.5552 130.914 55.8317C129.492 52.9339 128.214 49.0102 125.037 50.6841C124.74 50.8371 121.095 53.2489 120.834 55.5707C120.456 58.9725 120.834 63.0041 120.834 66.8468C117.639 71.4545 112.662 75.3242 109.836 80.3458C108.659 82.3567 107.975 84.6177 107.841 86.9437C107.706 89.2698 108.125 91.5946 109.062 93.7277C110.502 96.7875 112.833 98.7763 117.009 96.2565C122.292 93.0618 126.729 88.3281 130.914 83.8555C134.55 79.9858 137.898 78.8789 137.313 73.2543Z" fill="#FFC8B5"/>
<path d="M120.834 58.2434V66.8468L122.85 64.021L122.652 56.3086C122.093 56.9963 121.486 57.6429 120.834 58.2434V58.2434Z" fill="#FFA192"/>
<path d="M120.6 78.0239C117.73 79.8384 115.261 82.2211 113.346 85.0254C110.952 88.8321 112.86 89.606 114.057 92.9088C114.492 94.3158 114.835 95.7498 115.083 97.2014C118.875 95.4566 122.281 92.9722 125.1 89.894C127.215 87.5092 124.146 80.7237 120.6 78.0239Z" fill="#FFD7CB"/>
<path d="M161.874 178.438L132.84 192.9C132.84 192.9 136.8 202.538 146.403 204.284C156.006 206.03 170.181 203.978 170.181 203.978L153.9 219.826C153.9 219.826 157.32 227.232 167.562 227.52C173.91 227.643 180.221 226.521 186.138 224.217L222.921 231.417L161.874 178.438Z" fill="#FFA192"/>
<path d="M311.013 262.005C302.238 251.341 287.1 240.542 281.106 228.087C273.681 212.644 269.847 199.973 260.451 192.027C251.244 184.233 236.988 173.056 226.152 167.792C217.467 159.692 204.129 159.692 199.08 166.325C188.982 162.626 181.575 161.114 174.861 164.318C170.962 162.537 166.969 160.969 162.9 159.62C147.654 155.121 116.1 138.724 106.047 133.081C101.079 130.301 97.857 129.203 95.247 131.444C93.3185 132.989 92.0794 135.234 91.8 137.689C91.035 142.297 93.141 147.246 99.468 152.808C102.654 155.607 112.302 160.907 116.73 162.707C122.238 170.24 141.615 185.727 148.707 185.547C157.014 194.754 173.637 210.052 185.337 210.151C189.836 217.646 194.827 224.834 200.277 231.669C192.56 232.274 184.828 230.716 177.948 227.169C168.462 222.174 159.588 212.77 158.391 211.429C155.772 206.489 144.36 199.199 140.04 197.93C130.977 195.321 128.745 199.541 124.173 204.374C123.138 205.472 121.707 208.127 123.174 209.431C129.771 215.308 133.308 216.631 139.374 223.641C141.768 227.133 144.288 231.993 146.988 236.807C149.688 241.622 155.727 247.264 171.738 261.681C193.203 281.003 206.046 288.931 240.012 289.957C243.612 296.464 262.017 308.694 267.786 313.139C272.025 316.451 306.261 278.384 311.013 262.005Z" fill="#FFC8B5"/>
<path d="M124.344 210.116C124.344 210.116 129.465 200.873 135.648 202.331C139.361 203.232 142.567 205.564 144.567 208.82L135.9 220.033L124.344 210.116Z" fill="#FFD7CB"/>
<path d="M265.293 294.745C261.351 310.395 269.055 319.943 282.492 316.163C295.929 312.383 310.023 296.572 313.992 280.931C317.961 265.29 310.239 255.733 296.802 259.513C283.365 263.292 269.235 279.104 265.293 294.745Z" fill="#FFA192"/>
<path d="M242.937 275.468C242.937 275.468 245.025 265.173 251.622 258.676C258.219 252.178 263.934 253.357 263.934 253.357C263.934 253.357 251.622 264.372 242.937 275.468Z" fill="#FFA192"/>
<path d="M101.916 130.832C96.66 128.771 92.916 135.331 96.84 139.966C99.1624 142.725 102.161 144.833 105.543 146.085L115.146 137.689C115.146 137.689 104.274 131.75 101.916 130.832Z" fill="#FFD7CB"/>
</g>
<defs>
<clipPath id="clip0_1705_4150">
<rect width="315" height="317" fill="white"/>
</clipPath>
</defs>
</svg>
