<svg id="Capa_1" data-name="Capa 1" xmlns="http://www.w3.org/2000/svg" viewBox="0 0 33 33"><defs><style>.cls-1{fill:#3751d4;}.cls-2{fill:#fff;fill-rule:evenodd;}</style></defs><rect class="cls-1" width="33" height="33" rx="7.95"/><path class="cls-2" d="M17.43,7.36a10.21,10.21,0,0,1,5.28,1.51,3.62,3.62,0,0,1,1-1.75,3.56,3.56,0,0,1,2.46-1,3.64,3.64,0,0,1,2.53,1,3.76,3.76,0,0,1,1.07,2.6,3.64,3.64,0,0,1-1.07,2.53v0a3.6,3.6,0,0,1-2,1,10.39,10.39,0,0,1-2,11.78c-.26.26-.54.51-.82.74l1.5,1.87a.37.37,0,0,1-.07.53c-.15.14-.45.14-.53,0l-1.57-1.91a10,10,0,0,1-5.79,1.83,10.18,10.18,0,0,1-5.27-1.42l-1.42,1.82a.57.57,0,0,1-.6.07c-.16-.17-.25-.47-.08-.62l1.4-1.72A12.22,12.22,0,0,1,10.06,25a10.33,10.33,0,0,1-3-7.29,10.56,10.56,0,0,1,1-4.49,3.44,3.44,0,0,1-2-1A3.58,3.58,0,0,1,5,9.72,3.43,3.43,0,0,1,6.06,7.19,3.39,3.39,0,0,1,8.59,6.14a3.51,3.51,0,0,1,2.45,1A3.45,3.45,0,0,1,12.1,8.85a10.17,10.17,0,0,1,5.33-1.51Zm6.51,2.38h0a9.62,9.62,0,0,1,.77.68c0,.06.1.09.13.15s.12.1.18.15l.24.31a8.67,8.67,0,0,1,1,1.39,3,3,0,0,0,1.91-.77,3,3,0,0,0,.78-1.93,3,3,0,0,0-.78-2,3,3,0,0,0-2-.77,2.61,2.61,0,0,0-1.92.77,3,3,0,0,0-.78,1.6l.47.4ZM8.51,12.42h0a9,9,0,0,1,1-1.41c.09-.1.15-.19.23-.29l.23-.21.09-.09.12-.11a6.25,6.25,0,0,1,1-.85l.18-.12a2.57,2.57,0,0,0-.85-1.6A2.49,2.49,0,0,0,8.59,7a3,3,0,0,0-2,.77,3,3,0,0,0-.77,2,3,3,0,0,0,.77,1.93,3,3,0,0,0,1.91.77Zm16.81,0h0c-.29-.38-.61-.76-.92-1.11a9.18,9.18,0,0,0-1-1l0,0-.27-.21a1.54,1.54,0,0,0-.28-.19l-.1-.07a9.31,9.31,0,0,0-5.26-1.63A9.7,9.7,0,0,0,12.1,9.78a.69.69,0,0,1-.13.11,1.26,1.26,0,0,0-.28.19c-.1.08-.22.15-.31.23a8.32,8.32,0,0,0-1,1c-.26.3-.52.6-.75.9a9.63,9.63,0,0,0,1.05,12.2,9.48,9.48,0,0,0,16.19-6.74,9.69,9.69,0,0,0-1.53-5.25ZM17,14.18h0a.43.43,0,0,1,.48-.38.35.35,0,0,1,.37.38v3.91c0,.22-.15.47-.37.47H13.67a.44.44,0,0,1-.4-.47.36.36,0,0,1,.4-.38H17Zm.48-3.84h0a7.64,7.64,0,0,1,5.2,2.16,7.45,7.45,0,0,1,2.16,5.21,7.3,7.3,0,0,1-2.16,5.21,7.58,7.58,0,0,1-5.2,2.15,7.34,7.34,0,0,1-5.23-2.15h-.08A7.66,7.66,0,0,1,10,17.71,7.21,7.21,0,0,1,12.2,12.5a7.43,7.43,0,0,1,5.23-2.16ZM22,13.1h0a6.29,6.29,0,0,0-4.58-1.9,6.52,6.52,0,0,0-6.61,6.51,6.65,6.65,0,0,0,1.92,4.61,6.48,6.48,0,0,0,4.69,1.91A6.26,6.26,0,0,0,22,22.32a6.47,6.47,0,0,0,0-9.22Z" transform="translate(-1 -1)"/></svg>