<?xml version="1.0" encoding="UTF-8"?>
<svg id="Capa_2" xmlns="http://www.w3.org/2000/svg" viewBox="0 0 27.36 34.3">
    
   
            <path 
                d="M13.68,0C6.12,0,0,6.12,0,13.68c0,5.51,7.29,14.85,11.23,19.49,1.28,1.51,3.62,1.51,4.91,0,3.94-4.64,11.23-13.97,11.23-19.49C27.36,6.12,21.23,0,13.68,0Zm0,20.59c-4.17,0-7.57-3.4-7.57-7.57s3.4-7.57,7.57-7.57,7.57,3.4,7.57,7.57-3.4,7.57-7.57,7.57Z" />
            <path 
                d="M13.68,9.75c-1.8,0-3.27,1.47-3.27,3.27s1.47,3.27,3.27,3.27,3.27-1.47,3.27-3.27-1.47-3.27-3.27-3.27Z" />
       
</svg>