<svg width="320" height="260" viewBox="0 0 320 260" fill="none" xmlns="http://www.w3.org/2000/svg">
<path fill-rule="evenodd" clip-rule="evenodd" d="M109.763 14.6943C99.9658 15.9062 92.8509 17.9465 85.2214 21.7313C75.5528 26.5281 66.8976 33.8227 60.2934 42.7414C53.0257 52.5555 48.9207 62.8167 47.0346 75.8847C46.4995 79.592 46.4995 178.91 47.0346 182.618C49.0405 196.515 53.976 208.033 62.3693 218.407C63.6292 219.964 64.7705 221.238 64.9061 221.238C65.0415 221.238 66.8723 219.911 68.9744 218.289C71.0765 216.666 74.4641 214.059 76.502 212.493L80.2078 209.647L82.6167 209.986C83.942 210.172 85.9454 210.419 87.0691 210.534L89.1126 210.744L90.5821 208.899C91.3903 207.884 93.6317 205.095 95.5628 202.7C97.494 200.306 99.6319 197.632 100.314 196.759L101.555 195.171L100.881 193.95C99.7806 191.956 98.9741 188.526 99.1333 186.521C99.3904 183.286 101.164 180.37 104.343 177.956L106.15 176.584L164.101 176.588C220.326 176.591 222.087 176.607 223.209 177.122C225.886 178.35 226.255 179.857 224.346 181.767L223.164 182.949L217.189 184.126C189.708 189.537 185.172 190.454 180.361 191.574C173.593 193.149 164.643 193.987 155.902 193.864L150.621 193.79L149.231 194.699C145.649 197.042 140.181 199.238 134.13 200.762L131.536 201.416L126.086 207.325L120.636 213.233L122.843 213.314C124.057 213.358 128.61 213.484 132.96 213.594L140.871 213.795L139.075 215.221C138.087 216.005 133.152 219.914 128.107 223.908C113.307 235.625 107.427 240.298 105.499 241.876C104.151 242.979 104.155 242.985 106.845 243.468C109.447 243.937 205.765 244.158 211.213 243.708C242.781 241.102 268.724 217.077 273.994 185.567C275.003 179.534 275.041 177.163 274.935 127.004C274.843 83.8543 274.776 77.5079 274.389 75.0421C271.815 58.6314 264.805 44.905 253.333 33.8104C243.223 24.0339 231.17 17.9732 216.494 15.2863L213.158 14.6757L161.878 14.6333C133.673 14.61 110.222 14.6375 109.763 14.6943ZM149.861 31.0429C151.873 31.6757 154.311 33.2703 155.662 34.8361C158.308 37.905 159.23 42.4594 158.019 46.4869C157.691 47.5781 157.3 48.5479 157.149 48.642C156.998 48.7364 156.875 48.9507 156.875 49.1184C156.875 49.3251 157.516 49.3692 158.866 49.2546C161.612 49.0221 169.37 49.5203 173.516 50.1956C202.572 54.9272 226.056 73.624 236.65 100.461C238.894 106.143 240.953 114.129 241.169 117.987L241.231 119.081L235.811 119.989C230.81 120.826 215.983 123.256 210.101 124.202C208.725 124.424 201.846 125.554 194.814 126.713C187.782 127.873 180.403 129.081 178.415 129.398C176.428 129.715 172.551 130.346 169.799 130.8C160.219 132.382 147.806 134.421 142.421 135.296C134.52 136.582 120.942 138.807 114.071 139.942C110.784 140.485 106.219 141.233 103.926 141.604C101.633 141.975 95.7277 142.943 90.803 143.756C85.8781 144.569 81.7782 145.162 81.6917 145.075C81.3629 144.743 80.4138 137.216 80.1925 133.183C79.0452 112.277 86.0802 92.2977 100.221 76.3007C104.531 71.4261 110.244 66.5206 116.412 62.3988C120.472 59.6858 128.962 55.5266 133.527 54.0138C135.744 53.2793 137.724 52.6229 137.927 52.5552C138.174 52.4726 138.023 52.2002 137.464 51.7252C135.651 50.1832 134.103 47.0464 133.687 44.0691C133.45 42.3796 133.976 39.354 134.808 37.6154C136.221 34.6631 139.655 31.7302 142.656 30.9134C144.616 30.38 147.943 30.4399 149.861 31.0429ZM262.923 151.428C263.539 152.05 263.605 152.346 263.605 154.479V156.84L261.729 158.233C260.697 158.999 257.933 161.038 255.587 162.765L251.32 165.905H160.771H70.2221L67.0716 163.588C65.3389 162.314 62.6036 160.31 60.9932 159.136L58.0654 157L57.9845 154.532C57.9117 152.307 57.9645 151.997 58.5192 151.4L59.1352 150.738H160.688H262.241L262.923 151.428Z" fill="#FA790E"/>
</svg>
