<svg width="40" height="33" viewBox="0 0 40 33" fill="none" xmlns="http://www.w3.org/2000/svg">
    <g clip-path="url(#clip0_297_3247)">
        <path
            d="M36.4273 18.2499C37.1125 17.3046 37.5 16.2963 37.5 15.0773C37.5 12.2754 34.5923 9.62946 30.7953 9.62946H27.9453C28.3297 8.81401 28.6367 7.83877 28.6367 6.66684C28.6367 2.03296 25.6922 0 21.1937 0C16.3807 0 16.6552 6.04319 15.5875 6.91319C13.8104 8.36121 11.7113 11.143 10.2156 12.2222H2.5C1.1193 12.2222 0 13.1342 0 14.2593V29.537C0 30.6621 1.1193 31.5741 2.5 31.5741H7.5C8.66352 31.5741 9.64125 30.9264 9.92016 30.0495C13.3974 30.1132 15.7842 32.592 23.8109 32.592C24.375 32.592 25 32.5926 25.5469 32.5926C31.5716 32.5926 34.2958 30.083 34.3703 26.5241C35.4109 25.3512 35.9562 23.7791 35.725 22.2597C36.4948 21.0851 36.7925 19.6916 36.4273 18.2499ZM31.6031 21.6766C32.5844 23.0217 31.7016 24.8219 30.5141 25.3414C31.1156 28.4466 29.1384 29.5364 26.3641 29.5364H23.4094C17.8126 29.5364 14.1884 27.1289 10 27.1289V15.2778H10.8531C13.0687 15.2778 16.1641 10.7651 18.2391 9.07373C20.4547 7.2684 19.7164 4.25932 21.1937 3.05556C24.8867 3.05556 24.8867 5.15498 24.8867 6.66684C24.8867 9.1603 22.6711 10.2775 22.6711 12.685H30.7953C32.4445 12.685 33.743 13.8888 33.75 15.0925C33.757 16.2957 32.7484 17.4994 32.0102 17.4994C33.064 18.426 33.2891 20.379 31.6031 21.6766V21.6766ZM6.875 27.5C6.875 28.3438 6.03555 29.0278 5 29.0278C3.96445 29.0278 3.125 28.3438 3.125 27.5C3.125 26.6562 3.96445 25.9722 5 25.9722C6.03555 25.9722 6.875 26.6562 6.875 27.5Z"
            stroke="transparent" />
    </g>
    <defs>
        <clipPath id="clip0_297_3247">
            <rect width="40" height="32.5926" stroke="transparent" />
        </clipPath>
    </defs>
</svg>