<svg width="42" height="43" viewBox="0 0 42 43" fill="none" xmlns="http://www.w3.org/2000/svg">
    <path
        d="M20.9913 42.0105C14.3871 42.0105 7.78291 42.0105 1.19604 42.0105C0.260008 42.0105 0 41.8083 0 41.0431C0 37.4911 0 33.9247 0 30.3727C0 29.6363 0.260008 29.4197 1.16137 29.4197C2.86009 29.4197 4.55881 29.4053 6.25753 29.4341C6.65621 29.4341 6.74288 29.3475 6.74288 29.0299C6.72555 25.7522 6.72555 22.4746 6.72555 19.1825C6.72555 18.4317 6.98555 18.2295 7.88692 18.2295C9.58564 18.2295 11.2844 18.2151 12.9831 18.244C13.3818 18.244 13.4684 18.1718 13.4684 17.8397C13.4511 14.562 13.4511 11.2844 13.4511 7.99231C13.4511 7.24149 13.7111 7.0249 14.5951 7.0249C18.8593 7.0249 23.1407 7.0249 27.4049 7.0249C28.3236 7.0249 28.5662 7.24149 28.5662 8.02119C28.5662 11.2555 28.5836 14.4898 28.5489 17.7386C28.5489 18.1718 28.7049 18.244 29.1729 18.244C30.837 18.2151 32.501 18.2295 34.1651 18.2295C35.0144 18.2295 35.2745 18.4605 35.2745 19.1825C35.2745 22.4601 35.2745 25.7378 35.2571 29.0299C35.2571 29.3908 35.3785 29.4486 35.7771 29.4486C37.4932 29.4342 39.2092 29.4342 40.9253 29.4486C41.7053 29.4486 42 29.694 42 30.3438C42 33.9247 42 37.52 42 41.1008C42 41.8228 41.74 42.0394 40.8733 42.0394C34.2691 42.0105 27.6302 42.0105 20.9913 42.0105ZM26.9022 13.3058C26.9022 11.7753 26.9022 10.2448 26.9022 8.71426C26.9022 8.4688 26.8329 8.38216 26.5382 8.3966C25.9662 8.41104 25.3768 8.42548 24.8048 8.3966C24.4581 8.38216 24.3714 8.45436 24.3714 8.75758C24.3888 9.98489 24.3714 11.2122 24.3888 12.4251C24.3888 12.786 24.3021 13.0893 23.8514 13.2481C23.4007 13.4069 23.0887 13.2192 22.7767 12.9737C22.274 12.5406 21.754 12.1363 21.2687 11.7031C21.078 11.5299 20.9567 11.5299 20.766 11.7031C20.2806 12.1363 19.7433 12.555 19.2406 12.9737C18.9459 13.2337 18.6166 13.4069 18.1659 13.2481C17.7326 13.0893 17.6286 12.786 17.6286 12.4251C17.6459 11.1833 17.6286 9.94157 17.6459 8.71426C17.6459 8.4688 17.5592 8.3966 17.2645 8.3966C16.6925 8.41104 16.1032 8.42548 15.5312 8.3966C15.1845 8.38216 15.0978 8.4688 15.0978 8.75758C15.1151 11.7898 15.1151 14.8219 15.0978 17.8541C15.0978 18.1429 15.1845 18.2151 15.5312 18.2151C19.1713 18.2006 22.8114 18.2006 26.4515 18.2151C26.7982 18.2151 26.8849 18.1429 26.8849 17.8541C26.8849 16.338 26.9022 14.8219 26.9022 13.3058ZM33.6104 24.5249C33.6104 23.0088 33.5931 21.4927 33.6277 19.9766C33.6277 19.659 33.5237 19.5868 33.1597 19.6012C32.605 19.6301 32.033 19.6301 31.4783 19.6012C31.1317 19.5868 31.0797 19.6879 31.0797 19.9478C31.097 21.1895 31.0797 22.4313 31.097 23.6586C31.097 24.0051 30.993 24.2939 30.577 24.4383C30.161 24.5971 29.8316 24.4527 29.5369 24.2073C29.0343 23.7885 28.4969 23.3698 28.0289 22.9366C27.7862 22.7056 27.6475 22.7489 27.4222 22.9511C26.9542 23.3698 26.4515 23.7596 25.9835 24.1639C25.6888 24.4238 25.3595 24.6115 24.9261 24.4527C24.4581 24.2939 24.3714 23.9762 24.3714 23.6008C24.3888 22.3879 24.3714 21.1751 24.3888 19.9766C24.3888 19.7167 24.3541 19.5868 23.9728 19.6012C23.4007 19.6301 22.8114 19.6301 22.2394 19.6012C21.8927 19.5868 21.8407 19.7023 21.858 19.9478C21.8754 22.9944 21.8754 26.041 21.858 29.0876C21.858 29.3764 21.962 29.4197 22.274 29.4197C25.9315 29.4053 29.5889 29.4053 33.2464 29.4197C33.5931 29.4197 33.6451 29.3331 33.6451 29.0732C33.6104 27.5571 33.6104 26.041 33.6104 24.5249ZM13.4511 35.7295C13.4511 34.199 13.4511 32.6685 13.4511 31.1379C13.4511 30.8636 13.3818 30.7914 13.0524 30.8058C12.4804 30.8347 11.891 30.8347 11.319 30.8058C10.9897 30.7914 10.903 30.8636 10.9203 31.1379C10.9377 32.3653 10.9203 33.5926 10.9377 34.8054C10.9377 35.1664 10.8683 35.4696 10.435 35.6429C9.96698 35.8162 9.63764 35.6285 9.32563 35.3541C8.84028 34.9354 8.32026 34.5311 7.85225 34.1124C7.64424 33.9247 7.52291 33.9391 7.3149 34.1124C6.82955 34.5311 6.32687 34.9354 5.84152 35.3541C5.54684 35.614 5.23483 35.8017 4.78415 35.6573C4.31614 35.4985 4.22947 35.1809 4.22947 34.8054C4.2468 33.5781 4.22947 32.3508 4.2468 31.1379C4.2468 30.8636 4.16013 30.7914 3.83079 30.8058C3.25877 30.8347 2.66942 30.8347 2.0974 30.8058C1.76806 30.7914 1.69872 30.878 1.69872 31.1524C1.71605 34.199 1.71605 37.2456 1.69872 40.2922C1.69872 40.5666 1.78539 40.6243 2.0974 40.6243C5.75485 40.6099 9.4123 40.6099 13.0697 40.6243C13.3991 40.6243 13.4684 40.5521 13.4684 40.2922C13.4338 38.7617 13.4511 37.2456 13.4511 35.7295ZM26.9022 35.7295C26.9022 34.199 26.9022 32.6685 26.9022 31.1379C26.9022 30.8636 26.8328 30.7914 26.5035 30.8058C25.9315 30.8347 25.3421 30.8347 24.7701 30.8058C24.4408 30.7914 24.3541 30.8636 24.3714 31.1379C24.3888 32.3653 24.3714 33.5926 24.3888 34.8054C24.3888 35.1664 24.3194 35.4696 23.8861 35.6429C23.4181 35.8162 23.0887 35.6285 22.7767 35.3541C22.2914 34.9354 21.7714 34.5311 21.3033 34.1124C21.0953 33.9247 20.974 33.9391 20.766 34.1124C20.2806 34.5311 19.778 34.9354 19.2926 35.3541C18.9979 35.614 18.6859 35.8017 18.2352 35.6573C17.7672 35.4985 17.6806 35.1809 17.6806 34.8054C17.6979 33.5781 17.6806 32.3508 17.6979 31.1379C17.6979 30.8636 17.6112 30.7914 17.2819 30.8058C16.7099 30.8347 16.1205 30.8347 15.5485 30.8058C15.2191 30.7914 15.1498 30.878 15.1498 31.1524C15.1671 34.199 15.1671 37.2456 15.1498 40.2922C15.1498 40.5666 15.2365 40.6243 15.5485 40.6243C19.2059 40.6099 22.8634 40.6099 26.5208 40.6243C26.8502 40.6243 26.9195 40.5521 26.9195 40.2922C26.8849 38.7617 26.9022 37.2456 26.9022 35.7295ZM40.3359 35.744C40.3359 34.2134 40.3359 32.6829 40.3359 31.1524C40.3359 30.8925 40.2839 30.7914 39.9373 30.8058C39.3826 30.8347 38.8106 30.8347 38.2559 30.8058C37.8919 30.7914 37.7879 30.8636 37.7879 31.1813C37.8052 32.4086 37.7879 33.6359 37.8052 34.8488C37.8052 35.2097 37.7012 35.5129 37.2505 35.6573C36.8345 35.8017 36.5052 35.6285 36.2278 35.3974C35.7251 34.9787 35.2051 34.56 34.7198 34.1268C34.5118 33.9535 34.3904 33.9391 34.1824 34.1268C33.7317 34.5311 33.2464 34.9065 32.7784 35.3108C32.449 35.5851 32.1197 35.8595 31.5997 35.6573C31.1143 35.4841 31.0797 35.1231 31.0797 34.7332C31.097 33.5348 31.0797 32.3364 31.097 31.1524C31.097 30.8925 31.0277 30.7914 30.6983 30.8058C30.1436 30.8347 29.5716 30.8347 29.0169 30.8058C28.6529 30.7914 28.5489 30.878 28.5489 31.1813C28.5662 34.199 28.5662 37.2167 28.5489 40.2345C28.5489 40.5377 28.6182 40.6243 28.9996 40.6243C32.6224 40.6099 36.2451 40.6099 39.8679 40.6243C40.2319 40.6243 40.3359 40.5666 40.3359 40.2489C40.3359 38.7473 40.3359 37.2456 40.3359 35.744ZM20.1766 24.5105C20.1766 22.9799 20.1766 21.4494 20.1766 19.9189C20.1766 19.6734 20.1073 19.5868 19.8126 19.6012C19.2406 19.6157 18.6513 19.6301 18.0792 19.6012C17.7326 19.5868 17.6459 19.659 17.6459 19.9622C17.6632 21.4205 17.6459 22.8789 17.6632 24.3372C17.6632 24.6982 17.5766 25.0014 17.1259 25.1602C16.6752 25.319 16.3632 25.1313 16.0512 24.8859C15.5485 24.4527 15.0285 24.0484 14.5431 23.6153C14.3525 23.442 14.2311 23.442 14.0404 23.6153C13.5551 24.034 13.0524 24.4383 12.5671 24.857C12.2551 25.1169 11.943 25.3335 11.4577 25.1602C10.9897 25.0014 10.9203 24.6693 10.9203 24.2939C10.9377 22.85 10.9203 21.4061 10.9377 19.9622C10.9377 19.6734 10.851 19.5868 10.5043 19.6012C9.94965 19.6301 9.37763 19.6301 8.82295 19.6012C8.47627 19.5868 8.3896 19.6734 8.3896 19.9622C8.40693 22.9944 8.40693 26.0266 8.3896 29.0587C8.3896 29.3475 8.47627 29.4197 8.82295 29.4197C12.4631 29.4053 16.1032 29.4053 19.7433 29.4197C20.09 29.4197 20.1766 29.3475 20.1766 29.0587C20.1593 27.5426 20.1766 26.0266 20.1766 24.5105ZM15.9645 22.8356C15.9645 21.7526 15.9645 20.7997 15.9645 19.8467C15.9645 19.659 15.8952 19.6012 15.6698 19.6012C14.7511 19.6157 13.8151 19.6157 12.8964 19.6012C12.6017 19.6012 12.6017 19.7023 12.6017 19.89C12.6191 20.5253 12.6017 21.1751 12.6017 21.8104C12.6017 22.1136 12.6017 22.4313 12.6017 22.85C13.0177 22.489 13.3298 22.2147 13.6591 21.9548C14.0751 21.6227 14.4911 21.6227 14.9071 21.9548C15.2538 22.2002 15.5485 22.489 15.9645 22.8356ZM19.3273 10.8079C19.3619 10.8223 19.4139 10.8512 19.4486 10.8657C19.5873 10.7357 19.7086 10.6058 19.8646 10.4758C20.0206 10.3314 20.1766 10.2015 20.35 10.0715C20.818 9.71055 21.2167 9.69611 21.6847 10.0571C22.014 10.317 22.3087 10.5913 22.7074 10.9379C22.7074 10.0571 22.7074 9.32069 22.7074 8.58431C22.7074 8.3966 22.6034 8.38216 22.4127 8.38216C21.494 8.38216 20.558 8.38216 19.6393 8.38216C19.4139 8.38216 19.3273 8.41104 19.3446 8.61319C19.3446 9.36401 19.3273 10.086 19.3273 10.8079ZM26.0528 22.1569C26.4688 21.7959 26.7635 21.536 27.0755 21.2761C27.5262 20.9152 27.9422 20.9007 28.4102 21.2761C28.7222 21.536 29.0169 21.8104 29.3116 22.0847C29.4329 21.2906 29.4156 20.5686 29.4329 19.8467C29.4329 19.6445 29.3636 19.6012 29.1383 19.6012C28.2196 19.6157 27.2835 19.6157 26.3648 19.6012C26.1395 19.6012 26.0702 19.659 26.0702 19.8467C26.0702 20.5686 26.0528 21.2906 26.0528 22.1569ZM9.23896 33.3471C9.23896 32.4808 9.23896 31.7444 9.23896 31.008C9.23896 30.8636 9.20429 30.8058 9.01362 30.8058C8.06026 30.8058 7.08956 30.8058 6.13619 30.8058C6.01486 30.8058 5.89352 30.7914 5.89352 30.9502C5.89352 31.7155 5.89352 32.4663 5.89352 33.2316C6.15353 33.145 6.27487 33.0006 6.41354 32.8706C6.55221 32.7407 6.70821 32.6252 6.86422 32.4952C7.3669 32.0909 7.76558 32.0765 8.26826 32.4808C8.56294 32.7407 8.85761 33.015 9.23896 33.3471ZM22.6901 33.3471C22.6901 32.4808 22.6901 31.7299 22.6901 30.9647C22.6901 30.7625 22.5167 30.8203 22.3954 30.8203C21.4767 30.8203 20.5407 30.8203 19.622 30.8203C19.5006 30.8203 19.3273 30.777 19.3273 30.9791C19.3273 31.7444 19.3273 32.4952 19.3273 33.3615C19.7433 33.0006 20.0553 32.7262 20.3846 32.4663C20.8007 32.1487 21.2167 32.1342 21.6327 32.4663C21.9794 32.6974 22.274 32.9861 22.6901 33.3471ZM36.0198 33.2894C36.0545 33.2605 36.1065 33.2316 36.1411 33.2172C36.1411 32.5241 36.1411 31.8166 36.1411 31.1235C36.1411 30.9647 36.1758 30.8203 35.8638 30.8203C34.9278 30.8347 33.9744 30.8203 33.0384 30.8203C32.8824 30.8203 32.7784 30.8347 32.7784 31.008C32.7784 31.7588 32.7784 32.5096 32.7784 33.246C33.1944 33.0294 33.4717 32.7551 33.7837 32.4952C34.2518 32.1054 34.6678 32.1054 35.1531 32.4952C35.4478 32.7407 35.7251 33.015 36.0198 33.2894Z"
        stroke="transparent" />
    <path
        d="M8.56322 3.02539C8.64989 3.09759 8.73655 3.15534 8.80589 3.2131C9.63792 3.90617 10.4526 4.59924 11.302 5.27787C11.51 5.43669 11.4926 5.53777 11.302 5.6966C10.9726 5.94206 10.6953 6.36079 10.3486 6.38966C10.0886 6.41854 9.74192 5.97094 9.44724 5.72547C8.82322 5.22011 8.21654 4.70031 7.59252 4.18051C7.41918 4.05056 7.38451 3.94948 7.59252 3.80509C7.85253 3.61739 8.0952 3.4008 8.33787 3.19866C8.38988 3.1409 8.47655 3.09759 8.56322 3.02539Z"
        stroke="transparent" />
    <path
        d="M29.9878 5.50828C30.9585 4.6997 31.8598 3.96331 32.7612 3.21249C32.9519 3.05366 33.0559 3.03922 33.2639 3.21249C34.2346 3.99219 34.2519 3.97775 33.2986 4.75745C32.7092 5.24838 32.1025 5.7393 31.5305 6.24466C31.2878 6.46125 31.1492 6.44681 30.9412 6.23023C30.6638 5.98476 30.3345 5.76818 29.9878 5.50828Z"
        stroke="transparent" />
    <path
        d="M21.8581 1.78345C21.8581 2.27437 21.8408 2.77974 21.8581 3.27066C21.8581 3.45837 21.7888 3.50168 21.5635 3.51612C20.1768 3.57388 20.1768 3.58832 20.1768 2.4332C20.1768 1.72569 20.1941 1.00375 20.1768 0.296239C20.1768 0.0652157 20.2461 0.00745994 20.5234 0.00745994C21.8581 -0.0214179 21.8581 -0.0214179 21.8581 1.09038C21.8581 1.30696 21.8581 1.53799 21.8581 1.78345Z"
        stroke="transparent" />
    <path
        d="M7.93866 13.3061C7.36664 13.3061 6.77729 13.2917 6.20527 13.3061C5.94527 13.3061 5.89326 13.2484 5.87593 13.0318C5.82393 11.8911 5.82393 11.8911 7.19331 11.8911C8.02533 11.8911 8.87469 11.9056 9.70672 11.8911C10.0014 11.8911 10.0881 11.9633 10.0881 12.2088C10.1054 13.3061 10.1054 13.3061 8.82269 13.3061C8.52802 13.3061 8.23334 13.3061 7.93866 13.3061Z"
        stroke="transparent" />
    <path
        d="M33.9919 13.3054C33.4372 13.3054 32.8652 13.2909 32.3105 13.3054C32.0332 13.3198 31.9292 13.262 31.9292 13.0021C31.9119 11.9048 31.8945 11.9048 33.2466 11.9048C34.0786 11.9048 34.928 11.9192 35.76 11.9048C36.0373 11.9048 36.1413 11.9481 36.1413 12.208C36.1587 13.3054 36.176 13.3054 34.824 13.3054C34.5639 13.3054 34.2693 13.3054 33.9919 13.3054Z"
        stroke="transparent" />
</svg>