<svg width="32" height="40" viewBox="0 0 32 40" fill="none" xmlns="http://www.w3.org/2000/svg">
    <path
        d="M1 35.7214C2.48715 31.906 3.9743 28.0905 5.46146 24.275C6.18557 24.0456 7.16662 23.8621 7.98417 24.3133C9.11316 24.9326 8.98079 26.2325 10.0942 27.1271C10.6548 27.5782 11.6125 27.9987 13.3722 27.7923C11.9473 31.4548 10.5302 35.1097 9.10537 38.7723C8.1321 37.2048 7.15883 35.6373 6.18557 34.0699C4.45704 34.6204 2.72852 35.1709 1 35.7214Z"
        fill="transparent" stroke-width="2" stroke-miterlimit="10" stroke-linecap="round" stroke-linejoin="round" />
    <path
        d="M31.0001 35.7751C29.5129 31.9597 28.0258 28.1442 26.5386 24.3287C25.8145 24.0994 24.8335 23.9158 24.0159 24.367C22.8869 24.9863 23.0193 26.2862 21.9059 27.1808C21.3453 27.6319 20.3876 28.0525 18.6279 27.846C20.0528 31.5085 21.4699 35.1634 22.8947 38.826C23.868 37.2585 24.8413 35.691 25.8145 34.1236C27.5431 34.6741 29.2716 35.2246 31.0001 35.7751Z"
        fill="transparent" stroke-width="2" stroke-miterlimit="10" stroke-linecap="round" stroke-linejoin="round" />
    <path
        d="M10.6003 1.61952C9.83722 2.20064 9.95401 2.75881 9.11311 3.76811C8.85617 4.07396 8.60701 4.37217 8.20992 4.63214C7.04978 5.39676 6.3101 4.78506 5.28233 5.38912C4.09884 6.09257 3.85747 7.6524 3.81853 7.91237C3.69396 8.69993 3.91197 8.9752 3.94311 9.64806C4.02876 11.9496 1.6462 12.4772 1.56055 14.4346C1.47491 16.3156 3.66281 16.6214 3.92754 19.2823C4.01319 20.154 3.42144 20.7122 3.7251 21.6832C3.98204 22.509 4.60493 23.0825 4.88524 23.2889C6.15438 24.2371 6.93299 23.5183 7.99969 24.3059C8.92624 24.994 8.51358 25.6593 9.72821 26.745C10.0241 27.005 10.5847 27.4944 11.4645 27.739C12.3366 27.9761 13.0763 27.8537 13.6602 27.739C14.9449 27.502 14.8671 27.1426 15.7158 27.0585C17.0083 26.9285 17.3353 27.739 19.0093 27.869C19.4842 27.9073 20.3329 27.9761 21.1738 27.6014C22.6844 26.9362 22.334 25.6975 23.7744 24.6041C25.355 23.4113 26.7487 24.1606 27.7453 22.7919C28.2592 22.0885 28.3604 21.3162 28.3604 21.3162C28.4617 20.5363 28.1814 20.1463 28.2826 19.1217C28.3059 18.9 28.3449 18.4871 28.5006 18.0436C29.0301 16.5526 30.2603 16.415 30.5951 15.2375C30.7897 14.5417 30.5484 13.9147 30.3848 13.4941C29.8009 11.9802 28.5862 11.9725 28.2904 10.6574C28.2514 10.4968 28.2748 9.95391 28.3059 8.86815C28.3371 7.89708 28.3838 7.62181 28.2592 7.18598C28.049 6.429 27.5585 5.94729 27.3716 5.76378C26.0713 4.51745 24.8878 5.39676 23.572 4.37981C22.4041 3.47756 22.8634 2.50649 21.4074 1.566C21.205 1.43602 20.5276 1.00783 19.6088 1.00018C18.9236 0.992534 18.3942 1.22957 17.9114 1.44366C17.1873 1.7648 17.0238 2.01713 16.4009 2.10124C16.1985 2.13182 15.817 2.1777 15.3887 2.03242C15.0228 1.91008 14.9294 1.74951 14.4233 1.49719C14.2208 1.39014 13.9639 1.29074 13.6135 1.19134C13.2553 1.09193 12.6169 0.916072 11.8305 1.07664C11.6202 1.12252 11.0986 1.23721 10.6003 1.61952Z"
        fill="transparent" stroke-width="2" stroke-miterlimit="10" />
    <path
        d="M16.0274 5.87867C11.1922 5.88632 7.21346 9.86236 7.26017 14.6107C7.30689 19.2596 11.2077 23.075 15.8794 23.1592C20.8548 23.2509 25.0048 19.0684 24.8257 14.1978C24.6544 9.64826 20.7536 5.87103 16.0274 5.87867Z"
        fill="transparent" stroke-width="2" stroke-miterlimit="10" />
    <path
        d="M16.0426 17.1874C17.0236 17.6233 17.9969 18.0667 18.978 18.5026C18.8612 17.4474 18.7366 16.3922 18.6198 15.337C19.305 14.603 19.998 13.869 20.6831 13.1349C19.6476 12.9438 18.612 12.745 17.5687 12.5538C17.0781 11.6133 16.5876 10.6805 16.0893 9.73999C15.5676 10.6575 15.046 11.5751 14.5243 12.4926C13.4576 12.7144 12.3909 12.9285 11.3164 13.1502C12.0639 13.869 12.8036 14.5953 13.551 15.3141C13.3953 16.4228 13.2396 17.5315 13.0916 18.6402C14.0883 18.1661 15.0615 17.6768 16.0426 17.1874Z"
        fill="transparent" stroke-width="2" stroke-miterlimit="10" stroke-linecap="round" stroke-linejoin="round" />
</svg>