<svg width="21" height="21" viewBox="0 0 21 21" fill="none" xmlns="http://www.w3.org/2000/svg">
	<path
		d="M16.5395 20.9986H4.42495C3.75097 20.9984 3.08593 20.8444 2.48054 20.5481C1.87515 20.2519 1.34542 19.8213 0.931745 19.2892C0.518069 18.7571 0.231379 18.1376 0.0935434 17.4778C-0.0442927 16.8181 -0.0296341 16.1356 0.136401 15.4824L2.59162 5.45962C2.63584 5.28043 2.7401 5.12178 2.88705 5.0101C3.03399 4.89842 3.21476 4.84044 3.39925 4.84582H16.9272C17.1053 4.83766 17.2812 4.8887 17.4273 4.99097C17.5734 5.09323 17.6815 5.24098 17.7348 5.41116L20.7877 15.232C20.9964 15.8991 21.0445 16.606 20.928 17.2952C20.8115 17.9843 20.5337 18.6362 20.1173 19.1975C19.7078 19.7613 19.1694 20.2189 18.547 20.5322C17.9246 20.8455 17.2363 21.0054 16.5395 20.9986ZM4.00498 6.46109L1.67091 15.8701C1.56697 16.2852 1.55864 16.7185 1.64655 17.1373C1.73446 17.5561 1.91631 17.9495 2.1784 18.2878C2.44048 18.6261 2.77595 18.9005 3.15951 19.0902C3.54308 19.28 3.96472 19.3802 4.39265 19.3833H16.5072C16.9467 19.384 17.3802 19.2804 17.7719 19.081C18.1636 18.8817 18.5024 18.5922 18.7605 18.2364C19.026 17.8786 19.2032 17.4631 19.2776 17.0238C19.352 16.5845 19.3215 16.1338 19.1886 15.7085L16.3457 6.46109H4.00498Z"
		fill="white" />
	<path
		d="M13.6967 11.3069C13.4825 11.3069 13.2771 11.2218 13.1256 11.0704C12.9742 10.9189 12.8891 10.7135 12.8891 10.4993V4.03819C12.8891 3.39559 12.6338 2.77931 12.1794 2.32493C11.725 1.87054 11.1088 1.61527 10.4662 1.61527C9.82357 1.61527 9.20729 1.87054 8.75291 2.32493C8.29852 2.77931 8.04325 3.39559 8.04325 4.03819V10.4993C8.04325 10.7135 7.95816 10.9189 7.8067 11.0704C7.65524 11.2218 7.44981 11.3069 7.23562 11.3069C7.02142 11.3069 6.81599 11.2218 6.66453 11.0704C6.51307 10.9189 6.42798 10.7135 6.42798 10.4993V4.03819C6.42798 2.96719 6.85343 1.94006 7.61074 1.18276C8.36804 0.42545 9.39517 0 10.4662 0C11.5372 0 12.5643 0.42545 13.3216 1.18276C14.0789 1.94006 14.5043 2.96719 14.5043 4.03819V10.4993C14.5043 10.7135 14.4193 10.9189 14.2678 11.0704C14.1163 11.2218 13.9109 11.3069 13.6967 11.3069Z"
		fill="white" />
</svg>
