<svg width="21" height="21" viewBox="0 0 21 21" fill="none" xmlns="http://www.w3.org/2000/svg">
<path d="M10.5 16.042C10.2497 16.042 10.0784 16.2089 10.0784 16.4636V18.9843C10.0784 19.2346 10.2452 19.4059 10.5 19.4059C10.7547 19.4059 10.9216 19.239 10.9216 18.9843V16.4636C10.9171 16.2089 10.7503 16.042 10.5 16.042Z" fill="white"/>
<path d="M5.03696 10.5C5.03696 10.2497 4.87009 10.0784 4.61538 10.0784H2.09468C1.84436 10.0784 1.6731 10.3287 1.6731 10.5C1.6731 10.7503 1.83997 10.9216 2.01124 10.9216H4.53194C4.78665 10.9171 5.03696 10.7503 5.03696 10.5Z" fill="white"/>
<path d="M10.5 5.03696C10.7503 5.03696 10.9216 4.87009 10.9216 4.61538V2.09468C10.9216 1.84436 10.7547 1.6731 10.5 1.6731C10.2452 1.6731 10.0784 1.83997 10.0784 2.09468V4.61538C10.0784 4.87009 10.2452 5.03696 10.5 5.03696Z" fill="white"/>
<path d="M10.5 0C4.70326 0 0 4.70326 0 10.5C0 16.2967 4.70326 21 10.5 21C16.2967 21 21 16.2967 21 10.5C21 4.70326 16.2923 0 10.5 0ZM10.5 20.1568C5.12484 20.1568 0.843162 15.8752 0.843162 10.5C0.843162 5.12484 5.12484 0.843162 10.5 0.843162C15.8752 0.843162 20.1568 5.12484 20.1568 10.5C20.1568 15.8752 15.8752 20.1568 10.5 20.1568Z" fill="white"/>
<path d="M8.98492 8.98492C7.47426 10.4956 4.87012 16.1255 4.87012 16.1255C4.87012 16.1255 10.5 13.4379 12.0106 12.0106C13.5213 10.5834 16.1255 4.87012 16.1255 4.87012C16.1255 4.87012 10.5 7.5577 8.98492 8.98492ZM6.71893 14.3601C6.71893 14.3601 8.73461 10.579 9.65682 9.65682L11.4222 11.4222C10.5 12.3444 6.71893 14.3601 6.71893 14.3601Z" fill="white"/>
<path d="M18.9799 10.0784H16.4592C16.2089 10.0784 16.0376 10.2452 16.0376 10.5C16.0376 10.7547 16.2045 10.9216 16.4592 10.9216H18.9799C19.2302 10.9216 19.4015 10.7547 19.4015 10.5C19.318 10.3287 19.1468 10.0784 18.9799 10.0784Z" fill="white"/>
</svg>
