<svg width="90" height="90" viewBox="0 0 90 90" fill="none" xmlns="http://www.w3.org/2000/svg">
<mask id="path-1-inside-1_1102_3596" fill="white">
<path d="M90 45C90 69.8528 69.8528 90 45 90C20.1472 90 0 69.8528 0 45C0 20.1472 20.1472 0 45 0C69.8528 0 90 20.1472 90 45Z"/>
</mask>
<path d="M90 45C90 69.8528 69.8528 90 45 90C20.1472 90 0 69.8528 0 45C0 20.1472 20.1472 0 45 0C69.8528 0 90 20.1472 90 45Z" fill="white"/>
<path d="M84 45C84 66.5391 66.5391 84 45 84V96C73.1665 96 96 73.1665 96 45H84ZM45 84C23.4609 84 6 66.5391 6 45H-6C-6 73.1665 16.8335 96 45 96V84ZM6 45C6 23.4609 23.4609 6 45 6V-6C16.8335 -6 -6 16.8335 -6 45H6ZM45 6C66.5391 6 84 23.4609 84 45H96C96 16.8335 73.1665 -6 45 -6V6Z" fill="#FA790E" mask="url(#path-1-inside-1_1102_3596)"/>
<path d="M64.7925 36.8445C66.3648 37.3196 67.3082 38.4281 67.151 39.8533C66.9938 41.2785 65.4214 42.0703 64.0064 41.9119L56.1448 40.3284L44.3525 31.1436C47.8116 26.868 52.5285 30.6685 52.5285 30.6685L58.8178 35.736L64.7925 36.8445Z" fill="#FA790E"/>
<path d="M33.0319 42.7037C31.7741 43.8122 30.359 43.9706 29.2584 43.1788C28.1577 42.2287 28.1577 40.4867 29.1011 39.3782L36.1765 32.4105L47.6544 29.085C49.5411 34.1524 43.7236 36.3694 43.7236 36.3694L38.6922 37.3196L33.0319 42.7037Z" fill="#FA790E"/>
<path d="M27.0571 52.0468C25.4848 51.4134 23.7552 52.2052 23.1263 53.7888C22.4974 55.3724 23.2835 57.1143 24.8558 57.7477L35.2331 61.2316C35.2331 61.2316 36.3337 61.7067 37.2771 61.2316C38.6921 60.7565 39.1638 59.3313 39.1638 59.3313L44.1952 47.2961C39.7927 45.2375 38.5349 43.3372 38.5349 43.3372L34.9186 54.4222L27.0571 52.0468Z" fill="#FA790E"/>
<path d="M51.7422 68.5162C51.585 70.2581 52.8428 71.6833 54.4151 71.8417C56.1447 72 57.5597 70.7332 57.717 69.1496V62.1819C57.717 62.1819 57.8742 57.4311 57.5597 56.3226C57.2453 55.5308 56.3019 54.7391 56.3019 54.7391L44.8241 44.4458C41.5222 48.4047 41.365 50.4634 41.365 50.4634L51.7422 58.698V68.5162Z" fill="#FA790E"/>
<path d="M51.1134 37.1613C52.214 33.6774 51.2706 30.1936 48.7549 29.2434C46.2393 28.2933 43.2519 30.3519 41.994 33.8358V33.9941L38.6922 43.4956C37.5916 46.9795 38.5349 50.4634 41.0506 51.4135C43.5663 52.3636 46.5537 50.305 47.8116 46.8211V46.6628L51.1134 37.1613Z" fill="#FA790E"/>
<path d="M51.2707 30.6686C54.7297 30.6686 57.5599 27.8182 57.5599 24.3343C57.5599 20.8504 54.7297 18 51.2707 18C47.8116 18 44.9814 20.8504 44.9814 24.3343C44.9814 27.8182 47.8116 30.6686 51.2707 30.6686Z" fill="#FA790E"/>
</svg>
