<svg width="90" height="90" viewBox="0 0 90 90" fill="none" xmlns="http://www.w3.org/2000/svg">
<path d="M87 45C87 68.196 68.196 87 45 87C21.804 87 3 68.196 3 45C3 21.804 21.804 3 45 3C68.196 3 87 21.804 87 45Z" fill="white" stroke="#FF652A" stroke-width="6"/>
<path d="M54.9937 33.6391C52.9494 33.6391 51.377 32.0611 51.377 30.0098C51.377 27.9585 52.9494 26.3806 54.9937 26.3806C57.0379 26.3806 58.6104 27.9585 58.6104 30.0098C58.7676 32.0611 57.0379 33.6391 54.9937 33.6391Z" fill="#FF652A"/>
<path d="M55.151 37.4261C57.9815 37.4261 60.3402 39.1618 61.4409 41.5287V37.4261C61.4409 35.6904 60.0257 34.2703 58.296 34.2703H57.5097L54.9938 36.7949L52.4778 34.2703H51.8488C50.1191 34.2703 48.7039 35.6904 48.7039 37.4261V41.5287C49.8046 39.1618 52.3206 37.4261 55.151 37.4261Z" fill="#FF652A"/>
<path d="M27.7898 67.0909H23.8586C22.9151 67.0909 22.2861 66.3019 22.2861 65.513V59.9902H29.3623V65.513C29.3623 66.4597 28.5761 67.0909 27.7898 67.0909Z" fill="#FF652A"/>
<path d="M66.1585 67.0909H62.3845C61.441 67.0909 60.812 66.3019 60.812 65.513V59.9902H67.8882V65.513C67.731 66.4597 66.9447 67.0909 66.1585 67.0909Z" fill="#FF652A"/>
<path d="M48.3893 28.2741C48.3893 29.0631 47.7603 29.6943 46.9741 29.6943H43.5146C42.7284 29.6943 42.0994 29.0631 42.0994 28.2741C42.0994 27.4852 42.7284 26.854 43.5146 26.854H46.9741C47.7603 26.854 48.3893 27.4852 48.3893 28.2741Z" fill="#FF652A"/>
<path d="M70.2468 46.2624C70.2468 45.3157 69.9323 44.5267 69.3033 43.7377C68.517 42.4754 67.1018 39.7929 66.7873 37.1105L65.6866 28.9053C65.2148 25.5916 62.0699 22.9092 58.7676 22.9092H31.2492C27.947 22.9092 24.802 25.5916 24.3303 28.9053L23.2296 37.1105C22.9151 39.7929 21.4998 42.4754 20.7136 43.7377C20.2418 44.5267 19.9273 45.3157 19.7701 46.2624L18.8266 55.4144C18.6694 58.2546 20.7136 60.4637 23.5441 60.4637H66.4728C69.3033 60.4637 71.3475 58.2546 71.1902 55.4144L70.2468 46.2624ZM25.9028 29.0631C26.2173 26.5384 28.7332 24.4871 31.2492 24.4871H58.9249C61.4409 24.4871 63.7996 26.5384 64.2713 29.0631L65.8438 41.3709V41.5287C65.8438 41.6865 65.8438 41.6865 65.8438 41.8442H24.3303C24.3303 41.8442 24.3303 41.6865 24.3303 41.5287V41.3709L25.9028 29.0631ZM24.6448 55.2566C22.9151 55.2566 21.6571 53.8365 21.6571 52.2585C21.6571 50.5228 23.0723 49.2605 24.6448 49.2605H29.5195C30.463 49.2605 31.5637 49.8916 32.0355 50.6806L34.5514 55.2566H24.6448ZM65.8438 55.2566H55.9372L58.4532 50.6806C58.9249 49.8916 60.0256 49.2605 60.9691 49.2605H65.8438C67.5735 49.2605 68.8315 50.6806 68.8315 52.2585C68.9888 53.9942 67.5735 55.2566 65.8438 55.2566Z" fill="#FF652A"/>
<path d="M51.6914 42.002C52.4777 40.8974 53.5784 40.1084 54.9936 40.1084C56.4089 40.1084 57.6669 40.8974 58.2959 42.002H60.1828C59.3966 39.9507 57.3524 38.5305 54.9936 38.5305C52.6349 38.5305 50.5907 39.9507 49.8044 42.002H51.6914Z" fill="#FF652A"/>
</svg>
