<svg width="90" height="92" viewBox="0 0 90 92" fill="none" xmlns="http://www.w3.org/2000/svg">
<circle cx="45" cy="47" r="45" fill="#FA790E"/>
<circle cx="45" cy="47" r="42" stroke="#E0E0E0" stroke-opacity="0.4" stroke-width="6"/>
<path d="M55.1755 35.7299C53.1313 35.7299 51.5588 34.152 51.5588 32.1007C51.5588 30.0494 53.1313 28.4714 55.1755 28.4714C57.2198 28.4714 58.7923 30.0494 58.7923 32.1007C58.9495 34.152 57.2198 35.7299 55.1755 35.7299Z" fill="white"/>
<path d="M55.3329 39.5169C58.1634 39.5169 60.5221 41.2526 61.6228 43.6195V39.5169C61.6228 37.7812 60.2076 36.3611 58.4779 36.3611H57.6916L55.1757 38.8858L52.6597 36.3611H52.0307C50.301 36.3611 48.8857 37.7812 48.8857 39.5169V43.6195C49.9865 41.2526 52.5024 39.5169 55.3329 39.5169Z" fill="white"/>
<path d="M27.9717 69.1817H24.0405C23.097 69.1817 22.468 68.3928 22.468 67.6038V62.0811H29.5442V67.6038C29.5442 68.5505 28.7579 69.1817 27.9717 69.1817Z" fill="white"/>
<path d="M66.3404 69.1817H62.5664C61.6229 69.1817 60.9939 68.3927 60.9939 67.6038V62.0811H68.0701V67.6038C67.9128 68.5505 67.1266 69.1817 66.3404 69.1817Z" fill="white"/>
<path d="M48.5712 30.365C48.5712 31.1539 47.9422 31.7851 47.1559 31.7851H43.6965C42.9102 31.7851 42.2812 31.1539 42.2812 30.365C42.2812 29.576 42.9102 28.9448 43.6965 28.9448H47.1559C47.9422 28.9448 48.5712 29.576 48.5712 30.365Z" fill="white"/>
<path d="M70.4286 48.3532C70.4286 47.4065 70.1141 46.6175 69.4852 45.8286C68.6989 44.5662 67.2837 41.8838 66.9692 39.2013L65.8685 30.9961C65.3967 27.6825 62.2517 25 58.9495 25H31.4311C28.1289 25 24.9839 27.6825 24.5122 30.9961L23.4114 39.2013C23.0969 41.8838 21.6817 44.5662 20.8955 45.8286C20.4237 46.6175 20.1092 47.4065 19.952 48.3532L19.0085 57.5052C18.8512 60.3455 20.8955 62.5545 23.7259 62.5545H66.6547C69.4852 62.5545 71.5294 60.3455 71.3721 57.5052L70.4286 48.3532ZM26.0847 31.1539C26.3992 28.6292 28.9151 26.5779 31.4311 26.5779H59.1068C61.6227 26.5779 63.9815 28.6292 64.4532 31.1539L66.0257 43.4617V43.6195C66.0257 43.7773 66.0257 43.7773 66.0257 43.9351H24.5122C24.5122 43.9351 24.5122 43.7773 24.5122 43.6195V43.4617L26.0847 31.1539ZM24.8267 57.3474C23.0969 57.3474 21.839 55.9273 21.839 54.3493C21.839 52.6136 23.2542 51.3513 24.8267 51.3513H29.7014C30.6449 51.3513 31.7456 51.9825 32.2173 52.7714L34.7333 57.3474H24.8267ZM66.0257 57.3474H56.1191L58.635 52.7714C59.1068 51.9825 60.2075 51.3513 61.151 51.3513H66.0257C67.7554 51.3513 69.0134 52.7714 69.0134 54.3493C69.1707 56.0851 67.7554 57.3474 66.0257 57.3474Z" fill="white"/>
<path d="M51.8733 44.0928C52.6595 42.9882 53.7603 42.1993 55.1755 42.1993C56.5908 42.1993 57.8487 42.9882 58.4777 44.0928H60.3647C59.5785 42.0415 57.5342 40.6213 55.1755 40.6213C52.8168 40.6213 50.7726 42.0415 49.9863 44.0928H51.8733Z" fill="white"/>
</svg>
