<?xml version="1.0" encoding="UTF-8"?><svg id="Capa_2" xmlns="http://www.w3.org/2000/svg" viewBox="0 0 102.01 66.42"><defs><style>.cls-1{fill:#fa7a0e;}</style></defs><g id="Capa_1-2"><g id="vP5RJD"><g><path class="cls-1" d="M102.01,48.54c-2.77-3.18-6.2-3.85-10.21-3.57,.51-.62,.81-1.1,1.22-1.46,1.28-1.11,1.4-2.23,.49-3.72-1.54-2.53-2.87-5.18-4.31-7.77-.78-1.42-1.6-2.82-2.56-4.5,1.59,.23,2.82,.52,4.06,.55,.56,.02,1.39-.3,1.66-.74,1.12-1.78,1.54-3.77,1.22-5.89-.15-.99-.65-1.45-1.63-1.18-2.19,.6-4.62,.83-6.48,1.98-1.87,1.15-3.48,.91-5.3,.6-.56-.1-1.18-.1-1.66-.37-.74-.4-1.61-.86-1.99-1.54-1.19-2.13-2.2-4.37-3.19-6.61-.18-.4,.08-1,.14-1.62,3.38,1.56,3.4,1.56,4.59-.61-.55-.38-1.09-.79-1.66-1.16-1.57-1.03-2.05-2.48-1.8-4.29,.17-1.24,.63-1.73,1.93-1.2,1.18,.49,2.43,.83,3.68,1.26,.23-3.28-1.45-5.55-4.6-6.42-2.95-.81-5.5,.23-6.81,2.78-1.43,2.78-1.33,6.08,.71,7.75-.55,.31-1.13,.51-1.53,.89-1.78,1.74-3.94,3.29-5.15,5.37-2.4,4.17-4.4,8.59-6.31,13.01-.94,2.17-1.31,4.59,.25,6.91h-4.68c.04-.39,.06-.66,.11-.93,.92-5.04,1.83-10.08,2.77-15.12,.21-1.15,.24-2.01-1.37-1.99-5.3,.05-10.6,.03-15.9,.01-1.1,0-1.65,.45-1.84,1.55-.96,5.38-1.96,10.75-2.99,16.12-.24,1.24,.23,1.68,1.43,1.63,1.27-.04,2.55-.01,3.85-.01-.1,1.43-1.82,2.72,.16,3.63-.24,1.54-1.04,2.32-2.38,2.92-4.66,2.11-7.37,5.94-8.85,10.72-.11,.34-.01,.75-.01,1.33h4.32v1.55c-.03,4.71,3.2,7.98,7.89,8,4.69,.02,9.27-3.28,10.92-7.92,.32-.92,.43-1.93,1.83-1.65,.91,.18,1.86,.19,2.76,.42,.99,.25,1.94,.95,2.91,.97,6.38,.09,12.76,.05,19.15,.06h1.78c.12,.97,.22,1.72,.32,2.62,1.01-.49,1.77-.87,2.69-1.32,.14,.39,.24,.66,.31,.93,1.11,3.81,3.86,5.81,7.78,5.92,6.77,.18,14.81-8.29,9.85-16.38,.75-.47,1.5-.94,2.39-1.5Zm-62.6,13.69c-2.53-.32-3.98-2.34-3.67-5.33h10.59c-.38,3.22-3.68,5.74-6.92,5.33Zm30.56-14.67c-.66,2.23-1.29,4.47-1.85,6.73-.22,.88-.59,1.28-1.51,1.17-.51-.06-1.02,0-1.54-.01-4.21-.03-5.95-2.12-4.69-6.13,.76-2.4,2.13-4.61,3.28-6.88,.18-.35,.62-.69,1.01-.79,2.25-.6,2.26-.57,2.62-2.97,1.67,.23,3.34,.45,5.17,.7-.86,2.81-1.71,5.49-2.5,8.18Zm13.81-.58c-1,4.06-2.88,6.52-5.29,7.55-1.81-.81-3.3-1.47-4.99-2.22,.37-1.14,.76-2.41,1.21-3.67,1.11-3.11,2.29-6.19,3.35-9.31,1.2-3.52,.53-4.94-2.97-6.06-2.86-.91-5.8-1.59-9.12-2.49,1.45-2.98,2.88-5.94,4.42-9.1,1.96,1.84,2.8,4.6,5.79,4.68,2.44,.06,4.88,.27,7.55,.42,1.07,6.78,1.71,13.49,.06,20.21Zm11.72,12.79c-2.07,2.52-5.59,3.38-7.69,1.63-.87-.73-1.36-2.01-1.8-3.13-.13-.34,.35-1.19,.76-1.43,2.76-1.56,5.58-3.01,8.42-4.53,2.23,2.19,2.29,5.03,.3,7.45Z"/><path class="cls-1" d="M34.59,41.31c-.44,.35-.88,.98-1.33,1-2.44,.1-4.88,.05-7.32,.05h0c-2.33,0-4.66,.05-6.98-.03-.48-.02-.94-.53-1.41-.81,.48-.38,.96-1.08,1.45-1.08,4.83-.08,9.65-.07,14.47-.01,.38,0,.75,.58,1.12,.89Z"/><path class="cls-1" d="M31.04,32.68c-.48,.39-.94,1.08-1.43,1.11-2.27,.12-4.55,.05-6.83,.05-2.17,0-4.33,.05-6.49-.04-.45-.02-.88-.57-1.32-.88,.44-.36,.87-1.02,1.32-1.02,4.55-.08,9.11-.07,13.66-.01,.37,0,.73,.52,1.09,.79Z"/><path class="cls-1" d="M27.68,47.94c-.44,.35-.88,.99-1.33,1.01-2.44,.1-4.88,.05-7.32,.05-2.33,0-4.65,.05-6.98-.03-.49-.02-.96-.49-1.44-.75,.47-.39,.93-1.1,1.41-1.11,4.82-.08,9.65-.07,14.47-.01,.4,0,.79,.55,1.19,.84Z"/><path class="cls-1" d="M13.5,41.26c-.19,.41-.56,.95-.94,1.02-.82,.15-1.69,.05-2.54,.05v.04c-.68,0-1.38,.1-2.04-.04-.4-.08-.73-.51-1.09-.78,.3-.37,.58-1.04,.91-1.06,1.69-.11,3.4-.1,5.09-.03,.23,0,.68,.65,.61,.81Z"/><path class="cls-1" d="M32.19,26.1c-.1,.37-.45,.88-.78,.94-.82,.17-1.69,.13-2.53,.17v-.05c-.74,0-1.49,.08-2.21-.03-.36-.05-.68-.44-1.01-.67,.27-.38,.52-1.07,.81-1.09,1.69-.12,3.4-.11,5.1-.05,.23,0,.68,.58,.63,.78Z"/><path class="cls-1" d="M6.48,47.78c-.11,.42-.47,1.08-.77,1.1-1.7,.11-3.4,.1-5.1,.04-.23,0-.66-.59-.61-.79,.11-.37,.47-.88,.8-.94,.88-.17,1.81-.13,2.71-.18v.05c.68,0,1.38-.08,2.04,.03,.36,.06,.97,.53,.93,.68Z"/></g></g></g></svg>