<svg xmlns="http://www.w3.org/2000/svg" width="367.88" height="464.24" viewBox="0 0 367.88 464.24"><defs><style>.cls-1{fill:#070707;}.cls-2{fill:#fa790e;}.cls-3{fill:#ce5a02;}.cls-4{fill:#020202;}.cls-5{fill:#565554;}.cls-6{fill:#fff;}</style></defs><g id="Capa_2" data-name="Capa 2"><g id="Capa_1-2" data-name="Capa 1"><path class="cls-1" d="M142.53,81.06a2.5,2.5,0,0,0,2.49-2.4c0-.5,2.18-49.63,23.39-67.1,6.15-5.07,13.13-6.92,21.34-5.65C231.48,12.37,230,77.82,230,78.48a2.5,2.5,0,0,0,5,.16,132.15,132.15,0,0,0-4.59-35.74c-6.86-24.46-20.64-39-39.85-41.93-9.57-1.48-18.08.78-25.3,6.73-9.7,8-16.89,22.39-21.37,42.76a175.61,175.61,0,0,0-3.82,28,2.5,2.5,0,0,0,2.4,2.6Z"/><path class="cls-2" d="M316,294,281.92,63l-128-2.11-41.27,246H304.91A11.21,11.21,0,0,0,316,294Z"/><path class="cls-3" d="M129,63l24.87-2.11-41.27,246H88a7.89,7.89,0,0,1-7.72-9.5Z"/><path class="cls-4" d="M170,80.53a2.5,2.5,0,0,0,2.5-2.4c0-.5,2.18-49.63,23.38-67.1,6.16-5.07,13.14-6.92,21.35-5.65C259,11.84,257.49,77.29,257.47,78a2.5,2.5,0,1,0,5,.16,131.53,131.53,0,0,0-4.58-35.74C251,17.91,237.24,3.41,218,.44,208.46-1,200,1.22,192.73,7.17c-9.7,8-16.89,22.39-21.37,42.76a176.34,176.34,0,0,0-3.83,28,2.52,2.52,0,0,0,2.41,2.6Z"/><path class="cls-5" d="M23,105.64,68,309.91l1.65,5.6h218c21.23,0,41-10.2,52.48-28l9.95-12.73c10.52-16.3,17.82-35,17.82-54.39v-52.1H43.65L32,107.61c-.3-2.19-1-10.07-3-11M352.32,220.35c0,16.69-5.74,32.87-14.8,46.89l-9.06,14.45c-8.92,13.82-24.37,23.45-40.83,23.45H80.32L69,263.13,47.47,183.8H352.32Z"/><path class="cls-5" d="M337.78,386.56c0,3.86-3.14,7.77-7,7.77H75c-3.88,0-6.81-5.48-6.81-9.34V264.38c0-1.33.27-1.19.91-2.25l11.25,43h3.4v73.63h247C334.64,378.77,337.78,382.68,337.78,386.56Z"/><rect class="cls-5" x="195.77" y="175.57" width="9.34" height="131.3"/><rect class="cls-5" x="113.29" y="175.57" width="9.34" height="131.3"/><rect class="cls-5" x="276.3" y="175.57" width="9.34" height="131.3"/><rect class="cls-5" x="51.02" y="214.19" width="303.69" height="8.35"/><rect class="cls-5" x="64.27" y="259.9" width="282.83" height="8.35"/><path class="cls-5" d="M107.73,403.92a30.16,30.16,0,1,0,30.16,30.16A30.16,30.16,0,0,0,107.73,403.92Zm0,48.36a18.21,18.21,0,1,1,18.2-18.2A18.2,18.2,0,0,1,107.73,452.28Z"/><path class="cls-5" d="M295.15,403.92a30.16,30.16,0,1,0,30.16,30.16A30.16,30.16,0,0,0,295.15,403.92Zm0,48.36a18.21,18.21,0,1,1,18.2-18.2A18.2,18.2,0,0,1,295.15,452.28Z"/><path class="cls-5" d="M52.45,94.37a9.81,9.81,0,0,1-9.85,9.76H9.84A9.8,9.8,0,0,1,0,94.37H0a9.8,9.8,0,0,1,9.84-9.76H42.6a9.81,9.81,0,0,1,9.85,9.76Z"/><g id="Capa_1-2-2" data-name="Capa 1-2"><path class="cls-6" d="M215,137.35c-4,0-8,0-11.94,0a17.38,17.38,0,0,1-10.8-3.85,17.67,17.67,0,0,1-5.7-7.81,16,16,0,0,1-1.1-5.69q0-11.68,0-23.37a17.56,17.56,0,0,1,5.35-12.83,17.94,17.94,0,0,1,9.75-5,12,12,0,0,1,2.24-.18c8,0,16-.12,23.94,0,7.57.14,13,3.86,16.26,10.66a16.71,16.71,0,0,1,1.54,7.35c0,7.54,0,15.08,0,22.62a17.53,17.53,0,0,1-6.81,14.18,17.19,17.19,0,0,1-11,3.86C222.81,137.36,218.9,137.36,215,137.35Zm-.62-51a3.12,3.12,0,0,0,.19-2.92,3.08,3.08,0,0,0-2.87-1.88,3.13,3.13,0,0,0-3,1.8,3,3,0,0,0,.55,3.46c.27.3.28.39-.14.51a19.14,19.14,0,0,0-6.16,3.07,20.3,20.3,0,0,0-8,12.1,21.21,21.21,0,0,0-.16,7.9c.07.42.26.59.73.47.81-.19,1.64-.29,2.46-.42l5.43-.87c2.22-.37,4.44-.75,6.66-1.11l7.22-1.15c2.35-.37,4.69-.76,7-1.15l5.61-.91c1.79-.29,3.58-.59,5.38-.84,1-.14,1-.1.79-1.09,0-.1-.06-.2-.08-.3a18.79,18.79,0,0,0-3.14-7.6,20.21,20.21,0,0,0-5.92-5.73,21.17,21.17,0,0,0-8.66-3.16,22.34,22.34,0,0,0-3.92-.18Zm-9.37,42,2.55-2.75a1.34,1.34,0,0,1,.69-.37,13.12,13.12,0,0,0,4.41-1.82.5.5,0,0,1,.29-.09,21.53,21.53,0,0,0,3.5,0,18.54,18.54,0,0,0,3.71-.45c1.71-.35,3.42-.74,5.13-1.08,1.89-.37,3.8-.71,5.7-1.07a1.58,1.58,0,0,0,1-.52.56.56,0,0,0-.13-.94,2.23,2.23,0,0,0-1.31-.33H201.79a1.24,1.24,0,0,0-.81.23,2.93,2.93,0,0,0-1.17,4.1.82.82,0,0,1-.16,1c-.67.81-1.35,1.62-2,2.46-.53.69-1.07,1.25-2,.87-.16-.07-.39,0-.55,0a1,1,0,0,0-1,.25c-1.14.88-2.27,1.73-3.41,2.59-.24.18-.28.34,0,.55.52.45,1,.94,1.53,1.38a18.19,18.19,0,0,0,8.05,3.75.71.71,0,0,0,.67-.19c2.49-2,5-3.92,7.49-5.88l1.75-1.39a45.48,45.48,0,0,0-5.1-.22Zm10.41-16H189.7c-.4,0-.85,0-.92.44s-.25,1.06.36,1.45a26.16,26.16,0,0,1,2.27,1.64,1.7,1.7,0,0,0,1.13.38h45.68a1.11,1.11,0,0,0,.77-.13c.85-.65,1.71-1.26,2.57-1.9a1.45,1.45,0,0,0,.38-1.5c-.2-.44-.61-.36-1-.36Z"/><path class="cls-6" d="M198.22,156.5c0,2.12,0,4.25,0,6.37,0,.6-.17.77-.74.73a10.16,10.16,0,0,0-1.56,0c-.57.05-.7-.18-.69-.71,0-3.35,0-6.7,0-10,0-2,0-3.93,0-5.9a.87.87,0,0,1,.43-.83,10.11,10.11,0,0,1,9.12-1.25,6.44,6.44,0,0,1,4.26,5.82c.08,2.73-.94,4.89-3.42,6.09a7.19,7.19,0,0,1-7.33-.25A.27.27,0,0,0,198.22,156.5Zm0-5.94h0v2.51a.91.91,0,0,0,.28.73,5.19,5.19,0,0,0,5.51,1,4.3,4.3,0,0,0,1.17-6.58c-1.73-2-4.92-1.64-6.71-.67-.25.14-.25.35-.25.59Z"/><path class="cls-6" d="M246.11,151.36H241.4c-.51,0-.58.14-.47.63.63,2.75,3.23,3.66,5.59,3.06a5.49,5.49,0,0,0,2.58-1.45c.22-.2.32-.22.55,0a12.11,12.11,0,0,0,1.33,1.14c.31.24.28.42,0,.66a8.63,8.63,0,0,1-4.76,2.13,8,8,0,0,1-5.62-1.22,6.44,6.44,0,0,1-2.69-5.79,6.16,6.16,0,0,1,4.94-6c3-.61,6.07.05,7.76,3.07a7,7,0,0,1,.82,3.17c0,.48-.16.62-.62.61C249.25,151.34,247.68,151.36,246.11,151.36Zm-1.48-2.21c1.07,0,2.14,0,3.2,0,.59,0,.55-.19.35-.61a3.6,3.6,0,0,0-2.2-1.82,4,4,0,0,0-4.86,2c-.18.41-.06.44.31.44,1.06,0,2.13,0,3.2,0Z"/><path class="cls-6" d="M218.22,151.35c-1.53,0-3.06,0-4.59,0-.5,0-.7,0-.58.64a4.06,4.06,0,0,0,3.61,3.2,5.51,5.51,0,0,0,4.5-1.56c.19-.19.31-.29.56-.06.46.42.94.81,1.42,1.21.24.2.28.34,0,.57A8.74,8.74,0,0,1,216,157.5a6.54,6.54,0,0,1-4.71-2.61c-2.24-3.11-1.61-8.13,2.28-9.86a7.13,7.13,0,0,1,7.67.74,6.26,6.26,0,0,1,2.32,5.11c0,.41-.21.48-.56.48-1.59,0-3.18,0-4.77,0Zm-1.43-2.2c1.05,0,2.1,0,3.15,0,.6,0,.54-.26.36-.62a3.41,3.41,0,0,0-2.21-1.8,4,4,0,0,0-4.86,2c-.18.39-.08.45.3.45C214.62,149.14,215.7,149.15,216.79,149.15Z"/><path class="cls-6" d="M191.47,149.76c-.22-1.17-.25-2.31-1.5-2.76a4.26,4.26,0,0,0-2.08-.34,8.4,8.4,0,0,0-2.92.86c-.28.16-.43.13-.56-.18s-.41-.77-.62-1.16c-.38-.69-.38-.69.33-1a9.86,9.86,0,0,1,6.53-.57,4.28,4.28,0,0,1,3.44,4.36c-.08,2.15,0,4.31,0,6.46a.78.78,0,0,1-.49.83,10.61,10.61,0,0,1-8.12.9,4.4,4.4,0,0,1-3.29-5.34,3.9,3.9,0,0,1,2.64-2.86,7,7,0,0,1,5.31-.07A6.35,6.35,0,0,1,191.47,149.76Zm-.25,3.51c0-1.27,0-1.44-.68-1.84a4.65,4.65,0,0,0-4.29-.55,2.08,2.08,0,0,0-.68,3.57c1.31,1.1,2.85,1,4.34.57,1.33-.34,1.31-.42,1.31-1.75Z"/><path class="cls-6" d="M237.76,144.63c-2,1.74-3.82,3.4-5.7,5-.34.3-.33.47,0,.8,1.92,2.07,3.82,4.16,5.72,6.24.13.15.32.27.33.55-1.08,0-2.14,0-3.2,0-.33,0-.49-.2-.66-.4-1.36-1.54-2.7-3.09-4.07-4.62-.19-.21-.32-.67-.75-.49a1,1,0,0,0-.72,1.11c.06,1.28,0,2.56.1,3.83,0,.47-.14.58-.56.57a12.92,12.92,0,0,0-1.76,0c-.49,0-.6-.13-.59-.59,0-3.1,0-6.2,0-9.3,0-1.67,0-3.35,0-5,0-.43.12-.59.56-.57a17.22,17.22,0,0,0,1.76,0c.42,0,.52.15.52.55,0,2.26,0,4.53-.05,6.78,0,.12,0,.25.09.38.72-.68,1.44-1.36,2.17-2l2.79-2.59a.73.73,0,0,1,.48-.25C235.35,144.64,236.49,144.63,237.76,144.63Z"/><path class="cls-6" d="M180.45,148.46c0,2.76,0,5.53,0,8.29,0,.44-.13.53-.52.51-.67,0-1.34,0-2,0-.47,0-.54-.16-.54-.57,0-5.45,0-10.89,0-16.33,0-.63-.14-.81-.78-.78-1.3,0-2.6,0-3.9,0-.38,0-.53-.09-.5-.49,0-.57,0-1.13,0-1.7,0-.32.11-.43.44-.43h12.56c.32,0,.45.1.44.43,0,.56,0,1.13,0,1.69,0,.4-.13.51-.5.5-1.39,0-2.77,0-4.15,0-.47,0-.6.11-.6.59,0,2.76,0,5.53,0,8.29Z"/></g></g></g></svg>