<svg width="12" height="12" viewBox="0 0 12 12" fill="none" xmlns="http://www.w3.org/2000/svg">
<path d="M5.99961 0C6.39807 0 6.78902 0.0396484 7.16824 0.114648C7.55567 0.191504 7.93177 0.306543 8.29195 0.455566C8.65818 0.607227 9.00615 0.794043 9.33137 1.01123C9.66235 1.23223 9.96754 1.48262 10.2424 1.75742C10.5172 2.03232 10.7681 2.3376 10.989 2.66865C11.2063 2.99336 11.3928 3.34131 11.5443 3.70742C11.6932 4.06758 11.8085 4.44365 11.8851 4.83105C11.9604 5.21016 12 5.60107 12 5.9999C12 6.39873 11.9605 6.78945 11.8851 7.16865C11.8085 7.55605 11.6932 7.93213 11.5443 8.29228C11.3926 8.6585 11.2059 9.00644 10.9885 9.33164C10.7676 9.6624 10.5174 9.96758 10.2425 10.2424C9.96745 10.5172 9.66225 10.7679 9.33108 10.9891C9.00625 11.2062 8.65828 11.3929 8.29204 11.5443C7.93186 11.6933 7.55577 11.8083 7.16834 11.8852C6.78911 11.9604 6.39807 11.9998 5.99971 11.9998C5.60115 11.9998 5.2101 11.9604 4.83078 11.8852C4.44355 11.8083 4.06726 11.6933 3.70708 11.5443C3.34084 11.3927 2.99287 11.2058 2.66765 10.9886C2.33668 10.7677 2.03148 10.5173 1.75675 10.2424L1.73869 10.2229C1.46943 9.95039 1.22537 9.65127 1.011 9.33008C0.793997 9.00508 0.607266 8.65732 0.455694 8.29131C0.306758 7.93115 0.191516 7.55508 0.114754 7.16768C0.039651 6.78867 0 6.39785 0 5.99902C0 5.60029 0.039651 5.20937 0.114851 4.83027C0.191614 4.44287 0.306758 4.0668 0.455791 3.70664C0.606485 3.34141 0.793509 2.99365 1.01169 2.66719C1.23094 2.33945 1.48144 2.03486 1.75832 1.7582C2.03265 1.48262 2.33794 1.23203 2.66912 1.01084C2.99336 0.79414 3.34114 0.607422 3.70678 0.456152C4.0654 0.307031 4.44179 0.191797 4.83078 0.114746C5.20991 0.0396484 5.60085 0 5.99961 0ZM5.34273 2.10615L8.51618 9.03916L8.62849 8.94248C8.67469 8.90088 8.7284 8.84941 8.78924 8.78857C8.97519 8.60264 9.14132 8.40137 9.28371 8.18848C9.426 7.97578 9.54828 7.74805 9.64672 7.50928C9.74321 7.27559 9.81861 7.02861 9.86929 6.7709C9.91832 6.52275 9.9441 6.26416 9.9441 5.99814C9.9441 5.73203 9.91832 5.47344 9.86929 5.22529C9.81851 4.96777 9.74321 4.72061 9.64672 4.48701C9.54769 4.24785 9.42522 4.01992 9.28273 3.80684C9.14044 3.59443 8.9749 3.39355 8.78924 3.20781L8.77284 3.19033C8.59333 3.01328 8.39762 2.85293 8.18891 2.71338C7.97601 2.571 7.74865 2.44883 7.50986 2.35029C7.27635 2.254 7.02917 2.17871 6.77144 2.12793C6.52308 2.07891 6.26447 2.05312 5.99854 2.05312C5.88886 2.05312 5.7827 2.05723 5.68142 2.06523C5.5696 2.07393 5.46627 2.08603 5.37222 2.10107L5.34273 2.10615ZM6.65629 9.8917L3.48294 2.95811L3.37102 3.05439C3.31848 3.10146 3.26428 3.15303 3.2091 3.20801C3.02383 3.39463 2.85761 3.5959 2.71522 3.80879C2.57302 4.02139 2.45075 4.24912 2.3522 4.48789C2.25571 4.72148 2.18042 4.96855 2.12963 5.22617C2.0807 5.47432 2.05482 5.73291 2.05482 5.99902C2.05482 6.26504 2.0807 6.52373 2.12963 6.77187C2.18042 7.02959 2.25571 7.27656 2.3522 7.51025C2.45133 7.74922 2.5738 7.97715 2.71639 8.19062C2.85839 8.40293 3.02412 8.60391 3.20968 8.78955C3.39563 8.97549 3.59691 9.1416 3.80982 9.28398C4.02262 9.42646 4.25028 9.54853 4.48906 9.64717C4.72257 9.74346 4.96976 9.81885 5.22739 9.86953C5.47584 9.91855 5.73446 9.94433 6.00029 9.94433C6.11016 9.94433 6.21613 9.94033 6.3175 9.93232C6.42981 9.92353 6.53363 9.91133 6.62807 9.89629L6.65629 9.8917Z" fill="#D8453E"/>
</svg>
