<svg width="284" height="284" viewBox="0 0 284 284" fill="none" xmlns="http://www.w3.org/2000/svg">
<path d="M109.907 85.0537C110.306 85.0557 110.691 84.902 110.979 84.6252C111.268 84.3484 111.437 83.9703 111.451 83.5709C111.451 83.2649 112.811 52.8686 125.918 42.0813C129.727 38.939 134.08 37.7963 139.126 38.5853C164.938 42.5778 164.013 83.0744 164 83.4757C164.011 83.8711 164.173 84.2473 164.452 84.5274C164.731 84.8075 165.107 84.9703 165.502 84.9825C165.898 84.9946 166.283 84.8553 166.579 84.5929C166.875 84.3305 167.059 83.9649 167.095 83.5709C167.16 76.1074 166.203 68.67 164.251 61.4658C160.007 46.3323 151.485 37.361 139.603 35.5178C136.849 35.0232 134.02 35.1403 131.317 35.8608C128.613 36.5813 126.101 37.8876 123.959 39.6871C117.953 44.6319 113.505 53.5352 110.737 66.1385C109.486 71.8405 108.694 77.6336 108.37 83.4621C108.355 83.8712 108.503 84.2695 108.78 84.5702C109.058 84.8709 109.443 85.0496 109.852 85.0673L109.907 85.0537Z" fill="#070707"/>
<path d="M217.229 216.78L196.144 73.8516L116.946 72.5457L91.4199 224.724H210.373C211.369 224.724 212.353 224.51 213.258 224.095C214.163 223.68 214.969 223.076 215.619 222.322C216.27 221.568 216.751 220.683 217.028 219.726C217.306 218.77 217.374 217.765 217.229 216.78Z" fill="#FCFBFA"/>
<path d="M157.797 174.413C154.151 174.413 150.498 174.413 146.846 174.413C143.238 174.387 139.745 173.141 136.936 170.876C134.562 169.022 132.753 166.541 131.713 163.714C131.066 162.05 130.725 160.283 130.706 158.497C130.706 151.347 130.706 144.203 130.706 137.065C130.678 134.873 131.099 132.698 131.944 130.674C132.788 128.65 134.038 126.821 135.617 125.299C138.045 122.887 141.168 121.298 144.547 120.755C145.221 120.639 145.904 120.582 146.588 120.585C153.913 120.585 161.231 120.476 168.543 120.585C175.494 120.714 180.459 124.122 183.459 130.359C184.435 132.469 184.917 134.775 184.867 137.099C184.867 144.017 184.867 150.934 184.867 157.844C184.912 160.349 184.371 162.83 183.285 165.089C182.2 167.347 180.601 169.319 178.616 170.849C175.78 173.169 172.221 174.423 168.557 174.393L157.797 174.413ZM157.232 127.632C157.496 127.193 157.639 126.692 157.647 126.181C157.655 125.669 157.527 125.164 157.278 124.717C157.028 124.27 156.664 123.898 156.224 123.637C155.783 123.376 155.282 123.236 154.77 123.231C154.193 123.194 153.618 123.332 153.121 123.627C152.623 123.922 152.226 124.36 151.981 124.884C151.717 125.398 151.623 125.983 151.713 126.554C151.804 127.125 152.074 127.653 152.485 128.06C152.736 128.332 152.743 128.414 152.362 128.523C150.324 129.113 148.409 130.067 146.71 131.339C142.994 134.014 140.395 137.966 139.412 142.439C138.903 144.822 138.853 147.28 139.262 149.682C139.323 150.07 139.494 150.22 139.942 150.118C140.684 149.941 141.439 149.846 142.194 149.723C143.853 149.458 145.52 149.199 147.173 148.927L153.294 147.914C155.498 147.56 157.708 147.234 159.912 146.86C162.116 146.486 164.21 146.18 166.353 145.805C168.074 145.527 169.788 145.241 171.509 144.969C173.229 144.697 174.787 144.425 176.433 144.2C177.351 144.071 177.358 144.112 177.161 143.2C177.161 143.105 177.106 143.017 177.093 142.922C176.657 140.413 175.673 138.033 174.209 135.95C172.774 133.845 170.922 132.058 168.768 130.699C166.365 129.16 163.652 128.17 160.823 127.802C159.634 127.64 158.432 127.583 157.232 127.632V127.632ZM148.635 166.156L150.975 163.639C151.145 163.465 151.362 163.344 151.6 163.292C153.053 162.996 154.437 162.431 155.681 161.626C155.754 161.566 155.846 161.537 155.94 161.544C157.008 161.633 158.082 161.633 159.15 161.544C160.295 161.523 161.434 161.386 162.551 161.136C164.115 160.81 165.673 160.456 167.244 160.143C168.985 159.796 170.733 159.463 172.474 159.164C172.819 159.114 173.135 158.942 173.365 158.681C173.432 158.626 173.483 158.554 173.515 158.474C173.546 158.393 173.556 158.306 173.545 158.22C173.533 158.135 173.5 158.053 173.449 157.984C173.397 157.915 173.329 157.86 173.25 157.824C172.89 157.599 172.469 157.492 172.046 157.518H145.669C145.404 157.504 145.141 157.579 144.921 157.729C143.486 158.735 143.132 159.851 143.847 161.497C143.925 161.64 143.954 161.805 143.928 161.967C143.902 162.128 143.823 162.276 143.704 162.388C143.085 163.136 142.466 163.877 141.888 164.646C141.405 165.285 140.901 165.789 140.01 165.442C139.861 165.38 139.65 165.442 139.5 165.408C139.339 165.349 139.164 165.339 138.997 165.379C138.831 165.419 138.679 165.507 138.562 165.632C137.528 166.441 136.48 167.224 135.433 168.013C135.215 168.176 135.188 168.319 135.433 168.516C135.902 168.931 136.351 169.373 136.793 169.781C138.941 171.513 141.483 172.688 144.193 173.202C144.302 173.225 144.415 173.221 144.521 173.19C144.628 173.159 144.726 173.103 144.806 173.025C147.084 171.216 149.383 169.434 151.668 167.639L153.274 166.36C151.696 166.054 150.206 166.285 148.601 166.156H148.635ZM158.157 151.464H134.576C134.216 151.464 133.801 151.464 133.739 151.873C133.678 152.281 133.501 152.838 134.066 153.233C134.773 153.693 135.455 154.193 136.106 154.729C136.399 154.97 136.769 155.095 137.147 155.083C145.141 155.083 153.133 155.083 161.123 155.083H179.045C179.279 155.123 179.519 155.08 179.725 154.96C180.5 154.369 181.296 153.804 182.078 153.219C182.259 153.049 182.389 152.831 182.451 152.59C182.514 152.349 182.507 152.096 182.432 151.859C182.248 151.451 181.874 151.526 181.527 151.526L158.157 151.464Z" fill="#FA790E"/>
<path d="M142.398 191.975C142.398 193.92 142.398 195.872 142.398 197.817C142.398 198.361 142.241 198.497 141.718 198.497C141.24 198.457 140.76 198.457 140.282 198.497C139.759 198.538 139.65 198.334 139.65 197.817C139.65 194.75 139.65 191.696 139.691 188.608C139.691 186.806 139.691 184.996 139.691 183.167C139.677 183.016 139.707 182.865 139.777 182.731C139.847 182.598 139.954 182.487 140.085 182.412C141.29 181.573 142.676 181.032 144.13 180.832C145.584 180.633 147.065 180.78 148.451 181.262C149.561 181.662 150.526 182.385 151.222 183.337C151.918 184.29 152.312 185.429 152.355 186.608C152.423 189.111 151.491 191.091 149.22 192.192C148.18 192.758 147.008 193.035 145.825 192.995C144.642 192.954 143.491 192.597 142.493 191.961C142.461 191.961 142.429 191.965 142.398 191.975V191.975ZM142.398 186.533V188.839C142.387 188.964 142.404 189.09 142.447 189.207C142.491 189.325 142.56 189.432 142.649 189.519C143.319 190.136 144.152 190.548 145.049 190.706C145.946 190.864 146.869 190.761 147.71 190.41C149.941 189.343 150.369 186.193 148.784 184.377C147.2 182.561 144.268 182.874 142.629 183.772C142.398 183.894 142.398 184.092 142.398 184.309V186.533Z" fill="#FA790E"/>
<path d="M186.309 187.254C184.874 187.254 183.432 187.254 181.99 187.254C181.527 187.254 181.459 187.384 181.561 187.832C182.14 190.363 184.527 191.192 186.697 190.648C187.588 190.421 188.404 189.964 189.064 189.322C189.261 189.132 189.349 189.118 189.56 189.322C189.944 189.692 190.35 190.037 190.778 190.356C191.07 190.58 191.036 190.744 190.778 190.961C189.563 192.052 188.04 192.739 186.418 192.927C184.62 193.203 182.783 192.803 181.262 191.805C179.433 190.526 178.759 188.689 178.793 186.499C178.801 185.199 179.257 183.941 180.083 182.936C180.909 181.932 182.055 181.242 183.33 180.983C186.051 180.426 188.894 181.031 190.444 183.799C190.919 184.697 191.175 185.695 191.193 186.71C191.193 187.152 191.05 187.275 190.628 187.268C189.193 187.248 187.724 187.254 186.309 187.254ZM184.949 185.214C185.928 185.214 186.907 185.214 187.887 185.214C188.424 185.214 188.39 185.037 188.207 184.656C188 184.252 187.712 183.896 187.361 183.609C187.01 183.322 186.603 183.111 186.166 182.99C185.329 182.703 184.416 182.73 183.597 183.066C182.778 183.401 182.108 184.021 181.711 184.813C181.534 185.187 181.65 185.221 181.983 185.214C182.963 185.214 183.942 185.214 184.921 185.214H184.949Z" fill="#FA790E"/>
<path d="M160.728 187.254C159.327 187.254 157.926 187.254 156.525 187.254C156.062 187.254 155.885 187.288 155.994 187.846C156.162 188.623 156.573 189.327 157.167 189.855C157.762 190.383 158.508 190.709 159.3 190.784C160.051 190.87 160.813 190.785 161.527 190.536C162.242 190.288 162.891 189.882 163.428 189.349C163.605 189.179 163.721 189.084 163.945 189.288C164.36 189.676 164.809 190.043 165.251 190.404C165.469 190.58 165.51 190.716 165.251 190.927C164.368 191.723 163.32 192.313 162.181 192.654C161.042 192.995 159.842 193.079 158.667 192.9C157.819 192.83 156.995 192.58 156.25 192.167C155.506 191.754 154.857 191.188 154.348 190.506C152.308 187.656 152.879 183.024 156.45 181.459C158.885 180.378 161.313 180.466 163.476 182.14C164.173 182.7 164.729 183.415 165.1 184.229C165.471 185.043 165.646 185.932 165.612 186.826C165.612 187.2 165.414 187.268 165.095 187.261H160.721L160.728 187.254ZM159.422 185.214C160.388 185.214 161.347 185.214 162.306 185.214C162.864 185.214 162.809 184.969 162.646 184.636C162.443 184.231 162.156 183.874 161.804 183.589C161.452 183.304 161.044 183.098 160.606 182.983C159.768 182.694 158.854 182.719 158.034 183.053C157.213 183.387 156.542 184.008 156.144 184.799C155.974 185.16 156.069 185.214 156.416 185.207C157.429 185.228 158.429 185.234 159.422 185.234V185.214Z" fill="#FA790E"/>
<path d="M136.202 185.799C136.005 184.717 135.971 183.677 134.842 183.262C134.244 182.995 133.588 182.89 132.937 182.956C132.005 183.049 131.099 183.314 130.264 183.738C129.999 183.888 129.87 183.86 129.74 183.568C129.611 183.275 129.366 182.888 129.176 182.507C128.829 181.874 128.829 181.874 129.475 181.609C131.354 180.747 133.473 180.56 135.474 181.079C137.229 181.568 138.705 182.888 138.63 185.071C138.555 187.05 138.63 189.03 138.63 191.009C138.657 191.167 138.626 191.33 138.544 191.468C138.462 191.607 138.333 191.711 138.181 191.764C135.794 192.927 133.311 193.417 130.699 192.587C128.468 191.907 127.197 190.138 127.679 187.696C127.818 187.085 128.115 186.521 128.54 186.061C128.965 185.6 129.503 185.259 130.101 185.071C130.869 184.741 131.694 184.566 132.53 184.556C133.365 184.545 134.195 184.7 134.971 185.01C135.417 185.212 135.832 185.478 136.202 185.799ZM135.971 189.016C135.971 187.846 135.971 187.69 135.345 187.329C134.78 186.932 134.127 186.678 133.442 186.589C132.757 186.5 132.061 186.579 131.414 186.819C131.091 186.925 130.802 187.116 130.578 187.371C130.353 187.626 130.201 187.937 130.137 188.271C130.074 188.604 130.1 188.949 130.215 189.269C130.329 189.589 130.527 189.873 130.788 190.091C131.985 191.104 133.4 190.968 134.767 190.621C135.991 190.308 135.971 190.233 135.971 189.016V189.016Z" fill="#FA790E"/>
<path d="M178.657 181.085C176.855 182.684 175.155 184.207 173.434 185.71C173.114 185.982 173.128 186.146 173.434 186.445C175.195 188.343 176.93 190.261 178.678 192.172C178.8 192.308 178.97 192.417 178.977 192.675C177.991 192.675 177.018 192.675 176.046 192.675C175.922 192.669 175.802 192.632 175.697 192.568C175.591 192.504 175.503 192.414 175.44 192.308C174.195 190.9 172.964 189.472 171.699 188.07C171.529 187.88 171.414 187.458 171.019 187.622C170.804 187.685 170.619 187.822 170.495 188.009C170.37 188.195 170.315 188.419 170.339 188.642C170.393 189.812 170.373 190.982 170.427 192.151C170.427 192.58 170.298 192.689 169.91 192.668C169.374 192.634 168.835 192.634 168.299 192.668C167.856 192.702 167.754 192.553 167.754 192.131C167.754 189.288 167.754 186.445 167.754 183.609C167.754 182.071 167.754 180.534 167.754 178.997C167.754 178.596 167.863 178.446 168.265 178.467C168.804 178.494 169.344 178.494 169.883 178.467C170.271 178.467 170.359 178.603 170.353 178.963C170.353 181.044 170.319 183.119 170.312 185.187C170.312 185.289 170.264 185.418 170.4 185.533L172.386 183.67L174.944 181.296C175.056 181.166 175.214 181.083 175.386 181.065C176.447 181.092 177.521 181.085 178.657 181.085Z" fill="#FA790E"/>
<path d="M126.088 184.602C126.088 187.139 126.088 189.676 126.088 192.199C126.088 192.607 125.972 192.689 125.612 192.675C125 192.675 124.381 192.675 123.762 192.675C123.333 192.675 123.272 192.526 123.272 192.145C123.272 187.152 123.272 182.167 123.272 177.181C123.272 176.603 123.149 176.433 122.558 176.46C121.367 176.515 120.177 176.46 118.98 176.46C118.633 176.46 118.497 176.372 118.518 176.011C118.518 175.494 118.518 174.971 118.518 174.454C118.518 174.161 118.626 174.052 118.926 174.052C122.766 174.052 126.607 174.052 130.448 174.052C130.74 174.052 130.862 174.148 130.849 174.454C130.849 174.971 130.849 175.488 130.849 176.005C130.849 176.372 130.733 176.467 130.386 176.46C129.121 176.46 127.849 176.46 126.584 176.46C126.156 176.46 126.027 176.562 126.033 177.004C126.033 179.541 126.033 182.078 126.033 184.602H126.088Z" fill="#FA790E"/>
<path d="M101.561 73.8516L116.946 72.5457L91.42 224.724H76.1777C75.4534 224.722 74.7387 224.559 74.0853 224.247C73.432 223.934 72.8565 223.48 72.4005 222.917C71.9446 222.355 71.6198 221.697 71.4496 220.994C71.2794 220.29 71.2681 219.557 71.4166 218.848L101.561 73.8516Z" fill="#828181"/>
<path d="M126.931 84.7273C127.331 84.7258 127.715 84.5701 128.002 84.2926C128.29 84.015 128.459 83.6371 128.475 83.2377C128.475 82.9316 129.835 52.5422 142.942 41.7481C144.744 40.2204 146.865 39.1144 149.149 38.5107C151.433 37.9071 153.822 37.821 156.144 38.2589C181.99 42.2514 181.031 82.748 181.017 83.1493C181.028 83.5447 181.19 83.9209 181.469 84.201C181.749 84.4811 182.124 84.6439 182.52 84.656C182.915 84.6682 183.3 84.5288 183.596 84.2664C183.892 84.0041 184.077 83.6385 184.112 83.2445C184.181 75.7785 183.225 68.3383 181.269 61.1326C177.025 45.9991 168.502 37.0346 156.62 35.1914C153.866 34.6968 151.038 34.8139 148.334 35.5344C145.631 36.2549 143.119 37.5612 140.976 39.3607C134.971 44.3055 130.522 53.2087 127.754 65.8121C126.503 71.5141 125.712 77.3072 125.387 83.1357C125.373 83.5459 125.521 83.9452 125.8 84.2461C126.079 84.547 126.467 84.7249 126.877 84.7409L126.931 84.7273Z" fill="#020202"/>
<path d="M142.003 0C63.5744 0 0 63.5744 0 141.997C0 220.419 63.5744 284 142.003 284C220.432 284 284 220.426 284 141.997C284 63.5676 220.426 0 142.003 0ZM21.2617 141.997C21.2628 119.123 27.7612 96.7199 40.0004 77.3961C52.2396 58.0723 69.7161 42.6225 90.3951 32.8457C111.074 23.0688 134.105 19.367 156.806 22.1713C179.507 24.9756 200.945 34.1706 218.623 48.6857L50.1957 220.426C31.4518 198.602 21.1821 170.765 21.2617 141.997ZM227.35 227.37C206.154 248.562 177.835 261.115 147.899 262.587C117.963 264.059 88.5488 254.345 65.3768 235.335L233.804 63.5744C253.539 86.677 263.837 116.371 262.645 146.732C261.452 177.092 248.856 205.887 227.37 227.37H227.35Z" fill="#FF382C"/>
</svg>
