<svg id="Capa_2" data-name="Capa 2" xmlns="http://www.w3.org/2000/svg" viewBox="0 0 33 33"><defs><style>.cls-1{fill:#ef9b20;}.cls-2{fill:#fff;fill-rule:evenodd;}</style></defs><rect class="cls-1" width="33" height="33" rx="7.95"/><path class="cls-2" d="M17.32,6.77a2.45,2.45,0,0,1,2.47,2.46h1.79a4.26,4.26,0,0,0-8.51,0h1.8a2.44,2.44,0,0,1,2.45-2.46Zm10,22.32L26.16,10.92a.89.89,0,0,0-.89-.83H9.39a.9.9,0,0,0-.9.83L7.33,29.12a.76.76,0,0,0,.23.67.8.8,0,0,0,.63.29H26.46a.89.89,0,0,0,.87-.88v-.11ZM15.6,12.91a1.13,1.13,0,0,1-2.26,0v-.66a1.13,1.13,0,0,1,2.26,0Zm5.71,0A1.14,1.14,0,0,1,20.19,14a1.13,1.13,0,0,1-1.14-1.1v-.66a1.13,1.13,0,0,1,2.26,0Z" transform="translate(-0.72 -0.9)"/></svg>