<?xml version="1.0" encoding="UTF-8"?>
<svg id="Capa_2" xmlns="http://www.w3.org/2000/svg" viewBox="0 0 31.13 31.23">
    <defs>
        <style>.cls-1{stroke:#fff;stroke-miterlimit:10;stroke-width:.75px;}</style>
    </defs>
    <g id="Capa_1-2">
        <g>
            <g>
                <path class="cls-1"
                    d="M30.34,7.59h-5.13V1.36c0-.54-.44-.98-.98-.98H6.49c-.54,0-.98,.44-.98,.98V7.59H.79c-.23,0-.42,.19-.42,.42s.19,.42,.42,.42H5.51v1.11c0,.23,.19,.42,.42,.42s.42-.19,.42-.42v-1.11H24.37v1.11c0,.23,.19,.42,.42,.42s.42-.19,.42-.42v-1.11h5.13c.23,0,.42-.19,.42-.42s-.19-.42-.42-.42Zm-5.96,0H6.34V1.21H24.37V7.59Z" />
                <path class="cls-1"
                    d="M27.01,11.89c-.22-.08-.45,.04-.53,.25l-3.11,8.52c-.56-.21-1.17-.32-1.8-.32-1.89,0-3.55,1.01-4.48,2.51H8.3l-3.79-10.7c-.08-.22-.31-.33-.53-.25-.22,.08-.33,.31-.25,.53l3.88,10.98c.06,.17,.22,.28,.39,.28h8.67c-.23,.6-.37,1.24-.37,1.92,0,2.9,2.36,5.26,5.26,5.26s5.26-2.36,5.26-5.26c0-1.97-1.09-3.69-2.7-4.59l3.14-8.58c.08-.22-.04-.45-.25-.53Zm-1.01,13.71c0,2.44-1.99,4.43-4.43,4.43s-4.43-1.99-4.43-4.43,1.99-4.43,4.43-4.43,4.43,1.99,4.43,4.43Z" />
                <path class="cls-1"
                    d="M12.17,19.1v-6.94c0-.23-.19-.42-.42-.42s-.42,.19-.42,.42v6.94c0,.23,.19,.42,.42,.42s.42-.19,.42-.42Z" />
                <path class="cls-1"
                    d="M15.91,15.36v-3.19c0-.23-.19-.42-.42-.42s-.42,.19-.42,.42v3.19c0,.23,.19,.42,.42,.42s.42-.19,.42-.42Z" />
                <path class="cls-1"
                    d="M19.66,19.38v-7.21c0-.23-.19-.42-.42-.42s-.42,.19-.42,.42v7.21c0,.23,.19,.42,.42,.42s.42-.19,.42-.42Z" />
            </g>
            <path class="cls-1"
                d="M20.75,27.59c-.08,0-.16-.03-.22-.09l-1.03-1.03c-.12-.12-.12-.32,0-.44,.12-.12,.32-.12,.44,0l.81,.81,2.85-2.85c.12-.12,.32-.12,.44,0,.12,.12,.12,.32,0,.44l-3.07,3.07c-.06,.06-.14,.09-.22,.09Z" />
        </g>
    </g>
</svg>