<?xml version="1.0" encoding="utf-8"?>
<!-- Svg Vector Icons : http://www.onlinewebfonts.com/icon -->
<svg version="1.1" xmlns="http://www.w3.org/2000/svg" xmlns:xlink="http://www.w3.org/1999/xlink"
    x="0px" y="0px" viewBox="0 0 1000 1000" enable-background="new 0 0 1000 1000"
    xml:space="preserve">
<g><path d="M770.7,865.8l26.8-146.9c24.3-9.4,46.6-22.9,66-39.7l-2.7,14.8l-33.2,182c-2.1,11.5-5.3,23.2-9.8,33.9c-4.2,10.1-9.5,19.5-16,27.6c-6.9,8.6-15.2,15.8-24.9,20.7c-9.1,4.7-19.3,7.3-30.5,7.3v-0.1l-488.8,0v0.1c-15.1,0-27.9-3.3-38.8-9.1c-10.9-5.8-19.5-14-26.5-23.7c-5.9-8.3-10.4-17.8-13.8-27.7c-3.3-9.5-5.6-19.4-7.4-29v-0.1l-57.2-313.6l0,0l-0.1-0.4c-2.3-10.6-3.4-15.2-4.2-18.7h0l-0.5-2l0,0c-1.5-6.3-2.8-11.3-3.8-16.6c-0.8-4.3-1.6-8.8-2.3-14.3c-2.9-1.9-5.5-4-8-6.3c-4.3-3.9-8.2-8.3-11.7-13.2c-6.1-8.5-10.6-17.9-13.9-27.8c-3.2-9.4-5.5-19.4-7.2-29.2l-11.9-68.3H39c-8,0-15.2-3.3-20.5-8.6c-5.2-5.3-8.5-12.5-8.5-20.5c0-8,3.3-15.2,8.5-20.5c5.3-5.3,12.5-8.6,20.5-8.6h236.8L387.9,52c2.3-5.4,6.1-9.7,10.6-12.7c0.8-0.5,1.7-1,2.5-1.5v-3.2l12.3,0l1.1,0v0l189.3,0v-0.1c6.5,0,12.6,2.2,17.5,5.9l0,0c4.8,3.6,8.4,8.7,10.2,14.6l83.7,223.4l1.6,4.2l-0.5,0c-20.2,0-39.8,2.7-58.4,7.7L583.6,92.5l-150.3,0L339,307.5h251.7h22.6c-27.8,14.3-52.2,34.1-71.8,58l-432.4,0l10.2,58.6c1.1,6.6,2.6,13.2,4.5,19.1c1.8,5.4,3.9,10.3,6.6,14l0,0c1.8,2.5,4,4.6,6.7,5.9v0.1c2.9,1.5,6.6,2.3,11.5,2.3h343.8h2.2c-2.7,13.8-4.1,28.1-4.1,42.8c0,5.2,0.2,10.3,0.5,15.3h-0.5H164.4l0.9,3.6l0,0l0.1,0.4l0.1,0.1l0.8,3.5c1.2,5.3,2.7,11.3,4.2,18.4l0.1,0.3l0.2,0.8l0.2,0.9l0.1,0.8h0l57.2,313.2c1.2,6.7,2.7,13.2,4.7,19.2c1.8,5.4,4,10.3,6.8,14.2c1.8,2.5,4,4.6,6.7,6l0,0c2.9,1.5,6.6,2.3,11.4,2.3h488.9c1.6,0,3.1-0.4,4.5-1.2h0.1c2-1.1,3.9-2.9,5.7-5.1v-0.1c3.1-3.9,5.8-8.9,8.1-14.4C767.4,880.2,769.4,872.9,770.7,865.8L770.7,865.8z"/><path d="M744.8,313.6h0.3c26.4,3.9,50.8,12.9,72.4,25.9c22.4,13.4,41.8,31.1,57,51.8c15.4,20.7,26.7,44.3,33,69.6c6.1,24.4,7.6,50.4,3.8,76.8c-3.9,26.4-12.9,50.8-25.9,72.4c-13.4,22.4-31.1,41.8-51.8,57.1c-20.7,15.3-44.3,26.7-69.6,33c-24.4,6.1-50.3,7.6-76.6,3.7c-26.4-3.9-50.9-12.9-72.4-25.8c-22.4-13.4-41.8-31.1-57-51.8c-15.4-20.7-26.7-44.3-33-69.6c-6.1-24.4-7.6-50.4-3.7-76.7c1.6-10.8,4.1-21.6,7.5-32c3.4-10.4,7.7-20.6,12.8-30.4c5.1-9.8,11-19.2,17.6-27.8c2.8-3.6,5.7-7.2,8.7-10.7c-0.9-2.1-1.6-4.3-2-6.7v-0.2l0-0.2h0l0-0.1l-0.1-0.2c-1.1-7.5,0.9-14.8,5.1-20.6c4.1-5.6,10.5-9.8,18-11v0l0.1,0h0.2l24.9-3.9l0,0c4.3-0.8,8.8-0.4,12.9,0.9c4.1,1.3,7.9,3.6,11,6.7c3.1,3,5.4,6.8,6.8,10.8l0.1,0.1c1.4,4,1.8,8.3,1.2,12.7l-3.3,24.9c-0.9,6.9-4.3,13-9.2,17.3c-5,4.3-11.4,6.9-18.3,6.9l-0.5-0.1l-1,0l-0.7-0.1l-0.8-0.1c-2.4,2.7-4.7,5.5-6.9,8.3c-4.7,6.2-8.9,12.7-12.4,19.6l0,0c-3.6,6.9-6.6,14.1-9,21.5c-2.3,7.3-4.1,14.8-5.3,22.6c-2.8,18.7-1.7,37.1,2.6,54.3c4.5,17.9,12.5,34.6,23.3,49.1c10.8,14.6,24.5,27.1,40.3,36.5c15.2,9.1,32.5,15.5,51.1,18.2c18.7,2.8,37.1,1.7,54.3-2.6c17.9-4.5,34.6-12.5,49.2-23.3c14.6-10.8,27-24.5,36.5-40.3c9.1-15.2,15.4-32.5,18.2-51.1c2.8-18.7,1.7-37.1-2.6-54.3c-4.5-17.9-12.5-34.6-23.3-49.2c-10.8-14.6-24.5-27.1-40.3-36.5c-8.3-5-17.1-9.1-26.5-12.3v28.5c0,8.6-3.6,16.5-9.3,22.2c-5.7,5.7-13.6,9.2-22.2,9.2c-8.7,0-16.6-3.5-22.2-9.2c-5.7-5.7-9.2-13.6-9.2-22.2v-63.1c0-8.7,3.5-16.5,9.2-22.2l0,0c4.2-4.1,9.4-6.5,15.4-7.5C730.3,311.8,737.5,312.7,744.8,313.6L744.8,313.6z"/><path d="M731.9,472.7c1.6,0.7,3.1,1.5,4.5,2.4l1,0.7l0,0c1.4,0.9,2.7,1.9,3.9,3l0.5,0.4l0,0l0.9,0.8l0.4,0.4c3.2,3.3,5.8,7.2,7.6,11.6l0,0c1.8,4.3,2.8,9,2.8,13.9c0,10-4.1,19.2-10.7,25.7c-6.6,6.6-15.7,10.7-25.7,10.7c-4.9,0-9.6-1-13.9-2.8c-4.5-1.8-8.6-4.5-11.9-7.9c-0.4-0.4-0.7-0.8-1-1.2l0,0l-0.1-0.1l0,0c-1.3-1.4-2.6-3.1-3.8-5l0,0c-0.9-1.4-1.7-2.9-2.4-4.6l-52.7-83.7c-3.6-5.8-1.9-13.5,3.9-17.1c4.2-2.6,9.3-2.5,13.2,0L731.9,472.7z"/><path d="M961,320.8H841.8c13.6,9.1,26.1,19.6,37.4,31.4h31.8l-7.1,30.7c8.9,13.2,16.4,27.4,22.3,42.5l17-73.2h18c8.6,0,15.7-7,15.7-15.7C976.7,327.9,969.7,320.8,961,320.8L961,320.8z"/><path d="M841.8,307.5H961h0v0c8,0,15.2,3.3,20.5,8.5c5.2,5.3,8.5,12.5,8.5,20.4v0c0,8-3.3,15.2-8.5,20.5c-5.3,5.3-12.5,8.6-20.5,8.6h-7.4l-14.6,62.8l-5,21.4c-8-29.9-22-57.4-40.7-81.1l-2.5-3.1c-19.6-24-44-43.8-71.8-58.1H841.8z"/></g>
</svg>