<svg width="368" height="368" viewBox="0 0 368 368"   xmlns="http://www.w3.org/2000/svg">
<path fill-rule="evenodd" clip-rule="evenodd" d="M0 26.5V53H26.5H53V26.5V0H26.5H0V26.5ZM60 11.5V23H67.5H75V19V15H79C82.905 15 83 14.917 83 11.5C83 8.167 83.167 8 86.5 8C89.917 8 90 7.905 90 4V0H82.5H75V7.5V15H71.5H68V7.5V0H64H60V11.5ZM135 4C135 7.905 134.917 8 131.5 8C128.167 8 128 8.167 128 11.5C128 14.917 127.905 15 124 15C120.095 15 120 14.917 120 11.5V8H109H98V15.5V23H90.5H83V26.5V30H75.5H68V34V38H64H60V53V68H56.5C53.083 68 53 67.905 53 64V60H49H45V64V68H49C52.905 68 53 68.083 53 71.5V75H41.5H30V71.5C30 68.083 30.095 68 34 68H38V64V60H26.5H15V64V68H19C22.905 68 23 68.083 23 71.5V75H15.5H8V79V83H4H0V109V135H7.5H15V131.5C15 128.083 15.095 128 19 128H23V135.5V143H19C15.095 143 15 143.083 15 146.5C15 149.833 14.833 150 11.5 150H8V157.5V165H4H0V169V173H4C7.905 173 8 173.083 8 176.5C8 179.917 7.905 180 4 180H0V191.5V203H4C7.905 203 8 203.083 8 206.5V210H15.5H23V214V218H15.5H8V221.5C8 224.917 7.905 225 4 225H0V244V263H4C7.905 263 8 263.083 8 266.5C8 269.917 7.905 270 4 270H0V277.5V285H4H8V292.5V300H4H0V304V308H11.5H23V304C23 300.095 23.083 300 26.5 300C29.833 300 30 299.833 30 296.5V293H22.5H15V289C15 285.095 14.917 285 11.5 285C8.167 285 8 284.833 8 281.5C8 278.167 8.167 278 11.5 278C14.917 278 15 277.905 15 274V270H22.5H30V255V240H26.5C23.167 240 23 239.833 23 236.5C23 233.167 23.167 233 26.5 233C29.917 233 30 232.905 30 229C30 225.095 29.917 225 26.5 225C23.167 225 23 224.833 23 221.5V218H30.5H38V225.5V233H49H60V236.5V240H52.5H45V244V248H49C52.905 248 53 248.083 53 251.5C53 254.917 52.905 255 49 255H45V259C45 262.905 44.917 263 41.5 263C38.167 263 38 263.167 38 266.5C38 269.833 38.167 270 41.5 270C44.917 270 45 270.095 45 274V278H49C52.905 278 53 278.083 53 281.5V285H45.5H38V281.5C38 278.083 37.905 278 34 278C30.095 278 30 278.083 30 281.5C30 284.917 30.095 285 34 285H38V289V293H49H60V296.5V300H52.5H45V304V308H52.5H60V311.5C60 314.917 60.095 315 64 315H68V322.5V330H64H60V341.5V353H67.5H75V356.5C75 359.833 74.833 360 71.5 360C68.083 360 68 360.095 68 364C68 367.905 68.083 368 71.5 368C74.917 368 75 367.905 75 364V360H79H83V364C83 367.905 83.083 368 86.5 368C89.917 368 90 367.905 90 364V360H94H98V364V368H116.5H135V356.5V345H142.5H150V349C150 352.905 149.917 353 146.5 353H143V360.5V368H154H165V360.5V353H169C172.905 353 173 353.083 173 356.5V360H180.5H188V349V338H191.5C194.833 338 195 338.167 195 341.5C195 344.917 195.095 345 199 345H203V349V353H199H195V360.5V368H199H203V360.5V353H206.5C209.833 353 210 353.167 210 356.5C210 359.917 210.095 360 214 360C217.905 360 218 359.917 218 356.5C218 353.083 217.905 353 214 353H210V341.5V330H214H218V337.5V345H225.5H233V356.5V368H236.5H240V356.5V345H236.5C233.167 345 233 344.833 233 341.5C233 338.083 232.905 338 229 338H225V334C225 330.095 224.917 330 221.5 330C218.167 330 218 329.833 218 326.5C218 323.167 218.167 323 221.5 323C224.917 323 225 322.905 225 319V315H229H233V307.5V300H244H255V296.5V293H266.5H278V289C278 285.095 278.083 285 281.5 285C284.917 285 285 285.095 285 289V293H289H293V289V285H289C285.095 285 285 284.917 285 281.5V278H292.5H300V285.5V293H315H330V285.5V278H334C337.905 278 338 278.083 338 281.5C338 284.833 338.167 285 341.5 285C344.833 285 345 284.833 345 281.5C345 278.083 345.095 278 349 278H353V304V330H349H345V334V338H349H353V334V330H360.5H368V322.5V315H364H360V304V293H364H368V289V285H364C360.095 285 360 284.917 360 281.5C360 278.167 359.833 278 356.5 278C353.083 278 353 277.905 353 274V270H360.5H368V262.5V255H364C360.095 255 360 254.917 360 251.5C360 248.167 359.833 248 356.5 248C353.083 248 353 247.905 353 244V240H360.5H368V232.5V225H364C360.095 225 360 224.917 360 221.5C360 218.083 360.095 218 364 218H368V199V180H353H338V172.5V165H330.5H323V161.5C323 158.167 323.167 158 326.5 158C329.917 158 330 157.905 330 154V150H334C337.905 150 338 149.917 338 146.5C338 143.167 338.167 143 341.5 143C344.917 143 345 142.905 345 139V135H349H353V142.5V150H349H345V161.5V173H356.5H368V169V165H360.5H353V157.5V150H356.5C359.917 150 360 150.095 360 154V158H364H368V154V150H364C360.095 150 360 149.917 360 146.5C360 143.083 360.095 143 364 143H368V139V135H360.5H353V131.5C353 128.083 352.905 128 349 128H345V124V120H349C352.905 120 353 119.917 353 116.5C353 113.167 353.167 113 356.5 113H360V120.5V128H364H368V116.5V105H360.5H353V97.5V90H345.5H338V86.5C338 83.083 337.905 83 334 83H330V79V75H334C337.905 75 338 74.917 338 71.5C338 68.083 337.905 68 334 68H330V64V60H319H308V52.5V45H304H300V49C300 52.905 299.917 53 296.5 53H293V45.5V38H289H285V34C285 30.095 284.917 30 281.5 30C278.167 30 278 29.833 278 26.5C278 23.083 277.905 23 274 23H270V19C270 15.095 269.917 15 266.5 15C263.167 15 263 14.833 263 11.5C263 8.167 263.167 8 266.5 8C269.917 8 270 7.905 270 4C270 0.095 269.917 0 266.5 0C263.083 0 263 0.095 263 4V8H255.5H248V15.5V23H240.5H233V15.5V8H236.5C239.917 8 240 7.905 240 4C240 0.095 239.917 0 236.5 0C233.083 0 233 0.095 233 4V8H229C225.095 8 225 8.083 225 11.5C225 14.833 224.833 15 221.5 15H218V7.5V0H214H210V4C210 7.905 209.917 8 206.5 8C203.083 8 203 7.905 203 4V0H191.5H180V4V8H191.5H203V15.5V23H199H195V19C195 15.095 194.917 15 191.5 15C188.083 15 188 15.095 188 19V23H184C180.095 23 180 23.083 180 26.5V30H172.5H165V41.5V53H161.5C158.083 53 158 52.905 158 49V45H154H150V49V53H154C157.905 53 158 53.083 158 56.5V60H146.5H135V56.5C135 53.083 135.095 53 139 53H143V49V45H139C135.095 45 135 44.917 135 41.5C135 38.167 134.833 38 131.5 38H128V26.5V15H131.5C134.917 15 135 15.095 135 19V23H139C142.905 23 143 23.083 143 26.5C143 29.833 143.167 30 146.5 30C149.917 30 150 30.095 150 34V38H154H158V26.5V15H161.5C164.917 15 165 15.095 165 19V23H169H173V19V15H169C165.095 15 165 14.917 165 11.5V8H154H143V4V0H139H135V4ZM278 4C278 7.905 278.083 8 281.5 8C284.833 8 285 8.167 285 11.5C285 14.917 285.095 15 289 15H293V22.5V30H296.5C299.833 30 300 29.833 300 26.5C300 23.083 300.095 23 304 23H308V11.5V0H304H300V4V8H292.5H285V4C285 0.095 284.917 0 281.5 0C278.083 0 278 0.095 278 4ZM315 26.5V53H341.5H368V26.5V0H341.5H315V26.5ZM45 26.5V45H26.5H8V26.5V8H26.5H45V26.5ZM360 26.5V45H341.5H323V26.5V8H341.5H360V26.5ZM15 26.5V38H26.5H38V26.5V15H26.5H15V26.5ZM113 19C113 22.905 113.083 23 116.5 23H120V30.5V38H124C127.905 38 128 38.083 128 41.5C128 44.833 128.167 45 131.5 45C134.917 45 135 45.095 135 49C135 52.905 134.917 53 131.5 53C128.083 53 128 52.905 128 49V45H124H120V52.5V60H124H128V67.5V75H120.5H113V82.5V90H109H105V82.5V75H101.5C98.083 75 98 75.095 98 79V83H94H90V79C90 75.095 89.917 75 86.5 75C83.083 75 83 75.095 83 79V83H79C75.095 83 75 83.083 75 86.5C75 89.917 75.095 90 79 90H83V94V98H94H105V101.5C105 104.917 105.095 105 109 105C112.905 105 113 104.917 113 101.5C113 98.167 113.167 98 116.5 98C119.833 98 120 98.167 120 101.5C120 104.833 119.833 105 116.5 105C113.083 105 113 105.095 113 109V113H120.5H128V105.5V98H131.5C134.917 98 135 97.905 135 94V90H127.5H120V86.5V83H127.5H135V75.5V68H139H143V75.5V83H139C135.095 83 135 83.083 135 86.5V90H142.5H150V86.5C150 83.083 150.095 83 154 83H158V90.5V98H161.5H165V86.5V75H157.5H150V71.5C150 68.083 150.095 68 154 68H158V64C158 60.095 158.083 60 161.5 60H165V67.5V75H169H173V86.5V98H176.5H180V90.5V83H184C187.905 83 188 83.083 188 86.5C188 89.833 188.167 90 191.5 90C194.833 90 195 89.833 195 86.5C195 83.083 195.095 83 199 83C202.905 83 203 83.083 203 86.5C203 89.917 202.905 90 199 90H195V94V98H202.5H210V86.5V75H195H180V71.5V68H195H210V71.5C210 74.917 210.095 75 214 75H218V67.5V60H214C210.095 60 210 59.917 210 56.5C210 53.167 209.833 53 206.5 53H203V41.5V30H206.5C209.917 30 210 30.095 210 34V38H214H218V34C218 30.095 218.083 30 221.5 30H225V49V68H232.5H240V71.5C240 74.917 240.095 75 244 75H248V79V83H255.5H263V79V75H259H255V64V53H251.5C248.083 53 248 52.905 248 49V45H244H240V49C240 52.905 239.917 53 236.5 53C233.083 53 233 52.905 233 49C233 45.095 233.083 45 236.5 45C239.833 45 240 44.833 240 41.5C240 38.167 239.833 38 236.5 38C233.083 38 233 37.905 233 34V30H240.5H248V26.5C248 23.167 248.167 23 251.5 23C254.917 23 255 22.905 255 19V15H259H263V26.5V38H259H255V45.5V53H259H263V49C263 45.095 263.083 45 266.5 45C269.917 45 270 45.095 270 49C270 52.905 269.917 53 266.5 53C263.167 53 263 53.167 263 56.5C263 59.833 263.167 60 266.5 60C269.917 60 270 60.095 270 64C270 67.905 269.917 68 266.5 68C263.167 68 263 68.167 263 71.5C263 74.833 263.167 75 266.5 75C269.917 75 270 75.095 270 79V83H281.5H293V79V75H285.5H278V71.5C278 68.167 278.167 68 281.5 68C284.917 68 285 67.905 285 64V60H289H293V64V68H304H315V71.5C315 74.917 315.095 75 319 75C322.905 75 323 74.917 323 71.5C323 68.167 323.167 68 326.5 68C329.833 68 330 68.167 330 71.5C330 74.833 329.833 75 326.5 75C323.083 75 323 75.095 323 79C323 82.905 323.083 83 326.5 83C329.833 83 330 83.167 330 86.5C330 89.917 330.095 90 334 90H338V94C338 97.905 338.083 98 341.5 98C344.833 98 345 98.167 345 101.5V105H337.5H330V109V113H322.5H315V116.5C315 119.833 314.833 120 311.5 120C308.083 120 308 120.095 308 124C308 127.905 308.083 128 311.5 128C314.833 128 315 128.167 315 131.5C315 134.833 314.833 135 311.5 135C308.083 135 308 135.095 308 139C308 142.905 308.083 143 311.5 143H315V150.5V158H311.5C308.167 158 308 158.167 308 161.5C308 164.917 307.905 165 304 165C300.095 165 300 164.917 300 161.5C300 158.167 299.833 158 296.5 158C293.167 158 293 158.167 293 161.5C293 164.917 292.905 165 289 165H285V169C285 172.905 284.917 173 281.5 173C278.167 173 278 173.167 278 176.5V180H270.5H263V187.5V195H259H255V199V203H262.5H270V195.5V188H274C277.905 188 278 188.083 278 191.5C278 194.833 278.167 195 281.5 195C284.833 195 285 194.833 285 191.5C285 188.083 285.095 188 289 188C292.905 188 293 188.083 293 191.5C293 194.917 292.905 195 289 195H285V202.5V210H289C292.905 210 293 209.917 293 206.5V203H300.5H308V206.5C308 209.833 308.167 210 311.5 210C314.833 210 315 209.833 315 206.5C315 203.083 315.095 203 319 203C322.905 203 323 203.083 323 206.5C323 209.833 323.167 210 326.5 210C329.833 210 330 209.833 330 206.5C330 203.083 330.095 203 334 203H338V195.5V188H349H360V195.5V203H356.5C353.167 203 353 203.167 353 206.5V210H345.5H338V214C338 217.905 338.083 218 341.5 218C344.833 218 345 218.167 345 221.5V225H352.5H360V229C360 232.905 359.917 233 356.5 233C353.167 233 353 233.167 353 236.5C353 239.917 352.905 240 349 240H345V244V248H349C352.905 248 353 248.083 353 251.5C353 254.833 353.167 255 356.5 255C359.917 255 360 255.095 360 259C360 262.905 359.917 263 356.5 263C353.167 263 353 263.167 353 266.5C353 269.917 352.905 270 349 270C345.095 270 345 269.917 345 266.5V263H337.5H330V259C330 255.095 329.917 255 326.5 255C323.167 255 323 254.833 323 251.5V248H330.5H338V244C338 240.095 338.083 240 341.5 240C344.833 240 345 239.833 345 236.5C345 233.167 344.833 233 341.5 233H338V225.5V218H330.5H323V221.5C323 224.833 323.167 225 326.5 225C329.917 225 330 225.095 330 229C330 232.905 329.917 233 326.5 233C323.167 233 323 233.167 323 236.5V240H308H293V244C293 247.905 293.083 248 296.5 248C299.833 248 300 248.167 300 251.5C300 254.917 300.095 255 304 255C307.905 255 308 254.917 308 251.5C308 248.167 308.167 248 311.5 248C314.833 248 315 248.167 315 251.5C315 254.833 314.833 255 311.5 255C308.083 255 308 255.095 308 259V263H315.5H323V266.5C323 269.833 323.167 270 326.5 270C329.917 270 330 270.095 330 274C330 277.905 329.917 278 326.5 278C323.083 278 323 277.905 323 274V270H315.5H308V274V278H304H300V274V270H285H270V274V278H274C277.905 278 278 278.083 278 281.5V285H263H248V289V293H240.5H233V296.5C233 299.917 232.905 300 229 300H225V304C225 307.905 224.917 308 221.5 308H218V315.5V323H214C210.095 323 210 323.083 210 326.5C210 329.833 209.833 330 206.5 330C203.167 330 203 329.833 203 326.5C203 323.167 203.167 323 206.5 323C209.917 323 210 322.905 210 319C210 315.095 209.917 315 206.5 315H203V307.5V300H199C195.095 300 195 299.917 195 296.5C195 293.083 195.095 293 199 293H203V289V285H210.5H218V289V293H225.5H233V289V285H229C225.095 285 225 284.917 225 281.5V278H217.5H210V274C210 270.095 209.917 270 206.5 270C203.083 270 203 270.095 203 274V278H199H195V274C195 270.095 194.917 270 191.5 270H188V281.5V293H184H180V289V285H165H150V281.5V278H157.5H165V270.5V263H161.5C158.167 263 158 263.167 158 266.5C158 269.917 157.905 270 154 270C150.095 270 150 269.917 150 266.5C150 263.167 149.833 263 146.5 263H143V274V285H135.5H128V289V293H124H120V289C120 285.095 119.917 285 116.5 285H113V292.5V300H109C105.095 300 105 299.917 105 296.5C105 293.167 104.833 293 101.5 293C98.083 293 98 292.905 98 289V285H105.5H113V277.5V270H109H105V259V248H109H113V259V270H124H135V266.5C135 263.167 134.833 263 131.5 263H128V255.5V248H124H120V244V240H112.5H105V236.5V233H94H83V236.5V240H90.5H98V244V248H90.5H83V244V240H79H75V229V218H71.5C68.083 218 68 217.905 68 214V210H64H60V217.5V225H52.5H45V221.5C45 218.167 44.833 218 41.5 218H38V210.5V203H45.5H53V206.5C53 209.833 53.167 210 56.5 210C59.833 210 60 209.833 60 206.5V203H67.5H75V199C75 195.095 74.917 195 71.5 195C68.167 195 68 194.833 68 191.5V188H79H90V191.5C90 194.833 89.833 195 86.5 195C83.083 195 83 195.095 83 199V203H79C75.095 203 75 203.083 75 206.5V210H82.5H90V206.5C90 203.083 90.095 203 94 203H98V199C98 195.095 98.083 195 101.5 195C104.917 195 105 195.095 105 199V203H109H113V210.5V218H116.5C119.917 218 120 217.905 120 214V210H124H128V214C128 217.905 128.083 218 131.5 218C134.833 218 135 218.167 135 221.5V225H127.5H120V232.5V240H124C127.905 240 128 239.917 128 236.5C128 233.167 128.167 233 131.5 233H135V244V255H139H143V247.5V240H146.5H150V232.5V225H146.5C143.167 225 143 224.833 143 221.5C143 218.167 143.167 218 146.5 218H150V210.5V203H154H158V199V195H143H128V199V203H124H120V199C120 195.095 119.917 195 116.5 195H113V187.5V180H105.5H98V176.5V173H105.5H113V169V165H101.5H90V169C90 172.905 89.917 173 86.5 173C83.167 173 83 173.167 83 176.5V180H75.5H68V176.5C68 173.167 68.167 173 71.5 173C74.917 173 75 172.905 75 169V165H49H23V169V173H15.5H8V169C8 165.095 8.083 165 11.5 165H15V157.5V150H19H23V154C23 157.905 23.083 158 26.5 158H30V146.5V135H34C37.905 135 38 134.917 38 131.5C38 128.083 37.905 128 34 128H30V124C30 120.095 29.917 120 26.5 120H23V109V98H19C15.095 98 15 98.083 15 101.5C15 104.833 14.833 105 11.5 105H8V97.5V90H11.5C14.833 90 15 89.833 15 86.5C15 83.083 15.095 83 19 83H23V79C23 75.095 23.083 75 26.5 75C29.917 75 30 75.095 30 79C30 82.905 29.917 83 26.5 83C23.167 83 23 83.167 23 86.5V90H30.5H38V97.5V105H41.5C44.833 105 45 104.833 45 101.5V98H52.5H60V94V90H64H68V79V68H71.5C74.833 68 75 68.167 75 71.5C75 74.917 75.095 75 79 75H83V67.5V60H79C75.095 60 75 59.917 75 56.5C75 53.167 74.833 53 71.5 53C68.083 53 68 52.905 68 49C68 45.095 68.083 45 71.5 45C74.833 45 75 44.833 75 41.5V38H82.5H90V34V30H94C97.905 30 98 29.917 98 26.5C98 23.167 98.167 23 101.5 23C104.917 23 105 22.905 105 19V15H109H113V19ZM150 19C150 22.905 149.917 23 146.5 23C143.083 23 143 22.905 143 19C143 15.095 143.083 15 146.5 15C149.917 15 150 15.095 150 19ZM218 19V23H214H210V19V15H214H218V19ZM330 26.5V38H341.5H353V26.5V15H341.5H330V26.5ZM98 34V38H94H90V45.5V53H94C97.905 53 98 53.083 98 56.5C98 59.917 97.905 60 94 60H90V64V68H97.5H105V71.5C105 74.917 105.095 75 109 75C112.905 75 113 74.917 113 71.5C113 68.167 113.167 68 116.5 68C119.917 68 120 67.905 120 64C120 60.095 119.917 60 116.5 60H113V52.5V45H116.5C119.833 45 120 44.833 120 41.5C120 38.167 119.833 38 116.5 38C113.083 38 113 37.905 113 34V30H105.5H98V34ZM248 34C248 37.905 248.083 38 251.5 38C254.917 38 255 37.905 255 34C255 30.095 254.917 30 251.5 30C248.083 30 248 30.095 248 34ZM113 41.5C113 44.917 112.905 45 109 45H105V49C105 52.905 104.917 53 101.5 53H98V45.5V38H105.5H113V41.5ZM195 49V60H184H173V49V38H184H195V49ZM75 49V53H79H83V49V45H79H75V49ZM180 49V53H184H188V49V45H184H180V49ZM210 49V53H214H218V49V45H214H210V49ZM285 49C285 52.905 284.917 53 281.5 53C278.083 53 278 52.905 278 49C278 45.095 278.083 45 281.5 45C284.917 45 285 45.095 285 49ZM345 64V68H356.5H368V64V60H356.5H345V64ZM60 79C60 82.905 59.917 83 56.5 83C53.167 83 53 83.167 53 86.5C53 89.917 52.905 90 49 90C45.095 90 45 89.917 45 86.5C45 83.083 45.095 83 49 83H53V79C53 75.095 53.083 75 56.5 75C59.917 75 60 75.095 60 79ZM225 79V83H229H233V90.5V98H229H225V105.5V113H217.5H210V109V105H202.5H195V101.5V98H187.5H180V101.5C180 104.833 179.833 105 176.5 105C173.167 105 173 104.833 173 101.5C173 98.083 172.905 98 169 98C165.095 98 165 98.083 165 101.5C165 104.833 164.833 105 161.5 105C158.167 105 158 104.833 158 101.5V98H146.5H135V101.5C135 104.917 135.095 105 139 105H143V109V113H139H135V120.5V128H139C142.905 128 143 128.083 143 131.5V135H135.5H128V139V143H124H120V135.5V128H116.5C113.083 128 113 127.905 113 124V120H105.5H98V116.5C98 113.167 98.167 113 101.5 113C104.917 113 105 112.905 105 109C105 105.095 104.917 105 101.5 105C98.083 105 98 105.095 98 109V113H94H90V120.5V128H86.5C83.083 128 83 127.905 83 124V120H75.5H68V124V128H64C60.095 128 60 128.083 60 131.5V135H49H38V139V143H45.5H53V146.5C53 149.917 52.905 150 49 150H45V154V158H49H53V154C53 150.095 53.083 150 56.5 150C59.917 150 60 150.095 60 154V158H64H68V154V150H64H60V142.5V135H64C67.905 135 68 134.917 68 131.5C68 128.167 68.167 128 71.5 128C74.833 128 75 128.167 75 131.5V135H82.5H90V139V143H82.5H75V146.5V150H82.5H90V154V158H101.5H113V161.5C113 164.833 113.167 165 116.5 165H120V180V195H124H128V187.5V180H131.5C134.917 180 135 180.095 135 184V188H146.5H158V191.5C158 194.833 158.167 195 161.5 195C164.917 195 165 195.095 165 199C165 202.905 164.917 203 161.5 203H158V214V225H165.5H173V221.5C173 218.167 173.167 218 176.5 218H180V225.5V233H184H188V244V255H184H180V259C180 262.905 179.917 263 176.5 263C173.083 263 173 262.905 173 259V255H169C165.095 255 165 254.917 165 251.5V248H172.5H180V244V240H172.5H165V236.5C165 233.167 164.833 233 161.5 233C158.167 233 158 233.167 158 236.5C158 239.917 157.905 240 154 240H150V244V248H154C157.905 248 158 248.083 158 251.5C158 254.833 158.167 255 161.5 255C164.917 255 165 255.095 165 259V263H169C172.905 263 173 263.083 173 266.5C173 269.833 173.167 270 176.5 270C179.833 270 180 269.833 180 266.5V263H187.5H195V266.5C195 269.917 195.095 270 199 270C202.905 270 203 269.917 203 266.5C203 263.167 203.167 263 206.5 263H210V251.5V240H214H218V247.5V255H221.5C224.917 255 225 255.095 225 259C225 262.905 224.917 263 221.5 263C218.167 263 218 263.167 218 266.5C218 269.833 218.167 270 221.5 270C224.917 270 225 270.095 225 274V278H232.5H240V281.5C240 284.917 240.095 285 244 285C247.905 285 248 284.917 248 281.5C248 278.167 248.167 278 251.5 278C254.917 278 255 277.905 255 274C255 270.095 254.917 270 251.5 270C248.167 270 248 269.833 248 266.5V263H255.5H263V266.5C263 269.833 263.167 270 266.5 270H270V262.5V255H259H248V247.5V240H240.5H233V244C233 247.905 233.083 248 236.5 248C239.833 248 240 248.167 240 251.5V255H232.5H225V247.5V240H221.5H218V232.5V225H221.5C224.917 225 225 225.095 225 229V233H229H233V229V225H244H255V232.5V240H259H263V244C263 247.905 263.083 248 266.5 248C269.917 248 270 247.905 270 244V240H277.5H285V236.5V233H296.5H308V229C308 225.095 308.083 225 311.5 225C314.917 225 315 225.095 315 229V233H319H323V229V225H319C315.095 225 315 224.917 315 221.5C315 218.083 315.095 218 319 218H323V214V210H319H315V214V218H307.5H300V214C300 210.095 299.917 210 296.5 210C293.083 210 293 210.095 293 214C293 217.905 293.083 218 296.5 218C299.833 218 300 218.167 300 221.5V225H292.5H285V217.5V210H270H255V214V218H247.5H240V214V210H244C247.905 210 248 209.917 248 206.5C248 203.083 247.905 203 244 203C240.095 203 240 203.083 240 206.5C240 209.833 239.833 210 236.5 210C233.083 210 233 210.095 233 214V218H225.5H218V214V210H214C210.095 210 210 209.917 210 206.5C210 203.083 210.095 203 214 203H218V199C218 195.095 218.083 195 221.5 195C224.833 195 225 194.833 225 191.5C225 188.083 225.095 188 229 188C232.905 188 233 188.083 233 191.5C233 194.833 233.167 195 236.5 195C239.833 195 240 194.833 240 191.5C240 188.167 239.833 188 236.5 188C233.083 188 233 187.905 233 184C233 180.095 233.083 180 236.5 180C239.833 180 240 179.833 240 176.5C240 173.083 240.095 173 244 173H248V169V165H244H240V169C240 172.905 239.917 173 236.5 173C233.167 173 233 173.167 233 176.5C233 179.917 232.905 180 229 180C225.095 180 225 179.917 225 176.5C225 173.167 224.833 173 221.5 173C218.083 173 218 172.905 218 169V165H210.5H203V161.5V158H210.5H218V154C218 150.095 218.083 150 221.5 150H225V157.5V165H229C232.905 165 233 164.917 233 161.5V158H248H263V161.5C263 164.917 262.905 165 259 165H255V169V173H259H263V169C263 165.095 263.083 165 266.5 165C269.917 165 270 165.095 270 169V173H274H278V165.5V158H285.5H293V154C293 150.095 293.083 150 296.5 150C299.917 150 300 150.095 300 154V158H304H308V154V150H304C300.095 150 300 149.917 300 146.5V143H289H278V139V135H289H300V131.5C300 128.167 299.833 128 296.5 128C293.083 128 293 127.905 293 124V120H300.5H308V116.5C308 113.167 308.167 113 311.5 113C314.917 113 315 112.905 315 109V105H322.5H330V97.5V90H322.5H315V97.5V105H307.5H300V101.5C300 98.083 300.095 98 304 98H308V94V90H304C300.095 90 300 89.917 300 86.5V83H307.5H315V79V75H307.5H300V79C300 82.905 299.917 83 296.5 83H293V94V105H289C285.095 105 285 104.917 285 101.5C285 98.167 284.833 98 281.5 98C278.083 98 278 97.905 278 94V90H270.5H263V97.5V105H248H233V101.5C233 98.167 233.167 98 236.5 98H240V90.5V83H236.5C233.083 83 233 82.905 233 79V75H229H225V79ZM345 79V83H349H353V79V75H349H345V79ZM360 82.5V90H364H368V82.5V75H364H360V82.5ZM68 101.5C68 104.917 67.905 105 64 105H60V109C60 112.905 59.917 113 56.5 113C53.083 113 53 112.905 53 109V105H49H45V109V113H49C52.905 113 53 113.083 53 116.5V120H45.5H38V116.5C38 113.083 37.905 113 34 113C30.095 113 30 113.083 30 116.5C30 119.917 30.095 120 34 120H38V124V128H45.5H53V124C53 120.095 53.083 120 56.5 120C59.833 120 60 119.833 60 116.5V113H67.5H75V105.5V98H71.5C68.167 98 68 98.167 68 101.5ZM278 101.5C278 104.833 278.167 105 281.5 105C284.917 105 285 105.095 285 109C285 112.905 284.917 113 281.5 113C278.167 113 278 113.167 278 116.5C278 119.833 278.167 120 281.5 120C284.917 120 285 120.095 285 124C285 127.905 284.917 128 281.5 128C278.167 128 278 128.167 278 131.5V135H270.5H263V139V143H270.5H278V146.5V150H266.5H255V142.5V135H251.5H248V142.5V150H244C240.095 150 240 149.917 240 146.5C240 143.167 239.833 143 236.5 143C233.083 143 233 142.905 233 139V135H229H225V124V113H240H255V116.5C255 119.833 254.833 120 251.5 120C248.083 120 248 120.095 248 124C248 127.905 248.083 128 251.5 128C254.833 128 255 128.167 255 131.5C255 134.917 255.095 135 259 135H263V127.5V120H266.5C269.833 120 270 119.833 270 116.5C270 113.167 269.833 113 266.5 113C263.083 113 263 112.905 263 109C263 105.095 263.083 105 266.5 105C269.833 105 270 104.833 270 101.5C270 98.083 270.095 98 274 98C277.905 98 278 98.083 278 101.5ZM173 109V113H191.5H210V116.5C210 119.917 210.095 120 214 120H218V131.5V143H214C210.095 143 210 143.083 210 146.5C210 149.833 209.833 150 206.5 150C203.167 150 203 149.833 203 146.5C203 143.167 203.167 143 206.5 143C209.917 143 210 142.905 210 139C210 135.095 209.917 135 206.5 135C203.167 135 203 134.833 203 131.5C203 128.167 203.167 128 206.5 128C209.917 128 210 127.905 210 124V120H191.5H173V116.5C173 113.083 172.905 113 169 113H165V109V105H169H173V109ZM270 109V113H274H278V109V105H274H270V109ZM15 120.5V128H11.5H8V120.5V113H11.5H15V120.5ZM345 116.5C345 119.833 344.833 120 341.5 120H338V131.5V143H334H330V139C330 135.095 329.917 135 326.5 135C323.167 135 323 134.833 323 131.5C323 128.167 323.167 128 326.5 128C329.917 128 330 127.905 330 124V120H334C337.905 120 338 119.917 338 116.5C338 113.167 338.167 113 341.5 113C344.833 113 345 113.167 345 116.5ZM165 124V128H172.5H180V131.5V135H187.5H195V139C195 142.905 194.917 143 191.5 143C188.167 143 188 143.167 188 146.5C188 149.833 188.167 150 191.5 150C194.917 150 195 150.095 195 154V158H184H173V154C173 150.095 173.083 150 176.5 150H180V142.5V135H176.5C173.083 135 173 135.095 173 139V143H169H165V150.5V158H161.5H158V150.5V143H161.5C164.917 143 165 142.905 165 139V135H157.5H150V131.5C150 128.083 150.095 128 154 128H158V124C158 120.095 158.083 120 161.5 120C164.917 120 165 120.095 165 124ZM270 124V128H274H278V124V120H274H270V124ZM113 139V150H109C105.095 150 105 149.917 105 146.5C105 143.167 104.833 143 101.5 143C98.167 143 98 143.167 98 146.5C98 149.917 97.905 150 94 150C90.095 150 90 149.917 90 146.5C90 143.083 90.095 143 94 143H98V135.5V128H105.5H113V139ZM233 131.5V135H240.5H248V131.5V128H240.5H233V131.5ZM143 150.5V158H135.5H128V154C128 150.095 128.083 150 131.5 150C134.833 150 135 149.833 135 146.5C135 143.083 135.095 143 139 143H143V150.5ZM75 161.5C75 164.917 75.095 165 79 165C82.905 165 83 164.917 83 161.5C83 158.083 82.905 158 79 158C75.095 158 75 158.083 75 161.5ZM135 169C135 172.905 134.917 173 131.5 173C128.083 173 128 172.905 128 169C128 165.095 128.083 165 131.5 165C134.917 165 135 165.095 135 169ZM158 169V173H154C150.095 173 150 173.083 150 176.5C150 179.833 149.833 180 146.5 180H143V172.5V165H150.5H158V169ZM60 184V195H49H38V184V173H49H60V184ZM195 184V195H184H173V184V173H184H195V184ZM218 176.5C218 179.917 217.905 180 214 180C210.095 180 210 179.917 210 176.5C210 173.083 210.095 173 214 173C217.905 173 218 173.083 218 176.5ZM300 176.5C300 179.833 299.833 180 296.5 180C293.167 180 293 179.833 293 176.5C293 173.167 293.167 173 296.5 173C299.833 173 300 173.167 300 176.5ZM330 184V195H319H308V184V173H319H330V184ZM23 184V188H15.5H8V184V180H15.5H23V184ZM45 184V188H49H53V184V180H49H45V184ZM180 184V188H184H188V184V180H184H180V184ZM315 184V188H319H323V184V180H319H315V184ZM210 195.5V203H206.5H203V195.5V188H206.5H210V195.5ZM23 199C23 202.905 23.083 203 26.5 203C29.833 203 30 203.167 30 206.5C30 209.833 29.833 210 26.5 210C23.167 210 23 209.833 23 206.5V203H15.5H8V199V195H15.5H23V199ZM98 206.5C98 209.917 97.905 210 94 210H90V214V218H94H98V214C98 210.095 98.083 210 101.5 210C104.833 210 105 209.833 105 206.5C105 203.167 104.833 203 101.5 203C98.167 203 98 203.167 98 206.5ZM180 206.5C180 209.833 179.833 210 176.5 210C173.083 210 173 210.095 173 214V218H169H165V210.5V203H172.5H180V206.5ZM195 206.5C195 209.917 195.095 210 199 210H203V221.5V233H195.5H188V218V203H191.5C194.833 203 195 203.167 195 206.5ZM45 214V218H49H53V214V210H49H45V214ZM218 221.5C218 224.917 217.905 225 214 225C210.095 225 210 224.917 210 221.5C210 218.083 210.095 218 214 218C217.905 218 218 218.083 218 221.5ZM263 221.5C263 224.833 263.167 225 266.5 225C269.833 225 270 224.833 270 221.5C270 218.083 270.095 218 274 218C277.905 218 278 218.083 278 221.5C278 224.833 278.167 225 281.5 225C284.917 225 285 225.095 285 229C285 232.905 284.917 233 281.5 233C278.083 233 278 232.905 278 229V225H274H270V232.5V240H266.5H263V232.5V225H259C255.095 225 255 224.917 255 221.5C255 218.083 255.095 218 259 218C262.905 218 263 218.083 263 221.5ZM23 229V233H19H15V229V225H19H23V229ZM105 229V233H109H113V229V225H109H105V229ZM23 244V248H19C15.095 248 15 248.083 15 251.5C15 254.917 15.095 255 19 255H23V259V263H19H15V259C15 255.095 14.917 255 11.5 255C8.167 255 8 254.833 8 251.5C8 248.167 8.167 248 11.5 248C14.917 248 15 247.905 15 244V240H19H23V244ZM165 244C165 247.905 164.917 248 161.5 248C158.083 248 158 247.905 158 244C158 240.095 158.083 240 161.5 240C164.917 240 165 240.095 165 244ZM68 251.5C68 254.917 67.905 255 64 255H60V262.5V270H67.5H75V274C75 277.905 74.917 278 71.5 278C68.167 278 68 278.167 68 281.5C68 284.833 68.167 285 71.5 285C74.917 285 75 285.095 75 289V293H79H83V278V263H79H75V259V255H79H83V259C83 262.905 83.083 263 86.5 263C89.917 263 90 262.905 90 259V255H94H98V262.5V270H94H90V281.5V293H86.5C83.167 293 83 293.167 83 296.5C83 299.833 83.167 300 86.5 300C89.917 300 90 300.095 90 304C90 307.905 89.917 308 86.5 308C83.083 308 83 307.905 83 304V300H79C75.095 300 75 299.917 75 296.5V293H67.5H60V285.5V278H56.5C53.083 278 53 277.905 53 274V270H49C45.095 270 45 269.917 45 266.5C45 263.083 45.095 263 49 263H53V259C53 255.095 53.083 255 56.5 255C59.833 255 60 254.833 60 251.5C60 248.083 60.095 248 64 248C67.905 248 68 248.083 68 251.5ZM203 251.5C203 254.917 202.905 255 199 255C195.095 255 195 254.917 195 251.5C195 248.083 195.095 248 199 248C202.905 248 203 248.083 203 251.5ZM278 251.5C278 254.833 278.167 255 281.5 255C284.917 255 285 255.095 285 259V263H289H293V259V255H289C285.095 255 285 254.917 285 251.5C285 248.167 284.833 248 281.5 248C278.167 248 278 248.167 278 251.5ZM240 266.5C240 269.917 240.095 270 244 270H248V274V278H244H240V274V270H232.5H225V266.5V263H232.5H240V266.5ZM300 266.5C300 269.917 300.095 270 304 270C307.905 270 308 269.917 308 266.5C308 263.083 307.905 263 304 263C300.095 263 300 263.083 300 266.5ZM158 296.5C158 299.917 157.905 300 154 300H150V304C150 307.905 149.917 308 146.5 308C143.167 308 143 308.167 143 311.5C143 314.833 143.167 315 146.5 315C149.917 315 150 315.095 150 319V323H154H158V319C158 315.095 158.083 315 161.5 315C164.917 315 165 315.095 165 319C165 322.905 164.917 323 161.5 323C158.167 323 158 323.167 158 326.5C158 329.833 158.167 330 161.5 330H165V337.5V345H161.5C158.167 345 158 344.833 158 341.5V338H146.5H135V323V308H139H143V304C143 300.095 143.083 300 146.5 300C149.833 300 150 299.833 150 296.5C150 293.083 150.095 293 154 293C157.905 293 158 293.083 158 296.5ZM338 296.5V300H315.5H293V304C293 307.905 293.083 308 296.5 308H300V315.5V323H292.5H285V319C285 315.095 284.917 315 281.5 315C278.167 315 278 314.833 278 311.5C278 308.167 278.167 308 281.5 308C284.917 308 285 307.905 285 304V300H274H263V304C263 307.905 263.083 308 266.5 308C269.833 308 270 308.167 270 311.5C270 314.833 269.833 315 266.5 315H263V322.5V330H255.5H248V326.5V323H240.5H233V326.5V330H240.5H248V334V338H255.5H263V341.5V345H255.5H248V352.5V360H255.5H263V356.5V353H270.5H278V356.5C278 359.917 277.905 360 274 360H270V364V368H277.5H285V364V360H292.5H300V364V368H304H308V364V360H315.5H323V364C323 367.905 323.083 368 326.5 368C329.917 368 330 367.905 330 364C330 360.095 329.917 360 326.5 360C323.167 360 323 359.833 323 356.5C323 353.167 323.167 353 326.5 353C329.917 353 330 352.905 330 349V345H334H338V349V353H349H360V356.5V360H352.5H345V364V368H356.5H368V353V338H364C360.095 338 360 338.083 360 341.5V345H349H338V334V323H341.5C344.917 323 345 322.905 345 319C345 315.095 344.917 315 341.5 315H338V307.5V300H341.5C344.833 300 345 299.833 345 296.5C345 293.167 344.833 293 341.5 293C338.167 293 338 293.167 338 296.5ZM68 304C68 307.905 68.083 308 71.5 308C74.833 308 75 308.167 75 311.5C75 314.917 75.095 315 79 315H83V322.5V330H86.5C89.833 330 90 329.833 90 326.5C90 323.083 90.095 323 94 323H98V319V315H105.5H113V311.5C113 308.167 113.167 308 116.5 308C119.833 308 120 308.167 120 311.5C120 314.917 120.095 315 124 315H128V322.5V330H124H120V334C120 337.905 119.917 338 116.5 338H113V330.5V323H105.5H98V334V345H101.5H105V352.5V360H101.5H98V352.5V345H94C90.095 345 90 344.917 90 341.5C90 338.167 89.833 338 86.5 338C83.167 338 83 338.167 83 341.5C83 344.917 82.905 345 79 345C75.095 345 75 344.917 75 341.5C75 338.167 74.833 338 71.5 338C68.083 338 68 337.905 68 334C68 330.095 68.083 330 71.5 330H75V322.5V315H71.5C68.167 315 68 314.833 68 311.5C68 308.083 67.905 308 64 308H60V304V300H64H68V304ZM210 304V308H214H218V304V300H214H210V304ZM195 319V330H184H173V319V308H184H195V319ZM240 311.5V315H247.5H255V311.5V308H247.5H240V311.5ZM330 319V330H319H308V319V308H319H330V319ZM0 341.5V368H26.5H53V341.5V315H26.5H0V341.5ZM180 319V323H184H188V319V315H184H180V319ZM315 319V323H319H323V319V315H319H315V319ZM45 341.5V360H26.5H8V341.5V323H26.5H45V341.5ZM278 326.5C278 329.917 277.905 330 274 330H270V334C270 337.905 269.917 338 266.5 338C263.083 338 263 337.905 263 334C263 330.095 263.083 330 266.5 330C269.833 330 270 329.833 270 326.5C270 323.083 270.095 323 274 323C277.905 323 278 323.083 278 326.5ZM15 341.5V353H26.5H38V341.5V330H26.5H15V341.5ZM293 341.5C293 344.833 293.167 345 296.5 345C299.833 345 300 344.833 300 341.5V338H307.5H315V341.5C315 344.917 315.095 345 319 345C322.905 345 323 344.917 323 341.5C323 338.167 323.167 338 326.5 338C329.833 338 330 338.167 330 341.5C330 344.833 329.833 345 326.5 345C323.083 345 323 345.095 323 349V353H315.5H308V349V345H304H300V349C300 352.905 299.917 353 296.5 353C293.083 353 293 352.905 293 349V345H289C285.095 345 285 344.917 285 341.5C285 338.083 285.095 338 289 338C292.905 338 293 338.083 293 341.5ZM128 349V353H124C120.095 353 120 353.083 120 356.5C120 359.833 119.833 360 116.5 360H113V352.5V345H120.5H128V349ZM180 349C180 352.905 179.917 353 176.5 353C173.083 353 173 352.905 173 349C173 345.095 173.083 345 176.5 345C179.917 345 180 345.095 180 349ZM90 356.5C90 359.833 89.833 360 86.5 360C83.167 360 83 359.833 83 356.5C83 353.167 83.167 353 86.5 353C89.833 353 90 353.167 90 356.5ZM158 356.5C158 359.917 157.905 360 154 360C150.095 360 150 359.917 150 356.5C150 353.083 150.095 353 154 353C157.905 353 158 353.083 158 356.5Z"  />
</svg>
