<svg width="13" height="13" viewBox="0 0 13 13"   xmlns="http://www.w3.org/2000/svg">
<path fill-rule="evenodd" clip-rule="evenodd" d="M5.87555 0.0163111C4.25063 0.185159 2.79092 0.91778 1.69468 2.11462C0.116604 3.8375 -0.407711 6.29255 0.326559 8.5206C0.650264 9.50286 1.1709 10.3476 1.90499 11.0817C2.93522 12.112 4.19235 12.729 5.69754 12.9433C5.99623 12.9858 6.99845 12.9858 7.29714 12.9433C8.79966 12.7294 10.0613 12.1101 11.0897 11.0817C12.119 10.0524 12.7372 8.79291 12.9512 7.28915C12.9938 6.99046 12.9938 5.98824 12.9512 5.68954C12.7372 4.18578 12.119 2.92626 11.0897 1.897C10.0859 0.893228 8.85234 0.274889 7.4114 0.0532037C7.09211 0.00409825 6.19953 -0.0173568 5.87555 0.0163111ZM6.96899 1.48937C7.9559 1.58677 8.89817 1.97317 9.67116 2.59745C9.89475 2.77803 10.2963 3.1878 10.4618 3.40439C12.0342 5.46161 11.8311 8.31222 9.98504 10.0955C9.42965 10.632 8.80666 11.0115 8.09004 11.25C7.03481 11.601 5.9582 11.6005 4.89986 11.2484C4.18512 11.0106 3.56602 10.6329 3.00964 10.0955C2.42141 9.52726 1.9917 8.84834 1.73833 8.08683C1.38596 7.02783 1.38563 5.95886 1.73729 4.89665C2.08801 3.83727 2.79709 2.91653 3.74246 2.29291C4.68615 1.67041 5.8547 1.37941 6.96899 1.48937ZM5.49441 3.23716C5.46648 3.24905 5.42078 3.28414 5.39285 3.31519C5.34298 3.37059 5.34194 3.41226 5.33531 5.61604L5.32856 7.86044H7.43598H9.5434L9.62632 7.7864L9.70925 7.71239L9.71753 7.27224C9.7271 6.76329 9.70803 6.66343 9.58727 6.58979C9.50938 6.54231 9.44874 6.54031 8.0779 6.54023L6.64968 6.54013V4.96632V3.3925L6.57564 3.30958L6.5016 3.22665L6.0234 3.22112C5.76038 3.2181 5.52234 3.22531 5.49441 3.23716Z"  />
</svg>
