<svg  viewBox="0 0 250 419" fill="none" xmlns="http://www.w3.org/2000/svg">
<path d="M233.996 40.8427C233.996 40.8427 170.668 90.5881 179.17 106.466C187.672 122.344 238.185 110.505 238.185 110.505C238.185 110.505 177.919 131.752 183.171 142.766C188.422 153.78 230.683 154.697 230.683 154.697C230.683 154.697 208.615 164.656 206.614 172.824C204.676 180.993 250 212.749 250 212.749C250 212.749 211.99 202.148 208.052 207.472C204.114 212.749 236.934 243.083 236.934 243.083C236.934 243.083 175.919 208.894 170.043 216.145C164.166 223.35 191.923 287 191.923 287C191.923 287 150.35 243.083 129.157 240.696C113.403 238.907 76.7692 276.858 76.7692 276.858C76.7692 276.858 92.023 231.564 77.5819 225.277C63.2033 219.036 0 256.896 0 256.896C0 256.896 50.7002 195.448 44.8237 175.256C38.9472 155.064 8.62716 139.37 8.62716 139.37C8.62716 139.37 46.1365 142.077 45.4489 130.513C44.8237 118.949 8.62716 98.2059 8.62716 98.2059C8.62716 98.2059 38.9472 106.925 46.7617 96.3244C54.5761 85.7237 22.0055 16.5665 22.0055 16.5665C22.0055 16.5665 70.7052 73.6086 91.7104 69.7538C112.653 65.8989 112.716 0 112.716 0C112.716 0 135.596 48.0475 150.975 53.5085C172.606 61.2181 233.996 40.8427 233.996 40.8427Z" fill="white"/>
<path d="M224.556 45.5696C224.556 45.5696 169.542 91.965 177.857 107.43C186.172 122.895 221.243 114.91 221.243 114.91C221.243 114.91 176.607 132.073 181.733 142.766C186.859 153.504 223.181 155.661 223.181 155.661C223.181 155.661 206.489 164.105 204.551 172.044C202.613 180.029 236.122 206.233 236.122 206.233C236.122 206.233 209.802 200.588 205.989 205.774C202.176 210.914 224.619 233.905 224.619 233.905C224.619 233.905 174.731 207.196 168.98 214.218C163.228 221.239 184.359 275.573 184.359 275.573C184.359 275.573 149.85 240.421 129.157 238.081C113.778 236.337 84.3961 263.367 84.3961 263.367C84.3961 263.367 93.0232 229.178 78.9572 223.075C64.8912 216.971 10.5651 247.947 10.5651 247.947C10.5651 247.947 52.7632 194.072 47.0117 174.385C41.2603 154.698 16.3791 141.114 16.3791 141.114C16.3791 141.114 48.262 142.032 47.6369 130.789C47.0117 119.545 15.7539 101.281 15.7539 101.281C15.7539 101.281 41.2603 107.843 48.9497 97.5178C56.6391 87.1924 31.6954 30.0586 31.6954 30.0586C31.6954 30.0586 72.143 73.8841 92.5856 70.1211C113.028 66.3581 114.028 9.9126 114.028 9.9126C114.028 9.9126 135.409 50.4799 150.413 55.8032C171.48 63.3752 224.556 45.5696 224.556 45.5696Z" fill="url(#paint0_radial_1356_4193)"/>
<g clip-path="url(#clip0_1356_4193)">
<path d="M129.464 175.568C128.307 175.568 127.256 175.35 126.313 174.914C125.369 174.47 124.62 173.832 124.065 172.999C123.51 172.159 123.233 171.144 123.233 169.955C123.233 168.908 123.439 168.06 123.851 167.41C124.263 166.752 124.814 166.236 125.504 165.864C126.194 165.491 126.955 165.214 127.788 165.031C128.628 164.841 129.472 164.69 130.321 164.579C131.431 164.437 132.331 164.33 133.02 164.258C133.718 164.179 134.225 164.048 134.543 163.866C134.868 163.683 135.03 163.366 135.03 162.914V162.819C135.03 161.646 134.709 160.734 134.067 160.084C133.433 159.434 132.469 159.109 131.177 159.109C129.837 159.109 128.786 159.402 128.025 159.989C127.264 160.575 126.729 161.202 126.42 161.868L123.756 160.916C124.232 159.806 124.866 158.942 125.659 158.324C126.459 157.697 127.332 157.261 128.275 157.016C129.227 156.762 130.162 156.635 131.082 156.635C131.669 156.635 132.342 156.706 133.104 156.849C133.873 156.984 134.614 157.265 135.328 157.693C136.049 158.122 136.648 158.768 137.123 159.632C137.599 160.496 137.837 161.654 137.837 163.105V175.14H135.03V172.666H134.887C134.697 173.063 134.38 173.487 133.936 173.939C133.492 174.391 132.901 174.775 132.164 175.093C131.427 175.41 130.527 175.568 129.464 175.568ZM129.893 173.047C131.003 173.047 131.938 172.829 132.699 172.393C133.468 171.957 134.047 171.394 134.436 170.704C134.832 170.014 135.03 169.289 135.03 168.528V165.959C134.911 166.102 134.65 166.232 134.245 166.351C133.849 166.462 133.389 166.561 132.866 166.649C132.35 166.728 131.847 166.799 131.355 166.863C130.872 166.918 130.479 166.966 130.178 167.005C129.449 167.101 128.767 167.255 128.132 167.469C127.506 167.675 126.999 167.989 126.61 168.409C126.23 168.821 126.039 169.384 126.039 170.098C126.039 171.073 126.4 171.81 127.122 172.31C127.851 172.801 128.775 173.047 129.893 173.047ZM144.113 181.99C143.638 181.99 143.213 181.951 142.841 181.871C142.468 181.8 142.21 181.729 142.068 181.657L142.781 179.184C143.463 179.358 144.066 179.422 144.589 179.374C145.112 179.326 145.576 179.092 145.98 178.672C146.393 178.26 146.769 177.59 147.11 176.662L147.634 175.235L140.878 156.873H143.923L148.966 171.43H149.156L154.198 156.873H157.243L149.489 177.804C149.14 178.748 148.708 179.529 148.192 180.147C147.677 180.773 147.079 181.237 146.397 181.538C145.723 181.84 144.962 181.99 144.113 181.99Z" fill="#2893BF"/>
<path d="M96.334 118.071C96.334 117.756 96.2875 117.513 96.1946 117.342C96.1053 117.17 95.9767 117.085 95.8087 117.085C95.6408 117.085 95.5121 117.17 95.4228 117.342C95.337 117.513 95.2942 117.756 95.2942 118.071C95.2942 118.385 95.337 118.63 95.4228 118.805C95.5121 118.977 95.6408 119.062 95.8087 119.062C95.9767 119.062 96.1053 118.977 96.1946 118.805C96.2875 118.63 96.334 118.385 96.334 118.071ZM97.2506 118.071C97.2506 118.346 97.2148 118.591 97.1434 118.805C97.0719 119.019 96.9718 119.2 96.8432 119.346C96.7181 119.489 96.5663 119.598 96.3876 119.673C96.2125 119.748 96.0213 119.786 95.8141 119.786C95.6033 119.786 95.4085 119.748 95.2298 119.673C95.0547 119.598 94.9029 119.489 94.7742 119.346C94.6492 119.2 94.5509 119.019 94.4794 118.805C94.4115 118.591 94.3776 118.346 94.3776 118.071C94.3776 117.796 94.4115 117.553 94.4794 117.342C94.5509 117.127 94.6492 116.949 94.7742 116.806C94.9029 116.659 95.0547 116.549 95.2298 116.473C95.4085 116.398 95.6033 116.361 95.8141 116.361C96.0213 116.361 96.2125 116.398 96.3876 116.473C96.5663 116.549 96.7181 116.659 96.8432 116.806C96.9718 116.949 97.0719 117.127 97.1434 117.342C97.2148 117.553 97.2506 117.796 97.2506 118.071ZM99.5845 118.071C99.5845 117.756 99.5381 117.513 99.4452 117.342C99.3559 117.17 99.2272 117.085 99.0593 117.085C98.8913 117.085 98.7627 117.17 98.6733 117.342C98.5876 117.513 98.5447 117.756 98.5447 118.071C98.5447 118.385 98.5876 118.63 98.6733 118.805C98.7627 118.977 98.8913 119.062 99.0593 119.062C99.2272 119.062 99.3559 118.977 99.4452 118.805C99.5381 118.63 99.5845 118.385 99.5845 118.071ZM100.501 118.071C100.501 118.346 100.465 118.591 100.394 118.805C100.322 119.019 100.222 119.2 100.094 119.346C99.9687 119.489 99.8168 119.598 99.6381 119.673C99.4631 119.748 99.2719 119.786 99.0646 119.786C98.8538 119.786 98.6591 119.748 98.4804 119.673C98.3053 119.598 98.1534 119.489 98.0248 119.346C97.8997 119.2 97.8015 119.019 97.73 118.805C97.6621 118.591 97.6281 118.346 97.6281 118.071C97.6281 117.796 97.6621 117.553 97.73 117.342C97.8015 117.127 97.8997 116.949 98.0248 116.806C98.1534 116.659 98.3053 116.549 98.4804 116.473C98.6591 116.398 98.8538 116.361 99.0646 116.361C99.2719 116.361 99.4631 116.398 99.6381 116.473C99.8168 116.549 99.9687 116.659 100.094 116.806C100.222 116.949 100.322 117.127 100.394 117.342C100.465 117.553 100.501 117.796 100.501 118.071ZM103.28 116.838C103.28 116.913 103.262 116.986 103.226 117.058C103.194 117.126 103.155 117.177 103.108 117.213C103.012 117.17 102.91 117.138 102.803 117.117C102.699 117.092 102.603 117.079 102.513 117.079C102.299 117.079 102.133 117.136 102.015 117.251C101.901 117.361 101.824 117.522 101.785 117.733C101.856 117.683 101.951 117.638 102.069 117.599C102.187 117.556 102.308 117.535 102.433 117.535C102.762 117.535 103.023 117.629 103.216 117.819C103.412 118.008 103.51 118.28 103.51 118.634C103.51 118.787 103.484 118.934 103.43 119.073C103.376 119.212 103.296 119.336 103.189 119.443C103.082 119.547 102.948 119.631 102.787 119.695C102.63 119.756 102.446 119.786 102.235 119.786C101.813 119.786 101.481 119.645 101.238 119.363C100.998 119.08 100.879 118.678 100.879 118.157C100.879 117.86 100.914 117.599 100.986 117.374C101.061 117.149 101.165 116.961 101.297 116.811C101.433 116.661 101.593 116.549 101.779 116.473C101.965 116.398 102.17 116.361 102.396 116.361C102.681 116.361 102.899 116.4 103.049 116.479C103.203 116.557 103.28 116.677 103.28 116.838ZM102.229 118.232C102.162 118.232 102.088 118.246 102.01 118.274C101.935 118.303 101.874 118.342 101.827 118.392V118.526C101.827 118.719 101.867 118.857 101.945 118.939C102.028 119.021 102.126 119.062 102.24 119.062C102.358 119.062 102.446 119.023 102.503 118.944C102.564 118.866 102.594 118.764 102.594 118.639C102.594 118.514 102.562 118.416 102.497 118.344C102.437 118.269 102.347 118.232 102.229 118.232ZM106.269 116.838C106.269 116.913 106.251 116.986 106.215 117.058C106.183 117.126 106.144 117.177 106.097 117.213C106.001 117.17 105.899 117.138 105.792 117.117C105.688 117.092 105.592 117.079 105.502 117.079C105.288 117.079 105.122 117.136 105.004 117.251C104.889 117.361 104.813 117.522 104.773 117.733C104.845 117.683 104.94 117.638 105.057 117.599C105.175 117.556 105.297 117.535 105.422 117.535C105.751 117.535 106.012 117.629 106.204 117.819C106.401 118.008 106.499 118.28 106.499 118.634C106.499 118.787 106.472 118.934 106.419 119.073C106.365 119.212 106.285 119.336 106.178 119.443C106.07 119.547 105.936 119.631 105.776 119.695C105.618 119.756 105.434 119.786 105.224 119.786C104.802 119.786 104.47 119.645 104.227 119.363C103.987 119.08 103.868 118.678 103.868 118.157C103.868 117.86 103.903 117.599 103.975 117.374C104.05 117.149 104.153 116.961 104.286 116.811C104.421 116.661 104.582 116.549 104.768 116.473C104.954 116.398 105.159 116.361 105.384 116.361C105.67 116.361 105.888 116.4 106.038 116.479C106.192 116.557 106.269 116.677 106.269 116.838ZM105.218 118.232C105.15 118.232 105.077 118.246 104.998 118.274C104.923 118.303 104.863 118.342 104.816 118.392V118.526C104.816 118.719 104.856 118.857 104.934 118.939C105.016 119.021 105.115 119.062 105.229 119.062C105.347 119.062 105.434 119.023 105.492 118.944C105.552 118.866 105.583 118.764 105.583 118.639C105.583 118.514 105.551 118.416 105.486 118.344C105.425 118.269 105.336 118.232 105.218 118.232ZM108.573 117.31L108.037 117.476C107.983 117.44 107.929 117.39 107.876 117.326C107.822 117.261 107.795 117.172 107.795 117.058C107.795 116.843 107.926 116.693 108.187 116.607L108.787 116.404H108.985C109.139 116.404 109.26 116.448 109.35 116.538C109.439 116.627 109.484 116.749 109.484 116.902V119.695C109.444 119.702 109.386 119.711 109.307 119.722C109.232 119.736 109.155 119.743 109.076 119.743C108.998 119.743 108.926 119.738 108.862 119.727C108.801 119.716 108.749 119.695 108.707 119.663C108.664 119.631 108.63 119.588 108.605 119.534C108.583 119.477 108.573 119.404 108.573 119.314V117.31ZM111.19 116.361C111.394 116.361 111.574 116.388 111.731 116.441C111.889 116.491 112.023 116.561 112.133 116.65C112.244 116.74 112.328 116.845 112.385 116.967C112.443 117.088 112.471 117.219 112.471 117.358C112.471 117.733 112.259 118.09 111.833 118.43L111.131 118.993H112.418C112.439 119.032 112.459 119.082 112.477 119.143C112.498 119.204 112.509 119.27 112.509 119.341C112.509 119.47 112.48 119.563 112.423 119.62C112.366 119.673 112.291 119.7 112.198 119.7H110.338C110.259 119.647 110.197 119.579 110.15 119.497C110.107 119.411 110.086 119.311 110.086 119.196C110.086 119.075 110.111 118.973 110.161 118.891C110.211 118.805 110.266 118.737 110.327 118.687L111.067 118.055C111.16 117.976 111.237 117.906 111.297 117.846C111.358 117.781 111.406 117.724 111.442 117.674C111.481 117.624 111.508 117.578 111.522 117.535C111.54 117.492 111.549 117.451 111.549 117.411C111.549 117.311 111.505 117.233 111.415 117.176C111.329 117.118 111.222 117.09 111.094 117.09C110.951 117.09 110.822 117.113 110.708 117.16C110.597 117.202 110.504 117.249 110.429 117.299C110.368 117.256 110.318 117.202 110.279 117.138C110.24 117.074 110.22 116.999 110.22 116.913C110.22 116.727 110.308 116.59 110.483 116.5C110.658 116.407 110.894 116.361 111.19 116.361ZM113.948 116.361C114.359 116.361 114.671 116.447 114.886 116.618C115.1 116.786 115.207 117.013 115.207 117.299C115.207 117.47 115.161 117.617 115.068 117.738C114.979 117.856 114.871 117.946 114.746 118.006C114.821 118.035 114.891 118.071 114.955 118.114C115.02 118.157 115.077 118.21 115.127 118.274C115.177 118.339 115.216 118.414 115.245 118.5C115.273 118.585 115.288 118.685 115.288 118.8C115.288 118.953 115.254 119.091 115.186 119.212C115.121 119.334 115.03 119.438 114.912 119.523C114.795 119.609 114.653 119.673 114.489 119.716C114.328 119.763 114.151 119.786 113.958 119.786C113.587 119.786 113.306 119.734 113.117 119.631C112.927 119.527 112.833 119.395 112.833 119.234C112.833 119.137 112.856 119.055 112.902 118.987C112.949 118.916 113.006 118.86 113.074 118.821C113.145 118.871 113.24 118.925 113.358 118.982C113.48 119.036 113.637 119.062 113.83 119.062C114.012 119.062 114.146 119.03 114.232 118.966C114.321 118.902 114.366 118.818 114.366 118.714C114.366 118.61 114.33 118.532 114.259 118.478C114.191 118.425 114.071 118.398 113.899 118.398H113.396C113.371 118.358 113.349 118.31 113.331 118.253C113.313 118.196 113.304 118.128 113.304 118.049C113.304 117.967 113.312 117.897 113.326 117.84C113.344 117.78 113.367 117.73 113.396 117.69H113.899C114.157 117.69 114.285 117.592 114.285 117.395C114.285 117.302 114.244 117.227 114.162 117.17C114.08 117.113 113.957 117.085 113.792 117.085C113.646 117.085 113.517 117.102 113.406 117.138C113.296 117.17 113.204 117.211 113.133 117.261C113.072 117.219 113.022 117.167 112.983 117.106C112.944 117.042 112.924 116.967 112.924 116.881C112.924 116.702 113.017 116.572 113.203 116.49C113.388 116.404 113.637 116.361 113.948 116.361ZM117.006 116.479C117.074 116.457 117.151 116.44 117.236 116.425C117.326 116.411 117.406 116.404 117.478 116.404C117.56 116.404 117.638 116.413 117.713 116.431C117.792 116.445 117.862 116.472 117.922 116.511C117.983 116.547 118.031 116.597 118.067 116.661C118.103 116.725 118.121 116.806 118.121 116.902V118.328H118.598C118.619 118.367 118.641 118.419 118.662 118.483C118.684 118.548 118.694 118.616 118.694 118.687C118.694 118.823 118.664 118.919 118.603 118.977C118.542 119.034 118.466 119.062 118.373 119.062H118.121V119.695C118.082 119.702 118.023 119.711 117.944 119.722C117.865 119.736 117.79 119.743 117.719 119.743C117.64 119.743 117.571 119.74 117.51 119.732C117.449 119.725 117.397 119.709 117.354 119.684C117.315 119.656 117.285 119.616 117.263 119.566C117.242 119.516 117.231 119.448 117.231 119.363V119.062H115.886C115.804 119.019 115.732 118.957 115.671 118.875C115.614 118.789 115.586 118.685 115.586 118.564C115.586 118.496 115.594 118.421 115.612 118.339C115.63 118.257 115.661 118.185 115.703 118.124L117.006 116.479ZM117.279 117.32H117.263L116.55 118.328H117.279V117.32ZM121.941 118.071C121.941 117.756 121.894 117.513 121.801 117.342C121.712 117.17 121.583 117.085 121.415 117.085C121.247 117.085 121.119 117.17 121.029 117.342C120.944 117.513 120.901 117.756 120.901 118.071C120.901 118.385 120.944 118.63 121.029 118.805C121.119 118.977 121.247 119.062 121.415 119.062C121.583 119.062 121.712 118.977 121.801 118.805C121.894 118.63 121.941 118.385 121.941 118.071ZM122.857 118.071C122.857 118.346 122.821 118.591 122.75 118.805C122.678 119.019 122.578 119.2 122.45 119.346C122.325 119.489 122.173 119.598 121.994 119.673C121.819 119.748 121.628 119.786 121.421 119.786C121.21 119.786 121.015 119.748 120.836 119.673C120.661 119.598 120.509 119.489 120.381 119.346C120.256 119.2 120.157 119.019 120.086 118.805C120.018 118.591 119.984 118.346 119.984 118.071C119.984 117.796 120.018 117.553 120.086 117.342C120.157 117.127 120.256 116.949 120.381 116.806C120.509 116.659 120.661 116.549 120.836 116.473C121.015 116.398 121.21 116.361 121.421 116.361C121.628 116.361 121.819 116.398 121.994 116.473C122.173 116.549 122.325 116.659 122.45 116.806C122.578 116.949 122.678 117.127 122.75 117.342C122.821 117.553 122.857 117.796 122.857 118.071ZM125.191 118.071C125.191 117.756 125.145 117.513 125.052 117.342C124.962 117.17 124.834 117.085 124.666 117.085C124.498 117.085 124.369 117.17 124.28 117.342C124.194 117.513 124.151 117.756 124.151 118.071C124.151 118.385 124.194 118.63 124.28 118.805C124.369 118.977 124.498 119.062 124.666 119.062C124.834 119.062 124.962 118.977 125.052 118.805C125.145 118.63 125.191 118.385 125.191 118.071ZM126.108 118.071C126.108 118.346 126.072 118.591 126 118.805C125.929 119.019 125.829 119.2 125.7 119.346C125.575 119.489 125.423 119.598 125.245 119.673C125.07 119.748 124.878 119.786 124.671 119.786C124.46 119.786 124.266 119.748 124.087 119.673C123.912 119.598 123.76 119.489 123.631 119.346C123.506 119.2 123.408 119.019 123.337 118.805C123.269 118.591 123.235 118.346 123.235 118.071C123.235 117.796 123.269 117.553 123.337 117.342C123.408 117.127 123.506 116.949 123.631 116.806C123.76 116.659 123.912 116.549 124.087 116.473C124.266 116.398 124.46 116.361 124.671 116.361C124.878 116.361 125.07 116.398 125.245 116.473C125.423 116.549 125.575 116.659 125.7 116.806C125.829 116.949 125.929 117.127 126 117.342C126.072 117.553 126.108 117.796 126.108 118.071ZM128.442 118.071C128.442 117.756 128.395 117.513 128.302 117.342C128.213 117.17 128.084 117.085 127.916 117.085C127.748 117.085 127.62 117.17 127.53 117.342C127.445 117.513 127.402 117.756 127.402 118.071C127.402 118.385 127.445 118.63 127.53 118.805C127.62 118.977 127.748 119.062 127.916 119.062C128.084 119.062 128.213 118.977 128.302 118.805C128.395 118.63 128.442 118.385 128.442 118.071ZM129.358 118.071C129.358 118.346 129.322 118.591 129.251 118.805C129.18 119.019 129.08 119.2 128.951 119.346C128.826 119.489 128.674 119.598 128.495 119.673C128.32 119.748 128.129 119.786 127.922 119.786C127.711 119.786 127.516 119.748 127.338 119.673C127.162 119.598 127.011 119.489 126.882 119.346C126.757 119.2 126.659 119.019 126.587 118.805C126.519 118.591 126.485 118.346 126.485 118.071C126.485 117.796 126.519 117.553 126.587 117.342C126.659 117.127 126.757 116.949 126.882 116.806C127.011 116.659 127.162 116.549 127.338 116.473C127.516 116.398 127.711 116.361 127.922 116.361C128.129 116.361 128.32 116.398 128.495 116.473C128.674 116.549 128.826 116.659 128.951 116.806C129.08 116.949 129.18 117.127 129.251 117.342C129.322 117.553 129.358 117.796 129.358 118.071ZM131.692 118.071C131.692 117.756 131.646 117.513 131.553 117.342C131.464 117.17 131.335 117.085 131.167 117.085C130.999 117.085 130.87 117.17 130.781 117.342C130.695 117.513 130.652 117.756 130.652 118.071C130.652 118.385 130.695 118.63 130.781 118.805C130.87 118.977 130.999 119.062 131.167 119.062C131.335 119.062 131.464 118.977 131.553 118.805C131.646 118.63 131.692 118.385 131.692 118.071ZM132.609 118.071C132.609 118.346 132.573 118.591 132.502 118.805C132.43 119.019 132.33 119.2 132.201 119.346C132.076 119.489 131.924 119.598 131.746 119.673C131.571 119.748 131.38 119.786 131.172 119.786C130.961 119.786 130.767 119.748 130.588 119.673C130.413 119.598 130.261 119.489 130.132 119.346C130.007 119.2 129.909 119.019 129.838 118.805C129.77 118.591 129.736 118.346 129.736 118.071C129.736 117.796 129.77 117.553 129.838 117.342C129.909 117.127 130.007 116.949 130.132 116.806C130.261 116.659 130.413 116.549 130.588 116.473C130.767 116.398 130.961 116.361 131.172 116.361C131.38 116.361 131.571 116.398 131.746 116.473C131.924 116.549 132.076 116.659 132.201 116.806C132.33 116.949 132.43 117.127 132.502 117.342C132.573 117.553 132.609 117.796 132.609 118.071ZM135.405 116.479C135.473 116.457 135.549 116.44 135.635 116.425C135.725 116.411 135.805 116.404 135.876 116.404C135.959 116.404 136.037 116.413 136.112 116.431C136.191 116.445 136.261 116.472 136.321 116.511C136.382 116.547 136.43 116.597 136.466 116.661C136.502 116.725 136.52 116.806 136.52 116.902V118.328H136.997C137.018 118.367 137.04 118.419 137.061 118.483C137.082 118.548 137.093 118.616 137.093 118.687C137.093 118.823 137.063 118.919 137.002 118.977C136.941 119.034 136.864 119.062 136.772 119.062H136.52V119.695C136.48 119.702 136.421 119.711 136.343 119.722C136.264 119.736 136.189 119.743 136.118 119.743C136.039 119.743 135.969 119.74 135.909 119.732C135.848 119.725 135.796 119.709 135.753 119.684C135.714 119.656 135.683 119.616 135.662 119.566C135.641 119.516 135.63 119.448 135.63 119.363V119.062H134.285C134.202 119.019 134.131 118.957 134.07 118.875C134.013 118.789 133.984 118.685 133.984 118.564C133.984 118.496 133.993 118.421 134.011 118.339C134.029 118.257 134.059 118.185 134.102 118.124L135.405 116.479ZM135.678 117.32H135.662L134.949 118.328H135.678V117.32ZM139.764 116.838C139.764 116.913 139.746 116.986 139.71 117.058C139.678 117.126 139.639 117.177 139.592 117.213C139.496 117.17 139.394 117.138 139.287 117.117C139.183 117.092 139.086 117.079 138.997 117.079C138.783 117.079 138.617 117.136 138.499 117.251C138.384 117.361 138.307 117.522 138.268 117.733C138.34 117.683 138.434 117.638 138.552 117.599C138.67 117.556 138.792 117.535 138.917 117.535C139.245 117.535 139.506 117.629 139.699 117.819C139.896 118.008 139.994 118.28 139.994 118.634C139.994 118.787 139.967 118.934 139.914 119.073C139.86 119.212 139.78 119.336 139.672 119.443C139.565 119.547 139.431 119.631 139.27 119.695C139.113 119.756 138.929 119.786 138.718 119.786C138.297 119.786 137.964 119.645 137.721 119.363C137.482 119.08 137.362 118.678 137.362 118.157C137.362 117.86 137.398 117.599 137.469 117.374C137.545 117.149 137.648 116.961 137.78 116.811C137.916 116.661 138.077 116.549 138.263 116.473C138.449 116.398 138.654 116.361 138.879 116.361C139.165 116.361 139.383 116.4 139.533 116.479C139.687 116.557 139.764 116.677 139.764 116.838ZM138.713 118.232C138.645 118.232 138.572 118.246 138.493 118.274C138.418 118.303 138.357 118.342 138.311 118.392V118.526C138.311 118.719 138.35 118.857 138.429 118.939C138.511 119.021 138.609 119.062 138.724 119.062C138.842 119.062 138.929 119.023 138.986 118.944C139.047 118.866 139.077 118.764 139.077 118.639C139.077 118.514 139.045 118.416 138.981 118.344C138.92 118.269 138.831 118.232 138.713 118.232ZM142.308 118.071C142.308 117.756 142.261 117.513 142.168 117.342C142.079 117.17 141.95 117.085 141.782 117.085C141.614 117.085 141.486 117.17 141.396 117.342C141.311 117.513 141.268 117.756 141.268 118.071C141.268 118.385 141.311 118.63 141.396 118.805C141.486 118.977 141.614 119.062 141.782 119.062C141.95 119.062 142.079 118.977 142.168 118.805C142.261 118.63 142.308 118.385 142.308 118.071ZM143.224 118.071C143.224 118.346 143.188 118.591 143.117 118.805C143.045 119.019 142.945 119.2 142.817 119.346C142.692 119.489 142.54 119.598 142.361 119.673C142.186 119.748 141.995 119.786 141.788 119.786C141.577 119.786 141.382 119.748 141.203 119.673C141.028 119.598 140.876 119.489 140.748 119.346C140.623 119.2 140.524 119.019 140.453 118.805C140.385 118.591 140.351 118.346 140.351 118.071C140.351 117.796 140.385 117.553 140.453 117.342C140.524 117.127 140.623 116.949 140.748 116.806C140.876 116.659 141.028 116.549 141.203 116.473C141.382 116.398 141.577 116.361 141.788 116.361C141.995 116.361 142.186 116.398 142.361 116.473C142.54 116.549 142.692 116.659 142.817 116.806C142.945 116.949 143.045 117.127 143.117 117.342C143.188 117.553 143.224 117.796 143.224 118.071ZM145.558 118.071C145.558 117.756 145.512 117.513 145.419 117.342C145.329 117.17 145.201 117.085 145.033 117.085C144.865 117.085 144.736 117.17 144.647 117.342C144.561 117.513 144.518 117.756 144.518 118.071C144.518 118.385 144.561 118.63 144.647 118.805C144.736 118.977 144.865 119.062 145.033 119.062C145.201 119.062 145.329 118.977 145.419 118.805C145.512 118.63 145.558 118.385 145.558 118.071ZM146.475 118.071C146.475 118.346 146.439 118.591 146.367 118.805C146.296 119.019 146.196 119.2 146.067 119.346C145.942 119.489 145.79 119.598 145.612 119.673C145.437 119.748 145.245 119.786 145.038 119.786C144.827 119.786 144.633 119.748 144.454 119.673C144.279 119.598 144.127 119.489 143.998 119.346C143.873 119.2 143.775 119.019 143.704 118.805C143.636 118.591 143.602 118.346 143.602 118.071C143.602 117.796 143.636 117.553 143.704 117.342C143.775 117.127 143.873 116.949 143.998 116.806C144.127 116.659 144.279 116.549 144.454 116.473C144.633 116.398 144.827 116.361 145.038 116.361C145.245 116.361 145.437 116.398 145.612 116.473C145.79 116.549 145.942 116.659 146.067 116.806C146.196 116.949 146.296 117.127 146.367 117.342C146.439 117.553 146.475 117.796 146.475 118.071Z" fill="#2893BF"/>
<path d="M171.74 307.3V298.36C171.737 297.688 171.469 297.045 170.993 296.571C170.516 296.096 169.872 295.83 169.2 295.83H165.14L188.14 201.89L172.41 114.59C172.41 114.59 163.14 112.59 160.08 127.19V58.0002C160.069 54.6576 158.732 51.4559 156.362 49.0988C153.992 46.7418 150.783 45.4222 147.44 45.4302H80.8C77.4608 45.4275 74.2569 46.7494 71.891 49.1059C69.5252 51.4624 68.1906 54.661 68.18 58.0002V209.91C68.18 213.257 69.5096 216.467 71.8763 218.834C74.243 221.201 77.453 222.53 80.8 222.53H108.58L107.31 255C107.31 255 107.31 255.18 107.31 255.5L107.24 257.29H107.32C107.672 267.801 111.173 277.963 117.37 286.46V295.8H113C112.329 295.8 111.685 296.067 111.211 296.541C110.737 297.016 110.47 297.659 110.47 298.33V307.21C108.703 307.265 107.027 308.005 105.797 309.275C104.567 310.544 103.879 312.243 103.88 314.01V418.62H177.61V314C177.601 312.364 177.003 310.786 175.925 309.555C174.847 308.325 173.361 307.524 171.74 307.3ZM134.1 222.53L133.18 222.88V222.53H134.1Z" fill="#F9F9F9"/>
<path d="M103.13 248.6C102.958 259.894 106.468 270.938 113.13 280.06V298L159.49 295.28L183.89 195.51L168.21 108.16C168.21 108.16 155.46 105.45 154.92 129.85C154.38 154.25 154.92 206.85 154.92 206.85L120.49 219.6L103.24 245.87L103.13 248.6Z" fill="#FDAC6F"/>
<path d="M143.26 41H76.62C69.6502 41 64 46.6502 64 53.62V205.49C64 212.46 69.6502 218.11 76.62 218.11H143.26C150.23 218.11 155.88 212.46 155.88 205.49V53.62C155.88 46.6502 150.23 41 143.26 41Z" fill="#050505"/>
<path d="M148.38 60.3398H71.5C70.4452 60.3398 69.59 61.195 69.59 62.2498V199.27C69.59 200.325 70.4452 201.18 71.5 201.18H148.38C149.435 201.18 150.29 200.325 150.29 199.27V62.2498C150.29 61.195 149.435 60.3398 148.38 60.3398Z" fill="#E6ECEF"/>
<path d="M128.59 56.6098H92C91.7403 56.6206 91.4812 56.5787 91.2383 56.4864C90.9954 56.3941 90.7737 56.2535 90.5867 56.0731C90.3997 55.8926 90.2513 55.6761 90.1504 55.4366C90.0496 55.1971 89.9984 54.9397 90 54.6798V54.6798C89.9998 54.4204 90.0519 54.1635 90.1533 53.9247C90.2546 53.6859 90.4031 53.4699 90.5898 53.2897C90.7765 53.1096 90.9976 52.9689 91.2399 52.8761C91.4822 52.7834 91.7407 52.7404 92 52.7498H128.59C129.101 52.7524 129.59 52.9566 129.952 53.318C130.313 53.6794 130.517 54.1687 130.52 54.6798V54.6798C130.52 55.1917 130.317 55.6826 129.955 56.0445C129.593 56.4065 129.102 56.6098 128.59 56.6098V56.6098Z" fill="#302E2E"/>
<path d="M112.31 47C112.31 46.6044 112.193 46.2178 111.973 45.8889C111.753 45.56 111.441 45.3036 111.075 45.1522C110.71 45.0009 110.308 44.9613 109.92 45.0384C109.532 45.1156 109.175 45.3061 108.896 45.5858C108.616 45.8655 108.426 46.2219 108.348 46.6098C108.271 46.9978 108.311 47.3999 108.462 47.7654C108.614 48.1308 108.87 48.4432 109.199 48.6629C109.528 48.8827 109.914 49 110.31 49C110.84 49 111.349 48.7893 111.724 48.4142C112.099 48.0391 112.31 47.5304 112.31 47Z" fill="#3F3A3B"/>
<path d="M116 208C116 206.865 115.663 205.755 115.033 204.811C114.402 203.867 113.505 203.131 112.457 202.697C111.408 202.262 110.254 202.149 109.14 202.37C108.027 202.592 107.004 203.138 106.201 203.941C105.398 204.744 104.852 205.767 104.63 206.88C104.409 207.993 104.523 209.148 104.957 210.196C105.391 211.245 106.127 212.142 107.071 212.772C108.015 213.403 109.125 213.74 110.26 213.74C111.782 213.737 113.24 213.132 114.316 212.056C115.392 210.98 115.997 209.521 116 208V208Z" stroke="black" stroke-width="1.81" stroke-miterlimit="10"/>
<path d="M142.58 75.0498H77.96C76.3032 75.0498 74.96 76.393 74.96 78.0498V117.45C74.96 119.107 76.3032 120.45 77.96 120.45H142.58C144.237 120.45 145.58 119.107 145.58 117.45V78.0498C145.58 76.393 144.237 75.0498 142.58 75.0498Z" fill="#FA790E"/>
<path d="M142.58 75.9002C143.15 75.9002 143.697 76.1267 144.1 76.5299C144.504 76.9331 144.73 77.48 144.73 78.0502V117.45C144.73 118.02 144.504 118.567 144.1 118.97C143.697 119.374 143.15 119.6 142.58 119.6H78C77.4298 119.6 76.8829 119.374 76.4797 118.97C76.0765 118.567 75.85 118.02 75.85 117.45V78.0502C75.85 77.48 76.0765 76.9331 76.4797 76.5299C76.8829 76.1267 77.4298 75.9002 78 75.9002H142.58ZM142.58 74.2002H78C76.9789 74.2002 75.9997 74.6058 75.2777 75.3278C74.5556 76.0499 74.15 77.0291 74.15 78.0502V117.45C74.15 117.956 74.2496 118.456 74.4431 118.924C74.6366 119.391 74.9202 119.815 75.2777 120.173C75.6352 120.53 76.0596 120.814 76.5267 121.007C76.9938 121.201 77.4944 121.3 78 121.3H142.58C143.601 121.3 144.58 120.895 145.302 120.173C146.024 119.451 146.43 118.471 146.43 117.45V78.0502C146.43 77.0291 146.024 76.0499 145.302 75.3278C144.58 74.6058 143.601 74.2002 142.58 74.2002Z" fill="#CE5E0B"/>
<path d="M146.43 82.6602H74.11V91.0802H146.43V82.6602Z" fill="#514E4C"/>
<path d="M142.1 95.52H78.69V103.85H142.1V95.52Z" fill="#D6DCED"/>
<path d="M85.084 108.46C85.084 108.146 85.0375 107.903 84.9446 107.731C84.8553 107.56 84.7267 107.474 84.5587 107.474C84.3908 107.474 84.2621 107.56 84.1728 107.731C84.087 107.903 84.0442 108.146 84.0442 108.46C84.0442 108.775 84.087 109.02 84.1728 109.195C84.2621 109.366 84.3908 109.452 84.5587 109.452C84.7267 109.452 84.8553 109.366 84.9446 109.195C85.0375 109.02 85.084 108.775 85.084 108.46ZM86.0006 108.46C86.0006 108.736 85.9648 108.98 85.8934 109.195C85.8219 109.409 85.7218 109.59 85.5932 109.736C85.4681 109.879 85.3163 109.988 85.1376 110.063C84.9625 110.138 84.7713 110.176 84.5641 110.176C84.3533 110.176 84.1585 110.138 83.9798 110.063C83.8047 109.988 83.6529 109.879 83.5242 109.736C83.3992 109.59 83.3009 109.409 83.2294 109.195C83.1615 108.98 83.1276 108.736 83.1276 108.46C83.1276 108.185 83.1615 107.942 83.2294 107.731C83.3009 107.517 83.3992 107.338 83.5242 107.195C83.6529 107.049 83.8047 106.938 83.9798 106.863C84.1585 106.788 84.3533 106.751 84.5641 106.751C84.7713 106.751 84.9625 106.788 85.1376 106.863C85.3163 106.938 85.4681 107.049 85.5932 107.195C85.7218 107.338 85.8219 107.517 85.8934 107.731C85.9648 107.942 86.0006 108.185 86.0006 108.46ZM88.3345 108.46C88.3345 108.146 88.2881 107.903 88.1952 107.731C88.1059 107.56 87.9772 107.474 87.8093 107.474C87.6413 107.474 87.5127 107.56 87.4233 107.731C87.3376 107.903 87.2947 108.146 87.2947 108.46C87.2947 108.775 87.3376 109.02 87.4233 109.195C87.5127 109.366 87.6413 109.452 87.8093 109.452C87.9772 109.452 88.1059 109.366 88.1952 109.195C88.2881 109.02 88.3345 108.775 88.3345 108.46ZM89.2511 108.46C89.2511 108.736 89.2154 108.98 89.1439 109.195C89.0724 109.409 88.9724 109.59 88.8437 109.736C88.7187 109.879 88.5668 109.988 88.3881 110.063C88.2131 110.138 88.0219 110.176 87.8146 110.176C87.6038 110.176 87.4091 110.138 87.2304 110.063C87.0553 109.988 86.9034 109.879 86.7748 109.736C86.6497 109.59 86.5515 109.409 86.48 109.195C86.4121 108.98 86.3781 108.736 86.3781 108.46C86.3781 108.185 86.4121 107.942 86.48 107.731C86.5515 107.517 86.6497 107.338 86.7748 107.195C86.9034 107.049 87.0553 106.938 87.2304 106.863C87.4091 106.788 87.6038 106.751 87.8146 106.751C88.0219 106.751 88.2131 106.788 88.3881 106.863C88.5668 106.938 88.7187 107.049 88.8437 107.195C88.9724 107.338 89.0724 107.517 89.1439 107.731C89.2154 107.942 89.2511 108.185 89.2511 108.46ZM92.03 107.228C92.03 107.303 92.0121 107.376 91.9764 107.447C91.9442 107.515 91.9049 107.567 91.8585 107.603C91.762 107.56 91.6601 107.528 91.5529 107.506C91.4493 107.481 91.3528 107.469 91.2635 107.469C91.0491 107.469 90.8829 107.526 90.765 107.64C90.6507 107.751 90.5738 107.912 90.5345 108.123C90.606 108.073 90.7007 108.028 90.8186 107.989C90.9365 107.946 91.058 107.924 91.1831 107.924C91.5118 107.924 91.7727 108.019 91.9657 108.208C92.1622 108.398 92.2605 108.669 92.2605 109.023C92.2605 109.177 92.2337 109.323 92.1801 109.463C92.1265 109.602 92.0461 109.725 91.9389 109.833C91.8317 109.936 91.6977 110.02 91.5369 110.084C91.3796 110.145 91.1956 110.176 90.9848 110.176C90.5631 110.176 90.2308 110.034 89.9878 109.752C89.7484 109.47 89.6287 109.068 89.6287 108.546C89.6287 108.25 89.6644 107.989 89.7359 107.764C89.8109 107.538 89.9146 107.351 90.0468 107.201C90.1826 107.051 90.3434 106.938 90.5292 106.863C90.715 106.788 90.9205 106.751 91.1456 106.751C91.4314 106.751 91.6494 106.79 91.7995 106.868C91.9531 106.947 92.03 107.067 92.03 107.228ZM90.9794 108.621C90.9115 108.621 90.8383 108.635 90.7597 108.664C90.6846 108.693 90.6239 108.732 90.5774 108.782V108.916C90.5774 109.109 90.6167 109.247 90.6953 109.329C90.7775 109.411 90.8758 109.452 90.9901 109.452C91.1081 109.452 91.1956 109.413 91.2528 109.334C91.3135 109.255 91.3439 109.154 91.3439 109.029C91.3439 108.903 91.3117 108.805 91.2474 108.734C91.1867 108.659 91.0973 108.621 90.9794 108.621ZM95.0188 107.228C95.0188 107.303 95.0009 107.376 94.9652 107.447C94.933 107.515 94.8937 107.567 94.8473 107.603C94.7508 107.56 94.649 107.528 94.5418 107.506C94.4381 107.481 94.3417 107.469 94.2523 107.469C94.0379 107.469 93.8718 107.526 93.7538 107.64C93.6395 107.751 93.5627 107.912 93.5234 108.123C93.5948 108.073 93.6895 108.028 93.8074 107.989C93.9254 107.946 94.0469 107.924 94.1719 107.924C94.5007 107.924 94.7615 108.019 94.9545 108.208C95.151 108.398 95.2493 108.669 95.2493 109.023C95.2493 109.177 95.2225 109.323 95.1689 109.463C95.1153 109.602 95.0349 109.725 94.9277 109.833C94.8205 109.936 94.6865 110.02 94.5257 110.084C94.3685 110.145 94.1844 110.176 93.9736 110.176C93.552 110.176 93.2196 110.034 92.9766 109.752C92.7372 109.47 92.6175 109.068 92.6175 108.546C92.6175 108.25 92.6533 107.989 92.7247 107.764C92.7998 107.538 92.9034 107.351 93.0356 107.201C93.1714 107.051 93.3322 106.938 93.518 106.863C93.7038 106.788 93.9093 106.751 94.1344 106.751C94.4203 106.751 94.6382 106.79 94.7883 106.868C94.942 106.947 95.0188 107.067 95.0188 107.228ZM93.9682 108.621C93.9004 108.621 93.8271 108.635 93.7485 108.664C93.6734 108.693 93.6127 108.732 93.5662 108.782V108.916C93.5662 109.109 93.6056 109.247 93.6842 109.329C93.7664 109.411 93.8646 109.452 93.979 109.452C94.0969 109.452 94.1844 109.413 94.2416 109.334C94.3024 109.255 94.3327 109.154 94.3327 109.029C94.3327 108.903 94.3006 108.805 94.2362 108.734C94.1755 108.659 94.0862 108.621 93.9682 108.621ZM97.3226 107.699L96.7866 107.865C96.733 107.83 96.6794 107.78 96.6258 107.715C96.5722 107.651 96.5454 107.562 96.5454 107.447C96.5454 107.233 96.6758 107.083 96.9367 106.997L97.537 106.793H97.7353C97.889 106.793 98.0105 106.838 98.0998 106.927C98.1891 107.017 98.2338 107.138 98.2338 107.292V110.084C98.1945 110.092 98.1355 110.101 98.0569 110.111C97.9819 110.126 97.9051 110.133 97.8264 110.133C97.7478 110.133 97.6764 110.127 97.612 110.117C97.5513 110.106 97.4995 110.084 97.4566 110.052C97.4137 110.02 97.3798 109.977 97.3548 109.924C97.3333 109.867 97.3226 109.793 97.3226 109.704V107.699ZM99.9401 106.751C100.144 106.751 100.324 106.777 100.481 106.831C100.639 106.881 100.773 106.951 100.883 107.04C100.994 107.129 101.078 107.235 101.135 107.356C101.193 107.478 101.221 107.608 101.221 107.748C101.221 108.123 101.009 108.48 100.583 108.82L99.8812 109.382H101.168C101.189 109.422 101.209 109.472 101.227 109.532C101.248 109.593 101.259 109.659 101.259 109.731C101.259 109.859 101.23 109.952 101.173 110.009C101.116 110.063 101.041 110.09 100.948 110.09H99.0879C99.0093 110.036 98.9467 109.968 98.9003 109.886C98.8574 109.8 98.836 109.7 98.836 109.586C98.836 109.465 98.861 109.363 98.911 109.28C98.961 109.195 99.0164 109.127 99.0772 109.077L99.8168 108.444C99.9097 108.366 99.9866 108.296 100.047 108.235C100.108 108.171 100.156 108.114 100.192 108.064C100.231 108.014 100.258 107.967 100.272 107.924C100.29 107.882 100.299 107.84 100.299 107.801C100.299 107.701 100.255 107.622 100.165 107.565C100.079 107.508 99.9723 107.48 99.8436 107.48C99.7007 107.48 99.5721 107.503 99.4577 107.549C99.3469 107.592 99.254 107.639 99.179 107.689C99.1183 107.646 99.0682 107.592 99.0289 107.528C98.9896 107.463 98.97 107.388 98.97 107.303C98.97 107.117 99.0575 106.979 99.2326 106.89C99.4077 106.797 99.6435 106.751 99.9401 106.751ZM102.698 106.751C103.109 106.751 103.421 106.836 103.636 107.008C103.85 107.176 103.957 107.403 103.957 107.689C103.957 107.86 103.911 108.007 103.818 108.128C103.729 108.246 103.621 108.335 103.496 108.396C103.571 108.425 103.641 108.46 103.705 108.503C103.77 108.546 103.827 108.6 103.877 108.664C103.927 108.728 103.966 108.803 103.995 108.889C104.023 108.975 104.038 109.075 104.038 109.189C104.038 109.343 104.004 109.481 103.936 109.602C103.871 109.724 103.78 109.827 103.662 109.913C103.545 109.999 103.403 110.063 103.239 110.106C103.078 110.152 102.901 110.176 102.708 110.176C102.337 110.176 102.056 110.124 101.867 110.02C101.677 109.917 101.583 109.784 101.583 109.624C101.583 109.527 101.606 109.445 101.652 109.377C101.699 109.305 101.756 109.25 101.824 109.211C101.895 109.261 101.99 109.314 102.108 109.372C102.23 109.425 102.387 109.452 102.58 109.452C102.762 109.452 102.896 109.42 102.982 109.356C103.071 109.291 103.116 109.207 103.116 109.104C103.116 109 103.08 108.921 103.009 108.868C102.941 108.814 102.821 108.787 102.649 108.787H102.146C102.121 108.748 102.099 108.7 102.081 108.643C102.063 108.585 102.054 108.518 102.054 108.439C102.054 108.357 102.062 108.287 102.076 108.23C102.094 108.169 102.117 108.119 102.146 108.08H102.649C102.907 108.08 103.035 107.982 103.035 107.785C103.035 107.692 102.994 107.617 102.912 107.56C102.83 107.503 102.707 107.474 102.542 107.474C102.396 107.474 102.267 107.492 102.156 107.528C102.046 107.56 101.954 107.601 101.883 107.651C101.822 107.608 101.772 107.556 101.733 107.496C101.694 107.431 101.674 107.356 101.674 107.27C101.674 107.092 101.767 106.961 101.953 106.879C102.138 106.793 102.387 106.751 102.698 106.751ZM105.756 106.868C105.824 106.847 105.901 106.829 105.986 106.815C106.076 106.801 106.156 106.793 106.228 106.793C106.31 106.793 106.388 106.802 106.463 106.82C106.542 106.835 106.612 106.861 106.672 106.901C106.733 106.936 106.781 106.986 106.817 107.051C106.853 107.115 106.871 107.195 106.871 107.292V108.718H107.348C107.369 108.757 107.391 108.809 107.412 108.873C107.434 108.937 107.444 109.005 107.444 109.077C107.444 109.213 107.414 109.309 107.353 109.366C107.292 109.423 107.216 109.452 107.123 109.452H106.871V110.084C106.832 110.092 106.773 110.101 106.694 110.111C106.615 110.126 106.54 110.133 106.469 110.133C106.39 110.133 106.321 110.129 106.26 110.122C106.199 110.115 106.147 110.099 106.104 110.074C106.065 110.045 106.035 110.006 106.013 109.956C105.992 109.906 105.981 109.838 105.981 109.752V109.452H104.636C104.554 109.409 104.482 109.347 104.421 109.264C104.364 109.179 104.336 109.075 104.336 108.954C104.336 108.886 104.344 108.811 104.362 108.728C104.38 108.646 104.411 108.575 104.453 108.514L105.756 106.868ZM106.029 107.71H106.013L105.3 108.718H106.029V107.71ZM110.691 108.46C110.691 108.146 110.644 107.903 110.551 107.731C110.462 107.56 110.333 107.474 110.165 107.474C109.997 107.474 109.869 107.56 109.779 107.731C109.694 107.903 109.651 108.146 109.651 108.46C109.651 108.775 109.694 109.02 109.779 109.195C109.869 109.366 109.997 109.452 110.165 109.452C110.333 109.452 110.462 109.366 110.551 109.195C110.644 109.02 110.691 108.775 110.691 108.46ZM111.607 108.46C111.607 108.736 111.571 108.98 111.5 109.195C111.428 109.409 111.328 109.59 111.2 109.736C111.075 109.879 110.923 109.988 110.744 110.063C110.569 110.138 110.378 110.176 110.171 110.176C109.96 110.176 109.765 110.138 109.586 110.063C109.411 109.988 109.259 109.879 109.131 109.736C109.006 109.59 108.907 109.409 108.836 109.195C108.768 108.98 108.734 108.736 108.734 108.46C108.734 108.185 108.768 107.942 108.836 107.731C108.907 107.517 109.006 107.338 109.131 107.195C109.259 107.049 109.411 106.938 109.586 106.863C109.765 106.788 109.96 106.751 110.171 106.751C110.378 106.751 110.569 106.788 110.744 106.863C110.923 106.938 111.075 107.049 111.2 107.195C111.328 107.338 111.428 107.517 111.5 107.731C111.571 107.942 111.607 108.185 111.607 108.46ZM113.941 108.46C113.941 108.146 113.895 107.903 113.802 107.731C113.712 107.56 113.584 107.474 113.416 107.474C113.248 107.474 113.119 107.56 113.03 107.731C112.944 107.903 112.901 108.146 112.901 108.46C112.901 108.775 112.944 109.02 113.03 109.195C113.119 109.366 113.248 109.452 113.416 109.452C113.584 109.452 113.712 109.366 113.802 109.195C113.895 109.02 113.941 108.775 113.941 108.46ZM114.858 108.46C114.858 108.736 114.822 108.98 114.75 109.195C114.679 109.409 114.579 109.59 114.45 109.736C114.325 109.879 114.173 109.988 113.995 110.063C113.82 110.138 113.628 110.176 113.421 110.176C113.21 110.176 113.016 110.138 112.837 110.063C112.662 109.988 112.51 109.879 112.381 109.736C112.256 109.59 112.158 109.409 112.087 109.195C112.019 108.98 111.985 108.736 111.985 108.46C111.985 108.185 112.019 107.942 112.087 107.731C112.158 107.517 112.256 107.338 112.381 107.195C112.51 107.049 112.662 106.938 112.837 106.863C113.016 106.788 113.21 106.751 113.421 106.751C113.628 106.751 113.82 106.788 113.995 106.863C114.173 106.938 114.325 107.049 114.45 107.195C114.579 107.338 114.679 107.517 114.75 107.731C114.822 107.942 114.858 108.185 114.858 108.46ZM117.192 108.46C117.192 108.146 117.145 107.903 117.052 107.731C116.963 107.56 116.834 107.474 116.666 107.474C116.498 107.474 116.37 107.56 116.28 107.731C116.195 107.903 116.152 108.146 116.152 108.46C116.152 108.775 116.195 109.02 116.28 109.195C116.37 109.366 116.498 109.452 116.666 109.452C116.834 109.452 116.963 109.366 117.052 109.195C117.145 109.02 117.192 108.775 117.192 108.46ZM118.108 108.46C118.108 108.736 118.072 108.98 118.001 109.195C117.93 109.409 117.83 109.59 117.701 109.736C117.576 109.879 117.424 109.988 117.245 110.063C117.07 110.138 116.879 110.176 116.672 110.176C116.461 110.176 116.266 110.138 116.088 110.063C115.912 109.988 115.761 109.879 115.632 109.736C115.507 109.59 115.409 109.409 115.337 109.195C115.269 108.98 115.235 108.736 115.235 108.46C115.235 108.185 115.269 107.942 115.337 107.731C115.409 107.517 115.507 107.338 115.632 107.195C115.761 107.049 115.912 106.938 116.088 106.863C116.266 106.788 116.461 106.751 116.672 106.751C116.879 106.751 117.07 106.788 117.245 106.863C117.424 106.938 117.576 107.049 117.701 107.195C117.83 107.338 117.93 107.517 118.001 107.731C118.072 107.942 118.108 108.185 118.108 108.46ZM120.442 108.46C120.442 108.146 120.396 107.903 120.303 107.731C120.214 107.56 120.085 107.474 119.917 107.474C119.749 107.474 119.62 107.56 119.531 107.731C119.445 107.903 119.402 108.146 119.402 108.46C119.402 108.775 119.445 109.02 119.531 109.195C119.62 109.366 119.749 109.452 119.917 109.452C120.085 109.452 120.214 109.366 120.303 109.195C120.396 109.02 120.442 108.775 120.442 108.46ZM121.359 108.46C121.359 108.736 121.323 108.98 121.252 109.195C121.18 109.409 121.08 109.59 120.951 109.736C120.826 109.879 120.674 109.988 120.496 110.063C120.321 110.138 120.13 110.176 119.922 110.176C119.711 110.176 119.517 110.138 119.338 110.063C119.163 109.988 119.011 109.879 118.882 109.736C118.757 109.59 118.659 109.409 118.588 109.195C118.52 108.98 118.486 108.736 118.486 108.46C118.486 108.185 118.52 107.942 118.588 107.731C118.659 107.517 118.757 107.338 118.882 107.195C119.011 107.049 119.163 106.938 119.338 106.863C119.517 106.788 119.711 106.751 119.922 106.751C120.13 106.751 120.321 106.788 120.496 106.863C120.674 106.938 120.826 107.049 120.951 107.195C121.08 107.338 121.18 107.517 121.252 107.731C121.323 107.942 121.359 108.185 121.359 108.46ZM124.155 106.868C124.223 106.847 124.299 106.829 124.385 106.815C124.475 106.801 124.555 106.793 124.626 106.793C124.709 106.793 124.787 106.802 124.862 106.82C124.941 106.835 125.011 106.861 125.071 106.901C125.132 106.936 125.18 106.986 125.216 107.051C125.252 107.115 125.27 107.195 125.27 107.292V108.718H125.747C125.768 108.757 125.79 108.809 125.811 108.873C125.832 108.937 125.843 109.005 125.843 109.077C125.843 109.213 125.813 109.309 125.752 109.366C125.691 109.423 125.614 109.452 125.522 109.452H125.27V110.084C125.23 110.092 125.171 110.101 125.093 110.111C125.014 110.126 124.939 110.133 124.868 110.133C124.789 110.133 124.719 110.129 124.659 110.122C124.598 110.115 124.546 110.099 124.503 110.074C124.464 110.045 124.433 110.006 124.412 109.956C124.391 109.906 124.38 109.838 124.38 109.752V109.452H123.035C122.952 109.409 122.881 109.347 122.82 109.264C122.763 109.179 122.734 109.075 122.734 108.954C122.734 108.886 122.743 108.811 122.761 108.728C122.779 108.646 122.809 108.575 122.852 108.514L124.155 106.868ZM124.428 107.71H124.412L123.699 108.718H124.428V107.71ZM128.514 107.228C128.514 107.303 128.496 107.376 128.46 107.447C128.428 107.515 128.389 107.567 128.342 107.603C128.246 107.56 128.144 107.528 128.037 107.506C127.933 107.481 127.836 107.469 127.747 107.469C127.533 107.469 127.367 107.526 127.249 107.64C127.134 107.751 127.057 107.912 127.018 108.123C127.09 108.073 127.184 108.028 127.302 107.989C127.42 107.946 127.542 107.924 127.667 107.924C127.995 107.924 128.256 108.019 128.449 108.208C128.646 108.398 128.744 108.669 128.744 109.023C128.744 109.177 128.717 109.323 128.664 109.463C128.61 109.602 128.53 109.725 128.422 109.833C128.315 109.936 128.181 110.02 128.02 110.084C127.863 110.145 127.679 110.176 127.468 110.176C127.047 110.176 126.714 110.034 126.471 109.752C126.232 109.47 126.112 109.068 126.112 108.546C126.112 108.25 126.148 107.989 126.219 107.764C126.295 107.538 126.398 107.351 126.53 107.201C126.666 107.051 126.827 106.938 127.013 106.863C127.199 106.788 127.404 106.751 127.629 106.751C127.915 106.751 128.133 106.79 128.283 106.868C128.437 106.947 128.514 107.067 128.514 107.228ZM127.463 108.621C127.395 108.621 127.322 108.635 127.243 108.664C127.168 108.693 127.107 108.732 127.061 108.782V108.916C127.061 109.109 127.1 109.247 127.179 109.329C127.261 109.411 127.359 109.452 127.474 109.452C127.592 109.452 127.679 109.413 127.736 109.334C127.797 109.255 127.827 109.154 127.827 109.029C127.827 108.903 127.795 108.805 127.731 108.734C127.67 108.659 127.581 108.621 127.463 108.621ZM131.058 108.46C131.058 108.146 131.011 107.903 130.918 107.731C130.829 107.56 130.7 107.474 130.532 107.474C130.364 107.474 130.236 107.56 130.146 107.731C130.061 107.903 130.018 108.146 130.018 108.46C130.018 108.775 130.061 109.02 130.146 109.195C130.236 109.366 130.364 109.452 130.532 109.452C130.7 109.452 130.829 109.366 130.918 109.195C131.011 109.02 131.058 108.775 131.058 108.46ZM131.974 108.46C131.974 108.736 131.938 108.98 131.867 109.195C131.795 109.409 131.695 109.59 131.567 109.736C131.442 109.879 131.29 109.988 131.111 110.063C130.936 110.138 130.745 110.176 130.538 110.176C130.327 110.176 130.132 110.138 129.953 110.063C129.778 109.988 129.626 109.879 129.498 109.736C129.373 109.59 129.274 109.409 129.203 109.195C129.135 108.98 129.101 108.736 129.101 108.46C129.101 108.185 129.135 107.942 129.203 107.731C129.274 107.517 129.373 107.338 129.498 107.195C129.626 107.049 129.778 106.938 129.953 106.863C130.132 106.788 130.327 106.751 130.538 106.751C130.745 106.751 130.936 106.788 131.111 106.863C131.29 106.938 131.442 107.049 131.567 107.195C131.695 107.338 131.795 107.517 131.867 107.731C131.938 107.942 131.974 108.185 131.974 108.46ZM134.308 108.46C134.308 108.146 134.262 107.903 134.169 107.731C134.079 107.56 133.951 107.474 133.783 107.474C133.615 107.474 133.486 107.56 133.397 107.731C133.311 107.903 133.268 108.146 133.268 108.46C133.268 108.775 133.311 109.02 133.397 109.195C133.486 109.366 133.615 109.452 133.783 109.452C133.951 109.452 134.079 109.366 134.169 109.195C134.262 109.02 134.308 108.775 134.308 108.46ZM135.225 108.46C135.225 108.736 135.189 108.98 135.117 109.195C135.046 109.409 134.946 109.59 134.817 109.736C134.692 109.879 134.54 109.988 134.362 110.063C134.187 110.138 133.995 110.176 133.788 110.176C133.577 110.176 133.383 110.138 133.204 110.063C133.029 109.988 132.877 109.879 132.748 109.736C132.623 109.59 132.525 109.409 132.454 109.195C132.386 108.98 132.352 108.736 132.352 108.46C132.352 108.185 132.386 107.942 132.454 107.731C132.525 107.517 132.623 107.338 132.748 107.195C132.877 107.049 133.029 106.938 133.204 106.863C133.383 106.788 133.577 106.751 133.788 106.751C133.995 106.751 134.187 106.788 134.362 106.863C134.54 106.938 134.692 107.049 134.817 107.195C134.946 107.338 135.046 107.517 135.117 107.731C135.189 107.942 135.225 108.185 135.225 108.46Z" fill="#D6DCED"/>
<path d="M106.52 300.8H166.63C168.436 300.8 170.168 301.517 171.445 302.794C172.723 304.072 173.44 305.804 173.44 307.61V412.2H99.7V307.61C99.7 306.715 99.8765 305.828 100.219 305.001C100.562 304.175 101.065 303.423 101.698 302.791C102.332 302.158 103.083 301.657 103.911 301.315C104.738 300.974 105.625 300.798 106.52 300.8V300.8Z" fill="#001F30"/>
<path d="M165.01 289.4H108.83C107.427 289.4 106.29 290.537 106.29 291.94V303.96C106.29 305.363 107.427 306.5 108.83 306.5H165.01C166.413 306.5 167.55 305.363 167.55 303.96V291.94C167.55 290.537 166.413 289.4 165.01 289.4Z" fill="#7F4205"/>
<path d="M160.61 326.85C163.929 326.85 166.62 324.159 166.62 320.84C166.62 317.521 163.929 314.83 160.61 314.83C157.291 314.83 154.6 317.521 154.6 320.84C154.6 324.159 157.291 326.85 160.61 326.85Z" fill="#D9E4EB"/>
<path d="M164.66 316.4C165.236 317.66 165.359 319.08 165.007 320.421C164.654 321.761 163.849 322.937 162.728 323.751C161.607 324.565 160.238 324.966 158.855 324.885C157.472 324.805 156.159 324.248 155.14 323.31C155.51 324.118 156.054 324.834 156.734 325.406C157.414 325.978 158.212 326.391 159.071 326.617C159.931 326.843 160.829 326.875 161.703 326.711C162.576 326.548 163.402 326.192 164.121 325.67C164.84 325.148 165.434 324.473 165.86 323.694C166.287 322.914 166.535 322.05 166.586 321.163C166.638 320.276 166.492 319.388 166.159 318.565C165.826 317.741 165.314 317.002 164.66 316.4V316.4Z" fill="#AEB6BD"/>
<path d="M127.62 251.84L103.04 250.84L105.91 177C106.037 173.741 107.454 170.665 109.849 168.45C112.244 166.236 115.421 165.063 118.68 165.19V165.19C120.297 165.253 121.886 165.635 123.356 166.313C124.826 166.992 126.147 167.953 127.244 169.143C128.341 170.333 129.193 171.728 129.75 173.248C130.307 174.768 130.558 176.383 130.49 178L127.62 251.84Z" fill="#FDAC6F"/>
<path d="M125.3 187L110.55 186.43C110.272 186.415 110.012 186.291 109.825 186.085C109.638 185.879 109.539 185.608 109.55 185.33L109.81 178.73C109.851 177.622 110.111 176.534 110.574 175.527C111.037 174.519 111.694 173.613 112.508 172.861C113.322 172.108 114.276 171.524 115.316 171.141C116.357 170.758 117.462 170.585 118.57 170.63V170.63C119.678 170.673 120.766 170.933 121.773 171.396C122.781 171.86 123.687 172.517 124.44 173.33C125.193 174.144 125.778 175.098 126.163 176.137C126.547 177.177 126.723 178.282 126.68 179.39L126.4 186C126.394 186.138 126.36 186.273 126.301 186.398C126.242 186.523 126.16 186.635 126.057 186.728C125.955 186.821 125.836 186.893 125.706 186.94C125.576 186.986 125.438 187.007 125.3 187Z" fill="#F7DDCB"/>
<path fill-rule="evenodd" clip-rule="evenodd" d="M110.05 130.68C113.412 130.68 116.699 131.677 119.495 133.545C122.29 135.413 124.469 138.068 125.756 141.175C127.043 144.281 127.379 147.699 126.723 150.997C126.067 154.294 124.448 157.323 122.071 159.701C119.693 162.078 116.664 163.698 113.367 164.354C110.069 165.009 106.651 164.673 103.544 163.386C100.438 162.099 97.783 159.921 95.915 157.125C94.047 154.329 93.05 151.042 93.05 147.68C93.05 143.171 94.8411 138.847 98.0292 135.659C101.217 132.471 105.541 130.68 110.05 130.68V130.68ZM110.05 135.51C109.206 135.513 108.397 135.85 107.801 136.448C107.205 137.046 106.87 137.856 106.87 138.7V148.23C106.87 149.074 107.205 149.882 107.801 150.479C108.398 151.075 109.207 151.41 110.05 151.41C110.893 151.41 111.702 151.075 112.299 150.479C112.895 149.882 113.23 149.074 113.23 148.23V138.7C113.231 138.282 113.15 137.867 112.991 137.48C112.832 137.093 112.598 136.741 112.302 136.445C112.007 136.149 111.656 135.914 111.269 135.753C110.883 135.593 110.468 135.51 110.05 135.51V135.51ZM110.05 153.51C109.42 153.51 108.805 153.697 108.281 154.048C107.758 154.398 107.35 154.896 107.11 155.478C106.87 156.06 106.808 156.701 106.933 157.318C107.057 157.935 107.362 158.502 107.809 158.946C108.255 159.39 108.824 159.691 109.442 159.811C110.06 159.932 110.7 159.866 111.281 159.622C111.862 159.379 112.357 158.968 112.704 158.442C113.051 157.917 113.234 157.3 113.23 156.67C113.229 156.254 113.145 155.842 112.985 155.458C112.824 155.074 112.59 154.725 112.294 154.432C111.999 154.138 111.649 153.906 111.264 153.748C110.879 153.59 110.466 153.509 110.05 153.51V153.51Z" fill="url(#paint1_radial_1356_4193)"/>
</g>
<defs>
<radialGradient id="paint0_radial_1356_4193" cx="0" cy="0" r="1" gradientUnits="userSpaceOnUse" gradientTransform="translate(123.32 142.777) rotate(90) scale(145.94 181.414)">
<stop stop-color="white"/>
<stop offset="0.0344426" stop-color="#F8F8F8"/>
<stop offset="0.218" stop-color="#D6D6D6"/>
<stop offset="0.4054" stop-color="#BBBBBB"/>
<stop offset="0.596" stop-color="#A8A8A8"/>
<stop offset="0.7916" stop-color="#9D9D9D"/>
<stop offset="1" stop-color="#999999"/>
</radialGradient>
<radialGradient id="paint1_radial_1356_4193" cx="0" cy="0" r="1" gradientUnits="userSpaceOnUse" gradientTransform="translate(110.06 147.69) scale(17)">
<stop stop-color="#FF931E"/>
</radialGradient>
<clipPath id="clip0_1356_4193">
<rect width="124.12" height="377.62" fill="white" transform="translate(64 41)"/>
</clipPath>
</defs>
</svg>
