<svg width="86" height="60" viewBox="0 0 86 60" fill="none" xmlns="http://www.w3.org/2000/svg">
<path d="M85.8725 52.8C85.8725 56.7724 82.6628 60.0828 78.6301 60.0828H8.42741C4.47697 60.0828 1.18494 56.8552 1.18494 52.8V7.28276C1.18494 3.31034 4.39467 0 8.42741 0H78.6301C82.5805 0 85.8725 3.22759 85.8725 7.28276V52.8V52.8Z" fill="#FA790E"/>
<path d="M85.7369 11.3516H0.894775V22.7029H85.7369V11.3516Z" fill="#2E303F"/>
<path d="M51.8 28.3862H7.02832V36.6621H51.8V28.3862Z" fill="white"/>
<path d="M39.4549 45.5176H7.43982V53.7934H39.4549V45.5176Z" fill="#719037"/>
<path d="M80.4407 45.5176H48.4257V46.8417H80.4407V45.5176Z" fill="white"/>
<path d="M80.4407 48.5796H48.4257V49.9037H80.4407V48.5796Z" fill="white"/>
<path d="M80.4407 51.3931H48.4257V52.7172H80.4407V51.3931Z" fill="white"/>
<path d="M78.9594 28.6348H57.5612V36.9106H78.9594V28.6348Z" fill="white"/>
<path d="M77.5602 39.8897H59.0425C56.6558 39.8897 54.6805 37.9035 54.6805 35.5035V29.3794C54.6805 26.9794 56.6558 24.9932 59.0425 24.9932H77.4779C79.8646 24.9932 81.8398 26.9794 81.8398 29.3794V35.5035C81.8398 37.9035 79.9469 39.8897 77.5602 39.8897Z" stroke="#DB0707" stroke-width="2" stroke-miterlimit="10"/>
</svg>
