<?xml version="1.0" encoding="UTF-8"?><svg id="Capa_2" xmlns="http://www.w3.org/2000/svg" viewBox="0 0 117 76.71"><defs><style>.cls-1{fill:none;stroke:#e62929;stroke-miterlimit:10;stroke-width:4px;}.cls-2{fill:#ef7a1d;}</style></defs><g id="Capa_1-2"><g><g><path class="cls-2" d="M102.6,0H14.41C6.46,0,0,6.46,0,14.41V62.31c0,7.94,6.46,14.41,14.41,14.41H102.6c7.94,0,14.41-6.46,14.41-14.41V14.41c0-7.94-6.46-14.41-14.41-14.41ZM14.41,3.92H102.6c5.27,0,9.64,3.92,10.37,8.99H4.04C4.77,7.83,9.13,3.92,14.41,3.92ZM102.6,72.8H14.41c-5.78,0-10.49-4.71-10.49-10.49V25.86H113.09V62.31c0,5.78-4.71,10.49-10.49,10.49Z"/><rect class="cls-2" x="13.41" y="35.29" width="41.82" height="3.78"/><rect class="cls-2" x="13.41" y="45.92" width="41.82" height="3.78"/><rect class="cls-2" x="13.41" y="56.83" width="41.82" height="3.78"/></g><path class="cls-1" d="M97.98,50.18h-22.32c-2.88,0-5.26-1.99-5.26-4.39v-6.12c0-2.4,2.38-4.39,5.26-4.39h22.22c2.88,0,5.26,1.99,5.26,4.39v6.12c0,2.4-2.28,4.39-5.16,4.39Z"/></g></g></svg>