<svg xmlns="http://www.w3.org/2000/svg" width="42.11" height="27.61" viewBox="0 0 42.11 27.61"><defs><style>.cls-1{fill:#fa7a0e;}</style></defs><g id="Capa_2" data-name="Capa 2"><g id="Capa_1-2" data-name="Capa 1"><path class="cls-1" d="M36.93,0H5.19A5.2,5.2,0,0,0,0,5.19V22.43a5.2,5.2,0,0,0,5.19,5.18H36.93a5.19,5.19,0,0,0,5.18-5.18V5.19A5.19,5.19,0,0,0,36.93,0ZM5.19,1.41H36.93a3.77,3.77,0,0,1,3.73,3.24H1.45A3.79,3.79,0,0,1,5.19,1.41ZM36.93,26.2H5.19a3.77,3.77,0,0,1-3.78-3.77V9.31H40.7V22.43A3.77,3.77,0,0,1,36.93,26.2Z"/><rect class="cls-1" x="4.83" y="12.7" width="15.05" height="1.36"/><rect class="cls-1" x="4.83" y="16.53" width="15.05" height="1.36"/><rect class="cls-1" x="4.83" y="20.45" width="15.05" height="1.36"/></g></g></svg>