<svg width="12" height="18" viewBox="0 0 12 18" fill="none" xmlns="http://www.w3.org/2000/svg">
<path fill-rule="evenodd" clip-rule="evenodd" d="M0 5.99531C0 2.68076 2.68286 0 6 0C9.31714 0 12 2.68076 12 5.99531C12 10.4918 6 17.1294 6 17.1294C6 17.1294 3.00052 13.8112 1.2431 10.2777H5.99037L5.99996 10.2777C8.3669 10.2777 10.2857 8.3604 10.2857 5.99532C10.2857 3.63024 8.3669 1.71296 5.99996 1.71296C3.63302 1.71296 1.71424 3.63024 1.71424 5.99532C1.71424 6.95937 2.03305 7.84901 2.57107 8.56473H0.507682C0.192152 7.67322 0 6.79998 0 5.99531ZM5.99999 8.56473C7.42015 8.56473 8.57142 7.41436 8.57142 5.99531C8.57142 4.57626 7.42015 3.4259 5.99999 3.4259C4.57983 3.4259 3.42856 4.57626 3.42856 5.99531C3.42856 7.41436 4.57983 8.56473 5.99999 8.56473Z" fill="#FF652A"/>
</svg>
