{
    "asset" : {
        "generator" : "Khronos glTF Blender I/O v1.5.17",
        "version" : "2.0"
    },
    "scene" : 0,
    "scenes" : [
        {
            "name" : "Scene",
            "nodes" : [
                0,
                1,
                2,
                3,
                4,
                5
            ]
        }
    ],
    "nodes" : [
        {
            "mesh" : 0,
            "name" : "face6",
            "translation" : [
                0,
                0.9421519041061401,
                0
            ]
        },
        {
            "mesh" : 1,
            "name" : "face3",
            "translation" : [
                0,
                0.9421519041061401,
                0
            ]
        },
        {
            "mesh" : 2,
            "name" : "face2",
            "translation" : [
                0,
                0.9421519041061401,
                0
            ]
        },
        {
            "mesh" : 3,
            "name" : "face4",
            "translation" : [
                0,
                0.9421519041061401,
                0
            ]
        },
        {
            "mesh" : 4,
            "name" : "face5",
            "translation" : [
                0,
                0.9421519041061401,
                0
            ]
        },
        {
            "mesh" : 5,
            "name" : "face1",
            "translation" : [
                0,
                0.9421519041061401,
                0
            ]
        }
    ],
    "materials" : [
        {
            "doubleSided" : true,
            "name" : "face6",
            "pbrMetallicRoughness" : {
                "baseColorFactor" : [
                    0,
                    0,
                    0,
                    1
                ],
                "metallicFactor" : 0,
                "roughnessFactor" : 0.5
            }
        },
        {
            "doubleSided" : true,
            "name" : "face3",
            "pbrMetallicRoughness" : {
                "baseColorFactor" : [
                    0.35076239705085754,
                    0,
                    0.8000000715255737,
                    1
                ],
                "metallicFactor" : 0,
                "roughnessFactor" : 0.5
            }
        },
        {
            "doubleSided" : true,
            "name" : "face2",
            "pbrMetallicRoughness" : {
                "baseColorFactor" : [
                    0.8000000715255737,
                    0.7063137292861938,
                    0.03033231757581234,
                    1
                ],
                "metallicFactor" : 0,
                "roughnessFactor" : 0.5
            }
        },
        {
            "doubleSided" : true,
            "name" : "face4",
            "pbrMetallicRoughness" : {
                "baseColorFactor" : [
                    0.8000000715255737,
                    0.1895672082901001,
                    0.05033569410443306,
                    1
                ],
                "metallicFactor" : 0,
                "roughnessFactor" : 0.4000000059604645
            }
        },
        {
            "doubleSided" : true,
            "name" : "face5",
            "pbrMetallicRoughness" : {
                "baseColorFactor" : [
                    0.2714322507381439,
                    0.3158171474933624,
                    0.8000000715255737,
                    1
                ],
                "metallicFactor" : 0,
                "roughnessFactor" : 0.5
            }
        },
        {
            "doubleSided" : true,
            "name" : "face1",
            "pbrMetallicRoughness" : {
                "baseColorFactor" : [
                    0.8000000715255737,
                    0.005763547960668802,
                    0.013055800460278988,
                    1
                ],
                "metallicFactor" : 0,
                "roughnessFactor" : 0.5
            }
        }
    ],
    "meshes" : [
        {
            "name" : "face6",
            "primitives" : [
                {
                    "attributes" : {
                        "POSITION" : 0,
                        "NORMAL" : 1,
                        "TEXCOORD_0" : 2
                    },
                    "indices" : 3,
                    "material" : 0
                }
            ]
        },
        {
            "name" : "face3",
            "primitives" : [
                {
                    "attributes" : {
                        "POSITION" : 4,
                        "NORMAL" : 5,
                        "TEXCOORD_0" : 6
                    },
                    "indices" : 7,
                    "material" : 1
                }
            ]
        },
        {
            "name" : "face2",
            "primitives" : [
                {
                    "attributes" : {
                        "POSITION" : 8,
                        "NORMAL" : 9,
                        "TEXCOORD_0" : 10
                    },
                    "indices" : 11,
                    "material" : 2
                }
            ]
        },
        {
            "name" : "face4",
            "primitives" : [
                {
                    "attributes" : {
                        "POSITION" : 12,
                        "NORMAL" : 13,
                        "TEXCOORD_0" : 14
                    },
                    "indices" : 3,
                    "material" : 3
                }
            ]
        },
        {
            "name" : "face5",
            "primitives" : [
                {
                    "attributes" : {
                        "POSITION" : 15,
                        "NORMAL" : 16,
                        "TEXCOORD_0" : 17
                    },
                    "indices" : 18,
                    "material" : 4
                }
            ]
        },
        {
            "name" : "face1",
            "primitives" : [
                {
                    "attributes" : {
                        "POSITION" : 19,
                        "NORMAL" : 20,
                        "TEXCOORD_0" : 21
                    },
                    "indices" : 11,
                    "material" : 5
                }
            ]
        }
    ],
    "accessors" : [
        {
            "bufferView" : 0,
            "componentType" : 5126,
            "count" : 4,
            "max" : [
                1,
                1,
                -1
            ],
            "min" : [
                -1,
                -1,
                -1
            ],
            "type" : "VEC3"
        },
        {
            "bufferView" : 1,
            "componentType" : 5126,
            "count" : 4,
            "type" : "VEC3"
        },
        {
            "bufferView" : 2,
            "componentType" : 5126,
            "count" : 4,
            "type" : "VEC2"
        },
        {
            "bufferView" : 3,
            "componentType" : 5123,
            "count" : 6,
            "type" : "SCALAR"
        },
        {
            "bufferView" : 4,
            "componentType" : 5126,
            "count" : 4,
            "max" : [
                1,
                1,
                1
            ],
            "min" : [
                -1,
                1,
                -1
            ],
            "type" : "VEC3"
        },
        {
            "bufferView" : 5,
            "componentType" : 5126,
            "count" : 4,
            "type" : "VEC3"
        },
        {
            "bufferView" : 6,
            "componentType" : 5126,
            "count" : 4,
            "type" : "VEC2"
        },
        {
            "bufferView" : 7,
            "componentType" : 5123,
            "count" : 6,
            "type" : "SCALAR"
        },
        {
            "bufferView" : 8,
            "componentType" : 5126,
            "count" : 4,
            "max" : [
                1,
                1,
                1
            ],
            "min" : [
                -1,
                -1,
                1
            ],
            "type" : "VEC3"
        },
        {
            "bufferView" : 9,
            "componentType" : 5126,
            "count" : 4,
            "type" : "VEC3"
        },
        {
            "bufferView" : 10,
            "componentType" : 5126,
            "count" : 4,
            "type" : "VEC2"
        },
        {
            "bufferView" : 11,
            "componentType" : 5123,
            "count" : 6,
            "type" : "SCALAR"
        },
        {
            "bufferView" : 12,
            "componentType" : 5126,
            "count" : 4,
            "max" : [
                -1,
                1,
                1
            ],
            "min" : [
                -1,
                -1,
                -1
            ],
            "type" : "VEC3"
        },
        {
            "bufferView" : 13,
            "componentType" : 5126,
            "count" : 4,
            "type" : "VEC3"
        },
        {
            "bufferView" : 14,
            "componentType" : 5126,
            "count" : 4,
            "type" : "VEC2"
        },
        {
            "bufferView" : 15,
            "componentType" : 5126,
            "count" : 4,
            "max" : [
                1,
                -1,
                1
            ],
            "min" : [
                -1,
                -1,
                -1
            ],
            "type" : "VEC3"
        },
        {
            "bufferView" : 16,
            "componentType" : 5126,
            "count" : 4,
            "type" : "VEC3"
        },
        {
            "bufferView" : 17,
            "componentType" : 5126,
            "count" : 4,
            "type" : "VEC2"
        },
        {
            "bufferView" : 18,
            "componentType" : 5123,
            "count" : 6,
            "type" : "SCALAR"
        },
        {
            "bufferView" : 19,
            "componentType" : 5126,
            "count" : 4,
            "max" : [
                1,
                1,
                1
            ],
            "min" : [
                1,
                -1,
                -1
            ],
            "type" : "VEC3"
        },
        {
            "bufferView" : 20,
            "componentType" : 5126,
            "count" : 4,
            "type" : "VEC3"
        },
        {
            "bufferView" : 21,
            "componentType" : 5126,
            "count" : 4,
            "type" : "VEC2"
        }
    ],
    "bufferViews" : [
        {
            "buffer" : 0,
            "byteLength" : 48,
            "byteOffset" : 0
        },
        {
            "buffer" : 0,
            "byteLength" : 48,
            "byteOffset" : 48
        },
        {
            "buffer" : 0,
            "byteLength" : 32,
            "byteOffset" : 96
        },
        {
            "buffer" : 0,
            "byteLength" : 12,
            "byteOffset" : 128
        },
        {
            "buffer" : 0,
            "byteLength" : 48,
            "byteOffset" : 140
        },
        {
            "buffer" : 0,
            "byteLength" : 48,
            "byteOffset" : 188
        },
        {
            "buffer" : 0,
            "byteLength" : 32,
            "byteOffset" : 236
        },
        {
            "buffer" : 0,
            "byteLength" : 12,
            "byteOffset" : 268
        },
        {
            "buffer" : 0,
            "byteLength" : 48,
            "byteOffset" : 280
        },
        {
            "buffer" : 0,
            "byteLength" : 48,
            "byteOffset" : 328
        },
        {
            "buffer" : 0,
            "byteLength" : 32,
            "byteOffset" : 376
        },
        {
            "buffer" : 0,
            "byteLength" : 12,
            "byteOffset" : 408
        },
        {
            "buffer" : 0,
            "byteLength" : 48,
            "byteOffset" : 420
        },
        {
            "buffer" : 0,
            "byteLength" : 48,
            "byteOffset" : 468
        },
        {
            "buffer" : 0,
            "byteLength" : 32,
            "byteOffset" : 516
        },
        {
            "buffer" : 0,
            "byteLength" : 48,
            "byteOffset" : 548
        },
        {
            "buffer" : 0,
            "byteLength" : 48,
            "byteOffset" : 596
        },
        {
            "buffer" : 0,
            "byteLength" : 32,
            "byteOffset" : 644
        },
        {
            "buffer" : 0,
            "byteLength" : 12,
            "byteOffset" : 676
        },
        {
            "buffer" : 0,
            "byteLength" : 48,
            "byteOffset" : 688
        },
        {
            "buffer" : 0,
            "byteLength" : 48,
            "byteOffset" : 736
        },
        {
            "buffer" : 0,
            "byteLength" : 32,
            "byteOffset" : 784
        }
    ],
    "buffers" : [
        {
            "byteLength" : 816,
            "uri" : "data:application/octet-stream;base64,"
        }
    ]
}
