<svg width="136" height="14" viewBox="0 0 136 14" fill="none" xmlns="http://www.w3.org/2000/svg">
<path d="M4.93555 2.74902L2.22852 11H0.0478516L3.74609 1.04688H5.13379L4.93555 2.74902ZM7.18457 11L4.4707 2.74902L4.25195 1.04688H5.65332L9.37207 11H7.18457ZM7.06152 7.29492V8.90137H1.80469V7.29492H7.06152ZM14.8545 3.60352H16.6387V10.7539C16.6387 11.4284 16.4883 12.0003 16.1875 12.4697C15.8913 12.9437 15.4766 13.3014 14.9434 13.543C14.4102 13.7891 13.7904 13.9121 13.084 13.9121C12.7741 13.9121 12.446 13.8711 12.0996 13.7891C11.7578 13.707 11.4297 13.5794 11.1152 13.4062C10.8053 13.2331 10.5456 13.0143 10.3359 12.75L11.2041 11.5879C11.432 11.8522 11.6963 12.0573 11.9971 12.2031C12.2979 12.3535 12.6305 12.4287 12.9951 12.4287C13.3506 12.4287 13.6514 12.3626 13.8975 12.2305C14.1436 12.1029 14.3327 11.9137 14.4648 11.6631C14.597 11.417 14.6631 11.1185 14.6631 10.7676V5.3125L14.8545 3.60352ZM9.87793 7.39062V7.24707C9.87793 6.68197 9.94629 6.16927 10.083 5.70898C10.2243 5.24414 10.4225 4.84538 10.6777 4.5127C10.9375 4.18001 11.252 3.92253 11.6211 3.74023C11.9902 3.55794 12.4072 3.4668 12.8721 3.4668C13.3643 3.4668 13.7767 3.55794 14.1094 3.74023C14.4421 3.92253 14.7155 4.18229 14.9297 4.51953C15.1439 4.85221 15.3102 5.24642 15.4287 5.70215C15.5518 6.15332 15.6475 6.64779 15.7158 7.18555V7.5C15.6475 8.01497 15.5449 8.49349 15.4082 8.93555C15.2715 9.3776 15.0915 9.76497 14.8682 10.0977C14.6449 10.4258 14.3669 10.681 14.0342 10.8633C13.7061 11.0456 13.3141 11.1367 12.8584 11.1367C12.4027 11.1367 11.9902 11.0433 11.6211 10.8564C11.2565 10.6696 10.9443 10.4076 10.6846 10.0703C10.4248 9.73307 10.2243 9.33659 10.083 8.88086C9.94629 8.42513 9.87793 7.92839 9.87793 7.39062ZM11.8467 7.24707V7.39062C11.8467 7.69596 11.8763 7.98079 11.9355 8.24512C11.9948 8.50944 12.0859 8.74414 12.209 8.94922C12.3366 9.14974 12.4938 9.30697 12.6807 9.4209C12.8721 9.53027 13.0977 9.58496 13.3574 9.58496C13.7174 9.58496 14.0114 9.50977 14.2393 9.35938C14.4671 9.20443 14.638 8.99251 14.752 8.72363C14.8659 8.45475 14.932 8.14486 14.9502 7.79395V6.89844C14.9411 6.61133 14.9023 6.35384 14.834 6.12598C14.7656 5.89355 14.6699 5.69531 14.5469 5.53125C14.4238 5.36719 14.2643 5.23958 14.0684 5.14844C13.8724 5.05729 13.64 5.01172 13.3711 5.01172C13.1113 5.01172 12.8857 5.07096 12.6943 5.18945C12.5075 5.30339 12.3503 5.46061 12.2227 5.66113C12.0996 5.86165 12.0062 6.09863 11.9424 6.37207C11.8786 6.64095 11.8467 6.93262 11.8467 7.24707ZM20.1387 5.2168V11H18.1699V3.60352H20.0225L20.1387 5.2168ZM22.3672 3.55566L22.333 5.38086C22.2373 5.36719 22.1211 5.35579 21.9844 5.34668C21.8522 5.33301 21.7314 5.32617 21.6221 5.32617C21.3441 5.32617 21.1025 5.36263 20.8975 5.43555C20.6969 5.50391 20.5283 5.60645 20.3916 5.74316C20.2594 5.87988 20.1592 6.04622 20.0908 6.24219C20.027 6.43815 19.9906 6.66146 19.9814 6.91211L19.585 6.78906C19.585 6.31055 19.6328 5.87077 19.7285 5.46973C19.8242 5.06413 19.9632 4.71094 20.1455 4.41016C20.3324 4.10938 20.5602 3.87695 20.8291 3.71289C21.098 3.54883 21.4056 3.4668 21.752 3.4668C21.8613 3.4668 21.973 3.47591 22.0869 3.49414C22.2008 3.50781 22.2943 3.52832 22.3672 3.55566ZM26.5645 11.1367C25.9902 11.1367 25.4753 11.0456 25.0195 10.8633C24.5638 10.6764 24.1764 10.4189 23.8574 10.0908C23.543 9.7627 23.3014 9.38216 23.1328 8.94922C22.9642 8.51172 22.8799 8.04688 22.8799 7.55469V7.28125C22.8799 6.7207 22.9596 6.20801 23.1191 5.74316C23.2786 5.27832 23.5065 4.875 23.8027 4.5332C24.1035 4.19141 24.4681 3.92936 24.8965 3.74707C25.3249 3.56022 25.8079 3.4668 26.3457 3.4668C26.8698 3.4668 27.3346 3.55339 27.7402 3.72656C28.1458 3.89974 28.4854 4.14583 28.7588 4.46484C29.0368 4.78385 29.2464 5.16667 29.3877 5.61328C29.529 6.05534 29.5996 6.54753 29.5996 7.08984V7.91016H23.7207V6.59766H27.665V6.44727C27.665 6.17383 27.6149 5.93001 27.5146 5.71582C27.4189 5.49707 27.2731 5.32389 27.0771 5.19629C26.8812 5.06868 26.6305 5.00488 26.3252 5.00488C26.0654 5.00488 25.8421 5.06185 25.6553 5.17578C25.4684 5.28971 25.3158 5.44922 25.1973 5.6543C25.0833 5.85938 24.9967 6.10091 24.9375 6.37891C24.8828 6.65234 24.8555 6.95312 24.8555 7.28125V7.55469C24.8555 7.85091 24.8965 8.12435 24.9785 8.375C25.0651 8.62565 25.1859 8.84212 25.3408 9.02441C25.5003 9.20671 25.6917 9.34798 25.915 9.44824C26.1429 9.5485 26.4004 9.59863 26.6875 9.59863C27.043 9.59863 27.3734 9.53027 27.6787 9.39355C27.9886 9.25228 28.2552 9.04036 28.4785 8.75781L29.4355 9.79688C29.2806 10.0202 29.0687 10.2344 28.7998 10.4395C28.5355 10.6445 28.2165 10.8132 27.8428 10.9453C27.4691 11.0729 27.043 11.1367 26.5645 11.1367ZM35.4033 3.60352H37.1875V10.7539C37.1875 11.4284 37.0371 12.0003 36.7363 12.4697C36.4401 12.9437 36.0254 13.3014 35.4922 13.543C34.959 13.7891 34.3392 13.9121 33.6328 13.9121C33.3229 13.9121 32.9948 13.8711 32.6484 13.7891C32.3066 13.707 31.9785 13.5794 31.6641 13.4062C31.3542 13.2331 31.0944 13.0143 30.8848 12.75L31.7529 11.5879C31.9808 11.8522 32.2451 12.0573 32.5459 12.2031C32.8467 12.3535 33.1794 12.4287 33.5439 12.4287C33.8994 12.4287 34.2002 12.3626 34.4463 12.2305C34.6924 12.1029 34.8815 11.9137 35.0137 11.6631C35.1458 11.417 35.2119 11.1185 35.2119 10.7676V5.3125L35.4033 3.60352ZM30.4268 7.39062V7.24707C30.4268 6.68197 30.4951 6.16927 30.6318 5.70898C30.7731 5.24414 30.9714 4.84538 31.2266 4.5127C31.4863 4.18001 31.8008 3.92253 32.1699 3.74023C32.5391 3.55794 32.9561 3.4668 33.4209 3.4668C33.9131 3.4668 34.3255 3.55794 34.6582 3.74023C34.9909 3.92253 35.2643 4.18229 35.4785 4.51953C35.6927 4.85221 35.859 5.24642 35.9775 5.70215C36.1006 6.15332 36.1963 6.64779 36.2646 7.18555V7.5C36.1963 8.01497 36.0938 8.49349 35.957 8.93555C35.8203 9.3776 35.6403 9.76497 35.417 10.0977C35.1937 10.4258 34.9157 10.681 34.583 10.8633C34.2549 11.0456 33.863 11.1367 33.4072 11.1367C32.9515 11.1367 32.5391 11.0433 32.1699 10.8564C31.8053 10.6696 31.4932 10.4076 31.2334 10.0703C30.9736 9.73307 30.7731 9.33659 30.6318 8.88086C30.4951 8.42513 30.4268 7.92839 30.4268 7.39062ZM32.3955 7.24707V7.39062C32.3955 7.69596 32.4251 7.98079 32.4844 8.24512C32.5436 8.50944 32.6348 8.74414 32.7578 8.94922C32.8854 9.14974 33.0426 9.30697 33.2295 9.4209C33.4209 9.53027 33.6465 9.58496 33.9062 9.58496C34.2663 9.58496 34.5602 9.50977 34.7881 9.35938C35.016 9.20443 35.1868 8.99251 35.3008 8.72363C35.4147 8.45475 35.4808 8.14486 35.499 7.79395V6.89844C35.4899 6.61133 35.4512 6.35384 35.3828 6.12598C35.3145 5.89355 35.2188 5.69531 35.0957 5.53125C34.9727 5.36719 34.8132 5.23958 34.6172 5.14844C34.4212 5.05729 34.1888 5.01172 33.9199 5.01172C33.6602 5.01172 33.4346 5.07096 33.2432 5.18945C33.0563 5.30339 32.8991 5.46061 32.7715 5.66113C32.6484 5.86165 32.555 6.09863 32.4912 6.37207C32.4274 6.64095 32.3955 6.93262 32.3955 7.24707ZM42.7109 9.33203V6.03711C42.7109 5.80013 42.6722 5.59733 42.5947 5.42871C42.5173 5.25553 42.3965 5.12109 42.2324 5.02539C42.0729 4.92969 41.8656 4.88184 41.6104 4.88184C41.3916 4.88184 41.2025 4.92057 41.043 4.99805C40.8835 5.07096 40.7604 5.17806 40.6738 5.31934C40.5872 5.45605 40.5439 5.61784 40.5439 5.80469H38.5752C38.5752 5.49023 38.6481 5.19173 38.7939 4.90918C38.9398 4.62663 39.1517 4.37826 39.4297 4.16406C39.7077 3.94531 40.0381 3.77441 40.4209 3.65137C40.8083 3.52832 41.2412 3.4668 41.7197 3.4668C42.2939 3.4668 42.8044 3.5625 43.251 3.75391C43.6976 3.94531 44.0485 4.23242 44.3037 4.61523C44.5635 4.99805 44.6934 5.47656 44.6934 6.05078V9.21582C44.6934 9.62142 44.7184 9.9541 44.7686 10.2139C44.8187 10.4691 44.8916 10.6924 44.9873 10.8838V11H42.998C42.9023 10.7995 42.8294 10.5488 42.7793 10.248C42.7337 9.94271 42.7109 9.63737 42.7109 9.33203ZM42.9707 6.49512L42.9844 7.60938H41.8838C41.624 7.60938 41.3984 7.639 41.207 7.69824C41.0156 7.75749 40.8584 7.8418 40.7354 7.95117C40.6123 8.05599 40.5212 8.17904 40.4619 8.32031C40.4072 8.46159 40.3799 8.61654 40.3799 8.78516C40.3799 8.95378 40.4186 9.10645 40.4961 9.24316C40.5736 9.37533 40.6852 9.48014 40.8311 9.55762C40.9769 9.63053 41.1478 9.66699 41.3438 9.66699C41.64 9.66699 41.8975 9.60775 42.1162 9.48926C42.335 9.37077 42.5036 9.22493 42.6221 9.05176C42.7451 8.87858 42.8089 8.71452 42.8135 8.55957L43.333 9.39355C43.2601 9.5804 43.1598 9.77409 43.0322 9.97461C42.9092 10.1751 42.752 10.3643 42.5605 10.542C42.3691 10.7152 42.139 10.8587 41.8701 10.9727C41.6012 11.082 41.2822 11.1367 40.9131 11.1367C40.4437 11.1367 40.0176 11.0433 39.6348 10.8564C39.2565 10.665 38.9557 10.403 38.7324 10.0703C38.5137 9.73307 38.4043 9.35026 38.4043 8.92188C38.4043 8.53451 38.4772 8.19043 38.623 7.88965C38.7689 7.58887 38.9831 7.33594 39.2656 7.13086C39.5527 6.92122 39.9105 6.764 40.3389 6.65918C40.7673 6.5498 41.264 6.49512 41.8291 6.49512H42.9707ZM48.1797 5.2168V11H46.2109V3.60352H48.0635L48.1797 5.2168ZM50.4082 3.55566L50.374 5.38086C50.2783 5.36719 50.1621 5.35579 50.0254 5.34668C49.8932 5.33301 49.7725 5.32617 49.6631 5.32617C49.3851 5.32617 49.1436 5.36263 48.9385 5.43555C48.738 5.50391 48.5693 5.60645 48.4326 5.74316C48.3005 5.87988 48.2002 6.04622 48.1318 6.24219C48.068 6.43815 48.0316 6.66146 48.0225 6.91211L47.626 6.78906C47.626 6.31055 47.6738 5.87077 47.7695 5.46973C47.8652 5.06413 48.0042 4.71094 48.1865 4.41016C48.3734 4.10938 48.6012 3.87695 48.8701 3.71289C49.139 3.54883 49.4466 3.4668 49.793 3.4668C49.9023 3.4668 50.014 3.47591 50.1279 3.49414C50.2419 3.50781 50.3353 3.52832 50.4082 3.55566ZM59.1992 9.22949V3.60352H61.168V11H59.3154L59.1992 9.22949ZM59.418 7.71191L59.999 7.69824C59.999 8.19043 59.9421 8.64844 59.8281 9.07227C59.7142 9.49154 59.5433 9.85612 59.3154 10.166C59.0876 10.4714 58.8005 10.7106 58.4541 10.8838C58.1077 11.0524 57.6999 11.1367 57.2305 11.1367C56.8704 11.1367 56.5378 11.0866 56.2324 10.9863C55.9316 10.8815 55.6719 10.7197 55.4531 10.501C55.2389 10.2777 55.0703 9.99284 54.9473 9.64648C54.8288 9.29557 54.7695 8.87402 54.7695 8.38184V3.60352H56.7383V8.39551C56.7383 8.61426 56.7633 8.79883 56.8135 8.94922C56.8682 9.09961 56.9434 9.22266 57.0391 9.31836C57.1348 9.41406 57.2464 9.48242 57.374 9.52344C57.5062 9.56445 57.652 9.58496 57.8115 9.58496C58.2171 9.58496 58.5361 9.50293 58.7686 9.33887C59.0055 9.1748 59.1719 8.9515 59.2676 8.66895C59.3678 8.38184 59.418 8.06283 59.418 7.71191ZM64.5996 5.18262V11H62.6309V3.60352H64.4766L64.5996 5.18262ZM64.3125 7.04199H63.7793C63.7793 6.49512 63.8499 6.00293 63.9912 5.56543C64.1325 5.12337 64.3307 4.7474 64.5859 4.4375C64.8411 4.12305 65.1442 3.88379 65.4951 3.71973C65.8506 3.55111 66.2471 3.4668 66.6846 3.4668C67.0309 3.4668 67.3477 3.51693 67.6348 3.61719C67.9219 3.71745 68.168 3.87695 68.373 4.0957C68.5827 4.31445 68.7422 4.60384 68.8516 4.96387C68.9655 5.32389 69.0225 5.76367 69.0225 6.2832V11H67.04V6.27637C67.04 5.94824 66.9945 5.69303 66.9033 5.51074C66.8122 5.32845 66.6777 5.20085 66.5 5.12793C66.3268 5.05046 66.1126 5.01172 65.8574 5.01172C65.5931 5.01172 65.363 5.06413 65.167 5.16895C64.9756 5.27376 64.8161 5.4196 64.6885 5.60645C64.5654 5.78874 64.472 6.00293 64.4082 6.24902C64.3444 6.49512 64.3125 6.75944 64.3125 7.04199ZM74.5117 9.33203V6.03711C74.5117 5.80013 74.473 5.59733 74.3955 5.42871C74.318 5.25553 74.1973 5.12109 74.0332 5.02539C73.8737 4.92969 73.6663 4.88184 73.4111 4.88184C73.1924 4.88184 73.0033 4.92057 72.8438 4.99805C72.6842 5.07096 72.5612 5.17806 72.4746 5.31934C72.388 5.45605 72.3447 5.61784 72.3447 5.80469H70.376C70.376 5.49023 70.4489 5.19173 70.5947 4.90918C70.7406 4.62663 70.9525 4.37826 71.2305 4.16406C71.5085 3.94531 71.8389 3.77441 72.2217 3.65137C72.609 3.52832 73.042 3.4668 73.5205 3.4668C74.0947 3.4668 74.6051 3.5625 75.0518 3.75391C75.4984 3.94531 75.8493 4.23242 76.1045 4.61523C76.3643 4.99805 76.4941 5.47656 76.4941 6.05078V9.21582C76.4941 9.62142 76.5192 9.9541 76.5693 10.2139C76.6195 10.4691 76.6924 10.6924 76.7881 10.8838V11H74.7988C74.7031 10.7995 74.6302 10.5488 74.5801 10.248C74.5345 9.94271 74.5117 9.63737 74.5117 9.33203ZM74.7715 6.49512L74.7852 7.60938H73.6846C73.4248 7.60938 73.1992 7.639 73.0078 7.69824C72.8164 7.75749 72.6592 7.8418 72.5361 7.95117C72.4131 8.05599 72.3219 8.17904 72.2627 8.32031C72.208 8.46159 72.1807 8.61654 72.1807 8.78516C72.1807 8.95378 72.2194 9.10645 72.2969 9.24316C72.3743 9.37533 72.486 9.48014 72.6318 9.55762C72.7777 9.63053 72.9486 9.66699 73.1445 9.66699C73.4408 9.66699 73.6982 9.60775 73.917 9.48926C74.1357 9.37077 74.3044 9.22493 74.4229 9.05176C74.5459 8.87858 74.6097 8.71452 74.6143 8.55957L75.1338 9.39355C75.0609 9.5804 74.9606 9.77409 74.833 9.97461C74.71 10.1751 74.5527 10.3643 74.3613 10.542C74.1699 10.7152 73.9398 10.8587 73.6709 10.9727C73.402 11.082 73.083 11.1367 72.7139 11.1367C72.2445 11.1367 71.8184 11.0433 71.4355 10.8564C71.0573 10.665 70.7565 10.403 70.5332 10.0703C70.3145 9.73307 70.2051 9.35026 70.2051 8.92188C70.2051 8.53451 70.278 8.19043 70.4238 7.88965C70.5697 7.58887 70.7839 7.33594 71.0664 7.13086C71.3535 6.92122 71.7113 6.764 72.1396 6.65918C72.568 6.5498 73.0648 6.49512 73.6299 6.49512H74.7715ZM85.1211 3.60352V4.99805H80.8145V3.60352H85.1211ZM81.8809 1.77832H83.8496V8.77148C83.8496 8.98568 83.877 9.14974 83.9316 9.26367C83.9909 9.3776 84.0775 9.45736 84.1914 9.50293C84.3053 9.54395 84.4489 9.56445 84.6221 9.56445C84.7451 9.56445 84.8545 9.5599 84.9502 9.55078C85.0505 9.53711 85.1348 9.52344 85.2031 9.50977L85.21 10.959C85.0413 11.0137 84.859 11.057 84.6631 11.0889C84.4671 11.1208 84.2507 11.1367 84.0137 11.1367C83.5807 11.1367 83.2025 11.0661 82.8789 10.9248C82.5599 10.779 82.3138 10.5465 82.1406 10.2275C81.9674 9.90853 81.8809 9.48926 81.8809 8.96973V1.77832ZM90.2344 9.33203V6.03711C90.2344 5.80013 90.1956 5.59733 90.1182 5.42871C90.0407 5.25553 89.9199 5.12109 89.7559 5.02539C89.5964 4.92969 89.389 4.88184 89.1338 4.88184C88.915 4.88184 88.7259 4.92057 88.5664 4.99805C88.4069 5.07096 88.2839 5.17806 88.1973 5.31934C88.1107 5.45605 88.0674 5.61784 88.0674 5.80469H86.0986C86.0986 5.49023 86.1715 5.19173 86.3174 4.90918C86.4632 4.62663 86.6751 4.37826 86.9531 4.16406C87.2311 3.94531 87.5615 3.77441 87.9443 3.65137C88.3317 3.52832 88.7646 3.4668 89.2432 3.4668C89.8174 3.4668 90.3278 3.5625 90.7744 3.75391C91.221 3.94531 91.5719 4.23242 91.8271 4.61523C92.0869 4.99805 92.2168 5.47656 92.2168 6.05078V9.21582C92.2168 9.62142 92.2419 9.9541 92.292 10.2139C92.3421 10.4691 92.415 10.6924 92.5107 10.8838V11H90.5215C90.4258 10.7995 90.3529 10.5488 90.3027 10.248C90.2572 9.94271 90.2344 9.63737 90.2344 9.33203ZM90.4941 6.49512L90.5078 7.60938H89.4072C89.1475 7.60938 88.9219 7.639 88.7305 7.69824C88.5391 7.75749 88.3818 7.8418 88.2588 7.95117C88.1357 8.05599 88.0446 8.17904 87.9854 8.32031C87.9307 8.46159 87.9033 8.61654 87.9033 8.78516C87.9033 8.95378 87.9421 9.10645 88.0195 9.24316C88.097 9.37533 88.2087 9.48014 88.3545 9.55762C88.5003 9.63053 88.6712 9.66699 88.8672 9.66699C89.1634 9.66699 89.4209 9.60775 89.6396 9.48926C89.8584 9.37077 90.027 9.22493 90.1455 9.05176C90.2686 8.87858 90.3324 8.71452 90.3369 8.55957L90.8564 9.39355C90.7835 9.5804 90.6833 9.77409 90.5557 9.97461C90.4326 10.1751 90.2754 10.3643 90.084 10.542C89.8926 10.7152 89.6624 10.8587 89.3936 10.9727C89.1247 11.082 88.8057 11.1367 88.4365 11.1367C87.9671 11.1367 87.541 11.0433 87.1582 10.8564C86.7799 10.665 86.4792 10.403 86.2559 10.0703C86.0371 9.73307 85.9277 9.35026 85.9277 8.92188C85.9277 8.53451 86.0007 8.19043 86.1465 7.88965C86.2923 7.58887 86.5065 7.33594 86.7891 7.13086C87.0762 6.92122 87.4339 6.764 87.8623 6.65918C88.2907 6.5498 88.7874 6.49512 89.3525 6.49512H90.4941ZM95.7031 5.2168V11H93.7344V3.60352H95.5869L95.7031 5.2168ZM97.9316 3.55566L97.8975 5.38086C97.8018 5.36719 97.6855 5.35579 97.5488 5.34668C97.4167 5.33301 97.2959 5.32617 97.1865 5.32617C96.9085 5.32617 96.667 5.36263 96.4619 5.43555C96.2614 5.50391 96.0928 5.60645 95.9561 5.74316C95.8239 5.87988 95.7236 6.04622 95.6553 6.24219C95.5915 6.43815 95.555 6.66146 95.5459 6.91211L95.1494 6.78906C95.1494 6.31055 95.1973 5.87077 95.293 5.46973C95.3887 5.06413 95.5277 4.71094 95.71 4.41016C95.8968 4.10938 96.1247 3.87695 96.3936 3.71289C96.6624 3.54883 96.9701 3.4668 97.3164 3.4668C97.4258 3.4668 97.5374 3.47591 97.6514 3.49414C97.7653 3.50781 97.8587 3.52832 97.9316 3.55566ZM98.9707 3.60352H100.946V11.4443C100.946 11.9912 100.846 12.4538 100.646 12.832C100.445 13.2103 100.156 13.4974 99.7773 13.6934C99.3991 13.8893 98.9411 13.9873 98.4033 13.9873C98.2347 13.9873 98.0706 13.9782 97.9111 13.96C97.7471 13.9417 97.5785 13.9121 97.4053 13.8711L97.4121 12.3604C97.5215 12.3786 97.6286 12.3923 97.7334 12.4014C97.8337 12.415 97.9362 12.4219 98.041 12.4219C98.2461 12.4219 98.417 12.3877 98.5537 12.3193C98.6904 12.251 98.793 12.1439 98.8613 11.998C98.9342 11.8568 98.9707 11.6722 98.9707 11.4443V3.60352ZM98.8135 1.67578C98.8135 1.38867 98.9137 1.15169 99.1143 0.964844C99.3193 0.777995 99.5882 0.68457 99.9209 0.68457C100.258 0.68457 100.527 0.777995 100.728 0.964844C100.928 1.15169 101.028 1.38867 101.028 1.67578C101.028 1.96289 100.928 2.19987 100.728 2.38672C100.527 2.57357 100.258 2.66699 99.9209 2.66699C99.5882 2.66699 99.3193 2.57357 99.1143 2.38672C98.9137 2.19987 98.8135 1.96289 98.8135 1.67578ZM105.916 11.1367C105.342 11.1367 104.827 11.0456 104.371 10.8633C103.915 10.6764 103.528 10.4189 103.209 10.0908C102.895 9.7627 102.653 9.38216 102.484 8.94922C102.316 8.51172 102.231 8.04688 102.231 7.55469V7.28125C102.231 6.7207 102.311 6.20801 102.471 5.74316C102.63 5.27832 102.858 4.875 103.154 4.5332C103.455 4.19141 103.82 3.92936 104.248 3.74707C104.676 3.56022 105.16 3.4668 105.697 3.4668C106.221 3.4668 106.686 3.55339 107.092 3.72656C107.497 3.89974 107.837 4.14583 108.11 4.46484C108.388 4.78385 108.598 5.16667 108.739 5.61328C108.881 6.05534 108.951 6.54753 108.951 7.08984V7.91016H103.072V6.59766H107.017V6.44727C107.017 6.17383 106.966 5.93001 106.866 5.71582C106.771 5.49707 106.625 5.32389 106.429 5.19629C106.233 5.06868 105.982 5.00488 105.677 5.00488C105.417 5.00488 105.194 5.06185 105.007 5.17578C104.82 5.28971 104.667 5.44922 104.549 5.6543C104.435 5.85938 104.348 6.10091 104.289 6.37891C104.234 6.65234 104.207 6.95312 104.207 7.28125V7.55469C104.207 7.85091 104.248 8.12435 104.33 8.375C104.417 8.62565 104.537 8.84212 104.692 9.02441C104.852 9.20671 105.043 9.34798 105.267 9.44824C105.494 9.5485 105.752 9.59863 106.039 9.59863C106.395 9.59863 106.725 9.53027 107.03 9.39355C107.34 9.25228 107.607 9.04036 107.83 8.75781L108.787 9.79688C108.632 10.0202 108.42 10.2344 108.151 10.4395C107.887 10.6445 107.568 10.8132 107.194 10.9453C106.821 11.0729 106.395 11.1367 105.916 11.1367ZM113.695 3.60352V4.99805H109.389V3.60352H113.695ZM110.455 1.77832H112.424V8.77148C112.424 8.98568 112.451 9.14974 112.506 9.26367C112.565 9.3776 112.652 9.45736 112.766 9.50293C112.88 9.54395 113.023 9.56445 113.196 9.56445C113.319 9.56445 113.429 9.5599 113.524 9.55078C113.625 9.53711 113.709 9.52344 113.777 9.50977L113.784 10.959C113.616 11.0137 113.433 11.057 113.237 11.0889C113.041 11.1208 112.825 11.1367 112.588 11.1367C112.155 11.1367 111.777 11.0661 111.453 10.9248C111.134 10.779 110.888 10.5465 110.715 10.2275C110.542 9.90853 110.455 9.48926 110.455 8.96973V1.77832ZM118.809 9.33203V6.03711C118.809 5.80013 118.77 5.59733 118.692 5.42871C118.615 5.25553 118.494 5.12109 118.33 5.02539C118.171 4.92969 117.963 4.88184 117.708 4.88184C117.489 4.88184 117.3 4.92057 117.141 4.99805C116.981 5.07096 116.858 5.17806 116.771 5.31934C116.685 5.45605 116.642 5.61784 116.642 5.80469H114.673C114.673 5.49023 114.746 5.19173 114.892 4.90918C115.037 4.62663 115.249 4.37826 115.527 4.16406C115.805 3.94531 116.136 3.77441 116.519 3.65137C116.906 3.52832 117.339 3.4668 117.817 3.4668C118.392 3.4668 118.902 3.5625 119.349 3.75391C119.795 3.94531 120.146 4.23242 120.401 4.61523C120.661 4.99805 120.791 5.47656 120.791 6.05078V9.21582C120.791 9.62142 120.816 9.9541 120.866 10.2139C120.916 10.4691 120.989 10.6924 121.085 10.8838V11H119.096C119 10.7995 118.927 10.5488 118.877 10.248C118.831 9.94271 118.809 9.63737 118.809 9.33203ZM119.068 6.49512L119.082 7.60938H117.981C117.722 7.60938 117.496 7.639 117.305 7.69824C117.113 7.75749 116.956 7.8418 116.833 7.95117C116.71 8.05599 116.619 8.17904 116.56 8.32031C116.505 8.46159 116.478 8.61654 116.478 8.78516C116.478 8.95378 116.516 9.10645 116.594 9.24316C116.671 9.37533 116.783 9.48014 116.929 9.55762C117.075 9.63053 117.245 9.66699 117.441 9.66699C117.738 9.66699 117.995 9.60775 118.214 9.48926C118.433 9.37077 118.601 9.22493 118.72 9.05176C118.843 8.87858 118.907 8.71452 118.911 8.55957L119.431 9.39355C119.358 9.5804 119.257 9.77409 119.13 9.97461C119.007 10.1751 118.85 10.3643 118.658 10.542C118.467 10.7152 118.237 10.8587 117.968 10.9727C117.699 11.082 117.38 11.1367 117.011 11.1367C116.541 11.1367 116.115 11.0433 115.732 10.8564C115.354 10.665 115.053 10.403 114.83 10.0703C114.611 9.73307 114.502 9.35026 114.502 8.92188C114.502 8.53451 114.575 8.19043 114.721 7.88965C114.867 7.58887 115.081 7.33594 115.363 7.13086C115.65 6.92122 116.008 6.764 116.437 6.65918C116.865 6.5498 117.362 6.49512 117.927 6.49512H119.068ZM133.711 6.87109L129.329 5.30566V3.4668L135.283 5.96875V7.28809L133.711 6.87109ZM129.329 8.18359L133.718 6.58398L135.283 6.20801V7.52051L129.329 10.0225V8.18359Z" fill="#FA790E"/>
</svg>
