<svg xmlns="http://www.w3.org/2000/svg" viewBox="0 0 141.7 141.7">
  <title>ssmenu_2</title>
  <g>
    <rect width="141.7" height="141.73" rx="35" fill="#fff"/>
    <g>
      <g>
        <path d="M66.2,84.2l.9-.6a2.8,2.8,0,0,1,.1,1.8A3.2,3.2,0,0,1,64,87.5a3.9,3.9,0,0,1-2-1.3,3.6,3.6,0,0,1-.9-2.4,2.7,2.7,0,0,1,1.1-1.9,2.7,2.7,0,0,1,2.1-.6,3.7,3.7,0,0,1,2.1,1.3v.3l-3.6,2.8a2.9,2.9,0,0,0,1.4.8,1.7,1.7,0,0,0,1.4-.3,2,2,0,0,0,.6-.9A4.1,4.1,0,0,0,66.2,84.2Zm-3.7.8,2.6-2.1a1.6,1.6,0,0,0-2.3-.4,1.9,1.9,0,0,0-.7,1.1A2.3,2.3,0,0,0,62.5,85Z" fill="#060606"/>
        <path d="M68.7,84.7,65,79.9l.7-.6.6.7a1.7,1.7,0,0,1,0-1,.9.9,0,0,1,.3-.6,2.1,2.1,0,0,1,1.1-.4l.3,1a.9.9,0,0,0-.7.3,1,1,0,0,0-.4.5c-.1.2,0,.5,0,.7a3.6,3.6,0,0,0,.7,1l1.9,2.6Z" fill="#060606"/>
        <g>
          <path d="M73.3,81.1l-5.5-3.4.8-.7,3.3,2.1,1,.7a7.6,7.6,0,0,0-.4-1.1l-1.2-3.8.8-.6,2,6.2Z" fill="#060606"/>
          <path d="M72.2,72.8l-.8-.9.9-.7.7,1Zm4.4,5.7-3.7-4.8.8-.6,3.7,4.8Z" fill="#060606"/>
        </g>
      </g>
      <path d="M53.8,109.2,85.2,81.8a8.6,8.6,0,0,0,.9-12.1l-.9-.9-1.4-1.2a8,8,0,0,0-10.8.3l-9.3,9a5,5,0,0,1-7.1-.1,4.4,4.4,0,0,1-.8-1.1L55,74.2a9,9,0,0,1,1.7-10.7L90.3,31.8" fill="#060606" fill-opacity="0" stroke="#060606" stroke-width="2.61"/>
      <path d="M125.3,35.9c0,.1.1,1.4.4,3.9.1.3-.1.5-.4.6h-.4l-.3-.2a8.6,8.6,0,0,1-1.8-1.4l-3.2-3.6h-.2c0,.1-.1.1-.1.2s2.2,4.7,2.8,6.1,0,.2-.1.2h0c0,.1-.1.1-.2,0l-3.7-3.1h-.2l1.7,3.7a3.5,3.5,0,0,1-.6,3.9l-1,1.1-.8.5a3,3,0,0,1-2.1-.1c-1.2-.4-3.8-4.1-1.3-5.9s4.2,1.2,4.7,1.8a2.4,2.4,0,0,1-.1,3.2L116.3,49c-2,1.7-3.4,3.4-3.5,3.3s1.3-1.1,1.1-2.3a3,3,0,0,0-.8-1.6h0a3,3,0,0,1,.8,1.6,3,3,0,0,1-2.7,3c-1.9,0-2.9-3-3-4.6a2.8,2.8,0,0,1,.5-2.1,2.1,2.1,0,0,1,2.6.1s-1.4-.9-2.3-.3a1.6,1.6,0,0,0-.7.9c-.8,2.3,2.1,4.9,1.1,6.5s-2.2,1.4-2.6,1a1,1,0,0,1,0-1.3,1.1,1.1,0,0,1,1.4-.2,1.9,1.9,0,0,1-.6,2.2c-2.5,1.1-9.6,2.6-13.3,4.7s-13,6.6-18.6,9.8a47.6,47.6,0,0,1-16.1,5.2,18.8,18.8,0,0,0-12.8,8.2L39.1,94.9A11.3,11.3,0,0,1,33,99.5l-3.5,1.2a44.5,44.5,0,0,0-14.7,7.9l-.5.4-2,1.6" fill="#060606" fill-opacity="0" stroke="#a09f9f" stroke-width="0.65"/>
      <g>
        <path d="M86.5,66.9a2.9,2.9,0,0,1-.8-2.5,2.5,2.5,0,0,1,1.1-1.7,2.8,2.8,0,0,1,2.1-.7A4.2,4.2,0,0,1,91,63.3a3.8,3.8,0,0,1,.8,1.7,2.6,2.6,0,0,1-.2,1.5,3.4,3.4,0,0,1-.9,1.2,2.6,2.6,0,0,1-2.1.6A3.2,3.2,0,0,1,86.5,66.9Zm.8-.6a2.5,2.5,0,0,0,1.5,1,1.7,1.7,0,0,0,2-1.3v-.2c.1-.6-.2-1.1-.7-1.8a2.4,2.4,0,0,0-1.4-1,1.7,1.7,0,0,0-2,1.4v.2A2.7,2.7,0,0,0,87.3,66.3Z" fill="#060606"/>
        <path d="M94,65l-3.3-4.2-.7.5-.5-.6.7-.5-.4-.6-.5-.7a1.4,1.4,0,0,1,0-.9,2.7,2.7,0,0,1,.7-.8l.8-.5.5.8-.5.3a.7.7,0,0,0-.4.6,1.1,1.1,0,0,0,.3.7l.3.4,1-.7.4.6-.9.7,3.3,4.2Z" fill="#060606"/>
        <g>
          <path d="M97.8,60.8l.7.6-.6.6a2,2,0,0,1-.8.4h-.6a7.6,7.6,0,0,1-.9-.9l-2.1-2.8-.6.5-.5-.6L93,58l-1-1.2.5-1.1,1.3,1.7.8-.6.5.6-.8.6,2.2,2.8a.8.8,0,0,0,.4.4h.2l.4-.2Z" fill="#060606"/>
          <path d="M97.7,59.7l.7-.7a1.8,1.8,0,0,0,1,.4,1.3,1.3,0,0,0,1-.4,1.6,1.6,0,0,0,.7-.9,1,1,0,0,0-.2-.7.6.6,0,0,0-.6-.3l-1,.4-1.5.6a1.4,1.4,0,0,1-.9-.1,1.2,1.2,0,0,1-.7-.5.9.9,0,0,1-.3-.7c-.1-.2,0-.5,0-.7a1.6,1.6,0,0,1,.4-.7l.6-.6a2.4,2.4,0,0,1,1.1-.6,1.2,1.2,0,0,1,1-.1l.8.5-.7.8a1,1,0,0,0-.7-.4,1.3,1.3,0,0,0-.9.4,1.8,1.8,0,0,0-.7.8.7.7,0,0,0,.1.6l.3.2a.4.4,0,0,0,.5,0l.9-.4,1.5-.5a1.4,1.4,0,0,1,1.6.5,1.8,1.8,0,0,1,.4,1,2,2,0,0,1-.3,1.1,3.9,3.9,0,0,1-.8,1,2.9,2.9,0,0,1-1.8.7A2.3,2.3,0,0,1,97.7,59.7Z" fill="#060606"/>
        </g>
      </g>
      <path d="M27.8,127.4,59.2,100A8.7,8.7,0,0,0,60,87.8l-.8-.8-1.5-1.2a7.9,7.9,0,0,0-10.7.3l-9.3,9a5.1,5.1,0,0,1-7.2-.1,10.5,10.5,0,0,1-.8-1.1L29,92.4a9,9,0,0,1,1.7-10.7L64.2,50" fill="#060606" fill-opacity="0" stroke="#060606" stroke-width="2.61"/>
    </g>
  </g>
</svg>
