<svg xmlns="http://www.w3.org/2000/svg" viewBox="0 0 344.63 257.25"><defs><style>.cls-1{fill:#8dbf3b;}.cls-2{fill:#e73434;}</style></defs><title>traspaso</title><g id="Capa_2" data-name="Capa 2"><g id="Capa_1-2" data-name="Capa 1"><path class="cls-1" d="M9.51,151.21l127.24,99c10.22,9.17,22.73,8.93,28.82,1.87,4.47-5.18,4.38-12.73,4.26-15.19,1.33-114.43,1.27-198.55-.12-217.65-.27-3.62-1.21-10.77-5.73-15C158.05-1.26,148.4-1,141.11,5.67L9.75,107.78C6.17,110.56.56,118,0,127.69-.53,138.16,5.64,146.75,9.51,151.21Z"/><path class="cls-2" d="M335.11,106,207.69,7c-10.23-9.16-22.76-8.92-28.86-1.86-4.47,5.17-4.39,12.72-4.26,15.19-1.34,114.43-1.27,198.55.12,217.65.26,3.62,1.2,10.76,5.74,15,5.93,5.52,15.59,5.27,22.89-1.42l131.55-102.1c3.58-2.79,9.2-10.21,9.72-19.92C345.16,119.08,339,110.5,335.11,106Z"/></g></g></svg>